<svg version="1.1" viewBox="0.0 0.0 600.0 371.0" fill="none" stroke="none" stroke-linecap="square" stroke-miterlimit="10" width="600" height="371" xmlns:xlink="http://www.w3.org/1999/xlink" xmlns="http://www.w3.org/2000/svg"><path fill="#ffffff" d="M0 0L600.0 0L600.0 371.0L0 371.0L0 0Z" fill-rule="nonzero"/><path stroke="#333333" stroke-width="1.0" stroke-linecap="butt" d="M45.5 332.5L581.5 332.5" fill-rule="nonzero"/><path stroke="#cccccc" stroke-width="1.0" stroke-linecap="butt" d="M45.5 270.5L581.5 270.5" fill-rule="nonzero"/><path stroke="#cccccc" stroke-width="1.0" stroke-linecap="butt" d="M45.5 208.5L581.5 208.5" fill-rule="nonzero"/><path stroke="#cccccc" stroke-width="1.0" stroke-linecap="butt" d="M45.5 147.5L581.5 147.5" fill-rule="nonzero"/><path stroke="#cccccc" stroke-width="1.0" stroke-linecap="butt" d="M45.5 85.5L581.5 85.5" fill-rule="nonzero"/><clipPath id="id_0"><path d="M45.55 85.416664L581.45 85.416664L581.45 332.45L45.55 332.45L45.55 85.416664Z" clip-rule="nonzero"/></clipPath><path stroke="#000000" stroke-width="2.0" stroke-linecap="butt" stroke-opacity="0.0" clip-path="url(#id_0)" d="M206.0 332.0L102.0 332.0L102.0 289.0C102.0 287.89542 102.89543 287.0 104.0 287.0L204.0 287.0C205.10457 287.0 206.0 287.89542 206.0 289.0Z" fill-rule="nonzero"/><path fill="#4285f4" clip-path="url(#id_0)" d="M206.0 332.0L102.0 332.0L102.0 289.0C102.0 287.89542 102.89543 287.0 104.0 287.0L204.0 287.0C205.10457 287.0 206.0 287.89542 206.0 289.0Z" fill-rule="nonzero"/><path stroke="#000000" stroke-width="2.0" stroke-linecap="butt" stroke-opacity="0.0" clip-path="url(#id_0)" d="M366.0 332.0L262.0 332.0L262.0 217.0C262.0 215.89543 262.89542 215.0 264.0 215.0L364.0 215.0C365.10458 215.0 366.0 215.89543 366.0 217.0Z" fill-rule="nonzero"/><path fill="#e69138" clip-path="url(#id_0)" d="M366.0 332.0L262.0 332.0L262.0 217.0C262.0 215.89543 262.89542 215.0 264.0 215.0L364.0 215.0C365.10458 215.0 366.0 215.89543 366.0 217.0Z" fill-rule="nonzero"/><path stroke="#000000" stroke-width="2.0" stroke-linecap="butt" stroke-opacity="0.0" clip-path="url(#id_0)" d="M525.0 332.0L421.0 332.0L421.0 149.0C421.0 147.89543 421.89542 147.0 423.0 147.0L523.0 147.0C524.10455 147.0 525.0 147.89543 525.0 149.0Z" fill-rule="nonzero"/><path fill="#cc0000" clip-path="url(#id_0)" d="M525.0 332.0L421.0 332.0L421.0 149.0C421.0 147.89543 421.89542 147.0 423.0 147.0L523.0 147.0C524.10455 147.0 525.0 147.89543 525.0 149.0Z" fill-rule="nonzero"/><path stroke="#4285f4" stroke-width="3.0" stroke-linejoin="round" stroke-linecap="round" d="M132.76562 303.48706L131.6875 303.48706L131.6875 296.2683L129.5 297.0652L129.5 296.0808L132.60938 294.90894L132.76562 294.90894L132.76562 303.48706ZM136.34375 302.92456Q136.34375 302.6433 136.5 302.4558Q136.67188 302.2683 137.0 302.2683Q137.34375 302.2683 137.51562 302.4558Q137.6875 302.6433 137.6875 302.92456Q137.6875 303.1902 137.51562 303.3777Q137.34375 303.54956 137.0 303.54956Q136.67188 303.54956 136.5 303.3777Q136.34375 303.1902 136.34375 302.92456ZM143.78125 300.6277L144.96875 300.6277L144.96875 301.5027L143.78125 301.5027L143.78125 303.48706L142.70312 303.48706L142.70312 301.5027L138.8125 301.5027L138.8125 300.86206L142.625 294.9558L143.78125 294.9558L143.78125 300.6277ZM140.04688 300.6277L142.70312 300.6277L142.70312 296.4402L142.5625 296.67456L140.04688 300.6277ZM151.39062 297.17456Q151.39062 297.8152 151.04688 298.3152Q150.70312 298.8152 150.14062 299.09644Q150.79688 299.3777 151.1875 299.9402Q151.57812 300.48706 151.57812 301.1902Q151.57812 302.28394 150.82812 302.9558Q150.09375 303.61206 148.875 303.61206Q147.64062 303.61206 146.89062 302.9558Q146.15625 302.28394 146.15625 301.1902Q146.15625 300.48706 146.53125 299.9402Q146.90625 299.3777 147.57812 299.09644Q147.01562 298.8152 146.6875 298.3152Q146.35938 297.8152 146.35938 297.17456Q146.35938 296.09644 147.04688 295.47144Q147.73438 294.8308 148.875 294.8308Q150.0 294.8308 150.6875 295.47144Q151.39062 296.09644 151.39062 297.17456ZM150.5 301.15894Q150.5 300.4402 150.04688 300.0027Q149.59375 299.54956 148.85938 299.54956Q148.125 299.54956 147.67188 300.0027Q147.23438 300.4402 147.23438 301.17456Q147.23438 301.8933 147.67188 302.3152Q148.10938 302.72144 148.875 302.72144Q149.625 302.72144 150.0625 302.29956Q150.5 301.8777 150.5 301.15894ZM148.875 295.72144Q148.23438 295.72144 147.82812 296.1277Q147.4375 296.5183 147.4375 297.2058Q147.4375 297.84644 147.82812 298.2527Q148.21875 298.65894 148.85938 298.65894Q149.51562 298.65894 149.90625 298.2527Q150.29688 297.84644 150.29688 297.2058Q150.29688 296.54956 149.89062 296.1433Q149.48438 295.72144 148.875 295.72144ZM158.79688 303.48706L153.20312 303.48706L153.20312 302.7058L156.15625 299.42456Q156.8125 298.67456 157.0625 298.22144Q157.3125 297.7527 157.3125 297.2527Q157.3125 296.5808 156.90625 296.15894Q156.51562 295.72144 155.82812 295.72144Q155.03125 295.72144 154.57812 296.1902Q154.125 296.6433 154.125 297.47144L153.04688 297.47144Q153.04688 296.28394 153.79688 295.5652Q154.5625 294.8308 155.82812 294.8308Q157.03125 294.8308 157.71875 295.4558Q158.40625 296.0808 158.40625 297.1277Q158.40625 298.3777 156.79688 300.1277L154.51562 302.59644L158.79688 302.59644L158.79688 303.48706ZM164.34375 297.1433L164.375 297.84644Q165.0625 297.03394 166.25 297.03394Q167.57812 297.03394 168.0625 298.04956Q168.375 297.59644 168.875 297.3152Q169.39062 297.03394 170.07812 297.03394Q172.17188 297.03394 172.20312 299.23706L172.20312 303.48706L171.125 303.48706L171.125 299.29956Q171.125 298.6277 170.8125 298.29956Q170.5 297.9558 169.76562 297.9558Q169.15625 297.9558 168.75 298.3152Q168.35938 298.67456 168.29688 299.28394L168.29688 303.48706L167.21875 303.48706L167.21875 299.3308Q167.21875 297.9558 165.85938 297.9558Q164.79688 297.9558 164.40625 298.86206L164.40625 303.48706L163.3125 303.48706L163.3125 297.1433L164.34375 297.1433ZM178.01562 301.79956Q178.01562 301.36206 177.67188 301.1277Q177.34375 300.8777 176.51562 300.7058Q175.70312 300.53394 175.21875 300.28394Q174.73438 300.03394 174.5 299.7058Q174.28125 299.36206 174.28125 298.8933Q174.28125 298.11206 174.9375 297.5808Q175.59375 297.03394 176.625 297.03394Q177.70312 297.03394 178.35938 297.59644Q179.03125 298.1433 179.03125 299.0027L177.95312 299.0027Q177.95312 298.5652 177.5625 298.2527Q177.1875 297.92456 176.625 297.92456Q176.03125 297.92456 175.6875 298.1902Q175.35938 298.4402 175.35938 298.84644Q175.35938 299.23706 175.67188 299.4402Q175.98438 299.6433 176.79688 299.8308Q177.60938 300.0027 178.10938 300.2527Q178.60938 300.5027 178.84375 300.86206Q179.09375 301.22144 179.09375 301.72144Q179.09375 302.5808 178.40625 303.09644Q177.73438 303.61206 176.65625 303.61206Q175.89062 303.61206 175.29688 303.34644Q174.71875 303.0652 174.39062 302.5808Q174.0625 302.09644 174.0625 301.53394L175.14062 301.53394Q175.17188 302.0808 175.57812 302.40894Q175.98438 302.72144 176.65625 302.72144Q177.26562 302.72144 177.64062 302.47144Q178.01562 302.22144 178.01562 301.79956Z" fill-rule="nonzero"/><path fill="#ffffff" d="M132.76562 303.48706L131.6875 303.48706L131.6875 296.2683L129.5 297.0652L129.5 296.0808L132.60938 294.90894L132.76562 294.90894L132.76562 303.48706ZM136.34375 302.92456Q136.34375 302.6433 136.5 302.4558Q136.67188 302.2683 137.0 302.2683Q137.34375 302.2683 137.51562 302.4558Q137.6875 302.6433 137.6875 302.92456Q137.6875 303.1902 137.51562 303.3777Q137.34375 303.54956 137.0 303.54956Q136.67188 303.54956 136.5 303.3777Q136.34375 303.1902 136.34375 302.92456ZM143.78125 300.6277L144.96875 300.6277L144.96875 301.5027L143.78125 301.5027L143.78125 303.48706L142.70312 303.48706L142.70312 301.5027L138.8125 301.5027L138.8125 300.86206L142.625 294.9558L143.78125 294.9558L143.78125 300.6277ZM140.04688 300.6277L142.70312 300.6277L142.70312 296.4402L142.5625 296.67456L140.04688 300.6277ZM151.39062 297.17456Q151.39062 297.8152 151.04688 298.3152Q150.70312 298.8152 150.14062 299.09644Q150.79688 299.3777 151.1875 299.9402Q151.57812 300.48706 151.57812 301.1902Q151.57812 302.28394 150.82812 302.9558Q150.09375 303.61206 148.875 303.61206Q147.64062 303.61206 146.89062 302.9558Q146.15625 302.28394 146.15625 301.1902Q146.15625 300.48706 146.53125 299.9402Q146.90625 299.3777 147.57812 299.09644Q147.01562 298.8152 146.6875 298.3152Q146.35938 297.8152 146.35938 297.17456Q146.35938 296.09644 147.04688 295.47144Q147.73438 294.8308 148.875 294.8308Q150.0 294.8308 150.6875 295.47144Q151.39062 296.09644 151.39062 297.17456ZM150.5 301.15894Q150.5 300.4402 150.04688 300.0027Q149.59375 299.54956 148.85938 299.54956Q148.125 299.54956 147.67188 300.0027Q147.23438 300.4402 147.23438 301.17456Q147.23438 301.8933 147.67188 302.3152Q148.10938 302.72144 148.875 302.72144Q149.625 302.72144 150.0625 302.29956Q150.5 301.8777 150.5 301.15894ZM148.875 295.72144Q148.23438 295.72144 147.82812 296.1277Q147.4375 296.5183 147.4375 297.2058Q147.4375 297.84644 147.82812 298.2527Q148.21875 298.65894 148.85938 298.65894Q149.51562 298.65894 149.90625 298.2527Q150.29688 297.84644 150.29688 297.2058Q150.29688 296.54956 149.89062 296.1433Q149.48438 295.72144 148.875 295.72144ZM158.79688 303.48706L153.20312 303.48706L153.20312 302.7058L156.15625 299.42456Q156.8125 298.67456 157.0625 298.22144Q157.3125 297.7527 157.3125 297.2527Q157.3125 296.5808 156.90625 296.15894Q156.51562 295.72144 155.82812 295.72144Q155.03125 295.72144 154.57812 296.1902Q154.125 296.6433 154.125 297.47144L153.04688 297.47144Q153.04688 296.28394 153.79688 295.5652Q154.5625 294.8308 155.82812 294.8308Q157.03125 294.8308 157.71875 295.4558Q158.40625 296.0808 158.40625 297.1277Q158.40625 298.3777 156.79688 300.1277L154.51562 302.59644L158.79688 302.59644L158.79688 303.48706ZM164.34375 297.1433L164.375 297.84644Q165.0625 297.03394 166.25 297.03394Q167.57812 297.03394 168.0625 298.04956Q168.375 297.59644 168.875 297.3152Q169.39062 297.03394 170.07812 297.03394Q172.17188 297.03394 172.20312 299.23706L172.20312 303.48706L171.125 303.48706L171.125 299.29956Q171.125 298.6277 170.8125 298.29956Q170.5 297.9558 169.76562 297.9558Q169.15625 297.9558 168.75 298.3152Q168.35938 298.67456 168.29688 299.28394L168.29688 303.48706L167.21875 303.48706L167.21875 299.3308Q167.21875 297.9558 165.85938 297.9558Q164.79688 297.9558 164.40625 298.86206L164.40625 303.48706L163.3125 303.48706L163.3125 297.1433L164.34375 297.1433ZM178.01562 301.79956Q178.01562 301.36206 177.67188 301.1277Q177.34375 300.8777 176.51562 300.7058Q175.70312 300.53394 175.21875 300.28394Q174.73438 300.03394 174.5 299.7058Q174.28125 299.36206 174.28125 298.8933Q174.28125 298.11206 174.9375 297.5808Q175.59375 297.03394 176.625 297.03394Q177.70312 297.03394 178.35938 297.59644Q179.03125 298.1433 179.03125 299.0027L177.95312 299.0027Q177.95312 298.5652 177.5625 298.2527Q177.1875 297.92456 176.625 297.92456Q176.03125 297.92456 175.6875 298.1902Q175.35938 298.4402 175.35938 298.84644Q175.35938 299.23706 175.67188 299.4402Q175.98438 299.6433 176.79688 299.8308Q177.60938 300.0027 178.10938 300.2527Q178.60938 300.5027 178.84375 300.86206Q179.09375 301.22144 179.09375 301.72144Q179.09375 302.5808 178.40625 303.09644Q177.73438 303.61206 176.65625 303.61206Q175.89062 303.61206 175.29688 303.34644Q174.71875 303.0652 174.39062 302.5808Q174.0625 302.09644 174.0625 301.53394L175.14062 301.53394Q175.17188 302.0808 175.57812 302.40894Q175.98438 302.72144 176.65625 302.72144Q177.26562 302.72144 177.64062 302.47144Q178.01562 302.22144 178.01562 301.79956Z" fill-rule="nonzero"/><path stroke="#e69138" stroke-width="3.0" stroke-linejoin="round" stroke-linecap="round" d="M290.78125 226.55647L291.59375 226.55647Q292.375 226.54085 292.8125 226.15022Q293.25 225.7596 293.25 225.08772Q293.25 223.58772 291.75 223.58772Q291.04688 223.58772 290.625 223.99397Q290.21875 224.40022 290.21875 225.05647L289.125 225.05647Q289.125 224.04085 289.85938 223.36897Q290.60938 222.6971 291.75 222.6971Q292.95312 222.6971 293.64062 223.33772Q294.32812 223.97835 294.32812 225.11897Q294.32812 225.68147 293.96875 226.1971Q293.60938 226.71272 292.98438 226.97835Q293.6875 227.1971 294.0625 227.71272Q294.45312 228.22835 294.45312 228.97835Q294.45312 230.11897 293.70312 230.80647Q292.95312 231.47835 291.75 231.47835Q290.5625 231.47835 289.79688 230.8221Q289.04688 230.16585 289.04688 229.10335L290.14062 229.10335Q290.14062 229.77522 290.57812 230.18147Q291.01562 230.58772 291.76562 230.58772Q292.54688 230.58772 292.95312 230.18147Q293.375 229.7596 293.375 228.99397Q293.375 228.2596 292.92188 227.86897Q292.46875 227.46272 291.59375 227.4471L290.78125 227.4471L290.78125 226.55647ZM296.34375 230.79085Q296.34375 230.5096 296.5 230.3221Q296.67188 230.1346 297.0 230.1346Q297.34375 230.1346 297.51562 230.3221Q297.6875 230.5096 297.6875 230.79085Q297.6875 231.05647 297.51562 231.24397Q297.34375 231.41585 297.0 231.41585Q296.67188 231.41585 296.5 231.24397Q296.34375 231.05647 296.34375 230.79085ZM304.39062 225.04085Q304.39062 225.68147 304.04688 226.18147Q303.70312 226.68147 303.14062 226.96272Q303.79688 227.24397 304.1875 227.80647Q304.57812 228.35335 304.57812 229.05647Q304.57812 230.15022 303.82812 230.8221Q303.09375 231.47835 301.875 231.47835Q300.64062 231.47835 299.89062 230.8221Q299.15625 230.15022 299.15625 229.05647Q299.15625 228.35335 299.53125 227.80647Q299.90625 227.24397 300.57812 226.96272Q300.01562 226.68147 299.6875 226.18147Q299.35938 225.68147 299.35938 225.04085Q299.35938 223.96272 300.04688 223.33772Q300.73438 222.6971 301.875 222.6971Q303.0 222.6971 303.6875 223.33772Q304.39062 223.96272 304.39062 225.04085ZM303.5 229.02522Q303.5 228.30647 303.04688 227.86897Q302.59375 227.41585 301.85938 227.41585Q301.125 227.41585 300.67188 227.86897Q300.23438 228.30647 300.23438 229.04085Q300.23438 229.7596 300.67188 230.18147Q301.10938 230.58772 301.875 230.58772Q302.625 230.58772 303.0625 230.16585Q303.5 229.74397 303.5 229.02522ZM301.875 223.58772Q301.23438 223.58772 300.82812 223.99397Q300.4375 224.3846 300.4375 225.0721Q300.4375 225.71272 300.82812 226.11897Q301.21875 226.52522 301.85938 226.52522Q302.51562 226.52522 302.90625 226.11897Q303.29688 225.71272 303.29688 225.0721Q303.29688 224.41585 302.89062 224.0096Q302.48438 223.58772 301.875 223.58772ZM309.76562 231.35335L308.6875 231.35335L308.6875 224.1346L306.5 224.93147L306.5 223.9471L309.60938 222.77522L309.76562 222.77522L309.76562 231.35335ZM318.39062 225.04085Q318.39062 225.68147 318.04688 226.18147Q317.70312 226.68147 317.14062 226.96272Q317.79688 227.24397 318.1875 227.80647Q318.57812 228.35335 318.57812 229.05647Q318.57812 230.15022 317.82812 230.8221Q317.09375 231.47835 315.875 231.47835Q314.64062 231.47835 313.89062 230.8221Q313.15625 230.15022 313.15625 229.05647Q313.15625 228.35335 313.53125 227.80647Q313.90625 227.24397 314.57812 226.96272Q314.01562 226.68147 313.6875 226.18147Q313.35938 225.68147 313.35938 225.04085Q313.35938 223.96272 314.04688 223.33772Q314.73438 222.6971 315.875 222.6971Q317.0 222.6971 317.6875 223.33772Q318.39062 223.96272 318.39062 225.04085ZM317.5 229.02522Q317.5 228.30647 317.04688 227.86897Q316.59375 227.41585 315.85938 227.41585Q315.125 227.41585 314.67188 227.86897Q314.23438 228.30647 314.23438 229.04085Q314.23438 229.7596 314.67188 230.18147Q315.10938 230.58772 315.875 230.58772Q316.625 230.58772 317.0625 230.16585Q317.5 229.74397 317.5 229.02522ZM315.875 223.58772Q315.23438 223.58772 314.82812 223.99397Q314.4375 224.3846 314.4375 225.0721Q314.4375 225.71272 314.82812 226.11897Q315.21875 226.52522 315.85938 226.52522Q316.51562 226.52522 316.90625 226.11897Q317.29688 225.71272 317.29688 225.0721Q317.29688 224.41585 316.89062 224.0096Q316.48438 223.58772 315.875 223.58772ZM324.34375 225.0096L324.375 225.71272Q325.0625 224.90022 326.25 224.90022Q327.57812 224.90022 328.0625 225.91585Q328.375 225.46272 328.875 225.18147Q329.39062 224.90022 330.07812 224.90022Q332.17188 224.90022 332.20312 227.10335L332.20312 231.35335L331.125 231.35335L331.125 227.16585Q331.125 226.49397 330.8125 226.16585Q330.5 225.8221 329.76562 225.8221Q329.15625 225.8221 328.75 226.18147Q328.35938 226.54085 328.29688 227.15022L328.29688 231.35335L327.21875 231.35335L327.21875 227.1971Q327.21875 225.8221 325.85938 225.8221Q324.79688 225.8221 324.40625 226.72835L324.40625 231.35335L323.3125 231.35335L323.3125 225.0096L324.34375 225.0096ZM338.01562 229.66585Q338.01562 229.22835 337.67188 228.99397Q337.34375 228.74397 336.51562 228.5721Q335.70312 228.40022 335.21875 228.15022Q334.73438 227.90022 334.5 227.5721Q334.28125 227.22835 334.28125 226.7596Q334.28125 225.97835 334.9375 225.4471Q335.59375 224.90022 336.625 224.90022Q337.70312 224.90022 338.35938 225.46272Q339.03125 226.0096 339.03125 226.86897L337.95312 226.86897Q337.95312 226.43147 337.5625 226.11897Q337.1875 225.79085 336.625 225.79085Q336.03125 225.79085 335.6875 226.05647Q335.35938 226.30647 335.35938 226.71272Q335.35938 227.10335 335.67188 227.30647Q335.98438 227.5096 336.79688 227.6971Q337.60938 227.86897 338.10938 228.11897Q338.60938 228.36897 338.84375 228.72835Q339.09375 229.08772 339.09375 229.58772Q339.09375 230.4471 338.40625 230.96272Q337.73438 231.47835 336.65625 231.47835Q335.89062 231.47835 335.29688 231.21272Q334.71875 230.93147 334.39062 230.4471Q334.0625 229.96272 334.0625 229.40022L335.14062 229.40022Q335.17188 229.9471 335.57812 230.27522Q335.98438 230.58772 336.65625 230.58772Q337.26562 230.58772 337.64062 230.33772Q338.01562 230.08772 338.01562 229.66585Z" fill-rule="nonzero"/><path fill="#000000" d="M290.78125 226.55647L291.59375 226.55647Q292.375 226.54085 292.8125 226.15022Q293.25 225.7596 293.25 225.08772Q293.25 223.58772 291.75 223.58772Q291.04688 223.58772 290.625 223.99397Q290.21875 224.40022 290.21875 225.05647L289.125 225.05647Q289.125 224.04085 289.85938 223.36897Q290.60938 222.6971 291.75 222.6971Q292.95312 222.6971 293.64062 223.33772Q294.32812 223.97835 294.32812 225.11897Q294.32812 225.68147 293.96875 226.1971Q293.60938 226.71272 292.98438 226.97835Q293.6875 227.1971 294.0625 227.71272Q294.45312 228.22835 294.45312 228.97835Q294.45312 230.11897 293.70312 230.80647Q292.95312 231.47835 291.75 231.47835Q290.5625 231.47835 289.79688 230.8221Q289.04688 230.16585 289.04688 229.10335L290.14062 229.10335Q290.14062 229.77522 290.57812 230.18147Q291.01562 230.58772 291.76562 230.58772Q292.54688 230.58772 292.95312 230.18147Q293.375 229.7596 293.375 228.99397Q293.375 228.2596 292.92188 227.86897Q292.46875 227.46272 291.59375 227.4471L290.78125 227.4471L290.78125 226.55647ZM296.34375 230.79085Q296.34375 230.5096 296.5 230.3221Q296.67188 230.1346 297.0 230.1346Q297.34375 230.1346 297.51562 230.3221Q297.6875 230.5096 297.6875 230.79085Q297.6875 231.05647 297.51562 231.24397Q297.34375 231.41585 297.0 231.41585Q296.67188 231.41585 296.5 231.24397Q296.34375 231.05647 296.34375 230.79085ZM304.39062 225.04085Q304.39062 225.68147 304.04688 226.18147Q303.70312 226.68147 303.14062 226.96272Q303.79688 227.24397 304.1875 227.80647Q304.57812 228.35335 304.57812 229.05647Q304.57812 230.15022 303.82812 230.8221Q303.09375 231.47835 301.875 231.47835Q300.64062 231.47835 299.89062 230.8221Q299.15625 230.15022 299.15625 229.05647Q299.15625 228.35335 299.53125 227.80647Q299.90625 227.24397 300.57812 226.96272Q300.01562 226.68147 299.6875 226.18147Q299.35938 225.68147 299.35938 225.04085Q299.35938 223.96272 300.04688 223.33772Q300.73438 222.6971 301.875 222.6971Q303.0 222.6971 303.6875 223.33772Q304.39062 223.96272 304.39062 225.04085ZM303.5 229.02522Q303.5 228.30647 303.04688 227.86897Q302.59375 227.41585 301.85938 227.41585Q301.125 227.41585 300.67188 227.86897Q300.23438 228.30647 300.23438 229.04085Q300.23438 229.7596 300.67188 230.18147Q301.10938 230.58772 301.875 230.58772Q302.625 230.58772 303.0625 230.16585Q303.5 229.74397 303.5 229.02522ZM301.875 223.58772Q301.23438 223.58772 300.82812 223.99397Q300.4375 224.3846 300.4375 225.0721Q300.4375 225.71272 300.82812 226.11897Q301.21875 226.52522 301.85938 226.52522Q302.51562 226.52522 302.90625 226.11897Q303.29688 225.71272 303.29688 225.0721Q303.29688 224.41585 302.89062 224.0096Q302.48438 223.58772 301.875 223.58772ZM309.76562 231.35335L308.6875 231.35335L308.6875 224.1346L306.5 224.93147L306.5 223.9471L309.60938 222.77522L309.76562 222.77522L309.76562 231.35335ZM318.39062 225.04085Q318.39062 225.68147 318.04688 226.18147Q317.70312 226.68147 317.14062 226.96272Q317.79688 227.24397 318.1875 227.80647Q318.57812 228.35335 318.57812 229.05647Q318.57812 230.15022 317.82812 230.8221Q317.09375 231.47835 315.875 231.47835Q314.64062 231.47835 313.89062 230.8221Q313.15625 230.15022 313.15625 229.05647Q313.15625 228.35335 313.53125 227.80647Q313.90625 227.24397 314.57812 226.96272Q314.01562 226.68147 313.6875 226.18147Q313.35938 225.68147 313.35938 225.04085Q313.35938 223.96272 314.04688 223.33772Q314.73438 222.6971 315.875 222.6971Q317.0 222.6971 317.6875 223.33772Q318.39062 223.96272 318.39062 225.04085ZM317.5 229.02522Q317.5 228.30647 317.04688 227.86897Q316.59375 227.41585 315.85938 227.41585Q315.125 227.41585 314.67188 227.86897Q314.23438 228.30647 314.23438 229.04085Q314.23438 229.7596 314.67188 230.18147Q315.10938 230.58772 315.875 230.58772Q316.625 230.58772 317.0625 230.16585Q317.5 229.74397 317.5 229.02522ZM315.875 223.58772Q315.23438 223.58772 314.82812 223.99397Q314.4375 224.3846 314.4375 225.0721Q314.4375 225.71272 314.82812 226.11897Q315.21875 226.52522 315.85938 226.52522Q316.51562 226.52522 316.90625 226.11897Q317.29688 225.71272 317.29688 225.0721Q317.29688 224.41585 316.89062 224.0096Q316.48438 223.58772 315.875 223.58772ZM324.34375 225.0096L324.375 225.71272Q325.0625 224.90022 326.25 224.90022Q327.57812 224.90022 328.0625 225.91585Q328.375 225.46272 328.875 225.18147Q329.39062 224.90022 330.07812 224.90022Q332.17188 224.90022 332.20312 227.10335L332.20312 231.35335L331.125 231.35335L331.125 227.16585Q331.125 226.49397 330.8125 226.16585Q330.5 225.8221 329.76562 225.8221Q329.15625 225.8221 328.75 226.18147Q328.35938 226.54085 328.29688 227.15022L328.29688 231.35335L327.21875 231.35335L327.21875 227.1971Q327.21875 225.8221 325.85938 225.8221Q324.79688 225.8221 324.40625 226.72835L324.40625 231.35335L323.3125 231.35335L323.3125 225.0096L324.34375 225.0096ZM338.01562 229.66585Q338.01562 229.22835 337.67188 228.99397Q337.34375 228.74397 336.51562 228.5721Q335.70312 228.40022 335.21875 228.15022Q334.73438 227.90022 334.5 227.5721Q334.28125 227.22835 334.28125 226.7596Q334.28125 225.97835 334.9375 225.4471Q335.59375 224.90022 336.625 224.90022Q337.70312 224.90022 338.35938 225.46272Q339.03125 226.0096 339.03125 226.86897L337.95312 226.86897Q337.95312 226.43147 337.5625 226.11897Q337.1875 225.79085 336.625 225.79085Q336.03125 225.79085 335.6875 226.05647Q335.35938 226.30647 335.35938 226.71272Q335.35938 227.10335 335.67188 227.30647Q335.98438 227.5096 336.79688 227.6971Q337.60938 227.86897 338.10938 228.11897Q338.60938 228.36897 338.84375 228.72835Q339.09375 229.08772 339.09375 229.58772Q339.09375 230.4471 338.40625 230.96272Q337.73438 231.47835 336.65625 231.47835Q335.89062 231.47835 335.29688 231.21272Q334.71875 230.93147 334.39062 230.4471Q334.0625 229.96272 334.0625 229.40022L335.14062 229.40022Q335.17188 229.9471 335.57812 230.27522Q335.98438 230.58772 336.65625 230.58772Q337.26562 230.58772 337.64062 230.33772Q338.01562 230.08772 338.01562 229.66585Z" fill-rule="nonzero"/><path stroke="#cc0000" stroke-width="3.0" stroke-linejoin="round" stroke-linecap="round" d="M452.46875 154.91881L452.46875 155.82506L452.26562 155.82506Q451.0 155.85631 450.25 156.59068Q449.5 157.30943 449.375 158.62193Q450.0625 157.85631 451.21875 157.85631Q452.32812 157.85631 453.0 158.63756Q453.67188 159.41881 453.67188 160.66881Q453.67188 161.98131 452.95312 162.77818Q452.23438 163.57506 451.01562 163.57506Q449.79688 163.57506 449.03125 162.63756Q448.28125 161.68443 448.28125 160.20006L448.28125 159.79381Q448.28125 157.43443 449.28125 156.18443Q450.28125 154.93443 452.26562 154.91881L452.46875 154.91881ZM451.04688 158.76256Q450.48438 158.76256 450.01562 159.09068Q449.54688 159.41881 449.35938 159.93443L449.35938 160.32506Q449.35938 161.38756 449.82812 162.02818Q450.3125 162.66881 451.01562 162.66881Q451.75 162.66881 452.17188 162.13756Q452.59375 161.59068 452.59375 160.71568Q452.59375 159.84068 452.17188 159.30943Q451.75 158.76256 451.04688 158.76256ZM455.34375 162.88756Q455.34375 162.60631 455.5 162.41881Q455.67188 162.23131 456.0 162.23131Q456.34375 162.23131 456.51562 162.41881Q456.6875 162.60631 456.6875 162.88756Q456.6875 163.15318 456.51562 163.34068Q456.34375 163.51256 456.0 163.51256Q455.67188 163.51256 455.5 163.34068Q455.34375 163.15318 455.34375 162.88756ZM463.5625 159.80943Q463.5625 161.71568 462.90625 162.65318Q462.26562 163.57506 460.875 163.57506Q459.51562 163.57506 458.85938 162.66881Q458.20312 161.76256 458.17188 159.95006L458.17188 158.51256Q458.17188 156.62193 458.8125 155.71568Q459.46875 154.79381 460.85938 154.79381Q462.23438 154.79381 462.89062 155.68443Q463.54688 156.55943 463.5625 158.40318L463.5625 159.80943ZM462.46875 158.32506Q462.46875 156.95006 462.07812 156.32506Q461.70312 155.68443 460.85938 155.68443Q460.03125 155.68443 459.64062 156.32506Q459.26562 156.95006 459.26562 158.24693L459.26562 159.98131Q459.26562 161.35631 459.65625 162.02818Q460.0625 162.68443 460.875 162.68443Q461.67188 162.68443 462.0625 162.05943Q462.45312 161.43443 462.46875 160.10631L462.46875 158.32506ZM468.76562 163.45006L467.6875 163.45006L467.6875 156.23131L465.5 157.02818L465.5 156.04381L468.60938 154.87193L468.76562 154.87193L468.76562 163.45006ZM477.71875 155.52818L474.1875 163.45006L473.04688 163.45006L476.5625 155.80943L471.95312 155.80943L471.95312 154.91881L477.71875 154.91881L477.71875 155.52818ZM483.34375 157.10631L483.375 157.80943Q484.0625 156.99693 485.25 156.99693Q486.57812 156.99693 487.0625 158.01256Q487.375 157.55943 487.875 157.27818Q488.39062 156.99693 489.07812 156.99693Q491.17188 156.99693 491.20312 159.20006L491.20312 163.45006L490.125 163.45006L490.125 159.26256Q490.125 158.59068 489.8125 158.26256Q489.5 157.91881 488.76562 157.91881Q488.15625 157.91881 487.75 158.27818Q487.35938 158.63756 487.29688 159.24693L487.29688 163.45006L486.21875 163.45006L486.21875 159.29381Q486.21875 157.91881 484.85938 157.91881Q483.79688 157.91881 483.40625 158.82506L483.40625 163.45006L482.3125 163.45006L482.3125 157.10631L483.34375 157.10631ZM497.01562 161.76256Q497.01562 161.32506 496.67188 161.09068Q496.34375 160.84068 495.51562 160.66881Q494.70312 160.49693 494.21875 160.24693Q493.73438 159.99693 493.5 159.66881Q493.28125 159.32506 493.28125 158.85631Q493.28125 158.07506 493.9375 157.54381Q494.59375 156.99693 495.625 156.99693Q496.70312 156.99693 497.35938 157.55943Q498.03125 158.10631 498.03125 158.96568L496.95312 158.96568Q496.95312 158.52818 496.5625 158.21568Q496.1875 157.88756 495.625 157.88756Q495.03125 157.88756 494.6875 158.15318Q494.35938 158.40318 494.35938 158.80943Q494.35938 159.20006 494.67188 159.40318Q494.98438 159.60631 495.79688 159.79381Q496.60938 159.96568 497.10938 160.21568Q497.60938 160.46568 497.84375 160.82506Q498.09375 161.18443 498.09375 161.68443Q498.09375 162.54381 497.40625 163.05943Q496.73438 163.57506 495.65625 163.57506Q494.89062 163.57506 494.29688 163.30943Q493.71875 163.02818 493.39062 162.54381Q493.0625 162.05943 493.0625 161.49693L494.14062 161.49693Q494.17188 162.04381 494.57812 162.37193Q494.98438 162.68443 495.65625 162.68443Q496.26562 162.68443 496.64062 162.43443Q497.01562 162.18443 497.01562 161.76256Z" fill-rule="nonzero"/><path fill="#ffffff" d="M452.46875 154.91881L452.46875 155.82506L452.26562 155.82506Q451.0 155.85631 450.25 156.59068Q449.5 157.30943 449.375 158.62193Q450.0625 157.85631 451.21875 157.85631Q452.32812 157.85631 453.0 158.63756Q453.67188 159.41881 453.67188 160.66881Q453.67188 161.98131 452.95312 162.77818Q452.23438 163.57506 451.01562 163.57506Q449.79688 163.57506 449.03125 162.63756Q448.28125 161.68443 448.28125 160.20006L448.28125 159.79381Q448.28125 157.43443 449.28125 156.18443Q450.28125 154.93443 452.26562 154.91881L452.46875 154.91881ZM451.04688 158.76256Q450.48438 158.76256 450.01562 159.09068Q449.54688 159.41881 449.35938 159.93443L449.35938 160.32506Q449.35938 161.38756 449.82812 162.02818Q450.3125 162.66881 451.01562 162.66881Q451.75 162.66881 452.17188 162.13756Q452.59375 161.59068 452.59375 160.71568Q452.59375 159.84068 452.17188 159.30943Q451.75 158.76256 451.04688 158.76256ZM455.34375 162.88756Q455.34375 162.60631 455.5 162.41881Q455.67188 162.23131 456.0 162.23131Q456.34375 162.23131 456.51562 162.41881Q456.6875 162.60631 456.6875 162.88756Q456.6875 163.15318 456.51562 163.34068Q456.34375 163.51256 456.0 163.51256Q455.67188 163.51256 455.5 163.34068Q455.34375 163.15318 455.34375 162.88756ZM463.5625 159.80943Q463.5625 161.71568 462.90625 162.65318Q462.26562 163.57506 460.875 163.57506Q459.51562 163.57506 458.85938 162.66881Q458.20312 161.76256 458.17188 159.95006L458.17188 158.51256Q458.17188 156.62193 458.8125 155.71568Q459.46875 154.79381 460.85938 154.79381Q462.23438 154.79381 462.89062 155.68443Q463.54688 156.55943 463.5625 158.40318L463.5625 159.80943ZM462.46875 158.32506Q462.46875 156.95006 462.07812 156.32506Q461.70312 155.68443 460.85938 155.68443Q460.03125 155.68443 459.64062 156.32506Q459.26562 156.95006 459.26562 158.24693L459.26562 159.98131Q459.26562 161.35631 459.65625 162.02818Q460.0625 162.68443 460.875 162.68443Q461.67188 162.68443 462.0625 162.05943Q462.45312 161.43443 462.46875 160.10631L462.46875 158.32506ZM468.76562 163.45006L467.6875 163.45006L467.6875 156.23131L465.5 157.02818L465.5 156.04381L468.60938 154.87193L468.76562 154.87193L468.76562 163.45006ZM477.71875 155.52818L474.1875 163.45006L473.04688 163.45006L476.5625 155.80943L471.95312 155.80943L471.95312 154.91881L477.71875 154.91881L477.71875 155.52818ZM483.34375 157.10631L483.375 157.80943Q484.0625 156.99693 485.25 156.99693Q486.57812 156.99693 487.0625 158.01256Q487.375 157.55943 487.875 157.27818Q488.39062 156.99693 489.07812 156.99693Q491.17188 156.99693 491.20312 159.20006L491.20312 163.45006L490.125 163.45006L490.125 159.26256Q490.125 158.59068 489.8125 158.26256Q489.5 157.91881 488.76562 157.91881Q488.15625 157.91881 487.75 158.27818Q487.35938 158.63756 487.29688 159.24693L487.29688 163.45006L486.21875 163.45006L486.21875 159.29381Q486.21875 157.91881 484.85938 157.91881Q483.79688 157.91881 483.40625 158.82506L483.40625 163.45006L482.3125 163.45006L482.3125 157.10631L483.34375 157.10631ZM497.01562 161.76256Q497.01562 161.32506 496.67188 161.09068Q496.34375 160.84068 495.51562 160.66881Q494.70312 160.49693 494.21875 160.24693Q493.73438 159.99693 493.5 159.66881Q493.28125 159.32506 493.28125 158.85631Q493.28125 158.07506 493.9375 157.54381Q494.59375 156.99693 495.625 156.99693Q496.70312 156.99693 497.35938 157.55943Q498.03125 158.10631 498.03125 158.96568L496.95312 158.96568Q496.95312 158.52818 496.5625 158.21568Q496.1875 157.88756 495.625 157.88756Q495.03125 157.88756 494.6875 158.15318Q494.35938 158.40318 494.35938 158.80943Q494.35938 159.20006 494.67188 159.40318Q494.98438 159.60631 495.79688 159.79381Q496.60938 159.96568 497.10938 160.21568Q497.60938 160.46568 497.84375 160.82506Q498.09375 161.18443 498.09375 161.68443Q498.09375 162.54381 497.40625 163.05943Q496.73438 163.57506 495.65625 163.57506Q494.89062 163.57506 494.29688 163.30943Q493.71875 163.02818 493.39062 162.54381Q493.0625 162.05943 493.0625 161.49693L494.14062 161.49693Q494.17188 162.04381 494.57812 162.37193Q494.98438 162.68443 495.65625 162.68443Q496.26562 162.68443 496.64062 162.43443Q497.01562 162.18443 497.01562 161.76256Z" fill-rule="nonzero"/><path fill="#000000" d="M33.05 332.21564Q33.05 330.6844 33.3625 329.7625Q33.675 328.825 34.284374 328.325Q34.909374 327.825 35.846874 327.825Q36.534374 327.825 37.05 328.10626Q37.58125 328.3875 37.925 328.91876Q38.26875 329.4344 38.45625 330.1844Q38.64375 330.9344 38.64375 332.21564Q38.64375 333.73126 38.33125 334.65314Q38.034374 335.575 37.409374 336.09064Q36.8 336.59064 35.846874 336.59064Q34.6125 336.59064 33.89375 335.7Q33.05 334.6375 33.05 332.21564ZM34.128124 332.21564Q34.128124 334.325 34.628124 335.02814Q35.128124 335.73126 35.846874 335.73126Q36.58125 335.73126 37.065624 335.02814Q37.565624 334.325 37.565624 332.21564Q37.565624 330.09064 37.065624 329.40314Q36.58125 328.7 35.83125 328.7Q35.1125 328.7 34.675 329.3094Q34.128124 330.09064 34.128124 332.21564Z" fill-rule="nonzero"/><path fill="#000000" d="M38.596874 273.67606L38.596874 274.69168L32.909374 274.69168Q32.909374 274.31668 33.034374 273.9573Q33.253124 273.37918 33.721874 272.81668Q34.20625 272.25418 35.1125 271.5198Q36.51875 270.36356 37.003124 269.69168Q37.503124 269.0198 37.503124 268.42606Q37.503124 267.80106 37.05 267.37918Q36.596874 266.94168 35.878124 266.94168Q35.1125 266.94168 34.659374 267.3948Q34.20625 267.84793 34.190624 268.66043L33.1125 268.55106Q33.221874 267.3323 33.940624 266.7073Q34.675 266.06668 35.909374 266.06668Q37.14375 266.06668 37.8625 266.75418Q38.58125 267.44168 38.58125 268.4573Q38.58125 268.97293 38.3625 269.47293Q38.159374 269.9573 37.659374 270.5198Q37.175 271.06668 36.05 272.0198Q35.096874 272.81668 34.815624 273.11356Q34.55 273.3948 34.378124 273.67606L38.596874 273.67606Z" fill-rule="nonzero"/><path fill="#000000" d="M36.425 212.93333L36.425 210.87083L32.70625 210.87083L32.70625 209.90208L36.628124 204.33958L37.4875 204.33958L37.4875 209.90208L38.64375 209.90208L38.64375 210.87083L37.4875 210.87083L37.4875 212.93333L36.425 212.93333ZM36.425 209.90208L36.425 206.04271L33.7375 209.90208L36.425 209.90208Z" fill-rule="nonzero"/><path fill="#000000" d="M38.51875 144.69063L37.471874 144.76875Q37.33125 144.14375 37.08125 143.8625Q36.64375 143.40938 36.01875 143.40938Q35.51875 143.40938 35.128124 143.69063Q34.64375 144.06563 34.346874 144.76875Q34.065624 145.45625 34.05 146.7375Q34.425 146.15938 34.971874 145.87813Q35.534374 145.59688 36.14375 145.59688Q37.190624 145.59688 37.925 146.37813Q38.675 147.15938 38.675 148.37813Q38.675 149.19063 38.315624 149.89375Q37.971874 150.58125 37.3625 150.95625Q36.753124 151.31563 35.9875 151.31563Q34.659374 151.31563 33.83125 150.34688Q33.003124 149.37813 33.003124 147.15938Q33.003124 144.65938 33.925 143.53438Q34.721874 142.55 36.08125 142.55Q37.096874 142.55 37.7375 143.12813Q38.39375 143.69063 38.51875 144.69063ZM34.221874 148.39375Q34.221874 148.94063 34.440624 149.44063Q34.675 149.925 35.08125 150.19063Q35.503124 150.45625 35.971874 150.45625Q36.628124 150.45625 37.1125 149.925Q37.596874 149.37813 37.596874 148.45625Q37.596874 147.56563 37.1125 147.05Q36.64375 146.53438 35.925 146.53438Q35.20625 146.53438 34.70625 147.05Q34.221874 147.56563 34.221874 148.39375Z" fill-rule="nonzero"/><path fill="#000000" d="M34.675 84.760414Q34.01875 84.510414 33.690624 84.072914Q33.378124 83.61979 33.378124 83.010414Q33.378124 82.072914 34.05 81.43229Q34.7375 80.791664 35.846874 80.791664Q36.971874 80.791664 37.659374 81.447914Q38.346874 82.104164 38.346874 83.041664Q38.346874 83.635414 38.034374 84.072914Q37.721874 84.510414 37.08125 84.760414Q37.878124 85.010414 38.284374 85.58854Q38.690624 86.166664 38.690624 86.96354Q38.690624 88.05729 37.909374 88.80729Q37.14375 89.55729 35.8625 89.55729Q34.596874 89.55729 33.815624 88.80729Q33.034374 88.05729 33.034374 86.93229Q33.034374 86.08854 33.45625 85.52604Q33.89375 84.96354 34.675 84.760414ZM34.45625 82.96354Q34.45625 83.572914 34.846874 83.96354Q35.253124 84.354164 35.878124 84.354164Q36.4875 84.354164 36.878124 83.979164Q37.26875 83.58854 37.26875 83.02604Q37.26875 82.447914 36.8625 82.05729Q36.45625 81.65104 35.8625 81.65104Q35.253124 81.65104 34.846874 82.041664Q34.45625 82.43229 34.45625 82.96354ZM34.128124 86.93229Q34.128124 87.385414 34.33125 87.80729Q34.55 88.229164 34.971874 88.46354Q35.39375 88.697914 35.878124 88.697914Q36.628124 88.697914 37.1125 88.21354Q37.6125 87.729164 37.6125 86.979164Q37.6125 86.21354 37.1125 85.71354Q36.6125 85.21354 35.846874 85.21354Q35.096874 85.21354 34.6125 85.71354Q34.128124 86.197914 34.128124 86.93229Z" fill-rule="nonzero"/><path fill="#000000" d="M113.57673 346.6844L114.63923 346.59064Q114.717354 347.2469 114.998604 347.65314Q115.279854 348.0594 115.85798 348.325Q116.45173 348.575 117.186104 348.575Q117.82673 348.575 118.32673 348.3875Q118.82673 348.1844 119.061104 347.85626Q119.311104 347.5125 119.311104 347.1219Q119.311104 346.71564 119.07673 346.41876Q118.842354 346.10626 118.311104 345.90314Q117.95173 345.7625 116.76423 345.48126Q115.592354 345.2 115.123604 344.95Q114.498604 344.6219 114.20173 344.15314Q113.904854 343.66876 113.904854 343.075Q113.904854 342.4344 114.26423 341.8719Q114.63923 341.29376 115.342354 341.0125Q116.061104 340.71564 116.92048 340.71564Q117.873604 340.71564 118.60798 341.02814Q119.342354 341.325 119.73298 341.9344Q120.123604 342.52814 120.154854 343.27814L119.061104 343.35626Q118.967354 342.54376 118.45173 342.1375Q117.95173 341.71564 116.967354 341.71564Q115.936104 341.71564 115.467354 342.09064Q114.998604 342.46564 114.998604 342.9969Q114.998604 343.46564 115.32673 343.7625Q115.654854 344.0594 117.029854 344.3719Q118.42048 344.6844 118.936104 344.91876Q119.686104 345.27814 120.04548 345.8094Q120.404854 346.325 120.404854 347.02814Q120.404854 347.71564 120.01423 348.325Q119.623604 348.91876 118.88923 349.2625Q118.154854 349.59064 117.23298 349.59064Q116.061104 349.59064 115.26423 349.2625Q114.48298 348.91876 114.029854 348.23126Q113.592354 347.54376 113.57673 346.6844ZM125.88923 347.16876L126.92048 347.3094Q126.748604 348.3719 126.04548 348.98126Q125.342354 349.59064 124.32673 349.59064Q123.04548 349.59064 122.26423 348.7625Q121.498604 347.91876 121.498604 346.35626Q121.498604 345.35626 121.82673 344.60626Q122.17048 343.84064 122.842354 343.46564Q123.529854 343.09064 124.342354 343.09064Q125.342354 343.09064 125.98298 343.60626Q126.63923 344.10626 126.82673 345.0594L125.79548 345.21564Q125.654854 344.59064 125.279854 344.27814Q124.904854 343.95 124.373604 343.95Q123.57673 343.95 123.07673 344.52814Q122.57673 345.09064 122.57673 346.325Q122.57673 347.59064 123.061104 348.15314Q123.54548 348.71564 124.311104 348.71564Q124.936104 348.71564 125.342354 348.34064Q125.76423 347.96564 125.88923 347.16876ZM127.82673 349.45L127.82673 340.85626L128.8736 340.85626L128.8736 343.9344Q129.60797 343.09064 130.73297 343.09064Q131.4361 343.09064 131.9361 343.3719Q132.45172 343.6375 132.67047 344.1219Q132.88922 344.59064 132.88922 345.5125L132.88922 349.45L131.84235 349.45L131.84235 345.5125Q131.84235 344.71564 131.4986 344.35626Q131.15485 343.9969 130.52985 343.9969Q130.0611 343.9969 129.63922 344.2469Q129.23297 344.48126 129.04547 344.90314Q128.8736 345.3094 128.8736 346.04376L128.8736 349.45L127.82673 349.45ZM139.07672 347.45L140.17047 347.575Q139.92047 348.52814 139.21735 349.0594Q138.51422 349.59064 137.4361 349.59064Q136.07672 349.59064 135.26422 348.7469Q134.46735 347.90314 134.46735 346.3875Q134.46735 344.825 135.27985 343.96564Q136.09235 343.09064 137.3736 343.09064Q138.6236 343.09064 139.40485 343.9344Q140.20172 344.77814 140.20172 346.325Q140.20172 346.41876 140.20172 346.60626L135.5611 346.60626Q135.6236 347.6375 136.13922 348.1844Q136.65485 348.71564 137.4361 348.71564Q138.01422 348.71564 138.42047 348.41876Q138.84235 348.10626 139.07672 347.45ZM135.6236 345.7469L139.09235 345.7469Q139.02985 344.95 138.70172 344.5594Q138.1861 343.95 137.38922 343.95Q136.65485 343.95 136.15485 344.4344Q135.67047 344.91876 135.6236 345.7469ZM141.82672 349.45L141.82672 343.23126L142.76422 343.23126L142.76422 344.10626Q143.0611 343.6375 143.54547 343.3719Q144.02985 343.09064 144.65485 343.09064Q145.34235 343.09064 145.77985 343.3719Q146.23297 343.65314 146.40485 344.16876Q147.15485 343.09064 148.32672 343.09064Q149.26422 343.09064 149.7486 343.60626Q150.2486 344.10626 150.2486 345.1844L150.2486 349.45L149.20172 349.45L149.20172 345.52814Q149.20172 344.90314 149.09235 344.6219Q148.9986 344.34064 148.73297 344.16876Q148.46735 343.9969 148.09235 343.9969Q147.4361 343.9969 146.9986 344.4344Q146.57672 344.8719 146.57672 345.84064L146.57672 349.45L145.51422 349.45L145.51422 345.40314Q145.51422 344.7 145.2486 344.35626Q144.9986 343.9969 144.42047 343.9969Q143.96735 343.9969 143.59235 344.23126Q143.21735 344.46564 143.04547 344.91876Q142.8736 345.3719 142.8736 346.21564L142.8736 349.45L141.82672 349.45ZM156.88922 348.6844Q156.29547 349.1844 155.7486 349.3875Q155.21735 349.59064 154.59235 349.59064Q153.5611 349.59064 153.01422 349.09064Q152.46735 348.59064 152.46735 347.8094Q152.46735 347.35626 152.67047 346.98126Q152.8736 346.59064 153.21735 346.3719Q153.5611 346.1375 153.98297 346.02814Q154.27985 345.9344 154.92047 345.85626Q156.1861 345.71564 156.79547 345.4969Q156.79547 345.27814 156.79547 345.23126Q156.79547 344.575 156.4986 344.3094Q156.09235 343.96564 155.29547 343.96564Q154.5611 343.96564 154.20172 344.23126Q153.84235 344.48126 153.67047 345.1375L152.63922 344.9969Q152.77985 344.34064 153.10797 343.9344Q153.4361 343.52814 154.04547 343.3094Q154.65485 343.09064 155.45172 343.09064Q156.2486 343.09064 156.7486 343.27814Q157.2486 343.46564 157.48297 343.7469Q157.71735 344.02814 157.8111 344.46564Q157.85797 344.73126 157.85797 345.4344L157.85797 346.84064Q157.85797 348.3094 157.92047 348.7Q157.9986 349.09064 158.20172 349.45L157.09235 349.45Q156.9361 349.1219 156.88922 348.6844ZM156.79547 346.325Q156.21735 346.5594 155.07672 346.73126Q154.42047 346.825 154.15485 346.95Q153.88922 347.0594 153.73297 347.27814Q153.59235 347.4969 153.59235 347.77814Q153.59235 348.2 153.90485 348.48126Q154.23297 348.7625 154.84235 348.7625Q155.45172 348.7625 155.92047 348.4969Q156.40485 348.23126 156.6236 347.7625Q156.79547 347.40314 156.79547 346.71564L156.79547 346.325ZM160.01422 349.45L160.01422 340.85626L165.8111 340.85626L165.8111 341.8719L161.15485 341.8719L161.15485 344.52814L165.1861 344.52814L165.1861 345.54376L161.15485 345.54376L161.15485 349.45L160.01422 349.45ZM166.8111 349.45L166.8111 343.23126L167.76422 343.23126L167.76422 344.16876Q168.1236 343.5125 168.42047 343.3094Q168.73297 343.09064 169.10797 343.09064Q169.63922 343.09064 170.1861 343.41876L169.82672 344.40314Q169.4361 344.16876 169.0611 344.16876Q168.70172 344.16876 168.42047 344.3875Q168.15485 344.59064 168.04547 344.96564Q167.85797 345.52814 167.85797 346.1844L167.85797 349.45L166.8111 349.45ZM170.82672 342.075L170.82672 340.85626L171.88922 340.85626L171.88922 342.075L170.82672 342.075ZM170.82672 349.45L170.82672 343.23126L171.88922 343.23126L171.88922 349.45L170.82672 349.45ZM178.07672 347.45L179.17047 347.575Q178.92047 348.52814 178.21735 349.0594Q177.51422 349.59064 176.4361 349.59064Q175.07672 349.59064 174.26422 348.7469Q173.46735 347.90314 173.46735 346.3875Q173.46735 344.825 174.27985 343.96564Q175.09235 343.09064 176.3736 343.09064Q177.6236 343.09064 178.40485 343.9344Q179.20172 344.77814 179.20172 346.325Q179.20172 346.41876 179.20172 346.60626L174.5611 346.60626Q174.6236 347.6375 175.13922 348.1844Q175.65485 348.71564 176.4361 348.71564Q177.01422 348.71564 177.42047 348.41876Q177.84235 348.10626 178.07672 347.45ZM174.6236 345.7469L178.09235 345.7469Q178.02985 344.95 177.70172 344.5594Q177.1861 343.95 176.38922 343.95Q175.65485 343.95 175.15485 344.4344Q174.67047 344.91876 174.6236 345.7469ZM180.82672 349.45L180.82672 343.23126L181.76422 343.23126L181.76422 344.10626Q182.45172 343.09064 183.7486 343.09064Q184.3111 343.09064 184.77985 343.29376Q185.26422 343.4969 185.4986 343.825Q185.73297 344.15314 185.82672 344.59064Q185.8736 344.8875 185.8736 345.6219L185.8736 349.45L184.82672 349.45L184.82672 345.66876Q184.82672 345.0125 184.70172 344.7Q184.57672 344.3875 184.26422 344.2Q183.95172 343.9969 183.52985 343.9969Q182.85797 343.9969 182.35797 344.4344Q181.8736 344.85626 181.8736 346.04376L181.8736 349.45L180.82672 349.45ZM191.85797 349.45L191.85797 348.66876Q191.26422 349.59064 190.1236 349.59064Q189.3736 349.59064 188.7486 349.1844Q188.1236 348.7625 187.77985 348.02814Q187.4361 347.29376 187.4361 346.34064Q187.4361 345.41876 187.7486 344.65314Q188.0611 343.8875 188.6861 343.4969Q189.3111 343.09064 190.07672 343.09064Q190.63922 343.09064 191.07672 343.325Q191.51422 343.5594 191.79547 343.9344L191.79547 340.85626L192.84235 340.85626L192.84235 349.45L191.85797 349.45ZM188.52985 346.34064Q188.52985 347.54376 189.02985 348.1375Q189.52985 348.71564 190.21735 348.71564Q190.90485 348.71564 191.38922 348.15314Q191.8736 347.59064 191.8736 346.4344Q191.8736 345.15314 191.3736 344.5594Q190.88922 343.96564 190.17047 343.96564Q189.46735 343.96564 188.9986 344.54376Q188.52985 345.10626 188.52985 346.34064Z" fill-rule="nonzero"/><path fill="#000000" d="M303.875 349.45L300.54688 340.85626L301.78125 340.85626L304.01562 347.10626Q304.28125 347.85626 304.46875 348.5125Q304.67188 347.8094 304.9375 347.10626L307.25 340.85626L308.40625 340.85626L305.04688 349.45L303.875 349.45ZM312.54688 347.45L313.64062 347.575Q313.39062 348.52814 312.6875 349.0594Q311.98438 349.59064 310.90625 349.59064Q309.54688 349.59064 308.73438 348.7469Q307.9375 347.90314 307.9375 346.3875Q307.9375 344.825 308.75 343.96564Q309.5625 343.09064 310.84375 343.09064Q312.09375 343.09064 312.875 343.9344Q313.67188 344.77814 313.67188 346.325Q313.67188 346.41876 313.67188 346.60626L309.03125 346.60626Q309.09375 347.6375 309.60938 348.1844Q310.125 348.71564 310.90625 348.71564Q311.48438 348.71564 311.89062 348.41876Q312.3125 348.10626 312.54688 347.45ZM309.09375 345.7469L312.5625 345.7469Q312.5 344.95 312.17188 344.5594Q311.65625 343.95 310.85938 343.95Q310.125 343.95 309.625 344.4344Q309.14062 344.91876 309.09375 345.7469ZM315.28125 349.45L315.28125 343.23126L316.23438 343.23126L316.23438 344.16876Q316.59375 343.5125 316.89062 343.3094Q317.20312 343.09064 317.57812 343.09064Q318.10938 343.09064 318.65625 343.41876L318.29688 344.40314Q317.90625 344.16876 317.53125 344.16876Q317.17188 344.16876 316.89062 344.3875Q316.625 344.59064 316.51562 344.96564Q316.32812 345.52814 316.32812 346.1844L316.32812 349.45L315.28125 349.45ZM321.59375 348.5125L321.75 349.4344Q321.29688 349.52814 320.95312 349.52814Q320.375 349.52814 320.0625 349.35626Q319.75 349.16876 319.60938 348.8719Q319.48438 348.575 319.48438 347.6219L319.48438 344.04376L318.71875 344.04376L318.71875 343.23126L319.48438 343.23126L319.48438 341.6844L320.53125 341.0594L320.53125 343.23126L321.59375 343.23126L321.59375 344.04376L320.53125 344.04376L320.53125 347.6844Q320.53125 348.1375 320.57812 348.2625Q320.64062 348.3875 320.76562 348.46564Q320.89062 348.54376 321.125 348.54376Q321.3125 348.54376 321.59375 348.5125ZM321.59375 349.45L323.85938 346.21564L321.76562 343.23126L323.07812 343.23126L324.03125 344.6844Q324.29688 345.10626 324.46875 345.3875Q324.71875 344.9969 324.9375 344.7L325.98438 343.23126L327.25 343.23126L325.09375 346.15314L327.40625 349.45L326.125 349.45L324.84375 347.5125L324.5 346.9969L322.85938 349.45L321.59375 349.45Z" fill-rule="nonzero"/><path fill="#000000" d="M445.89203 349.45L445.89203 340.85626L447.04828 340.85626L451.5639 347.60626L451.5639 340.85626L452.65765 340.85626L452.65765 349.45L451.48578 349.45L446.97015 342.7L446.97015 349.45L445.89203 349.45ZM459.01703 347.45L460.11078 347.575Q459.86078 348.52814 459.15765 349.0594Q458.45453 349.59064 457.3764 349.59064Q456.01703 349.59064 455.20453 348.7469Q454.40765 347.90314 454.40765 346.3875Q454.40765 344.825 455.22015 343.96564Q456.03265 343.09064 457.3139 343.09064Q458.5639 343.09064 459.34515 343.9344Q460.14203 344.77814 460.14203 346.325Q460.14203 346.41876 460.14203 346.60626L455.5014 346.60626Q455.5639 347.6375 456.07953 348.1844Q456.59515 348.71564 457.3764 348.71564Q457.95453 348.71564 458.36078 348.41876Q458.78265 348.10626 459.01703 347.45ZM455.5639 345.7469L459.03265 345.7469Q458.97015 344.95 458.64203 344.5594Q458.1264 343.95 457.32953 343.95Q456.59515 343.95 456.09515 344.4344Q455.61078 344.91876 455.5639 345.7469ZM464.0639 348.5125L464.22015 349.4344Q463.76703 349.52814 463.42328 349.52814Q462.84515 349.52814 462.53265 349.35626Q462.22015 349.16876 462.07953 348.8719Q461.95453 348.575 461.95453 347.6219L461.95453 344.04376L461.1889 344.04376L461.1889 343.23126L461.95453 343.23126L461.95453 341.6844L463.0014 341.0594L463.0014 343.23126L464.0639 343.23126L464.0639 344.04376L463.0014 344.04376L463.0014 347.6844Q463.0014 348.1375 463.04828 348.2625Q463.11078 348.3875 463.23578 348.46564Q463.36078 348.54376 463.59515 348.54376Q463.78265 348.54376 464.0639 348.5125ZM465.90765 349.45L464.0014 343.23126L465.09515 343.23126L466.07953 346.825L466.45453 348.15314Q466.48578 348.0594 466.78265 346.8719L467.76703 343.23126L468.84515 343.23126L469.78265 346.84064L470.09515 348.02814L470.45453 346.825L471.51703 343.23126L472.54828 343.23126L470.59515 349.45L469.5014 349.45L468.51703 345.71564L468.26703 344.66876L467.01703 349.45L465.90765 349.45ZM473.3764 346.34064Q473.3764 344.60626 474.32953 343.77814Q475.1264 343.09064 476.28265 343.09064Q477.5639 343.09064 478.3764 343.9344Q479.20453 344.7625 479.20453 346.2469Q479.20453 347.45 478.84515 348.1375Q478.48578 348.825 477.78265 349.21564Q477.09515 349.59064 476.28265 349.59064Q474.98578 349.59064 474.17328 348.7625Q473.3764 347.91876 473.3764 346.34064ZM474.45453 346.34064Q474.45453 347.52814 474.97015 348.1219Q475.5014 348.71564 476.28265 348.71564Q477.07953 348.71564 477.59515 348.1219Q478.11078 347.52814 478.11078 346.3094Q478.11078 345.15314 477.57953 344.5594Q477.0639 343.96564 476.28265 343.96564Q475.5014 343.96564 474.97015 344.5594Q474.45453 345.1375 474.45453 346.34064ZM480.7514 349.45L480.7514 343.23126L481.70453 343.23126L481.70453 344.16876Q482.0639 343.5125 482.36078 343.3094Q482.67328 343.09064 483.04828 343.09064Q483.57953 343.09064 484.1264 343.41876L483.76703 344.40314Q483.3764 344.16876 483.0014 344.16876Q482.64203 344.16876 482.36078 344.3875Q482.09515 344.59064 481.98578 344.96564Q481.79828 345.52814 481.79828 346.1844L481.79828 349.45L480.7514 349.45ZM484.76703 349.45L484.76703 340.85626L485.82953 340.85626L485.82953 345.7625L488.3139 343.23126L489.6889 343.23126L487.29828 345.52814L489.92328 349.45L488.6264 349.45L486.5639 346.2625L485.82953 346.98126L485.82953 349.45L484.76703 349.45ZM490.89203 349.45L490.89203 340.85626L492.04828 340.85626L496.5639 347.60626L496.5639 340.85626L497.65765 340.85626L497.65765 349.45L496.48578 349.45L491.97015 342.7L491.97015 349.45L490.89203 349.45ZM502.0639 348.5125L502.22015 349.4344Q501.76703 349.52814 501.42328 349.52814Q500.84515 349.52814 500.53265 349.35626Q500.22015 349.16876 500.07953 348.8719Q499.95453 348.575 499.95453 347.6219L499.95453 344.04376L499.1889 344.04376L499.1889 343.23126L499.95453 343.23126L499.95453 341.6844L501.0014 341.0594L501.0014 343.23126L502.0639 343.23126L502.0639 344.04376L501.0014 344.04376L501.0014 347.6844Q501.0014 348.1375 501.04828 348.2625Q501.11078 348.3875 501.23578 348.46564Q501.36078 348.54376 501.59515 348.54376Q501.78265 348.54376 502.0639 348.5125Z" fill-rule="nonzero"/><path fill="#999999" d="M22.175 63.05L22.175 54.20625L18.878124 54.20625L18.878124 53.034374L26.815624 53.034374L26.815624 54.20625L23.503124 54.20625L23.503124 63.05L22.175 63.05ZM28.4875 54.440624L28.4875 53.034374L29.70625 53.034374L29.70625 54.440624L28.4875 54.440624ZM28.4875 63.05L28.4875 55.784374L29.70625 55.784374L29.70625 63.05L28.4875 63.05ZM31.471874 63.05L31.471874 55.784374L32.58125 55.784374L32.58125 56.815624Q32.909374 56.26875 33.471874 55.95625Q34.05 55.628124 34.76875 55.628124Q35.58125 55.628124 36.096874 55.971874Q36.6125 56.3 36.83125 56.89375Q37.690624 55.628124 39.065624 55.628124Q40.14375 55.628124 40.721874 56.221874Q41.315624 56.815624 41.315624 58.065624L41.315624 63.05L40.08125 63.05L40.08125 58.471874Q40.08125 57.7375 39.95625 57.409374Q39.846874 57.08125 39.534374 56.89375Q39.221874 56.690624 38.8 56.690624Q38.034374 56.690624 37.51875 57.20625Q37.01875 57.70625 37.01875 58.83125L37.01875 63.05L35.784374 63.05L35.784374 58.33125Q35.784374 57.51875 35.4875 57.1125Q35.190624 56.690624 34.503124 56.690624Q33.9875 56.690624 33.534374 56.971874Q33.096874 57.2375 32.89375 57.76875Q32.70625 58.284374 32.70625 59.284374L32.70625 63.05L31.471874 63.05ZM47.440624 60.70625L48.721874 60.8625Q48.409374 61.9875 47.596874 62.6125Q46.784374 63.221874 45.51875 63.221874Q43.925 63.221874 42.9875 62.2375Q42.065624 61.253124 42.065624 59.4875Q42.065624 57.64375 43.003124 56.64375Q43.95625 55.628124 45.45625 55.628124Q46.909374 55.628124 47.83125 56.628124Q48.753124 57.6125 48.753124 59.409374Q48.753124 59.51875 48.753124 59.7375L43.33125 59.7375Q43.409374 60.925 44.003124 61.565624Q44.6125 62.20625 45.534374 62.20625Q46.20625 62.20625 46.675 61.846874Q47.159374 61.4875 47.440624 60.70625ZM43.409374 58.721874L47.45625 58.721874Q47.378124 57.8 46.9875 57.346874Q46.409374 56.64375 45.471874 56.64375Q44.6125 56.64375 44.034374 57.20625Q43.471874 57.76875 43.409374 58.721874ZM57.159374 61.95625L57.33125 63.034374Q56.815624 63.14375 56.409374 63.14375Q55.7375 63.14375 55.3625 62.940624Q55.003124 62.721874 54.846874 62.378124Q54.70625 62.034374 54.70625 60.925L54.70625 56.753124L53.8 56.753124L53.8 55.784374L54.70625 55.784374L54.70625 53.9875L55.925 53.253124L55.925 55.784374L57.159374 55.784374L57.159374 56.753124L55.925 56.753124L55.925 60.9875Q55.925 61.51875 55.9875 61.675Q56.05 61.815624 56.190624 61.909374Q56.346874 62.003124 56.6125 62.003124Q56.83125 62.003124 57.159374 61.95625ZM58.01875 59.425Q58.01875 57.409374 59.14375 56.425Q60.065624 55.628124 61.425 55.628124Q62.909374 55.628124 63.8625 56.6125Q64.81563 57.58125 64.81563 59.315624Q64.81563 60.721874 64.39375 61.534374Q63.971874 62.33125 63.159374 62.784374Q62.3625 63.221874 61.425 63.221874Q59.89375 63.221874 58.95625 62.2375Q58.01875 61.253124 58.01875 59.425ZM59.284374 59.425Q59.284374 60.815624 59.89375 61.51875Q60.503124 62.20625 61.425 62.20625Q62.33125 62.20625 62.940624 61.503124Q63.55 60.8 63.55 59.378124Q63.55 58.034374 62.940624 57.346874Q62.33125 56.64375 61.425 56.64375Q60.503124 56.64375 59.89375 57.33125Q59.284374 58.01875 59.284374 59.425ZM72.4875 63.05L69.72188 55.784374L71.03438 55.784374L72.58125 60.14375Q72.83125 60.846874 73.05 61.596874Q73.22188 61.01875 73.50313 60.221874L75.12813 55.784374L76.39375 55.784374L73.64375 63.05L72.4875 63.05ZM82.20625 62.159374Q81.53438 62.7375 80.89375 62.9875Q80.26875 63.221874 79.53438 63.221874Q78.34688 63.221874 77.69063 62.64375Q77.05 62.05 77.05 61.128124Q77.05 60.596874 77.28438 60.159374Q77.53438 59.721874 77.925 59.45625Q78.33125 59.190624 78.81563 59.05Q79.175 58.95625 79.90938 58.8625Q81.40938 58.690624 82.1125 58.440624Q82.1125 58.190624 82.1125 58.128124Q82.1125 57.3625 81.76875 57.065624Q81.3 56.64375 80.3625 56.64375Q79.50313 56.64375 79.08125 56.95625Q78.675 57.253124 78.47188 58.01875L77.26875 57.8625Q77.425 57.08125 77.8 56.6125Q78.19063 56.14375 78.89375 55.89375Q79.6125 55.628124 80.55 55.628124Q81.47188 55.628124 82.05 55.846874Q82.62813 56.065624 82.89375 56.39375Q83.175 56.721874 83.28438 57.2375Q83.34688 57.55 83.34688 58.3625L83.34688 60.003124Q83.34688 61.721874 83.425 62.175Q83.50313 62.628124 83.7375 63.05L82.45625 63.05Q82.26875 62.659374 82.20625 62.159374ZM82.1125 59.409374Q81.44063 59.675 80.09688 59.878124Q79.34688 59.9875 79.01875 60.128124Q78.70625 60.253124 78.53438 60.51875Q78.3625 60.784374 78.3625 61.096874Q78.3625 61.596874 78.7375 61.925Q79.1125 62.253124 79.83125 62.253124Q80.55 62.253124 81.09688 61.940624Q81.64375 61.628124 81.90938 61.08125Q82.1125 60.675 82.1125 59.8625L82.1125 59.409374ZM85.44063 63.05L85.44063 53.034374L86.675 53.034374L86.675 63.05L85.44063 63.05ZM88.4875 54.440624L88.4875 53.034374L89.70625 53.034374L89.70625 54.440624L88.4875 54.440624ZM88.4875 63.05L88.4875 55.784374L89.70625 55.784374L89.70625 63.05L88.4875 63.05ZM96.19063 63.05L96.19063 62.128124Q95.4875 63.221874 94.15938 63.221874Q93.28438 63.221874 92.55 62.7375Q91.83125 62.253124 91.425 61.39375Q91.03438 60.534374 91.03438 59.425Q91.03438 58.346874 91.39375 57.45625Q91.75313 56.565624 92.47188 56.096874Q93.20625 55.628124 94.09688 55.628124Q94.75313 55.628124 95.26875 55.909374Q95.78438 56.175 96.09688 56.628124L96.09688 53.034374L97.33125 53.034374L97.33125 63.05L96.19063 63.05ZM92.3 59.425Q92.3 60.815624 92.87813 61.51875Q93.47188 62.20625 94.26875 62.20625Q95.08125 62.20625 95.64375 61.55Q96.20625 60.878124 96.20625 59.534374Q96.20625 58.034374 95.62813 57.346874Q95.05 56.64375 94.22188 56.64375Q93.39375 56.64375 92.84688 57.315624Q92.3 57.9875 92.3 59.425ZM104.20625 62.159374Q103.53438 62.7375 102.89375 62.9875Q102.26875 63.221874 101.53438 63.221874Q100.34688 63.221874 99.69063 62.64375Q99.05 62.05 99.05 61.128124Q99.05 60.596874 99.28438 60.159374Q99.53438 59.721874 99.925 59.45625Q100.33125 59.190624 100.81563 59.05Q101.175 58.95625 101.90938 58.8625Q103.40938 58.690624 104.1125 58.440624Q104.1125 58.190624 104.1125 58.128124Q104.1125 57.3625 103.76875 57.065624Q103.3 56.64375 102.3625 56.64375Q101.50313 56.64375 101.08125 56.95625Q100.675 57.253124 100.47188 58.01875L99.26875 57.8625Q99.425 57.08125 99.8 56.6125Q100.19063 56.14375 100.89375 55.89375Q101.6125 55.628124 102.55 55.628124Q103.47188 55.628124 104.05 55.846874Q104.62813 56.065624 104.89375 56.39375Q105.175 56.721874 105.28438 57.2375Q105.34688 57.55 105.34688 58.3625L105.34688 60.003124Q105.34688 61.721874 105.425 62.175Q105.50313 62.628124 105.7375 63.05L104.45625 63.05Q104.26875 62.659374 104.20625 62.159374ZM104.1125 59.409374Q103.44063 59.675 102.09688 59.878124Q101.34688 59.9875 101.01875 60.128124Q100.70625 60.253124 100.53438 60.51875Q100.3625 60.784374 100.3625 61.096874Q100.3625 61.596874 100.7375 61.925Q101.1125 62.253124 101.83125 62.253124Q102.55 62.253124 103.09688 61.940624Q103.64375 61.628124 103.90938 61.08125Q104.1125 60.675 104.1125 59.8625L104.1125 59.409374ZM110.15938 61.95625L110.33125 63.034374Q109.81563 63.14375 109.40938 63.14375Q108.7375 63.14375 108.3625 62.940624Q108.00313 62.721874 107.84688 62.378124Q107.70625 62.034374 107.70625 60.925L107.70625 56.753124L106.8 56.753124L106.8 55.784374L107.70625 55.784374L107.70625 53.9875L108.925 53.253124L108.925 55.784374L110.15938 55.784374L110.15938 56.753124L108.925 56.753124L108.925 60.9875Q108.925 61.51875 108.9875 61.675Q109.05 61.815624 109.19063 61.909374Q109.34688 62.003124 109.6125 62.003124Q109.83125 62.003124 110.15938 61.95625ZM116.44063 60.70625L117.72188 60.8625Q117.40938 61.9875 116.59688 62.6125Q115.78438 63.221874 114.51875 63.221874Q112.925 63.221874 111.9875 62.2375Q111.06563 61.253124 111.06563 59.4875Q111.06563 57.64375 112.00313 56.64375Q112.95625 55.628124 114.45625 55.628124Q115.90938 55.628124 116.83125 56.628124Q117.75313 57.6125 117.75313 59.409374Q117.75313 59.51875 117.75313 59.7375L112.33125 59.7375Q112.40938 60.925 113.00313 61.565624Q113.6125 62.20625 114.53438 62.20625Q115.20625 62.20625 115.675 61.846874Q116.15938 61.4875 116.44063 60.70625ZM112.40938 58.721874L116.45625 58.721874Q116.37813 57.8 115.9875 57.346874Q115.40938 56.64375 114.47188 56.64375Q113.6125 56.64375 113.03438 57.20625Q112.47188 57.76875 112.40938 58.721874ZM123.47188 65.83125L123.47188 55.784374L124.59688 55.784374L124.59688 56.7375Q124.9875 56.175 125.4875 55.909374Q125.9875 55.628124 126.70625 55.628124Q127.62813 55.628124 128.33125 56.1125Q129.05 56.58125 129.40938 57.45625Q129.76875 58.33125 129.76875 59.3625Q129.76875 60.471874 129.3625 61.378124Q128.97188 62.26875 128.20625 62.753124Q127.45625 63.221874 126.6125 63.221874Q126.00313 63.221874 125.50313 62.95625Q125.01875 62.690624 124.70625 62.3L124.70625 65.83125L123.47188 65.83125ZM124.58125 59.45625Q124.58125 60.8625 125.14375 61.534374Q125.72188 62.20625 126.53438 62.20625Q127.34688 62.20625 127.925 61.51875Q128.51875 60.815624 128.51875 59.3625Q128.51875 57.971874 127.94063 57.284374Q127.37813 56.596874 126.58125 56.596874Q125.8 56.596874 125.19063 57.33125Q124.58125 58.065624 124.58125 59.45625ZM136.20625 62.159374Q135.53438 62.7375 134.89375 62.9875Q134.26875 63.221874 133.53438 63.221874Q132.34688 63.221874 131.69063 62.64375Q131.05 62.05 131.05 61.128124Q131.05 60.596874 131.28438 60.159374Q131.53438 59.721874 131.925 59.45625Q132.33125 59.190624 132.81563 59.05Q133.175 58.95625 133.90938 58.8625Q135.40938 58.690624 136.1125 58.440624Q136.1125 58.190624 136.1125 58.128124Q136.1125 57.3625 135.76875 57.065624Q135.3 56.64375 134.3625 56.64375Q133.50313 56.64375 133.08125 56.95625Q132.675 57.253124 132.47188 58.01875L131.26875 57.8625Q131.425 57.08125 131.8 56.6125Q132.19063 56.14375 132.89375 55.89375Q133.6125 55.628124 134.55 55.628124Q135.47188 55.628124 136.05 55.846874Q136.62813 56.065624 136.89375 56.39375Q137.175 56.721874 137.28438 57.2375Q137.34688 57.55 137.34688 58.3625L137.34688 60.003124Q137.34688 61.721874 137.425 62.175Q137.50313 62.628124 137.7375 63.05L136.45625 63.05Q136.26875 62.659374 136.20625 62.159374ZM136.1125 59.409374Q135.44063 59.675 134.09688 59.878124Q133.34688 59.9875 133.01875 60.128124Q132.70625 60.253124 132.53438 60.51875Q132.3625 60.784374 132.3625 61.096874Q132.3625 61.596874 132.7375 61.925Q133.1125 62.253124 133.83125 62.253124Q134.55 62.253124 135.09688 61.940624Q135.64375 61.628124 135.90938 61.08125Q136.1125 60.675 136.1125 59.8625L136.1125 59.409374ZM138.9875 60.878124L140.19063 60.690624Q140.3 61.425 140.76875 61.815624Q141.2375 62.20625 142.08125 62.20625Q142.925 62.20625 143.33125 61.8625Q143.75313 61.51875 143.75313 61.05Q143.75313 60.628124 143.37813 60.39375Q143.12813 60.221874 142.12813 59.971874Q140.76875 59.628124 140.2375 59.378124Q139.72188 59.128124 139.45625 58.690624Q139.19063 58.253124 139.19063 57.721874Q139.19063 57.2375 139.40938 56.83125Q139.62813 56.409374 140.01875 56.128124Q140.3 55.925 140.78438 55.784374Q141.28438 55.628124 141.8625 55.628124Q142.70625 55.628124 143.34688 55.878124Q144.00313 56.1125 144.31563 56.534374Q144.62813 56.95625 144.7375 57.659374L143.53438 57.83125Q143.45625 57.26875 143.05 56.95625Q142.65938 56.64375 141.94063 56.64375Q141.09688 56.64375 140.7375 56.925Q140.37813 57.190624 140.37813 57.58125Q140.37813 57.815624 140.51875 58.003124Q140.675 58.20625 141.00313 58.33125Q141.175 58.39375 142.08125 58.64375Q143.39375 59.003124 143.90938 59.221874Q144.425 59.440624 144.70625 59.8625Q145.00313 60.284374 145.00313 60.909374Q145.00313 61.534374 144.64375 62.08125Q144.3 62.6125 143.6125 62.925Q142.94063 63.221874 142.08125 63.221874Q140.675 63.221874 139.925 62.628124Q139.19063 62.034374 138.9875 60.878124ZM145.9875 60.878124L147.19063 60.690624Q147.3 61.425 147.76875 61.815624Q148.2375 62.20625 149.08125 62.20625Q149.925 62.20625 150.33125 61.8625Q150.75313 61.51875 150.75313 61.05Q150.75313 60.628124 150.37813 60.39375Q150.12813 60.221874 149.12813 59.971874Q147.76875 59.628124 147.2375 59.378124Q146.72188 59.128124 146.45625 58.690624Q146.19063 58.253124 146.19063 57.721874Q146.19063 57.2375 146.40938 56.83125Q146.62813 56.409374 147.01875 56.128124Q147.3 55.925 147.78438 55.784374Q148.28438 55.628124 148.8625 55.628124Q149.70625 55.628124 150.34688 55.878124Q151.00313 56.1125 151.31563 56.534374Q151.62813 56.95625 151.7375 57.659374L150.53438 57.83125Q150.45625 57.26875 150.05 56.95625Q149.65938 56.64375 148.94063 56.64375Q148.09688 56.64375 147.7375 56.925Q147.37813 57.190624 147.37813 57.58125Q147.37813 57.815624 147.51875 58.003124Q147.675 58.20625 148.00313 58.33125Q148.175 58.39375 149.08125 58.64375Q150.39375 59.003124 150.90938 59.221874Q151.425 59.440624 151.70625 59.8625Q152.00313 60.284374 152.00313 60.909374Q152.00313 61.534374 151.64375 62.08125Q151.3 62.6125 150.6125 62.925Q149.94063 63.221874 149.08125 63.221874Q147.675 63.221874 146.925 62.628124Q146.19063 62.034374 145.9875 60.878124ZM153.4875 54.440624L153.4875 53.034374L154.70625 53.034374L154.70625 54.440624L153.4875 54.440624ZM153.4875 63.05L153.4875 55.784374L154.70625 55.784374L154.70625 63.05L153.4875 63.05ZM156.47188 63.05L156.47188 55.784374L157.58125 55.784374L157.58125 56.815624Q158.37813 55.628124 159.89375 55.628124Q160.55 55.628124 161.09688 55.8625Q161.64375 56.096874 161.90938 56.4875Q162.19063 56.8625 162.3 57.39375Q162.37813 57.7375 162.37813 58.58125L162.37813 63.05L161.14375 63.05L161.14375 58.628124Q161.14375 57.878124 161.00313 57.51875Q160.8625 57.14375 160.4875 56.925Q160.12813 56.690624 159.62813 56.690624Q158.84688 56.690624 158.26875 57.190624Q157.70625 57.690624 157.70625 59.08125L157.70625 63.05L156.47188 63.05ZM164.25313 63.659374L165.44063 63.83125Q165.51875 64.37813 165.8625 64.64375Q166.31563 64.97188 167.1125 64.97188Q167.97188 64.97188 168.425 64.62813Q168.89375 64.3 169.06563 63.675Q169.15938 63.3 169.14375 62.096874Q168.34688 63.05 167.14375 63.05Q165.64375 63.05 164.81563 61.971874Q164.00313 60.89375 164.00313 59.378124Q164.00313 58.346874 164.37813 57.471874Q164.75313 56.58125 165.45625 56.1125Q166.175 55.628124 167.14375 55.628124Q168.425 55.628124 169.26875 56.659374L169.26875 55.784374L170.39375 55.784374L170.39375 62.065624Q170.39375 63.76875 170.05 64.47188Q169.70625 65.175 168.95625 65.58125Q168.20625 66.00313 167.1125 66.00313Q165.81563 66.00313 165.01875 65.40938Q164.22188 64.83125 164.25313 63.659374ZM165.26875 59.284374Q165.26875 60.721874 165.83125 61.378124Q166.39375 62.034374 167.25313 62.034374Q168.09688 62.034374 168.675 61.378124Q169.25313 60.721874 169.25313 59.33125Q169.25313 58.003124 168.65938 57.33125Q168.06563 56.64375 167.2375 56.64375Q166.40938 56.64375 165.83125 57.315624Q165.26875 57.971874 165.26875 59.284374ZM179.15938 61.95625L179.33125 63.034374Q178.81563 63.14375 178.40938 63.14375Q177.7375 63.14375 177.3625 62.940624Q177.00313 62.721874 176.84688 62.378124Q176.70625 62.034374 176.70625 60.925L176.70625 56.753124L175.8 56.753124L175.8 55.784374L176.70625 55.784374L176.70625 53.9875L177.925 53.253124L177.925 55.784374L179.15938 55.784374L179.15938 56.753124L177.925 56.753124L177.925 60.9875Q177.925 61.51875 177.9875 61.675Q178.05 61.815624 178.19063 61.909374Q178.34688 62.003124 178.6125 62.003124Q178.83125 62.003124 179.15938 61.95625ZM185.44063 60.70625L186.72188 60.8625Q186.40938 61.9875 185.59688 62.6125Q184.78438 63.221874 183.51875 63.221874Q181.925 63.221874 180.9875 62.2375Q180.06563 61.253124 180.06563 59.4875Q180.06563 57.64375 181.00313 56.64375Q181.95625 55.628124 183.45625 55.628124Q184.90938 55.628124 185.83125 56.628124Q186.75313 57.6125 186.75313 59.409374Q186.75313 59.51875 186.75313 59.7375L181.33125 59.7375Q181.40938 60.925 182.00313 61.565624Q182.6125 62.20625 183.53438 62.20625Q184.20625 62.20625 184.675 61.846874Q185.15938 61.4875 185.44063 60.70625ZM181.40938 58.721874L185.45625 58.721874Q185.37813 57.8 184.9875 57.346874Q184.40938 56.64375 183.47188 56.64375Q182.6125 56.64375 182.03438 57.20625Q181.47188 57.76875 181.40938 58.721874ZM187.9875 60.878124L189.19063 60.690624Q189.3 61.425 189.76875 61.815624Q190.2375 62.20625 191.08125 62.20625Q191.925 62.20625 192.33125 61.8625Q192.75313 61.51875 192.75313 61.05Q192.75313 60.628124 192.37813 60.39375Q192.12813 60.221874 191.12813 59.971874Q189.76875 59.628124 189.2375 59.378124Q188.72188 59.128124 188.45625 58.690624Q188.19063 58.253124 188.19063 57.721874Q188.19063 57.2375 188.40938 56.83125Q188.62813 56.409374 189.01875 56.128124Q189.3 55.925 189.78438 55.784374Q190.28438 55.628124 190.8625 55.628124Q191.70625 55.628124 192.34688 55.878124Q193.00313 56.1125 193.31563 56.534374Q193.62813 56.95625 193.7375 57.659374L192.53438 57.83125Q192.45625 57.26875 192.05 56.95625Q191.65938 56.64375 190.94063 56.64375Q190.09688 56.64375 189.7375 56.925Q189.37813 57.190624 189.37813 57.58125Q189.37813 57.815624 189.51875 58.003124Q189.675 58.20625 190.00313 58.33125Q190.175 58.39375 191.08125 58.64375Q192.39375 59.003124 192.90938 59.221874Q193.425 59.440624 193.70625 59.8625Q194.00313 60.284374 194.00313 60.909374Q194.00313 61.534374 193.64375 62.08125Q193.3 62.6125 192.6125 62.925Q191.94063 63.221874 191.08125 63.221874Q189.675 63.221874 188.925 62.628124Q188.19063 62.034374 187.9875 60.878124ZM198.15938 61.95625L198.33125 63.034374Q197.81563 63.14375 197.40938 63.14375Q196.7375 63.14375 196.3625 62.940624Q196.00313 62.721874 195.84688 62.378124Q195.70625 62.034374 195.70625 60.925L195.70625 56.753124L194.8 56.753124L194.8 55.784374L195.70625 55.784374L195.70625 53.9875L196.925 53.253124L196.925 55.784374L198.15938 55.784374L198.15938 56.753124L196.925 56.753124L196.925 60.9875Q196.925 61.51875 196.9875 61.675Q197.05 61.815624 197.19063 61.909374Q197.34688 62.003124 197.6125 62.003124Q197.83125 62.003124 198.15938 61.95625ZM208.20625 60.39375L209.425 60.55Q209.22188 61.8 208.39375 62.51875Q207.58125 63.221874 206.39375 63.221874Q204.90938 63.221874 204.00313 62.253124Q203.09688 61.26875 203.09688 59.440624Q203.09688 58.26875 203.4875 57.39375Q203.87813 56.503124 204.675 56.065624Q205.47188 55.628124 206.40938 55.628124Q207.58125 55.628124 208.33125 56.221874Q209.09688 56.815624 209.3 57.925L208.1125 58.1125Q207.94063 57.378124 207.50313 57.01875Q207.06563 56.64375 206.45625 56.64375Q205.51875 56.64375 204.94063 57.315624Q204.3625 57.971874 204.3625 59.409374Q204.3625 60.878124 204.925 61.55Q205.4875 62.20625 206.37813 62.20625Q207.1125 62.20625 207.59688 61.76875Q208.08125 61.315624 208.20625 60.39375ZM215.20625 62.159374Q214.53438 62.7375 213.89375 62.9875Q213.26875 63.221874 212.53438 63.221874Q211.34688 63.221874 210.69063 62.64375Q210.05 62.05 210.05 61.128124Q210.05 60.596874 210.28438 60.159374Q210.53438 59.721874 210.925 59.45625Q211.33125 59.190624 211.81563 59.05Q212.175 58.95625 212.90938 58.8625Q214.40938 58.690624 215.1125 58.440624Q215.1125 58.190624 215.1125 58.128124Q215.1125 57.3625 214.76875 57.065624Q214.3 56.64375 213.3625 56.64375Q212.50313 56.64375 212.08125 56.95625Q211.675 57.253124 211.47188 58.01875L210.26875 57.8625Q210.425 57.08125 210.8 56.6125Q211.19063 56.14375 211.89375 55.89375Q212.6125 55.628124 213.55 55.628124Q214.47188 55.628124 215.05 55.846874Q215.62813 56.065624 215.89375 56.39375Q216.175 56.721874 216.28438 57.2375Q216.34688 57.55 216.34688 58.3625L216.34688 60.003124Q216.34688 61.721874 216.425 62.175Q216.50313 62.628124 216.7375 63.05L215.45625 63.05Q215.26875 62.659374 215.20625 62.159374ZM215.1125 59.409374Q214.44063 59.675 213.09688 59.878124Q212.34688 59.9875 212.01875 60.128124Q211.70625 60.253124 211.53438 60.51875Q211.3625 60.784374 211.3625 61.096874Q211.3625 61.596874 211.7375 61.925Q212.1125 62.253124 212.83125 62.253124Q213.55 62.253124 214.09688 61.940624Q214.64375 61.628124 214.90938 61.08125Q215.1125 60.675 215.1125 59.8625L215.1125 59.409374ZM217.9875 60.878124L219.19063 60.690624Q219.3 61.425 219.76875 61.815624Q220.2375 62.20625 221.08125 62.20625Q221.925 62.20625 222.33125 61.8625Q222.75313 61.51875 222.75313 61.05Q222.75313 60.628124 222.37813 60.39375Q222.12813 60.221874 221.12813 59.971874Q219.76875 59.628124 219.2375 59.378124Q218.72188 59.128124 218.45625 58.690624Q218.19063 58.253124 218.19063 57.721874Q218.19063 57.2375 218.40938 56.83125Q218.62813 56.409374 219.01875 56.128124Q219.3 55.925 219.78438 55.784374Q220.28438 55.628124 220.8625 55.628124Q221.70625 55.628124 222.34688 55.878124Q223.00313 56.1125 223.31563 56.534374Q223.62813 56.95625 223.7375 57.659374L222.53438 57.83125Q222.45625 57.26875 222.05 56.95625Q221.65938 56.64375 220.94063 56.64375Q220.09688 56.64375 219.7375 56.925Q219.37813 57.190624 219.37813 57.58125Q219.37813 57.815624 219.51875 58.003124Q219.675 58.20625 220.00313 58.33125Q220.175 58.39375 221.08125 58.64375Q222.39375 59.003124 222.90938 59.221874Q223.425 59.440624 223.70625 59.8625Q224.00313 60.284374 224.00313 60.909374Q224.00313 61.534374 223.64375 62.08125Q223.3 62.6125 222.6125 62.925Q221.94063 63.221874 221.08125 63.221874Q219.675 63.221874 218.925 62.628124Q218.19063 62.034374 217.9875 60.878124ZM230.44063 60.70625L231.72188 60.8625Q231.40938 61.9875 230.59688 62.6125Q229.78438 63.221874 228.51875 63.221874Q226.925 63.221874 225.9875 62.2375Q225.06563 61.253124 225.06563 59.4875Q225.06563 57.64375 226.00313 56.64375Q226.95625 55.628124 228.45625 55.628124Q229.90938 55.628124 230.83125 56.628124Q231.75313 57.6125 231.75313 59.409374Q231.75313 59.51875 231.75313 59.7375L226.33125 59.7375Q226.40938 60.925 227.00313 61.565624Q227.6125 62.20625 228.53438 62.20625Q229.20625 62.20625 229.675 61.846874Q230.15938 61.4875 230.44063 60.70625ZM226.40938 58.721874L230.45625 58.721874Q230.37813 57.8 229.9875 57.346874Q229.40938 56.64375 228.47188 56.64375Q227.6125 56.64375 227.03438 57.20625Q226.47188 57.76875 226.40938 58.721874ZM232.9875 60.878124L234.19063 60.690624Q234.3 61.425 234.76875 61.815624Q235.2375 62.20625 236.08125 62.20625Q236.925 62.20625 237.33125 61.8625Q237.75313 61.51875 237.75313 61.05Q237.75313 60.628124 237.37813 60.39375Q237.12813 60.221874 236.12813 59.971874Q234.76875 59.628124 234.2375 59.378124Q233.72188 59.128124 233.45625 58.690624Q233.19063 58.253124 233.19063 57.721874Q233.19063 57.2375 233.40938 56.83125Q233.62813 56.409374 234.01875 56.128124Q234.3 55.925 234.78438 55.784374Q235.28438 55.628124 235.8625 55.628124Q236.70625 55.628124 237.34688 55.878124Q238.00313 56.1125 238.31563 56.534374Q238.62813 56.95625 238.7375 57.659374L237.53438 57.83125Q237.45625 57.26875 237.05 56.95625Q236.65938 56.64375 235.94063 56.64375Q235.09688 56.64375 234.7375 56.925Q234.37813 57.190624 234.37813 57.58125Q234.37813 57.815624 234.51875 58.003124Q234.675 58.20625 235.00313 58.33125Q235.175 58.39375 236.08125 58.64375Q237.39375 59.003124 237.90938 59.221874Q238.425 59.440624 238.70625 59.8625Q239.00313 60.284374 239.00313 60.909374Q239.00313 61.534374 238.64375 62.08125Q238.3 62.6125 237.6125 62.925Q236.94063 63.221874 236.08125 63.221874Q234.675 63.221874 233.925 62.628124Q233.19063 62.034374 232.9875 60.878124Z" fill-rule="nonzero"/><path fill="#757575" d="M20.096874 37.55L20.096874 23.2375L25.01875 23.2375Q26.690624 23.2375 27.58125 23.440624Q28.8 23.721874 29.675 24.45625Q30.8 25.425 31.3625 26.909374Q31.925 28.39375 31.925 30.315624Q31.925 31.940624 31.55 33.20625Q31.175 34.45625 30.565624 35.284374Q29.971874 36.1125 29.26875 36.596874Q28.565624 37.065624 27.565624 37.315624Q26.565624 37.55 25.253124 37.55L20.096874 37.55ZM21.9875 35.8625L25.05 35.8625Q26.45625 35.8625 27.253124 35.596874Q28.065624 35.33125 28.55 34.846874Q29.221874 34.175 29.596874 33.05Q29.971874 31.909374 29.971874 30.284374Q29.971874 28.034374 29.2375 26.83125Q28.503124 25.628124 27.440624 25.221874Q26.690624 24.925 25.003124 24.925L21.9875 24.925L21.9875 35.8625ZM33.846874 37.55L33.846874 27.175L35.425 27.175L35.425 28.753124Q36.034374 27.64375 36.55 27.3Q37.065624 26.940624 37.675 26.940624Q38.565624 26.940624 39.4875 27.503124L38.878124 29.14375Q38.2375 28.753124 37.596874 28.753124Q37.01875 28.753124 36.55 29.1125Q36.096874 29.45625 35.89375 30.065624Q35.6125 31.003124 35.6125 32.1125L35.6125 37.55L33.846874 37.55ZM47.64375 36.26875Q46.659374 37.096874 45.753124 37.440624Q44.846874 37.784374 43.815624 37.784374Q42.1125 37.784374 41.190624 36.95625Q40.26875 36.1125 40.26875 34.815624Q40.26875 34.05 40.6125 33.425Q40.971874 32.8 41.534374 32.425Q42.096874 32.034374 42.8 31.83125Q43.315624 31.70625 44.3625 31.565624Q46.4875 31.315624 47.4875 30.971874Q47.503124 30.6125 47.503124 30.503124Q47.503124 29.440624 47.003124 28.9875Q46.33125 28.39375 45.003124 28.39375Q43.753124 28.39375 43.159374 28.83125Q42.58125 29.26875 42.3 30.378124L40.58125 30.14375Q40.815624 29.034374 41.346874 28.3625Q41.878124 27.675 42.89375 27.315624Q43.909374 26.940624 45.253124 26.940624Q46.58125 26.940624 47.409374 27.253124Q48.2375 27.565624 48.628124 28.05Q49.01875 28.51875 49.175 29.2375Q49.26875 29.690624 49.26875 30.8625L49.26875 33.20625Q49.26875 35.659374 49.378124 36.315624Q49.4875 36.95625 49.83125 37.55L47.9875 37.55Q47.721874 37.003124 47.64375 36.26875ZM47.4875 32.346874Q46.534374 32.7375 44.6125 33.003124Q43.534374 33.159374 43.08125 33.3625Q42.64375 33.55 42.39375 33.925Q42.14375 34.3 42.14375 34.76875Q42.14375 35.471874 42.675 35.940624Q43.20625 36.409374 44.2375 36.409374Q45.253124 36.409374 46.034374 35.971874Q46.83125 35.51875 47.20625 34.753124Q47.4875 34.14375 47.4875 32.9875L47.4875 32.346874ZM52.284374 37.55L52.284374 28.55L50.7375 28.55L50.7375 27.175L52.284374 27.175L52.284374 26.08125Q52.284374 25.034374 52.471874 24.51875Q52.721874 23.83125 53.3625 23.409374Q54.003124 22.9875 55.159374 22.9875Q55.909374 22.9875 56.8 23.159374L56.534374 24.690624Q55.9875 24.596874 55.503124 24.596874Q54.70625 24.596874 54.3625 24.940624Q54.034374 25.284374 54.034374 26.221874L54.034374 27.175L56.065624 27.175L56.065624 28.55L54.034374 28.55L54.034374 37.55L52.284374 37.55ZM61.70625 35.971874L61.95625 37.534374Q61.221874 37.690624 60.628124 37.690624Q59.675 37.690624 59.14375 37.39375Q58.628124 37.08125 58.409374 36.596874Q58.190624 36.096874 58.190624 34.51875L58.190624 28.55L56.909374 28.55L56.909374 27.175L58.190624 27.175L58.190624 24.6125L59.940624 23.55L59.940624 27.175L61.70625 27.175L61.70625 28.55L59.940624 28.55L59.940624 34.6125Q59.940624 35.3625 60.034374 35.58125Q60.128124 35.784374 60.33125 35.925Q60.55 36.05 60.940624 36.05Q61.221874 36.05 61.70625 35.971874ZM78.6125 35.8625L78.6125 37.55L69.15938 37.55Q69.14375 36.909374 69.3625 36.33125Q69.72188 35.3625 70.51875 34.425Q71.31563 33.4875 72.81563 32.253124Q75.15938 30.346874 75.97188 29.2375Q76.8 28.1125 76.8 27.1125Q76.8 26.065624 76.05 25.346874Q75.3 24.628124 74.09688 24.628124Q72.83125 24.628124 72.06563 25.39375Q71.3 26.159374 71.3 27.503124L69.4875 27.315624Q69.675 25.3 70.87813 24.2375Q72.09688 23.175 74.14375 23.175Q76.19063 23.175 77.39375 24.315624Q78.59688 25.45625 78.59688 27.14375Q78.59688 28.003124 78.2375 28.846874Q77.89375 29.675 77.08125 30.596874Q76.26875 31.503124 74.37813 33.1125Q72.78438 34.440624 72.33125 34.909374Q71.89375 35.378124 71.59688 35.8625L78.6125 35.8625ZM80.37813 30.4875Q80.37813 27.95625 80.89375 26.409374Q81.425 24.846874 82.45625 24.01875Q83.4875 23.175 85.05 23.175Q86.20625 23.175 87.06563 23.64375Q87.94063 24.096874 88.50313 24.971874Q89.06563 25.846874 89.39375 27.1125Q89.72188 28.3625 89.72188 30.4875Q89.72188 33.003124 89.19063 34.55Q88.675 36.096874 87.64375 36.95625Q86.62813 37.8 85.05 37.8Q82.97188 37.8 81.8 36.315624Q80.37813 34.51875 80.37813 30.4875ZM82.19063 30.4875Q82.19063 34.01875 83.00313 35.190624Q83.83125 36.346874 85.05 36.346874Q86.25313 36.346874 87.08125 35.175Q87.90938 34.003124 87.90938 30.4875Q87.90938 26.95625 87.08125 25.8Q86.25313 24.628124 85.03438 24.628124Q83.81563 24.628124 83.09688 25.659374Q82.19063 26.95625 82.19063 30.4875ZM98.00313 37.55L96.2375 37.55L96.2375 26.346874Q95.6125 26.95625 94.58125 27.565624Q93.55 28.159374 92.72188 28.471874L92.72188 26.76875Q94.20625 26.08125 95.3 25.096874Q96.40938 24.096874 96.8625 23.175L98.00313 23.175L98.00313 37.55ZM102.64375 34.2375L104.33125 34.08125Q104.55 35.26875 105.14375 35.815624Q105.75313 36.346874 106.70625 36.346874Q107.51875 36.346874 108.12813 35.9875Q108.7375 35.6125 109.12813 34.9875Q109.51875 34.3625 109.78438 33.315624Q110.05 32.253124 110.05 31.159374Q110.05 31.05 110.03438 30.815624Q109.50313 31.64375 108.59688 32.175Q107.69063 32.690624 106.6125 32.690624Q104.84688 32.690624 103.6125 31.409374Q102.37813 30.1125 102.37813 28.003124Q102.37813 25.83125 103.65938 24.503124Q104.95625 23.175 106.87813 23.175Q108.28438 23.175 109.44063 23.925Q110.59688 24.675 111.19063 26.065624Q111.8 27.45625 111.8 30.096874Q111.8 32.846874 111.19063 34.471874Q110.59688 36.096874 109.425 36.95625Q108.25313 37.8 106.675 37.8Q104.9875 37.8 103.925 36.8625Q102.8625 35.925 102.64375 34.2375ZM109.84688 27.925Q109.84688 26.409374 109.03438 25.51875Q108.2375 24.628124 107.09688 24.628124Q105.925 24.628124 105.05 25.596874Q104.19063 26.55 104.19063 28.065624Q104.19063 29.440624 105.00313 30.3Q105.83125 31.14375 107.05 31.14375Q108.26875 31.14375 109.05 30.3Q109.84688 29.440624 109.84688 27.925ZM113.19063 33.253124L113.19063 31.4875L118.58125 31.4875L118.58125 33.253124L113.19063 33.253124ZM120.37813 30.4875Q120.37813 27.95625 120.89375 26.409374Q121.425 24.846874 122.45625 24.01875Q123.4875 23.175 125.05 23.175Q126.20625 23.175 127.06563 23.64375Q127.94063 24.096874 128.50313 24.971874Q129.06563 25.846874 129.39375 27.1125Q129.72188 28.3625 129.72188 30.4875Q129.72188 33.003124 129.19063 34.55Q128.675 36.096874 127.64375 36.95625Q126.62813 37.8 125.05 37.8Q122.97188 37.8 121.8 36.315624Q120.37813 34.51875 120.37813 30.4875ZM122.19063 30.4875Q122.19063 34.01875 123.00313 35.190624Q123.83125 36.346874 125.05 36.346874Q126.25313 36.346874 127.08125 35.175Q127.90938 34.003124 127.90938 30.4875Q127.90938 26.95625 127.08125 25.8Q126.25313 24.628124 125.03438 24.628124Q123.81563 24.628124 123.09688 25.659374Q122.19063 26.95625 122.19063 30.4875Z" fill-rule="nonzero"/></svg>