<svg version="1.1" viewBox="0.0 0.0 600.0 371.0" fill="none" stroke="none" stroke-linecap="square" stroke-miterlimit="10" width="600" height="371" xmlns:xlink="http://www.w3.org/1999/xlink" xmlns="http://www.w3.org/2000/svg"><path fill="#ffffff" d="M0 0L600.0 0L600.0 371.0L0 371.0L0 0Z" fill-rule="nonzero"/><path stroke="#333333" stroke-width="1.0" stroke-linecap="butt" d="M45.5 332.5L581.5 332.5" fill-rule="nonzero"/><path stroke="#cccccc" stroke-width="1.0" stroke-linecap="butt" d="M45.5 270.5L581.5 270.5" fill-rule="nonzero"/><path stroke="#cccccc" stroke-width="1.0" stroke-linecap="butt" d="M45.5 208.5L581.5 208.5" fill-rule="nonzero"/><path stroke="#cccccc" stroke-width="1.0" stroke-linecap="butt" d="M45.5 147.5L581.5 147.5" fill-rule="nonzero"/><path stroke="#cccccc" stroke-width="1.0" stroke-linecap="butt" d="M45.5 85.5L581.5 85.5" fill-rule="nonzero"/><clipPath id="id_0"><path d="M45.55 85.416664L581.45 85.416664L581.45 332.45L45.55 332.45L45.55 85.416664Z" clip-rule="nonzero"/></clipPath><path stroke="#000000" stroke-width="2.0" stroke-linecap="butt" stroke-opacity="0.0" clip-path="url(#id_0)" d="M146.0 332.0L81.0 332.0L81.0 285.0C81.0 283.89542 81.89543 283.0 83.0 283.0L144.0 283.0C145.10457 283.0 146.0 283.89542 146.0 285.0Z" fill-rule="nonzero"/><path fill="#0b5394" clip-path="url(#id_0)" d="M146.0 332.0L81.0 332.0L81.0 285.0C81.0 283.89542 81.89543 283.0 83.0 283.0L144.0 283.0C145.10457 283.0 146.0 283.89542 146.0 285.0Z" fill-rule="nonzero"/><path stroke="#000000" stroke-width="2.0" stroke-linecap="butt" stroke-opacity="0.0" clip-path="url(#id_0)" d="M246.0 332.0L181.0 332.0L181.0 283.0C181.0 281.89542 181.89543 281.0 183.0 281.0L244.0 281.0C245.10457 281.0 246.0 281.89542 246.0 283.0Z" fill-rule="nonzero"/><path fill="#38761d" clip-path="url(#id_0)" d="M246.0 332.0L181.0 332.0L181.0 283.0C181.0 281.89542 181.89543 281.0 183.0 281.0L244.0 281.0C245.10457 281.0 246.0 281.89542 246.0 283.0Z" fill-rule="nonzero"/><path stroke="#000000" stroke-width="2.0" stroke-linecap="butt" stroke-opacity="0.0" clip-path="url(#id_0)" d="M347.0 332.0L282.0 332.0L282.0 248.0C282.0 246.89543 282.89542 246.0 284.0 246.0L345.0 246.0C346.10458 246.0 347.0 246.89543 347.0 248.0Z" fill-rule="nonzero"/><path fill="#4285f4" clip-path="url(#id_0)" d="M347.0 332.0L282.0 332.0L282.0 248.0C282.0 246.89543 282.89542 246.0 284.0 246.0L345.0 246.0C346.10458 246.0 347.0 246.89543 347.0 248.0Z" fill-rule="nonzero"/><path stroke="#000000" stroke-width="2.0" stroke-linecap="butt" stroke-opacity="0.0" clip-path="url(#id_0)" d="M447.0 332.0L382.0 332.0L382.0 234.0C382.0 232.89543 382.89542 232.0 384.0 232.0L445.0 232.0C446.10458 232.0 447.0 232.89543 447.0 234.0Z" fill-rule="nonzero"/><path fill="#351c75" clip-path="url(#id_0)" d="M447.0 332.0L382.0 332.0L382.0 234.0C382.0 232.89543 382.89542 232.0 384.0 232.0L445.0 232.0C446.10458 232.0 447.0 232.89543 447.0 234.0Z" fill-rule="nonzero"/><path stroke="#000000" stroke-width="2.0" stroke-linecap="butt" stroke-opacity="0.0" clip-path="url(#id_0)" d="M547.0 332.0L482.0 332.0L482.0 116.0C482.0 114.89543 482.89542 114.0 484.0 114.0L545.0 114.0C546.10455 114.0 547.0 114.89543 547.0 116.0Z" fill-rule="nonzero"/><path fill="#cc0000" clip-path="url(#id_0)" d="M547.0 332.0L482.0 332.0L482.0 116.0C482.0 114.89543 482.89542 114.0 484.0 114.0L545.0 114.0C546.10455 114.0 547.0 114.89543 547.0 116.0Z" fill-rule="nonzero"/><path stroke="#0b5394" stroke-width="3.0" stroke-linejoin="round" stroke-linecap="round" d="M98.84375 299.28082Q98.84375 298.99957 99.0 298.81207Q99.171875 298.62457 99.5 298.62457Q99.84375 298.62457 100.015625 298.81207Q100.1875 298.99957 100.1875 299.28082Q100.1875 299.54645 100.015625 299.73395Q99.84375 299.90582 99.5 299.90582Q99.171875 299.90582 99.0 299.73395Q98.84375 299.54645 98.84375 299.28082ZM106.28125 296.98395L107.46875 296.98395L107.46875 297.85895L106.28125 297.85895L106.28125 299.84332L105.203125 299.84332L105.203125 297.85895L101.3125 297.85895L101.3125 297.21832L105.125 291.31207L106.28125 291.31207L106.28125 296.98395ZM102.546875 296.98395L105.203125 296.98395L105.203125 292.79645L105.0625 293.03082L102.546875 296.98395ZM112.84375 293.49957L112.875 294.2027Q113.5625 293.3902 114.75 293.3902Q116.078125 293.3902 116.5625 294.40582Q116.875 293.9527 117.375 293.67145Q117.890625 293.3902 118.578125 293.3902Q120.671875 293.3902 120.703125 295.59332L120.703125 299.84332L119.625 299.84332L119.625 295.65582Q119.625 294.98395 119.3125 294.65582Q119.0 294.31207 118.265625 294.31207Q117.65625 294.31207 117.25 294.67145Q116.859375 295.03082 116.796875 295.6402L116.796875 299.84332L115.71875 299.84332L115.71875 295.68707Q115.71875 294.31207 114.359375 294.31207Q113.296875 294.31207 112.90625 295.21832L112.90625 299.84332L111.8125 299.84332L111.8125 293.49957L112.84375 293.49957ZM126.515625 298.15582Q126.515625 297.71832 126.171875 297.48395Q125.84375 297.23395 125.015625 297.06207Q124.203125 296.8902 123.71875 296.6402Q123.234375 296.3902 123.0 296.06207Q122.78125 295.71832 122.78125 295.24957Q122.78125 294.46832 123.4375 293.93707Q124.09375 293.3902 125.125 293.3902Q126.203125 293.3902 126.859375 293.9527Q127.53125 294.49957 127.53125 295.35895L126.453125 295.35895Q126.453125 294.92145 126.0625 294.60895Q125.6875 294.28082 125.125 294.28082Q124.53125 294.28082 124.1875 294.54645Q123.859375 294.79645 123.859375 295.2027Q123.859375 295.59332 124.171875 295.79645Q124.484375 295.99957 125.296875 296.18707Q126.109375 296.35895 126.609375 296.60895Q127.109375 296.85895 127.34375 297.21832Q127.59375 297.5777 127.59375 298.0777Q127.59375 298.93707 126.90625 299.4527Q126.234375 299.96832 125.15625 299.96832Q124.390625 299.96832 123.796875 299.7027Q123.21875 299.42145 122.890625 298.93707Q122.5625 298.4527 122.5625 297.8902L123.640625 297.8902Q123.671875 298.43707 124.078125 298.7652Q124.484375 299.0777 125.15625 299.0777Q125.765625 299.0777 126.140625 298.8277Q126.515625 298.5777 126.515625 298.15582Z" fill-rule="nonzero"/><path fill="#ffffff" d="M98.84375 299.28082Q98.84375 298.99957 99.0 298.81207Q99.171875 298.62457 99.5 298.62457Q99.84375 298.62457 100.015625 298.81207Q100.1875 298.99957 100.1875 299.28082Q100.1875 299.54645 100.015625 299.73395Q99.84375 299.90582 99.5 299.90582Q99.171875 299.90582 99.0 299.73395Q98.84375 299.54645 98.84375 299.28082ZM106.28125 296.98395L107.46875 296.98395L107.46875 297.85895L106.28125 297.85895L106.28125 299.84332L105.203125 299.84332L105.203125 297.85895L101.3125 297.85895L101.3125 297.21832L105.125 291.31207L106.28125 291.31207L106.28125 296.98395ZM102.546875 296.98395L105.203125 296.98395L105.203125 292.79645L105.0625 293.03082L102.546875 296.98395ZM112.84375 293.49957L112.875 294.2027Q113.5625 293.3902 114.75 293.3902Q116.078125 293.3902 116.5625 294.40582Q116.875 293.9527 117.375 293.67145Q117.890625 293.3902 118.578125 293.3902Q120.671875 293.3902 120.703125 295.59332L120.703125 299.84332L119.625 299.84332L119.625 295.65582Q119.625 294.98395 119.3125 294.65582Q119.0 294.31207 118.265625 294.31207Q117.65625 294.31207 117.25 294.67145Q116.859375 295.03082 116.796875 295.6402L116.796875 299.84332L115.71875 299.84332L115.71875 295.68707Q115.71875 294.31207 114.359375 294.31207Q113.296875 294.31207 112.90625 295.21832L112.90625 299.84332L111.8125 299.84332L111.8125 293.49957L112.84375 293.49957ZM126.515625 298.15582Q126.515625 297.71832 126.171875 297.48395Q125.84375 297.23395 125.015625 297.06207Q124.203125 296.8902 123.71875 296.6402Q123.234375 296.3902 123.0 296.06207Q122.78125 295.71832 122.78125 295.24957Q122.78125 294.46832 123.4375 293.93707Q124.09375 293.3902 125.125 293.3902Q126.203125 293.3902 126.859375 293.9527Q127.53125 294.49957 127.53125 295.35895L126.453125 295.35895Q126.453125 294.92145 126.0625 294.60895Q125.6875 294.28082 125.125 294.28082Q124.53125 294.28082 124.1875 294.54645Q123.859375 294.79645 123.859375 295.2027Q123.859375 295.59332 124.171875 295.79645Q124.484375 295.99957 125.296875 296.18707Q126.109375 296.35895 126.609375 296.60895Q127.109375 296.85895 127.34375 297.21832Q127.59375 297.5777 127.59375 298.0777Q127.59375 298.93707 126.90625 299.4527Q126.234375 299.96832 125.15625 299.96832Q124.390625 299.96832 123.796875 299.7027Q123.21875 299.42145 122.890625 298.93707Q122.5625 298.4527 122.5625 297.8902L123.640625 297.8902Q123.671875 298.43707 124.078125 298.7652Q124.484375 299.0777 125.15625 299.0777Q125.765625 299.0777 126.140625 298.8277Q126.515625 298.5777 126.515625 298.15582Z" fill-rule="nonzero"/><path stroke="#38761d" stroke-width="3.0" stroke-linejoin="round" stroke-linecap="round" d="M191.84375 297.30457Q191.84375 297.02332 192.0 296.83582Q192.17188 296.64832 192.5 296.64832Q192.84375 296.64832 193.01562 296.83582Q193.1875 297.02332 193.1875 297.30457Q193.1875 297.5702 193.01562 297.7577Q192.84375 297.92957 192.5 297.92957Q192.17188 297.92957 192.0 297.7577Q191.84375 297.5702 191.84375 297.30457ZM199.28125 295.0077L200.46875 295.0077L200.46875 295.8827L199.28125 295.8827L199.28125 297.86707L198.20312 297.86707L198.20312 295.8827L194.3125 295.8827L194.3125 295.24207L198.125 289.33582L199.28125 289.33582L199.28125 295.0077ZM195.54688 295.0077L198.20312 295.0077L198.20312 290.8202L198.0625 291.05457L195.54688 295.0077ZM205.26562 297.86707L204.1875 297.86707L204.1875 290.64832L202.0 291.4452L202.0 290.46082L205.10938 289.28894L205.26562 289.28894L205.26562 297.86707ZM212.96875 289.33582L212.96875 290.24207L212.76562 290.24207Q211.5 290.27332 210.75 291.0077Q210.0 291.72644 209.875 293.03894Q210.5625 292.27332 211.71875 292.27332Q212.82812 292.27332 213.5 293.05457Q214.17188 293.83582 214.17188 295.08582Q214.17188 296.39832 213.45312 297.1952Q212.73438 297.99207 211.51562 297.99207Q210.29688 297.99207 209.53125 297.05457Q208.78125 296.10144 208.78125 294.61707L208.78125 294.21082Q208.78125 291.85144 209.78125 290.60144Q210.78125 289.35144 212.76562 289.33582L212.96875 289.33582ZM211.54688 293.17957Q210.98438 293.17957 210.51562 293.5077Q210.04688 293.83582 209.85938 294.35144L209.85938 294.74207Q209.85938 295.80457 210.32812 296.4452Q210.8125 297.08582 211.51562 297.08582Q212.25 297.08582 212.67188 296.55457Q213.09375 296.0077 213.09375 295.1327Q213.09375 294.2577 212.67188 293.72644Q212.25 293.17957 211.54688 293.17957ZM219.84375 291.52332L219.875 292.22644Q220.5625 291.41394 221.75 291.41394Q223.07812 291.41394 223.5625 292.42957Q223.875 291.97644 224.375 291.6952Q224.89062 291.41394 225.57812 291.41394Q227.67188 291.41394 227.70312 293.61707L227.70312 297.86707L226.625 297.86707L226.625 293.67957Q226.625 293.0077 226.3125 292.67957Q226.0 292.33582 225.26562 292.33582Q224.65625 292.33582 224.25 292.6952Q223.85938 293.05457 223.79688 293.66394L223.79688 297.86707L222.71875 297.86707L222.71875 293.71082Q222.71875 292.33582 221.35938 292.33582Q220.29688 292.33582 219.90625 293.24207L219.90625 297.86707L218.8125 297.86707L218.8125 291.52332L219.84375 291.52332ZM233.51562 296.17957Q233.51562 295.74207 233.17188 295.5077Q232.84375 295.2577 232.01562 295.08582Q231.20312 294.91394 230.71875 294.66394Q230.23438 294.41394 230.0 294.08582Q229.78125 293.74207 229.78125 293.27332Q229.78125 292.49207 230.4375 291.96082Q231.09375 291.41394 232.125 291.41394Q233.20312 291.41394 233.85938 291.97644Q234.53125 292.52332 234.53125 293.3827L233.45312 293.3827Q233.45312 292.9452 233.0625 292.6327Q232.6875 292.30457 232.125 292.30457Q231.53125 292.30457 231.1875 292.5702Q230.85938 292.8202 230.85938 293.22644Q230.85938 293.61707 231.17188 293.8202Q231.48438 294.02332 232.29688 294.21082Q233.10938 294.3827 233.60938 294.6327Q234.10938 294.8827 234.34375 295.24207Q234.59375 295.60144 234.59375 296.10144Q234.59375 296.96082 233.90625 297.47644Q233.23438 297.99207 232.15625 297.99207Q231.39062 297.99207 230.79688 297.72644Q230.21875 297.4452 229.89062 296.96082Q229.5625 296.47644 229.5625 295.91394L230.64062 295.91394Q230.67188 296.46082 231.07812 296.78894Q231.48438 297.10144 232.15625 297.10144Q232.76562 297.10144 233.14062 296.85144Q233.51562 296.60144 233.51562 296.17957Z" fill-rule="nonzero"/><path fill="#ffffff" d="M191.84375 297.30457Q191.84375 297.02332 192.0 296.83582Q192.17188 296.64832 192.5 296.64832Q192.84375 296.64832 193.01562 296.83582Q193.1875 297.02332 193.1875 297.30457Q193.1875 297.5702 193.01562 297.7577Q192.84375 297.92957 192.5 297.92957Q192.17188 297.92957 192.0 297.7577Q191.84375 297.5702 191.84375 297.30457ZM199.28125 295.0077L200.46875 295.0077L200.46875 295.8827L199.28125 295.8827L199.28125 297.86707L198.20312 297.86707L198.20312 295.8827L194.3125 295.8827L194.3125 295.24207L198.125 289.33582L199.28125 289.33582L199.28125 295.0077ZM195.54688 295.0077L198.20312 295.0077L198.20312 290.8202L198.0625 291.05457L195.54688 295.0077ZM205.26562 297.86707L204.1875 297.86707L204.1875 290.64832L202.0 291.4452L202.0 290.46082L205.10938 289.28894L205.26562 289.28894L205.26562 297.86707ZM212.96875 289.33582L212.96875 290.24207L212.76562 290.24207Q211.5 290.27332 210.75 291.0077Q210.0 291.72644 209.875 293.03894Q210.5625 292.27332 211.71875 292.27332Q212.82812 292.27332 213.5 293.05457Q214.17188 293.83582 214.17188 295.08582Q214.17188 296.39832 213.45312 297.1952Q212.73438 297.99207 211.51562 297.99207Q210.29688 297.99207 209.53125 297.05457Q208.78125 296.10144 208.78125 294.61707L208.78125 294.21082Q208.78125 291.85144 209.78125 290.60144Q210.78125 289.35144 212.76562 289.33582L212.96875 289.33582ZM211.54688 293.17957Q210.98438 293.17957 210.51562 293.5077Q210.04688 293.83582 209.85938 294.35144L209.85938 294.74207Q209.85938 295.80457 210.32812 296.4452Q210.8125 297.08582 211.51562 297.08582Q212.25 297.08582 212.67188 296.55457Q213.09375 296.0077 213.09375 295.1327Q213.09375 294.2577 212.67188 293.72644Q212.25 293.17957 211.54688 293.17957ZM219.84375 291.52332L219.875 292.22644Q220.5625 291.41394 221.75 291.41394Q223.07812 291.41394 223.5625 292.42957Q223.875 291.97644 224.375 291.6952Q224.89062 291.41394 225.57812 291.41394Q227.67188 291.41394 227.70312 293.61707L227.70312 297.86707L226.625 297.86707L226.625 293.67957Q226.625 293.0077 226.3125 292.67957Q226.0 292.33582 225.26562 292.33582Q224.65625 292.33582 224.25 292.6952Q223.85938 293.05457 223.79688 293.66394L223.79688 297.86707L222.71875 297.86707L222.71875 293.71082Q222.71875 292.33582 221.35938 292.33582Q220.29688 292.33582 219.90625 293.24207L219.90625 297.86707L218.8125 297.86707L218.8125 291.52332L219.84375 291.52332ZM233.51562 296.17957Q233.51562 295.74207 233.17188 295.5077Q232.84375 295.2577 232.01562 295.08582Q231.20312 294.91394 230.71875 294.66394Q230.23438 294.41394 230.0 294.08582Q229.78125 293.74207 229.78125 293.27332Q229.78125 292.49207 230.4375 291.96082Q231.09375 291.41394 232.125 291.41394Q233.20312 291.41394 233.85938 291.97644Q234.53125 292.52332 234.53125 293.3827L233.45312 293.3827Q233.45312 292.9452 233.0625 292.6327Q232.6875 292.30457 232.125 292.30457Q231.53125 292.30457 231.1875 292.5702Q230.85938 292.8202 230.85938 293.22644Q230.85938 293.61707 231.17188 293.8202Q231.48438 294.02332 232.29688 294.21082Q233.10938 294.3827 233.60938 294.6327Q234.10938 294.8827 234.34375 295.24207Q234.59375 295.60144 234.59375 296.10144Q234.59375 296.96082 233.90625 297.47644Q233.23438 297.99207 232.15625 297.99207Q231.39062 297.99207 230.79688 297.72644Q230.21875 297.4452 229.89062 296.96082Q229.5625 296.47644 229.5625 295.91394L230.64062 295.91394Q230.67188 296.46082 231.07812 296.78894Q231.48438 297.10144 232.15625 297.10144Q232.76562 297.10144 233.14062 296.85144Q233.51562 296.60144 233.51562 296.17957Z" fill-rule="nonzero"/><path stroke="#4285f4" stroke-width="3.0" stroke-linejoin="round" stroke-linecap="round" d="M299.84375 262.22583Q299.84375 261.94458 300.0 261.75708Q300.17188 261.56958 300.5 261.56958Q300.84375 261.56958 301.01562 261.75708Q301.1875 261.94458 301.1875 262.22583Q301.1875 262.49146 301.01562 262.67896Q300.84375 262.85083 300.5 262.85083Q300.17188 262.85083 300.0 262.67896Q299.84375 262.49146 299.84375 262.22583ZM308.21875 254.86646L304.6875 262.78833L303.54688 262.78833L307.0625 255.1477L302.45312 255.1477L302.45312 254.25708L308.21875 254.25708L308.21875 254.86646ZM313.84375 256.44458L313.875 257.1477Q314.5625 256.3352 315.75 256.3352Q317.07812 256.3352 317.5625 257.35083Q317.875 256.8977 318.375 256.61646Q318.89062 256.3352 319.57812 256.3352Q321.67188 256.3352 321.70312 258.53833L321.70312 262.78833L320.625 262.78833L320.625 258.60083Q320.625 257.92896 320.3125 257.60083Q320.0 257.25708 319.26562 257.25708Q318.65625 257.25708 318.25 257.61646Q317.85938 257.97583 317.79688 258.5852L317.79688 262.78833L316.71875 262.78833L316.71875 258.63208Q316.71875 257.25708 315.35938 257.25708Q314.29688 257.25708 313.90625 258.16333L313.90625 262.78833L312.8125 262.78833L312.8125 256.44458L313.84375 256.44458ZM327.51562 261.10083Q327.51562 260.66333 327.17188 260.42896Q326.84375 260.17896 326.01562 260.00708Q325.20312 259.8352 324.71875 259.5852Q324.23438 259.3352 324.0 259.00708Q323.78125 258.66333 323.78125 258.19458Q323.78125 257.41333 324.4375 256.88208Q325.09375 256.3352 326.125 256.3352Q327.20312 256.3352 327.85938 256.8977Q328.53125 257.44458 328.53125 258.30396L327.45312 258.30396Q327.45312 257.86646 327.0625 257.55396Q326.6875 257.22583 326.125 257.22583Q325.53125 257.22583 325.1875 257.49146Q324.85938 257.74146 324.85938 258.1477Q324.85938 258.53833 325.17188 258.74146Q325.48438 258.94458 326.29688 259.13208Q327.10938 259.30396 327.60938 259.55396Q328.10938 259.80396 328.34375 260.16333Q328.59375 260.5227 328.59375 261.0227Q328.59375 261.88208 327.90625 262.3977Q327.23438 262.91333 326.15625 262.91333Q325.39062 262.91333 324.79688 262.6477Q324.21875 262.36646 323.89062 261.88208Q323.5625 261.3977 323.5625 260.8352L324.64062 260.8352Q324.67188 261.38208 325.07812 261.7102Q325.48438 262.0227 326.15625 262.0227Q326.76562 262.0227 327.14062 261.7727Q327.51562 261.5227 327.51562 261.10083Z" fill-rule="nonzero"/><path fill="#ffffff" d="M299.84375 262.22583Q299.84375 261.94458 300.0 261.75708Q300.17188 261.56958 300.5 261.56958Q300.84375 261.56958 301.01562 261.75708Q301.1875 261.94458 301.1875 262.22583Q301.1875 262.49146 301.01562 262.67896Q300.84375 262.85083 300.5 262.85083Q300.17188 262.85083 300.0 262.67896Q299.84375 262.49146 299.84375 262.22583ZM308.21875 254.86646L304.6875 262.78833L303.54688 262.78833L307.0625 255.1477L302.45312 255.1477L302.45312 254.25708L308.21875 254.25708L308.21875 254.86646ZM313.84375 256.44458L313.875 257.1477Q314.5625 256.3352 315.75 256.3352Q317.07812 256.3352 317.5625 257.35083Q317.875 256.8977 318.375 256.61646Q318.89062 256.3352 319.57812 256.3352Q321.67188 256.3352 321.70312 258.53833L321.70312 262.78833L320.625 262.78833L320.625 258.60083Q320.625 257.92896 320.3125 257.60083Q320.0 257.25708 319.26562 257.25708Q318.65625 257.25708 318.25 257.61646Q317.85938 257.97583 317.79688 258.5852L317.79688 262.78833L316.71875 262.78833L316.71875 258.63208Q316.71875 257.25708 315.35938 257.25708Q314.29688 257.25708 313.90625 258.16333L313.90625 262.78833L312.8125 262.78833L312.8125 256.44458L313.84375 256.44458ZM327.51562 261.10083Q327.51562 260.66333 327.17188 260.42896Q326.84375 260.17896 326.01562 260.00708Q325.20312 259.8352 324.71875 259.5852Q324.23438 259.3352 324.0 259.00708Q323.78125 258.66333 323.78125 258.19458Q323.78125 257.41333 324.4375 256.88208Q325.09375 256.3352 326.125 256.3352Q327.20312 256.3352 327.85938 256.8977Q328.53125 257.44458 328.53125 258.30396L327.45312 258.30396Q327.45312 257.86646 327.0625 257.55396Q326.6875 257.22583 326.125 257.22583Q325.53125 257.22583 325.1875 257.49146Q324.85938 257.74146 324.85938 258.1477Q324.85938 258.53833 325.17188 258.74146Q325.48438 258.94458 326.29688 259.13208Q327.10938 259.30396 327.60938 259.55396Q328.10938 259.80396 328.34375 260.16333Q328.59375 260.5227 328.59375 261.0227Q328.59375 261.88208 327.90625 262.3977Q327.23438 262.91333 326.15625 262.91333Q325.39062 262.91333 324.79688 262.6477Q324.21875 262.36646 323.89062 261.88208Q323.5625 261.3977 323.5625 260.8352L324.64062 260.8352Q324.67188 261.38208 325.07812 261.7102Q325.48438 262.0227 326.15625 262.0227Q326.76562 262.0227 327.14062 261.7727Q327.51562 261.5227 327.51562 261.10083Z" fill-rule="nonzero"/><path stroke="#351c75" stroke-width="3.0" stroke-linejoin="round" stroke-linecap="round" d="M392.84375 247.8979Q392.84375 247.61665 393.0 247.42915Q393.17188 247.24165 393.5 247.24165Q393.84375 247.24165 394.01562 247.42915Q394.1875 247.61665 394.1875 247.8979Q394.1875 248.16353 394.01562 248.35103Q393.84375 248.5229 393.5 248.5229Q393.17188 248.5229 393.0 248.35103Q392.84375 248.16353 392.84375 247.8979ZM400.89062 242.1479Q400.89062 242.78853 400.54688 243.28853Q400.20312 243.78853 399.64062 244.06978Q400.29688 244.35103 400.6875 244.91353Q401.07812 245.4604 401.07812 246.16353Q401.07812 247.25728 400.32812 247.92915Q399.59375 248.5854 398.375 248.5854Q397.14062 248.5854 396.39062 247.92915Q395.65625 247.25728 395.65625 246.16353Q395.65625 245.4604 396.03125 244.91353Q396.40625 244.35103 397.07812 244.06978Q396.51562 243.78853 396.1875 243.28853Q395.85938 242.78853 395.85938 242.1479Q395.85938 241.06978 396.54688 240.44478Q397.23438 239.80415 398.375 239.80415Q399.5 239.80415 400.1875 240.44478Q400.89062 241.06978 400.89062 242.1479ZM400.0 246.13228Q400.0 245.41353 399.54688 244.97603Q399.09375 244.5229 398.35938 244.5229Q397.625 244.5229 397.17188 244.97603Q396.73438 245.41353 396.73438 246.1479Q396.73438 246.86665 397.17188 247.28853Q397.60938 247.69478 398.375 247.69478Q399.125 247.69478 399.5625 247.2729Q400.0 246.85103 400.0 246.13228ZM398.375 240.69478Q397.73438 240.69478 397.32812 241.10103Q396.9375 241.49165 396.9375 242.17915Q396.9375 242.81978 397.32812 243.22603Q397.71875 243.63228 398.35938 243.63228Q399.01562 243.63228 399.40625 243.22603Q399.79688 242.81978 399.79688 242.17915Q399.79688 241.5229 399.39062 241.11665Q398.98438 240.69478 398.375 240.69478ZM406.26562 248.4604L405.1875 248.4604L405.1875 241.24165L403.0 242.03853L403.0 241.05415L406.10938 239.88228L406.26562 239.88228L406.26562 248.4604ZM413.96875 239.92915L413.96875 240.8354L413.76562 240.8354Q412.5 240.86665 411.75 241.60103Q411.0 242.31978 410.875 243.63228Q411.5625 242.86665 412.71875 242.86665Q413.82812 242.86665 414.5 243.6479Q415.17188 244.42915 415.17188 245.67915Q415.17188 246.99165 414.45312 247.78853Q413.73438 248.5854 412.51562 248.5854Q411.29688 248.5854 410.53125 247.6479Q409.78125 246.69478 409.78125 245.2104L409.78125 244.80415Q409.78125 242.44478 410.78125 241.19478Q411.78125 239.94478 413.76562 239.92915L413.96875 239.92915ZM412.54688 243.7729Q411.98438 243.7729 411.51562 244.10103Q411.04688 244.42915 410.85938 244.94478L410.85938 245.3354Q410.85938 246.3979 411.32812 247.03853Q411.8125 247.67915 412.51562 247.67915Q413.25 247.67915 413.67188 247.1479Q414.09375 246.60103 414.09375 245.72603Q414.09375 244.85103 413.67188 244.31978Q413.25 243.7729 412.54688 243.7729ZM420.84375 242.11665L420.875 242.81978Q421.5625 242.00728 422.75 242.00728Q424.07812 242.00728 424.5625 243.0229Q424.875 242.56978 425.375 242.28853Q425.89062 242.00728 426.57812 242.00728Q428.67188 242.00728 428.70312 244.2104L428.70312 248.4604L427.625 248.4604L427.625 244.2729Q427.625 243.60103 427.3125 243.2729Q427.0 242.92915 426.26562 242.92915Q425.65625 242.92915 425.25 243.28853Q424.85938 243.6479 424.79688 244.25728L424.79688 248.4604L423.71875 248.4604L423.71875 244.30415Q423.71875 242.92915 422.35938 242.92915Q421.29688 242.92915 420.90625 243.8354L420.90625 248.4604L419.8125 248.4604L419.8125 242.11665L420.84375 242.11665ZM434.51562 246.7729Q434.51562 246.3354 434.17188 246.10103Q433.84375 245.85103 433.01562 245.67915Q432.20312 245.50728 431.71875 245.25728Q431.23438 245.00728 431.0 244.67915Q430.78125 244.3354 430.78125 243.86665Q430.78125 243.0854 431.4375 242.55415Q432.09375 242.00728 433.125 242.00728Q434.20312 242.00728 434.85938 242.56978Q435.53125 243.11665 435.53125 243.97603L434.45312 243.97603Q434.45312 243.53853 434.0625 243.22603Q433.6875 242.8979 433.125 242.8979Q432.53125 242.8979 432.1875 243.16353Q431.85938 243.41353 431.85938 243.81978Q431.85938 244.2104 432.17188 244.41353Q432.48438 244.61665 433.29688 244.80415Q434.10938 244.97603 434.60938 245.22603Q435.10938 245.47603 435.34375 245.8354Q435.59375 246.19478 435.59375 246.69478Q435.59375 247.55415 434.90625 248.06978Q434.23438 248.5854 433.15625 248.5854Q432.39062 248.5854 431.79688 248.31978Q431.21875 248.03853 430.89062 247.55415Q430.5625 247.06978 430.5625 246.50728L431.64062 246.50728Q431.67188 247.05415 432.07812 247.38228Q432.48438 247.69478 433.15625 247.69478Q433.76562 247.69478 434.14062 247.44478Q434.51562 247.19478 434.51562 246.7729Z" fill-rule="nonzero"/><path fill="#ffffff" d="M392.84375 247.8979Q392.84375 247.61665 393.0 247.42915Q393.17188 247.24165 393.5 247.24165Q393.84375 247.24165 394.01562 247.42915Q394.1875 247.61665 394.1875 247.8979Q394.1875 248.16353 394.01562 248.35103Q393.84375 248.5229 393.5 248.5229Q393.17188 248.5229 393.0 248.35103Q392.84375 248.16353 392.84375 247.8979ZM400.89062 242.1479Q400.89062 242.78853 400.54688 243.28853Q400.20312 243.78853 399.64062 244.06978Q400.29688 244.35103 400.6875 244.91353Q401.07812 245.4604 401.07812 246.16353Q401.07812 247.25728 400.32812 247.92915Q399.59375 248.5854 398.375 248.5854Q397.14062 248.5854 396.39062 247.92915Q395.65625 247.25728 395.65625 246.16353Q395.65625 245.4604 396.03125 244.91353Q396.40625 244.35103 397.07812 244.06978Q396.51562 243.78853 396.1875 243.28853Q395.85938 242.78853 395.85938 242.1479Q395.85938 241.06978 396.54688 240.44478Q397.23438 239.80415 398.375 239.80415Q399.5 239.80415 400.1875 240.44478Q400.89062 241.06978 400.89062 242.1479ZM400.0 246.13228Q400.0 245.41353 399.54688 244.97603Q399.09375 244.5229 398.35938 244.5229Q397.625 244.5229 397.17188 244.97603Q396.73438 245.41353 396.73438 246.1479Q396.73438 246.86665 397.17188 247.28853Q397.60938 247.69478 398.375 247.69478Q399.125 247.69478 399.5625 247.2729Q400.0 246.85103 400.0 246.13228ZM398.375 240.69478Q397.73438 240.69478 397.32812 241.10103Q396.9375 241.49165 396.9375 242.17915Q396.9375 242.81978 397.32812 243.22603Q397.71875 243.63228 398.35938 243.63228Q399.01562 243.63228 399.40625 243.22603Q399.79688 242.81978 399.79688 242.17915Q399.79688 241.5229 399.39062 241.11665Q398.98438 240.69478 398.375 240.69478ZM406.26562 248.4604L405.1875 248.4604L405.1875 241.24165L403.0 242.03853L403.0 241.05415L406.10938 239.88228L406.26562 239.88228L406.26562 248.4604ZM413.96875 239.92915L413.96875 240.8354L413.76562 240.8354Q412.5 240.86665 411.75 241.60103Q411.0 242.31978 410.875 243.63228Q411.5625 242.86665 412.71875 242.86665Q413.82812 242.86665 414.5 243.6479Q415.17188 244.42915 415.17188 245.67915Q415.17188 246.99165 414.45312 247.78853Q413.73438 248.5854 412.51562 248.5854Q411.29688 248.5854 410.53125 247.6479Q409.78125 246.69478 409.78125 245.2104L409.78125 244.80415Q409.78125 242.44478 410.78125 241.19478Q411.78125 239.94478 413.76562 239.92915L413.96875 239.92915ZM412.54688 243.7729Q411.98438 243.7729 411.51562 244.10103Q411.04688 244.42915 410.85938 244.94478L410.85938 245.3354Q410.85938 246.3979 411.32812 247.03853Q411.8125 247.67915 412.51562 247.67915Q413.25 247.67915 413.67188 247.1479Q414.09375 246.60103 414.09375 245.72603Q414.09375 244.85103 413.67188 244.31978Q413.25 243.7729 412.54688 243.7729ZM420.84375 242.11665L420.875 242.81978Q421.5625 242.00728 422.75 242.00728Q424.07812 242.00728 424.5625 243.0229Q424.875 242.56978 425.375 242.28853Q425.89062 242.00728 426.57812 242.00728Q428.67188 242.00728 428.70312 244.2104L428.70312 248.4604L427.625 248.4604L427.625 244.2729Q427.625 243.60103 427.3125 243.2729Q427.0 242.92915 426.26562 242.92915Q425.65625 242.92915 425.25 243.28853Q424.85938 243.6479 424.79688 244.25728L424.79688 248.4604L423.71875 248.4604L423.71875 244.30415Q423.71875 242.92915 422.35938 242.92915Q421.29688 242.92915 420.90625 243.8354L420.90625 248.4604L419.8125 248.4604L419.8125 242.11665L420.84375 242.11665ZM434.51562 246.7729Q434.51562 246.3354 434.17188 246.10103Q433.84375 245.85103 433.01562 245.67915Q432.20312 245.50728 431.71875 245.25728Q431.23438 245.00728 431.0 244.67915Q430.78125 244.3354 430.78125 243.86665Q430.78125 243.0854 431.4375 242.55415Q432.09375 242.00728 433.125 242.00728Q434.20312 242.00728 434.85938 242.56978Q435.53125 243.11665 435.53125 243.97603L434.45312 243.97603Q434.45312 243.53853 434.0625 243.22603Q433.6875 242.8979 433.125 242.8979Q432.53125 242.8979 432.1875 243.16353Q431.85938 243.41353 431.85938 243.81978Q431.85938 244.2104 432.17188 244.41353Q432.48438 244.61665 433.29688 244.80415Q434.10938 244.97603 434.60938 245.22603Q435.10938 245.47603 435.34375 245.8354Q435.59375 246.19478 435.59375 246.69478Q435.59375 247.55415 434.90625 248.06978Q434.23438 248.5854 433.15625 248.5854Q432.39062 248.5854 431.79688 248.31978Q431.21875 248.03853 430.89062 247.55415Q430.5625 247.06978 430.5625 246.50728L431.64062 246.50728Q431.67188 247.05415 432.07812 247.38228Q432.48438 247.69478 433.15625 247.69478Q433.76562 247.69478 434.14062 247.44478Q434.51562 247.19478 434.51562 246.7729Z" fill-rule="nonzero"/><path stroke="#cc0000" stroke-width="3.0" stroke-linejoin="round" stroke-linecap="round" d="M492.76562 130.50198L491.6875 130.50198L491.6875 123.28323L489.5 124.08011L489.5 123.09573L492.60938 121.92386L492.76562 121.92386L492.76562 130.50198ZM496.34375 129.93948Q496.34375 129.65823 496.5 129.47073Q496.67188 129.28323 497.0 129.28323Q497.34375 129.28323 497.51562 129.47073Q497.6875 129.65823 497.6875 129.93948Q497.6875 130.20511 497.51562 130.39261Q497.34375 130.56448 497.0 130.56448Q496.67188 130.56448 496.5 130.39261Q496.34375 130.20511 496.34375 129.93948ZM504.71875 122.58011L501.1875 130.50198L500.04688 130.50198L503.5625 122.86136L498.95312 122.86136L498.95312 121.97073L504.71875 121.97073L504.71875 122.58011ZM511.71875 122.58011L508.1875 130.50198L507.04688 130.50198L510.5625 122.86136L505.95312 122.86136L505.95312 121.97073L511.71875 121.97073L511.71875 122.58011ZM516.7656 130.50198L515.6875 130.50198L515.6875 123.28323L513.5 124.08011L513.5 123.09573L516.6094 121.92386L516.7656 121.92386L516.7656 130.50198ZM524.34375 124.15823L524.375 124.86136Q525.0625 124.04886 526.25 124.04886Q527.5781 124.04886 528.0625 125.06448Q528.375 124.61136 528.875 124.33011Q529.3906 124.04886 530.0781 124.04886Q532.1719 124.04886 532.2031 126.25198L532.2031 130.50198L531.125 130.50198L531.125 126.31448Q531.125 125.64261 530.8125 125.31448Q530.5 124.97073 529.7656 124.97073Q529.15625 124.97073 528.75 125.33011Q528.3594 125.68948 528.2969 126.29886L528.2969 130.50198L527.21875 130.50198L527.21875 126.34573Q527.21875 124.97073 525.8594 124.97073Q524.7969 124.97073 524.40625 125.87698L524.40625 130.50198L523.3125 130.50198L523.3125 124.15823L524.34375 124.15823ZM538.0156 128.81448Q538.0156 128.37698 537.6719 128.14261Q537.34375 127.89261 536.5156 127.72073Q535.7031 127.54886 535.21875 127.29886Q534.7344 127.04886 534.5 126.72073Q534.28125 126.37698 534.28125 125.90823Q534.28125 125.12698 534.9375 124.59573Q535.59375 124.04886 536.625 124.04886Q537.7031 124.04886 538.3594 124.61136Q539.03125 125.15823 539.03125 126.01761L537.9531 126.01761Q537.9531 125.58011 537.5625 125.26761Q537.1875 124.93948 536.625 124.93948Q536.03125 124.93948 535.6875 125.20511Q535.3594 125.45511 535.3594 125.86136Q535.3594 126.25198 535.6719 126.45511Q535.9844 126.65823 536.7969 126.84573Q537.6094 127.01761 538.1094 127.26761Q538.6094 127.51761 538.84375 127.87698Q539.09375 128.23636 539.09375 128.73636Q539.09375 129.59573 538.40625 130.11136Q537.7344 130.62698 536.65625 130.62698Q535.8906 130.62698 535.2969 130.36136Q534.71875 130.08011 534.3906 129.59573Q534.0625 129.11136 534.0625 128.54886L535.1406 128.54886Q535.1719 129.09573 535.5781 129.42386Q535.9844 129.73636 536.65625 129.73636Q537.2656 129.73636 537.6406 129.48636Q538.0156 129.23636 538.0156 128.81448Z" fill-rule="nonzero"/><path fill="#ffffff" d="M492.76562 130.50198L491.6875 130.50198L491.6875 123.28323L489.5 124.08011L489.5 123.09573L492.60938 121.92386L492.76562 121.92386L492.76562 130.50198ZM496.34375 129.93948Q496.34375 129.65823 496.5 129.47073Q496.67188 129.28323 497.0 129.28323Q497.34375 129.28323 497.51562 129.47073Q497.6875 129.65823 497.6875 129.93948Q497.6875 130.20511 497.51562 130.39261Q497.34375 130.56448 497.0 130.56448Q496.67188 130.56448 496.5 130.39261Q496.34375 130.20511 496.34375 129.93948ZM504.71875 122.58011L501.1875 130.50198L500.04688 130.50198L503.5625 122.86136L498.95312 122.86136L498.95312 121.97073L504.71875 121.97073L504.71875 122.58011ZM511.71875 122.58011L508.1875 130.50198L507.04688 130.50198L510.5625 122.86136L505.95312 122.86136L505.95312 121.97073L511.71875 121.97073L511.71875 122.58011ZM516.7656 130.50198L515.6875 130.50198L515.6875 123.28323L513.5 124.08011L513.5 123.09573L516.6094 121.92386L516.7656 121.92386L516.7656 130.50198ZM524.34375 124.15823L524.375 124.86136Q525.0625 124.04886 526.25 124.04886Q527.5781 124.04886 528.0625 125.06448Q528.375 124.61136 528.875 124.33011Q529.3906 124.04886 530.0781 124.04886Q532.1719 124.04886 532.2031 126.25198L532.2031 130.50198L531.125 130.50198L531.125 126.31448Q531.125 125.64261 530.8125 125.31448Q530.5 124.97073 529.7656 124.97073Q529.15625 124.97073 528.75 125.33011Q528.3594 125.68948 528.2969 126.29886L528.2969 130.50198L527.21875 130.50198L527.21875 126.34573Q527.21875 124.97073 525.8594 124.97073Q524.7969 124.97073 524.40625 125.87698L524.40625 130.50198L523.3125 130.50198L523.3125 124.15823L524.34375 124.15823ZM538.0156 128.81448Q538.0156 128.37698 537.6719 128.14261Q537.34375 127.89261 536.5156 127.72073Q535.7031 127.54886 535.21875 127.29886Q534.7344 127.04886 534.5 126.72073Q534.28125 126.37698 534.28125 125.90823Q534.28125 125.12698 534.9375 124.59573Q535.59375 124.04886 536.625 124.04886Q537.7031 124.04886 538.3594 124.61136Q539.03125 125.15823 539.03125 126.01761L537.9531 126.01761Q537.9531 125.58011 537.5625 125.26761Q537.1875 124.93948 536.625 124.93948Q536.03125 124.93948 535.6875 125.20511Q535.3594 125.45511 535.3594 125.86136Q535.3594 126.25198 535.6719 126.45511Q535.9844 126.65823 536.7969 126.84573Q537.6094 127.01761 538.1094 127.26761Q538.6094 127.51761 538.84375 127.87698Q539.09375 128.23636 539.09375 128.73636Q539.09375 129.59573 538.40625 130.11136Q537.7344 130.62698 536.65625 130.62698Q535.8906 130.62698 535.2969 130.36136Q534.71875 130.08011 534.3906 129.59573Q534.0625 129.11136 534.0625 128.54886L535.1406 128.54886Q535.1719 129.09573 535.5781 129.42386Q535.9844 129.73636 536.65625 129.73636Q537.2656 129.73636 537.6406 129.48636Q538.0156 129.23636 538.0156 128.81448Z" fill-rule="nonzero"/><path fill="#000000" d="M23.05 332.21564Q23.05 330.6844 23.3625 329.7625Q23.675 328.825 24.284374 328.325Q24.909374 327.825 25.846874 327.825Q26.534374 327.825 27.05 328.10626Q27.58125 328.3875 27.925 328.91876Q28.26875 329.4344 28.45625 330.1844Q28.64375 330.9344 28.64375 332.21564Q28.64375 333.73126 28.33125 334.65314Q28.034374 335.575 27.409374 336.09064Q26.8 336.59064 25.846874 336.59064Q24.6125 336.59064 23.89375 335.7Q23.05 334.6375 23.05 332.21564ZM24.128124 332.21564Q24.128124 334.325 24.628124 335.02814Q25.128124 335.73126 25.846874 335.73126Q26.58125 335.73126 27.065624 335.02814Q27.565624 334.325 27.565624 332.21564Q27.565624 330.09064 27.065624 329.40314Q26.58125 328.7 25.83125 328.7Q25.1125 328.7 24.675 329.3094Q24.128124 330.09064 24.128124 332.21564ZM30.64375 336.45L30.64375 335.2469L31.846874 335.2469L31.846874 336.45L30.64375 336.45ZM33.05 332.21564Q33.05 330.6844 33.3625 329.7625Q33.675 328.825 34.284374 328.325Q34.909374 327.825 35.846874 327.825Q36.534374 327.825 37.05 328.10626Q37.58125 328.3875 37.925 328.91876Q38.26875 329.4344 38.45625 330.1844Q38.64375 330.9344 38.64375 332.21564Q38.64375 333.73126 38.33125 334.65314Q38.034374 335.575 37.409374 336.09064Q36.8 336.59064 35.846874 336.59064Q34.6125 336.59064 33.89375 335.7Q33.05 334.6375 33.05 332.21564ZM34.128124 332.21564Q34.128124 334.325 34.628124 335.02814Q35.128124 335.73126 35.846874 335.73126Q36.58125 335.73126 37.065624 335.02814Q37.565624 334.325 37.565624 332.21564Q37.565624 330.09064 37.065624 329.40314Q36.58125 328.7 35.83125 328.7Q35.1125 328.7 34.675 329.3094Q34.128124 330.09064 34.128124 332.21564Z" fill-rule="nonzero"/><path fill="#000000" d="M23.05 270.4573Q23.05 268.92606 23.3625 268.00418Q23.675 267.06668 24.284374 266.56668Q24.909374 266.06668 25.846874 266.06668Q26.534374 266.06668 27.05 266.34793Q27.58125 266.62918 27.925 267.16043Q28.26875 267.67606 28.45625 268.42606Q28.64375 269.17606 28.64375 270.4573Q28.64375 271.97293 28.33125 272.8948Q28.034374 273.81668 27.409374 274.3323Q26.8 274.8323 25.846874 274.8323Q24.6125 274.8323 23.89375 273.94168Q23.05 272.87918 23.05 270.4573ZM24.128124 270.4573Q24.128124 272.56668 24.628124 273.2698Q25.128124 273.97293 25.846874 273.97293Q26.58125 273.97293 27.065624 273.2698Q27.565624 272.56668 27.565624 270.4573Q27.565624 268.3323 27.065624 267.6448Q26.58125 266.94168 25.83125 266.94168Q25.1125 266.94168 24.675 267.55106Q24.128124 268.3323 24.128124 270.4573ZM30.64375 274.69168L30.64375 273.48856L31.846874 273.48856L31.846874 274.69168L30.64375 274.69168ZM33.05 272.44168L34.159374 272.34793Q34.284374 273.16043 34.721874 273.56668Q35.175 273.97293 35.815624 273.97293Q36.565624 273.97293 37.096874 273.3948Q37.628124 272.81668 37.628124 271.87918Q37.628124 270.97293 37.1125 270.4573Q36.6125 269.92606 35.784374 269.92606Q35.284374 269.92606 34.8625 270.16043Q34.45625 270.3948 34.221874 270.75418L33.2375 270.62918L34.065624 266.22293L38.346874 266.22293L38.346874 267.22293L34.909374 267.22293L34.45625 269.53543Q35.221874 268.98856 36.065624 268.98856Q37.190624 268.98856 37.95625 269.7698Q38.7375 270.55106 38.7375 271.78543Q38.7375 272.94168 38.065624 273.80106Q37.2375 274.8323 35.815624 274.8323Q34.64375 274.8323 33.89375 274.17606Q33.159374 273.5198 33.05 272.44168Z" fill-rule="nonzero"/><path fill="#000000" d="M27.01875 212.93333L25.971874 212.93333L25.971874 206.21458Q25.58125 206.57396 24.95625 206.94896Q24.346874 207.30833 23.8625 207.48021L23.8625 206.46458Q24.7375 206.04271 25.39375 205.46458Q26.065624 204.87083 26.346874 204.30833L27.01875 204.30833L27.01875 212.93333ZM30.64375 212.93333L30.64375 211.73021L31.846874 211.73021L31.846874 212.93333L30.64375 212.93333ZM33.05 208.69896Q33.05 207.16771 33.3625 206.24583Q33.675 205.30833 34.284374 204.80833Q34.909374 204.30833 35.846874 204.30833Q36.534374 204.30833 37.05 204.58958Q37.58125 204.87083 37.925 205.40208Q38.26875 205.91771 38.45625 206.66771Q38.64375 207.41771 38.64375 208.69896Q38.64375 210.21458 38.33125 211.13646Q38.034374 212.05833 37.409374 212.57396Q36.8 213.07396 35.846874 213.07396Q34.6125 213.07396 33.89375 212.18333Q33.05 211.12083 33.05 208.69896ZM34.128124 208.69896Q34.128124 210.80833 34.628124 211.51146Q35.128124 212.21458 35.846874 212.21458Q36.58125 212.21458 37.065624 211.51146Q37.565624 210.80833 37.565624 208.69896Q37.565624 206.57396 37.065624 205.88646Q36.58125 205.18333 35.83125 205.18333Q35.1125 205.18333 34.675 205.79271Q34.128124 206.57396 34.128124 208.69896Z" fill-rule="nonzero"/><path fill="#000000" d="M27.01875 151.175L25.971874 151.175L25.971874 144.45625Q25.58125 144.81563 24.95625 145.19063Q24.346874 145.55 23.8625 145.72188L23.8625 144.70625Q24.7375 144.28438 25.39375 143.70625Q26.065624 143.1125 26.346874 142.55L27.01875 142.55L27.01875 151.175ZM30.64375 151.175L30.64375 149.97188L31.846874 149.97188L31.846874 151.175L30.64375 151.175ZM33.05 148.925L34.159374 148.83125Q34.284374 149.64375 34.721874 150.05Q35.175 150.45625 35.815624 150.45625Q36.565624 150.45625 37.096874 149.87813Q37.628124 149.3 37.628124 148.3625Q37.628124 147.45625 37.1125 146.94063Q36.6125 146.40938 35.784374 146.40938Q35.284374 146.40938 34.8625 146.64375Q34.45625 146.87813 34.221874 147.2375L33.2375 147.1125L34.065624 142.70625L38.346874 142.70625L38.346874 143.70625L34.909374 143.70625L34.45625 146.01875Q35.221874 145.47188 36.065624 145.47188Q37.190624 145.47188 37.95625 146.25313Q38.7375 147.03438 38.7375 148.26875Q38.7375 149.425 38.065624 150.28438Q37.2375 151.31563 35.815624 151.31563Q34.64375 151.31563 33.89375 150.65938Q33.159374 150.00313 33.05 148.925Z" fill-rule="nonzero"/><path fill="#000000" d="M28.596874 88.40104L28.596874 89.416664L22.909374 89.416664Q22.909374 89.041664 23.034374 88.68229Q23.253124 88.104164 23.721874 87.541664Q24.20625 86.979164 25.1125 86.24479Q26.51875 85.08854 27.003124 84.416664Q27.503124 83.74479 27.503124 83.15104Q27.503124 82.52604 27.05 82.104164Q26.596874 81.666664 25.878124 81.666664Q25.1125 81.666664 24.659374 82.11979Q24.20625 82.572914 24.190624 83.385414L23.1125 83.27604Q23.221874 82.05729 23.940624 81.43229Q24.675 80.791664 25.909374 80.791664Q27.14375 80.791664 27.8625 81.479164Q28.58125 82.166664 28.58125 83.18229Q28.58125 83.697914 28.3625 84.197914Q28.159374 84.68229 27.659374 85.24479Q27.175 85.791664 26.05 86.74479Q25.096874 87.541664 24.815624 87.83854Q24.55 88.11979 24.378124 88.40104L28.596874 88.40104ZM30.64375 89.416664L30.64375 88.21354L31.846874 88.21354L31.846874 89.416664L30.64375 89.416664ZM33.05 85.18229Q33.05 83.65104 33.3625 82.729164Q33.675 81.791664 34.284374 81.291664Q34.909374 80.791664 35.846874 80.791664Q36.534374 80.791664 37.05 81.072914Q37.58125 81.354164 37.925 81.885414Q38.26875 82.40104 38.45625 83.15104Q38.64375 83.90104 38.64375 85.18229Q38.64375 86.697914 38.33125 87.61979Q38.034374 88.541664 37.409374 89.05729Q36.8 89.55729 35.846874 89.55729Q34.6125 89.55729 33.89375 88.666664Q33.05 87.604164 33.05 85.18229ZM34.128124 85.18229Q34.128124 87.291664 34.628124 87.99479Q35.128124 88.697914 35.846874 88.697914Q36.58125 88.697914 37.065624 87.99479Q37.565624 87.291664 37.565624 85.18229Q37.565624 83.05729 37.065624 82.36979Q36.58125 81.666664 35.83125 81.666664Q35.1125 81.666664 34.675 82.27604Q34.128124 83.05729 34.128124 85.18229Z" fill-rule="nonzero"/><path fill="#000000" d="M99.11668 349.45L99.11668 340.85626L105.3198 340.85626L105.3198 341.8719L100.2573 341.8719L100.2573 344.4969L105.0073 344.4969L105.0073 345.5125L100.2573 345.5125L100.2573 348.4344L105.52293 348.4344L105.52293 349.45L99.11668 349.45ZM108.67918 349.45L106.3198 343.23126L107.42918 343.23126L108.77293 346.95Q108.97605 347.5594 109.16355 348.2Q109.30418 347.71564 109.55418 347.02814L110.9448 343.23126L112.02293 343.23126L109.66355 349.45L108.67918 349.45ZM116.21043 347.45L117.30418 347.575Q117.05418 348.52814 116.35105 349.0594Q115.64793 349.59064 114.5698 349.59064Q113.21043 349.59064 112.39793 348.7469Q111.60105 347.90314 111.60105 346.3875Q111.60105 344.825 112.41355 343.96564Q113.22605 343.09064 114.5073 343.09064Q115.7573 343.09064 116.53855 343.9344Q117.33543 344.77814 117.33543 346.325Q117.33543 346.41876 117.33543 346.60626L112.6948 346.60626Q112.7573 347.6375 113.27293 348.1844Q113.78855 348.71564 114.5698 348.71564Q115.14793 348.71564 115.55418 348.41876Q115.97605 348.10626 116.21043 347.45ZM112.7573 345.7469L116.22605 345.7469Q116.16355 344.95 115.83543 344.5594Q115.3198 343.95 114.52293 343.95Q113.78855 343.95 113.28855 344.4344Q112.80418 344.91876 112.7573 345.7469ZM118.9448 349.45L118.9448 343.23126L119.89793 343.23126L119.89793 344.16876Q120.2573 343.5125 120.55418 343.3094Q120.86668 343.09064 121.24168 343.09064Q121.77293 343.09064 122.3198 343.41876L121.96043 344.40314Q121.5698 344.16876 121.1948 344.16876Q120.83543 344.16876 120.55418 344.3875Q120.28855 344.59064 120.17918 344.96564Q119.99168 345.52814 119.99168 346.1844L119.99168 349.45L118.9448 349.45ZM122.96043 342.075L122.96043 340.85626L124.02293 340.85626L124.02293 342.075L122.96043 342.075ZM122.96043 349.45L122.96043 343.23126L124.02293 343.23126L124.02293 349.45L122.96043 349.45ZM128.2573 348.5125L128.41354 349.4344Q127.96043 349.52814 127.61668 349.52814Q127.03855 349.52814 126.72605 349.35626Q126.41355 349.16876 126.27293 348.8719Q126.14793 348.575 126.14793 347.6219L126.14793 344.04376L125.3823 344.04376L125.3823 343.23126L126.14793 343.23126L126.14793 341.6844L127.1948 341.0594L127.1948 343.23126L128.2573 343.23126L128.2573 344.04376L127.1948 344.04376L127.1948 347.6844Q127.1948 348.1375 127.24168 348.2625Q127.30418 348.3875 127.42918 348.46564Q127.55418 348.54376 127.78855 348.54376Q127.97605 348.54376 128.2573 348.5125Z" fill-rule="nonzero"/><path fill="#000000" d="M194.2224 349.45L194.2224 340.85626L195.94115 340.85626L197.9724 346.9344Q198.25365 347.79376 198.37865 348.21564Q198.51927 347.7469 198.83177 346.84064L200.89427 340.85626L202.42552 340.85626L202.42552 349.45L201.33177 349.45L201.33177 342.2625L198.83177 349.45L197.80052 349.45L195.31615 342.1375L195.31615 349.45L194.2224 349.45ZM207.37865 347.45L208.4724 347.575Q208.2224 348.52814 207.51927 349.0594Q206.81615 349.59064 205.73802 349.59064Q204.37865 349.59064 203.56615 348.7469Q202.76927 347.90314 202.76927 346.3875Q202.76927 344.825 203.58177 343.96564Q204.39427 343.09064 205.67552 343.09064Q206.92552 343.09064 207.70677 343.9344Q208.50365 344.77814 208.50365 346.325Q208.50365 346.41876 208.50365 346.60626L203.86302 346.60626Q203.92552 347.6375 204.44115 348.1844Q204.95677 348.71564 205.73802 348.71564Q206.31615 348.71564 206.7224 348.41876Q207.14427 348.10626 207.37865 347.45ZM203.92552 345.7469L207.39427 345.7469Q207.33177 344.95 207.00365 344.5594Q206.48802 343.95 205.69115 343.95Q204.95677 343.95 204.45677 344.4344Q203.9724 344.91876 203.92552 345.7469ZM214.1599 349.45L214.1599 348.66876Q213.56615 349.59064 212.42552 349.59064Q211.67552 349.59064 211.05052 349.1844Q210.42552 348.7625 210.08177 348.02814Q209.73802 347.29376 209.73802 346.34064Q209.73802 345.41876 210.05052 344.65314Q210.36302 343.8875 210.98802 343.4969Q211.61302 343.09064 212.37865 343.09064Q212.94115 343.09064 213.37865 343.325Q213.81615 343.5594 214.0974 343.9344L214.0974 340.85626L215.14427 340.85626L215.14427 349.45L214.1599 349.45ZM210.83177 346.34064Q210.83177 347.54376 211.33177 348.1375Q211.83177 348.71564 212.51927 348.71564Q213.20677 348.71564 213.69115 348.15314Q214.17552 347.59064 214.17552 346.4344Q214.17552 345.15314 213.67552 344.5594Q213.19115 343.96564 212.4724 343.96564Q211.76927 343.96564 211.30052 344.54376Q210.83177 345.10626 210.83177 346.34064ZM221.37865 347.45L222.4724 347.575Q222.2224 348.52814 221.51927 349.0594Q220.81615 349.59064 219.73802 349.59064Q218.37865 349.59064 217.56615 348.7469Q216.76927 347.90314 216.76927 346.3875Q216.76927 344.825 217.58177 343.96564Q218.39427 343.09064 219.67552 343.09064Q220.92552 343.09064 221.70677 343.9344Q222.50365 344.77814 222.50365 346.325Q222.50365 346.41876 222.50365 346.60626L217.86302 346.60626Q217.92552 347.6375 218.44115 348.1844Q218.95677 348.71564 219.73802 348.71564Q220.31615 348.71564 220.7224 348.41876Q221.14427 348.10626 221.37865 347.45ZM217.92552 345.7469L221.39427 345.7469Q221.33177 344.95 221.00365 344.5594Q220.48802 343.95 219.69115 343.95Q218.95677 343.95 218.45677 344.4344Q217.9724 344.91876 217.92552 345.7469ZM224.12865 342.075L224.12865 340.85626L225.19115 340.85626L225.19115 342.075L224.12865 342.075ZM224.12865 349.45L224.12865 343.23126L225.19115 343.23126L225.19115 349.45L224.12865 349.45ZM231.19115 348.6844Q230.5974 349.1844 230.05052 349.3875Q229.51927 349.59064 228.89427 349.59064Q227.86302 349.59064 227.31615 349.09064Q226.76927 348.59064 226.76927 347.8094Q226.76927 347.35626 226.9724 346.98126Q227.17552 346.59064 227.51927 346.3719Q227.86302 346.1375 228.2849 346.02814Q228.58177 345.9344 229.2224 345.85626Q230.48802 345.71564 231.0974 345.4969Q231.0974 345.27814 231.0974 345.23126Q231.0974 344.575 230.80052 344.3094Q230.39427 343.96564 229.5974 343.96564Q228.86302 343.96564 228.50365 344.23126Q228.14427 344.48126 227.9724 345.1375L226.94115 344.9969Q227.08177 344.34064 227.4099 343.9344Q227.73802 343.52814 228.3474 343.3094Q228.95677 343.09064 229.75365 343.09064Q230.55052 343.09064 231.05052 343.27814Q231.55052 343.46564 231.7849 343.7469Q232.01927 344.02814 232.11302 344.46564Q232.1599 344.73126 232.1599 345.4344L232.1599 346.84064Q232.1599 348.3094 232.2224 348.7Q232.30052 349.09064 232.50365 349.45L231.39427 349.45Q231.23802 349.1219 231.19115 348.6844ZM231.0974 346.325Q230.51927 346.5594 229.37865 346.73126Q228.7224 346.825 228.45677 346.95Q228.19115 347.0594 228.0349 347.27814Q227.89427 347.4969 227.89427 347.77814Q227.89427 348.2 228.20677 348.48126Q228.5349 348.7625 229.14427 348.7625Q229.75365 348.7625 230.2224 348.4969Q230.70677 348.23126 230.92552 347.7625Q231.0974 347.40314 231.0974 346.71564L231.0974 346.325Z" fill-rule="nonzero"/><path fill="#000000" d="M273.54688 346.6844L274.60938 346.59064Q274.6875 347.2469 274.96875 347.65314Q275.25 348.0594 275.82812 348.325Q276.42188 348.575 277.15625 348.575Q277.79688 348.575 278.29688 348.3875Q278.79688 348.1844 279.03125 347.85626Q279.28125 347.5125 279.28125 347.1219Q279.28125 346.71564 279.04688 346.41876Q278.8125 346.10626 278.28125 345.90314Q277.92188 345.7625 276.73438 345.48126Q275.5625 345.2 275.09375 344.95Q274.46875 344.6219 274.17188 344.15314Q273.875 343.66876 273.875 343.075Q273.875 342.4344 274.23438 341.8719Q274.60938 341.29376 275.3125 341.0125Q276.03125 340.71564 276.89062 340.71564Q277.84375 340.71564 278.57812 341.02814Q279.3125 341.325 279.70312 341.9344Q280.09375 342.52814 280.125 343.27814L279.03125 343.35626Q278.9375 342.54376 278.42188 342.1375Q277.92188 341.71564 276.9375 341.71564Q275.90625 341.71564 275.4375 342.09064Q274.96875 342.46564 274.96875 342.9969Q274.96875 343.46564 275.29688 343.7625Q275.625 344.0594 277.0 344.3719Q278.39062 344.6844 278.90625 344.91876Q279.65625 345.27814 280.01562 345.8094Q280.375 346.325 280.375 347.02814Q280.375 347.71564 279.98438 348.325Q279.59375 348.91876 278.85938 349.2625Q278.125 349.59064 277.20312 349.59064Q276.03125 349.59064 275.23438 349.2625Q274.45312 348.91876 274.0 348.23126Q273.5625 347.54376 273.54688 346.6844ZM285.85938 347.16876L286.89062 347.3094Q286.71875 348.3719 286.01562 348.98126Q285.3125 349.59064 284.29688 349.59064Q283.01562 349.59064 282.23438 348.7625Q281.46875 347.91876 281.46875 346.35626Q281.46875 345.35626 281.79688 344.60626Q282.14062 343.84064 282.8125 343.46564Q283.5 343.09064 284.3125 343.09064Q285.3125 343.09064 285.95312 343.60626Q286.60938 344.10626 286.79688 345.0594L285.76562 345.21564Q285.625 344.59064 285.25 344.27814Q284.875 343.95 284.34375 343.95Q283.54688 343.95 283.04688 344.52814Q282.54688 345.09064 282.54688 346.325Q282.54688 347.59064 283.03125 348.15314Q283.51562 348.71564 284.28125 348.71564Q284.90625 348.71564 285.3125 348.34064Q285.73438 347.96564 285.85938 347.16876ZM287.79688 349.45L287.79688 340.85626L288.84375 340.85626L288.84375 343.9344Q289.57812 343.09064 290.70312 343.09064Q291.40625 343.09064 291.90625 343.3719Q292.42188 343.6375 292.64062 344.1219Q292.85938 344.59064 292.85938 345.5125L292.85938 349.45L291.8125 349.45L291.8125 345.5125Q291.8125 344.71564 291.46875 344.35626Q291.125 343.9969 290.5 343.9969Q290.03125 343.9969 289.60938 344.2469Q289.20312 344.48126 289.01562 344.90314Q288.84375 345.3094 288.84375 346.04376L288.84375 349.45L287.79688 349.45ZM299.04688 347.45L300.14062 347.575Q299.89062 348.52814 299.1875 349.0594Q298.48438 349.59064 297.40625 349.59064Q296.04688 349.59064 295.23438 348.7469Q294.4375 347.90314 294.4375 346.3875Q294.4375 344.825 295.25 343.96564Q296.0625 343.09064 297.34375 343.09064Q298.59375 343.09064 299.375 343.9344Q300.17188 344.77814 300.17188 346.325Q300.17188 346.41876 300.17188 346.60626L295.53125 346.60626Q295.59375 347.6375 296.10938 348.1844Q296.625 348.71564 297.40625 348.71564Q297.98438 348.71564 298.39062 348.41876Q298.8125 348.10626 299.04688 347.45ZM295.59375 345.7469L299.0625 345.7469Q299.0 344.95 298.67188 344.5594Q298.15625 343.95 297.35938 343.95Q296.625 343.95 296.125 344.4344Q295.64062 344.91876 295.59375 345.7469ZM301.79688 349.45L301.79688 343.23126L302.73438 343.23126L302.73438 344.10626Q303.03125 343.6375 303.51562 343.3719Q304.0 343.09064 304.625 343.09064Q305.3125 343.09064 305.75 343.3719Q306.20312 343.65314 306.375 344.16876Q307.125 343.09064 308.29688 343.09064Q309.23438 343.09064 309.71875 343.60626Q310.21875 344.10626 310.21875 345.1844L310.21875 349.45L309.17188 349.45L309.17188 345.52814Q309.17188 344.90314 309.0625 344.6219Q308.96875 344.34064 308.70312 344.16876Q308.4375 343.9969 308.0625 343.9969Q307.40625 343.9969 306.96875 344.4344Q306.54688 344.8719 306.54688 345.84064L306.54688 349.45L305.48438 349.45L305.48438 345.40314Q305.48438 344.7 305.21875 344.35626Q304.96875 343.9969 304.39062 343.9969Q303.9375 343.9969 303.5625 344.23126Q303.1875 344.46564 303.01562 344.91876Q302.84375 345.3719 302.84375 346.21564L302.84375 349.45L301.79688 349.45ZM316.85938 348.6844Q316.26562 349.1844 315.71875 349.3875Q315.1875 349.59064 314.5625 349.59064Q313.53125 349.59064 312.98438 349.09064Q312.4375 348.59064 312.4375 347.8094Q312.4375 347.35626 312.64062 346.98126Q312.84375 346.59064 313.1875 346.3719Q313.53125 346.1375 313.95312 346.02814Q314.25 345.9344 314.89062 345.85626Q316.15625 345.71564 316.76562 345.4969Q316.76562 345.27814 316.76562 345.23126Q316.76562 344.575 316.46875 344.3094Q316.0625 343.96564 315.26562 343.96564Q314.53125 343.96564 314.17188 344.23126Q313.8125 344.48126 313.64062 345.1375L312.60938 344.9969Q312.75 344.34064 313.07812 343.9344Q313.40625 343.52814 314.01562 343.3094Q314.625 343.09064 315.42188 343.09064Q316.21875 343.09064 316.71875 343.27814Q317.21875 343.46564 317.45312 343.7469Q317.6875 344.02814 317.78125 344.46564Q317.82812 344.73126 317.82812 345.4344L317.82812 346.84064Q317.82812 348.3094 317.89062 348.7Q317.96875 349.09064 318.17188 349.45L317.0625 349.45Q316.90625 349.1219 316.85938 348.6844ZM316.76562 346.325Q316.1875 346.5594 315.04688 346.73126Q314.39062 346.825 314.125 346.95Q313.85938 347.0594 313.70312 347.27814Q313.5625 347.4969 313.5625 347.77814Q313.5625 348.2 313.875 348.48126Q314.20312 348.7625 314.8125 348.7625Q315.42188 348.7625 315.89062 348.4969Q316.375 348.23126 316.59375 347.7625Q316.76562 347.40314 316.76562 346.71564L316.76562 346.325ZM319.98438 349.45L319.98438 340.85626L325.78125 340.85626L325.78125 341.8719L321.125 341.8719L321.125 344.52814L325.15625 344.52814L325.15625 345.54376L321.125 345.54376L321.125 349.45L319.98438 349.45ZM326.78125 349.45L326.78125 343.23126L327.73438 343.23126L327.73438 344.16876Q328.09375 343.5125 328.39062 343.3094Q328.70312 343.09064 329.07812 343.09064Q329.60938 343.09064 330.15625 343.41876L329.79688 344.40314Q329.40625 344.16876 329.03125 344.16876Q328.67188 344.16876 328.39062 344.3875Q328.125 344.59064 328.01562 344.96564Q327.82812 345.52814 327.82812 346.1844L327.82812 349.45L326.78125 349.45ZM330.79688 342.075L330.79688 340.85626L331.85938 340.85626L331.85938 342.075L330.79688 342.075ZM330.79688 349.45L330.79688 343.23126L331.85938 343.23126L331.85938 349.45L330.79688 349.45ZM338.04688 347.45L339.14062 347.575Q338.89062 348.52814 338.1875 349.0594Q337.48438 349.59064 336.40625 349.59064Q335.04688 349.59064 334.23438 348.7469Q333.4375 347.90314 333.4375 346.3875Q333.4375 344.825 334.25 343.96564Q335.0625 343.09064 336.34375 343.09064Q337.59375 343.09064 338.375 343.9344Q339.17188 344.77814 339.17188 346.325Q339.17188 346.41876 339.17188 346.60626L334.53125 346.60626Q334.59375 347.6375 335.10938 348.1844Q335.625 348.71564 336.40625 348.71564Q336.98438 348.71564 337.39062 348.41876Q337.8125 348.10626 338.04688 347.45ZM334.59375 345.7469L338.0625 345.7469Q338.0 344.95 337.67188 344.5594Q337.15625 343.95 336.35938 343.95Q335.625 343.95 335.125 344.4344Q334.64062 344.91876 334.59375 345.7469ZM340.79688 349.45L340.79688 343.23126L341.73438 343.23126L341.73438 344.10626Q342.42188 343.09064 343.71875 343.09064Q344.28125 343.09064 344.75 343.29376Q345.23438 343.4969 345.46875 343.825Q345.70312 344.15314 345.79688 344.59064Q345.84375 344.8875 345.84375 345.6219L345.84375 349.45L344.79688 349.45L344.79688 345.66876Q344.79688 345.0125 344.67188 344.7Q344.54688 344.3875 344.23438 344.2Q343.92188 343.9969 343.5 343.9969Q342.82812 343.9969 342.32812 344.4344Q341.84375 344.85626 341.84375 346.04376L341.84375 349.45L340.79688 349.45ZM351.82812 349.45L351.82812 348.66876Q351.23438 349.59064 350.09375 349.59064Q349.34375 349.59064 348.71875 349.1844Q348.09375 348.7625 347.75 348.02814Q347.40625 347.29376 347.40625 346.34064Q347.40625 345.41876 347.71875 344.65314Q348.03125 343.8875 348.65625 343.4969Q349.28125 343.09064 350.04688 343.09064Q350.60938 343.09064 351.04688 343.325Q351.48438 343.5594 351.76562 343.9344L351.76562 340.85626L352.8125 340.85626L352.8125 349.45L351.82812 349.45ZM348.5 346.34064Q348.5 347.54376 349.0 348.1375Q349.5 348.71564 350.1875 348.71564Q350.875 348.71564 351.35938 348.15314Q351.84375 347.59064 351.84375 346.4344Q351.84375 345.15314 351.34375 344.5594Q350.85938 343.96564 350.14062 343.96564Q349.4375 343.96564 348.96875 344.54376Q348.5 345.10626 348.5 346.34064Z" fill-rule="nonzero"/><path fill="#000000" d="M397.01196 347.0125L398.0432 346.8719Q398.07446 347.85626 398.4026 348.21564Q398.7307 348.575 399.32446 348.575Q399.74634 348.575 400.05884 348.3875Q400.37134 348.1844 400.4807 347.85626Q400.6057 347.5125 400.6057 346.77814L400.6057 340.85626L401.7307 340.85626L401.7307 346.71564Q401.7307 347.79376 401.4651 348.3875Q401.2151 348.98126 400.6526 349.29376Q400.0901 349.59064 399.32446 349.59064Q398.19946 349.59064 397.5901 348.95Q396.99634 348.29376 397.01196 347.0125ZM407.5432 349.45L407.5432 348.52814Q406.80884 349.59064 405.55884 349.59064Q405.01196 349.59064 404.5276 349.3875Q404.05884 349.16876 403.82446 348.85626Q403.5901 348.52814 403.49634 348.0594Q403.43384 347.7625 403.43384 347.075L403.43384 343.23126L404.49634 343.23126L404.49634 346.6844Q404.49634 347.4969 404.55884 347.79376Q404.6526 348.2 404.9651 348.45Q405.2932 348.6844 405.7776 348.6844Q406.24634 348.6844 406.6526 348.45Q407.07446 348.2 407.24634 347.77814Q407.43384 347.35626 407.43384 346.5594L407.43384 343.23126L408.4807 343.23126L408.4807 349.45L407.5432 349.45ZM410.0432 347.59064L411.07446 347.4344Q411.1682 348.0594 411.55884 348.3875Q411.9651 348.71564 412.69946 348.71564Q413.4182 348.71564 413.76196 348.4344Q414.12134 348.1375 414.12134 347.73126Q414.12134 347.3719 413.80884 347.16876Q413.5901 347.02814 412.7307 346.8094Q411.57446 346.5125 411.12134 346.3094Q410.68384 346.09064 410.44946 345.71564Q410.2151 345.34064 410.2151 344.8719Q410.2151 344.46564 410.4026 344.10626Q410.5901 343.7469 410.9182 343.5125Q411.1682 343.34064 411.5901 343.21564Q412.01196 343.09064 412.51196 343.09064Q413.2307 343.09064 413.7776 343.3094Q414.3401 343.5125 414.6057 343.8719Q414.87134 344.23126 414.9651 344.825L413.93384 344.96564Q413.87134 344.4969 413.5276 344.23126Q413.19946 343.95 412.57446 343.95Q411.8557 343.95 411.5432 344.2Q411.2307 344.4344 411.2307 344.7625Q411.2307 344.96564 411.3557 345.1219Q411.49634 345.29376 411.76196 345.40314Q411.9182 345.46564 412.69946 345.66876Q413.82446 345.98126 414.26196 346.16876Q414.69946 346.35626 414.94946 346.71564Q415.19946 347.075 415.19946 347.6219Q415.19946 348.15314 414.88696 348.6219Q414.5901 349.075 414.01196 349.34064Q413.43384 349.59064 412.69946 349.59064Q411.4807 349.59064 410.8401 349.09064Q410.2151 348.575 410.0432 347.59064ZM419.76196 348.5125L419.9182 349.4344Q419.4651 349.52814 419.12134 349.52814Q418.5432 349.52814 418.2307 349.35626Q417.9182 349.16876 417.7776 348.8719Q417.6526 348.575 417.6526 347.6219L417.6526 344.04376L416.88696 344.04376L416.88696 343.23126L417.6526 343.23126L417.6526 341.6844L418.69946 341.0594L418.69946 343.23126L419.76196 343.23126L419.76196 344.04376L418.69946 344.04376L418.69946 347.6844Q418.69946 348.1375 418.74634 348.2625Q418.80884 348.3875 418.93384 348.46564Q419.05884 348.54376 419.2932 348.54376Q419.4807 348.54376 419.76196 348.5125ZM420.4651 342.075L420.4651 340.85626L421.5276 340.85626L421.5276 342.075L420.4651 342.075ZM420.4651 349.45L420.4651 343.23126L421.5276 343.23126L421.5276 349.45L420.4651 349.45ZM423.7151 349.45L423.7151 344.04376L422.7776 344.04376L422.7776 343.23126L423.7151 343.23126L423.7151 342.5594Q423.7151 341.9344 423.82446 341.6375Q423.9807 341.21564 424.3557 340.96564Q424.74634 340.71564 425.43384 340.71564Q425.88696 340.71564 426.4182 340.825L426.26196 341.73126Q425.93384 341.6844 425.63696 341.6844Q425.1526 341.6844 424.94946 341.8875Q424.76196 342.09064 424.76196 342.65314L424.76196 343.23126L425.9807 343.23126L425.9807 344.04376L424.76196 344.04376L424.76196 349.45L423.7151 349.45ZM426.4182 351.84064L426.2932 350.85626Q426.63696 350.95 426.9026 350.95Q427.24634 350.95 427.44946 350.825Q427.6682 350.71564 427.80884 350.5125Q427.9026 350.34064 428.13696 349.71564Q428.1526 349.6375 428.2307 349.46564L425.8557 343.23126L426.99634 343.23126L428.2932 346.825Q428.5432 347.5125 428.74634 348.27814Q428.93384 347.54376 429.18384 346.85626L430.51196 343.23126L431.55884 343.23126L429.19946 349.5594Q428.80884 350.575 428.6057 350.96564Q428.32446 351.4969 427.94946 351.73126Q427.5901 351.98126 427.0901 351.98126Q426.7932 351.98126 426.4182 351.84064Z" fill-rule="nonzero"/><path fill="#000000" d="M486.25833 349.45L486.25833 340.85626L487.41458 340.85626L491.9302 347.60626L491.9302 340.85626L493.02396 340.85626L493.02396 349.45L491.85208 349.45L487.33646 342.7L487.33646 349.45L486.25833 349.45ZM499.38333 347.45L500.47708 347.575Q500.22708 348.52814 499.52396 349.0594Q498.82083 349.59064 497.7427 349.59064Q496.38333 349.59064 495.57083 348.7469Q494.77396 347.90314 494.77396 346.3875Q494.77396 344.825 495.58646 343.96564Q496.39896 343.09064 497.6802 343.09064Q498.9302 343.09064 499.71146 343.9344Q500.50833 344.77814 500.50833 346.325Q500.50833 346.41876 500.50833 346.60626L495.8677 346.60626Q495.9302 347.6375 496.44583 348.1844Q496.96146 348.71564 497.7427 348.71564Q498.32083 348.71564 498.72708 348.41876Q499.14896 348.10626 499.38333 347.45ZM495.9302 345.7469L499.39896 345.7469Q499.33646 344.95 499.00833 344.5594Q498.4927 343.95 497.69583 343.95Q496.96146 343.95 496.46146 344.4344Q495.97708 344.91876 495.9302 345.7469ZM504.4302 348.5125L504.58646 349.4344Q504.13333 349.52814 503.78958 349.52814Q503.21146 349.52814 502.89896 349.35626Q502.58646 349.16876 502.44583 348.8719Q502.32083 348.575 502.32083 347.6219L502.32083 344.04376L501.5552 344.04376L501.5552 343.23126L502.32083 343.23126L502.32083 341.6844L503.3677 341.0594L503.3677 343.23126L504.4302 343.23126L504.4302 344.04376L503.3677 344.04376L503.3677 347.6844Q503.3677 348.1375 503.41458 348.2625Q503.47708 348.3875 503.60208 348.46564Q503.72708 348.54376 503.96146 348.54376Q504.14896 348.54376 504.4302 348.5125ZM506.27396 349.45L504.3677 343.23126L505.46146 343.23126L506.44583 346.825L506.82083 348.15314Q506.85208 348.0594 507.14896 346.8719L508.13333 343.23126L509.21146 343.23126L510.14896 346.84064L510.46146 348.02814L510.82083 346.825L511.88333 343.23126L512.91455 343.23126L510.96146 349.45L509.8677 349.45L508.88333 345.71564L508.63333 344.66876L507.38333 349.45L506.27396 349.45ZM513.7427 346.34064Q513.7427 344.60626 514.6958 343.77814Q515.4927 343.09064 516.6489 343.09064Q517.9302 343.09064 518.7427 343.9344Q519.5708 344.7625 519.5708 346.2469Q519.5708 347.45 519.2114 348.1375Q518.85205 348.825 518.1489 349.21564Q517.4614 349.59064 516.6489 349.59064Q515.35205 349.59064 514.53955 348.7625Q513.7427 347.91876 513.7427 346.34064ZM514.8208 346.34064Q514.8208 347.52814 515.3364 348.1219Q515.8677 348.71564 516.6489 348.71564Q517.4458 348.71564 517.9614 348.1219Q518.47705 347.52814 518.47705 346.3094Q518.47705 345.15314 517.9458 344.5594Q517.4302 343.96564 516.6489 343.96564Q515.8677 343.96564 515.3364 344.5594Q514.8208 345.1375 514.8208 346.34064ZM521.1177 349.45L521.1177 343.23126L522.0708 343.23126L522.0708 344.16876Q522.4302 343.5125 522.72705 343.3094Q523.03955 343.09064 523.41455 343.09064Q523.9458 343.09064 524.4927 343.41876L524.1333 344.40314Q523.7427 344.16876 523.3677 344.16876Q523.0083 344.16876 522.72705 344.3875Q522.4614 344.59064 522.35205 344.96564Q522.16455 345.52814 522.16455 346.1844L522.16455 349.45L521.1177 349.45ZM525.1333 349.45L525.1333 340.85626L526.1958 340.85626L526.1958 345.7625L528.6802 343.23126L530.0552 343.23126L527.66455 345.52814L530.28955 349.45L528.9927 349.45L526.9302 346.2625L526.1958 346.98126L526.1958 349.45L525.1333 349.45ZM531.2583 349.45L531.2583 340.85626L532.41455 340.85626L536.9302 347.60626L536.9302 340.85626L538.0239 340.85626L538.0239 349.45L536.85205 349.45L532.3364 342.7L532.3364 349.45L531.2583 349.45ZM542.4302 348.5125L542.5864 349.4344Q542.1333 349.52814 541.78955 349.52814Q541.2114 349.52814 540.8989 349.35626Q540.5864 349.16876 540.4458 348.8719Q540.3208 348.575 540.3208 347.6219L540.3208 344.04376L539.5552 344.04376L539.5552 343.23126L540.3208 343.23126L540.3208 341.6844L541.3677 341.0594L541.3677 343.23126L542.4302 343.23126L542.4302 344.04376L541.3677 344.04376L541.3677 347.6844Q541.3677 348.1375 541.41455 348.2625Q541.47705 348.3875 541.60205 348.46564Q541.72705 348.54376 541.9614 348.54376Q542.1489 348.54376 542.4302 348.5125Z" fill-rule="nonzero"/><path fill="#999999" d="M22.175 63.05L22.175 54.20625L18.878124 54.20625L18.878124 53.034374L26.815624 53.034374L26.815624 54.20625L23.503124 54.20625L23.503124 63.05L22.175 63.05ZM28.4875 54.440624L28.4875 53.034374L29.70625 53.034374L29.70625 54.440624L28.4875 54.440624ZM28.4875 63.05L28.4875 55.784374L29.70625 55.784374L29.70625 63.05L28.4875 63.05ZM31.471874 63.05L31.471874 55.784374L32.58125 55.784374L32.58125 56.815624Q32.909374 56.26875 33.471874 55.95625Q34.05 55.628124 34.76875 55.628124Q35.58125 55.628124 36.096874 55.971874Q36.6125 56.3 36.83125 56.89375Q37.690624 55.628124 39.065624 55.628124Q40.14375 55.628124 40.721874 56.221874Q41.315624 56.815624 41.315624 58.065624L41.315624 63.05L40.08125 63.05L40.08125 58.471874Q40.08125 57.7375 39.95625 57.409374Q39.846874 57.08125 39.534374 56.89375Q39.221874 56.690624 38.8 56.690624Q38.034374 56.690624 37.51875 57.20625Q37.01875 57.70625 37.01875 58.83125L37.01875 63.05L35.784374 63.05L35.784374 58.33125Q35.784374 57.51875 35.4875 57.1125Q35.190624 56.690624 34.503124 56.690624Q33.9875 56.690624 33.534374 56.971874Q33.096874 57.2375 32.89375 57.76875Q32.70625 58.284374 32.70625 59.284374L32.70625 63.05L31.471874 63.05ZM47.440624 60.70625L48.721874 60.8625Q48.409374 61.9875 47.596874 62.6125Q46.784374 63.221874 45.51875 63.221874Q43.925 63.221874 42.9875 62.2375Q42.065624 61.253124 42.065624 59.4875Q42.065624 57.64375 43.003124 56.64375Q43.95625 55.628124 45.45625 55.628124Q46.909374 55.628124 47.83125 56.628124Q48.753124 57.6125 48.753124 59.409374Q48.753124 59.51875 48.753124 59.7375L43.33125 59.7375Q43.409374 60.925 44.003124 61.565624Q44.6125 62.20625 45.534374 62.20625Q46.20625 62.20625 46.675 61.846874Q47.159374 61.4875 47.440624 60.70625ZM43.409374 58.721874L47.45625 58.721874Q47.378124 57.8 46.9875 57.346874Q46.409374 56.64375 45.471874 56.64375Q44.6125 56.64375 44.034374 57.20625Q43.471874 57.76875 43.409374 58.721874ZM57.159374 61.95625L57.33125 63.034374Q56.815624 63.14375 56.409374 63.14375Q55.7375 63.14375 55.3625 62.940624Q55.003124 62.721874 54.846874 62.378124Q54.70625 62.034374 54.70625 60.925L54.70625 56.753124L53.8 56.753124L53.8 55.784374L54.70625 55.784374L54.70625 53.9875L55.925 53.253124L55.925 55.784374L57.159374 55.784374L57.159374 56.753124L55.925 56.753124L55.925 60.9875Q55.925 61.51875 55.9875 61.675Q56.05 61.815624 56.190624 61.909374Q56.346874 62.003124 56.6125 62.003124Q56.83125 62.003124 57.159374 61.95625ZM58.01875 59.425Q58.01875 57.409374 59.14375 56.425Q60.065624 55.628124 61.425 55.628124Q62.909374 55.628124 63.8625 56.6125Q64.81563 57.58125 64.81563 59.315624Q64.81563 60.721874 64.39375 61.534374Q63.971874 62.33125 63.159374 62.784374Q62.3625 63.221874 61.425 63.221874Q59.89375 63.221874 58.95625 62.2375Q58.01875 61.253124 58.01875 59.425ZM59.284374 59.425Q59.284374 60.815624 59.89375 61.51875Q60.503124 62.20625 61.425 62.20625Q62.33125 62.20625 62.940624 61.503124Q63.55 60.8 63.55 59.378124Q63.55 58.034374 62.940624 57.346874Q62.33125 56.64375 61.425 56.64375Q60.503124 56.64375 59.89375 57.33125Q59.284374 58.01875 59.284374 59.425ZM72.4875 63.05L69.72188 55.784374L71.03438 55.784374L72.58125 60.14375Q72.83125 60.846874 73.05 61.596874Q73.22188 61.01875 73.50313 60.221874L75.12813 55.784374L76.39375 55.784374L73.64375 63.05L72.4875 63.05ZM82.20625 62.159374Q81.53438 62.7375 80.89375 62.9875Q80.26875 63.221874 79.53438 63.221874Q78.34688 63.221874 77.69063 62.64375Q77.05 62.05 77.05 61.128124Q77.05 60.596874 77.28438 60.159374Q77.53438 59.721874 77.925 59.45625Q78.33125 59.190624 78.81563 59.05Q79.175 58.95625 79.90938 58.8625Q81.40938 58.690624 82.1125 58.440624Q82.1125 58.190624 82.1125 58.128124Q82.1125 57.3625 81.76875 57.065624Q81.3 56.64375 80.3625 56.64375Q79.50313 56.64375 79.08125 56.95625Q78.675 57.253124 78.47188 58.01875L77.26875 57.8625Q77.425 57.08125 77.8 56.6125Q78.19063 56.14375 78.89375 55.89375Q79.6125 55.628124 80.55 55.628124Q81.47188 55.628124 82.05 55.846874Q82.62813 56.065624 82.89375 56.39375Q83.175 56.721874 83.28438 57.2375Q83.34688 57.55 83.34688 58.3625L83.34688 60.003124Q83.34688 61.721874 83.425 62.175Q83.50313 62.628124 83.7375 63.05L82.45625 63.05Q82.26875 62.659374 82.20625 62.159374ZM82.1125 59.409374Q81.44063 59.675 80.09688 59.878124Q79.34688 59.9875 79.01875 60.128124Q78.70625 60.253124 78.53438 60.51875Q78.3625 60.784374 78.3625 61.096874Q78.3625 61.596874 78.7375 61.925Q79.1125 62.253124 79.83125 62.253124Q80.55 62.253124 81.09688 61.940624Q81.64375 61.628124 81.90938 61.08125Q82.1125 60.675 82.1125 59.8625L82.1125 59.409374ZM85.44063 63.05L85.44063 53.034374L86.675 53.034374L86.675 63.05L85.44063 63.05ZM88.4875 54.440624L88.4875 53.034374L89.70625 53.034374L89.70625 54.440624L88.4875 54.440624ZM88.4875 63.05L88.4875 55.784374L89.70625 55.784374L89.70625 63.05L88.4875 63.05ZM96.19063 63.05L96.19063 62.128124Q95.4875 63.221874 94.15938 63.221874Q93.28438 63.221874 92.55 62.7375Q91.83125 62.253124 91.425 61.39375Q91.03438 60.534374 91.03438 59.425Q91.03438 58.346874 91.39375 57.45625Q91.75313 56.565624 92.47188 56.096874Q93.20625 55.628124 94.09688 55.628124Q94.75313 55.628124 95.26875 55.909374Q95.78438 56.175 96.09688 56.628124L96.09688 53.034374L97.33125 53.034374L97.33125 63.05L96.19063 63.05ZM92.3 59.425Q92.3 60.815624 92.87813 61.51875Q93.47188 62.20625 94.26875 62.20625Q95.08125 62.20625 95.64375 61.55Q96.20625 60.878124 96.20625 59.534374Q96.20625 58.034374 95.62813 57.346874Q95.05 56.64375 94.22188 56.64375Q93.39375 56.64375 92.84688 57.315624Q92.3 57.9875 92.3 59.425ZM104.20625 62.159374Q103.53438 62.7375 102.89375 62.9875Q102.26875 63.221874 101.53438 63.221874Q100.34688 63.221874 99.69063 62.64375Q99.05 62.05 99.05 61.128124Q99.05 60.596874 99.28438 60.159374Q99.53438 59.721874 99.925 59.45625Q100.33125 59.190624 100.81563 59.05Q101.175 58.95625 101.90938 58.8625Q103.40938 58.690624 104.1125 58.440624Q104.1125 58.190624 104.1125 58.128124Q104.1125 57.3625 103.76875 57.065624Q103.3 56.64375 102.3625 56.64375Q101.50313 56.64375 101.08125 56.95625Q100.675 57.253124 100.47188 58.01875L99.26875 57.8625Q99.425 57.08125 99.8 56.6125Q100.19063 56.14375 100.89375 55.89375Q101.6125 55.628124 102.55 55.628124Q103.47188 55.628124 104.05 55.846874Q104.62813 56.065624 104.89375 56.39375Q105.175 56.721874 105.28438 57.2375Q105.34688 57.55 105.34688 58.3625L105.34688 60.003124Q105.34688 61.721874 105.425 62.175Q105.50313 62.628124 105.7375 63.05L104.45625 63.05Q104.26875 62.659374 104.20625 62.159374ZM104.1125 59.409374Q103.44063 59.675 102.09688 59.878124Q101.34688 59.9875 101.01875 60.128124Q100.70625 60.253124 100.53438 60.51875Q100.3625 60.784374 100.3625 61.096874Q100.3625 61.596874 100.7375 61.925Q101.1125 62.253124 101.83125 62.253124Q102.55 62.253124 103.09688 61.940624Q103.64375 61.628124 103.90938 61.08125Q104.1125 60.675 104.1125 59.8625L104.1125 59.409374ZM110.15938 61.95625L110.33125 63.034374Q109.81563 63.14375 109.40938 63.14375Q108.7375 63.14375 108.3625 62.940624Q108.00313 62.721874 107.84688 62.378124Q107.70625 62.034374 107.70625 60.925L107.70625 56.753124L106.8 56.753124L106.8 55.784374L107.70625 55.784374L107.70625 53.9875L108.925 53.253124L108.925 55.784374L110.15938 55.784374L110.15938 56.753124L108.925 56.753124L108.925 60.9875Q108.925 61.51875 108.9875 61.675Q109.05 61.815624 109.19063 61.909374Q109.34688 62.003124 109.6125 62.003124Q109.83125 62.003124 110.15938 61.95625ZM116.44063 60.70625L117.72188 60.8625Q117.40938 61.9875 116.59688 62.6125Q115.78438 63.221874 114.51875 63.221874Q112.925 63.221874 111.9875 62.2375Q111.06563 61.253124 111.06563 59.4875Q111.06563 57.64375 112.00313 56.64375Q112.95625 55.628124 114.45625 55.628124Q115.90938 55.628124 116.83125 56.628124Q117.75313 57.6125 117.75313 59.409374Q117.75313 59.51875 117.75313 59.7375L112.33125 59.7375Q112.40938 60.925 113.00313 61.565624Q113.6125 62.20625 114.53438 62.20625Q115.20625 62.20625 115.675 61.846874Q116.15938 61.4875 116.44063 60.70625ZM112.40938 58.721874L116.45625 58.721874Q116.37813 57.8 115.9875 57.346874Q115.40938 56.64375 114.47188 56.64375Q113.6125 56.64375 113.03438 57.20625Q112.47188 57.76875 112.40938 58.721874ZM123.47188 65.83125L123.47188 55.784374L124.59688 55.784374L124.59688 56.7375Q124.9875 56.175 125.4875 55.909374Q125.9875 55.628124 126.70625 55.628124Q127.62813 55.628124 128.33125 56.1125Q129.05 56.58125 129.40938 57.45625Q129.76875 58.33125 129.76875 59.3625Q129.76875 60.471874 129.3625 61.378124Q128.97188 62.26875 128.20625 62.753124Q127.45625 63.221874 126.6125 63.221874Q126.00313 63.221874 125.50313 62.95625Q125.01875 62.690624 124.70625 62.3L124.70625 65.83125L123.47188 65.83125ZM124.58125 59.45625Q124.58125 60.8625 125.14375 61.534374Q125.72188 62.20625 126.53438 62.20625Q127.34688 62.20625 127.925 61.51875Q128.51875 60.815624 128.51875 59.3625Q128.51875 57.971874 127.94063 57.284374Q127.37813 56.596874 126.58125 56.596874Q125.8 56.596874 125.19063 57.33125Q124.58125 58.065624 124.58125 59.45625ZM136.20625 62.159374Q135.53438 62.7375 134.89375 62.9875Q134.26875 63.221874 133.53438 63.221874Q132.34688 63.221874 131.69063 62.64375Q131.05 62.05 131.05 61.128124Q131.05 60.596874 131.28438 60.159374Q131.53438 59.721874 131.925 59.45625Q132.33125 59.190624 132.81563 59.05Q133.175 58.95625 133.90938 58.8625Q135.40938 58.690624 136.1125 58.440624Q136.1125 58.190624 136.1125 58.128124Q136.1125 57.3625 135.76875 57.065624Q135.3 56.64375 134.3625 56.64375Q133.50313 56.64375 133.08125 56.95625Q132.675 57.253124 132.47188 58.01875L131.26875 57.8625Q131.425 57.08125 131.8 56.6125Q132.19063 56.14375 132.89375 55.89375Q133.6125 55.628124 134.55 55.628124Q135.47188 55.628124 136.05 55.846874Q136.62813 56.065624 136.89375 56.39375Q137.175 56.721874 137.28438 57.2375Q137.34688 57.55 137.34688 58.3625L137.34688 60.003124Q137.34688 61.721874 137.425 62.175Q137.50313 62.628124 137.7375 63.05L136.45625 63.05Q136.26875 62.659374 136.20625 62.159374ZM136.1125 59.409374Q135.44063 59.675 134.09688 59.878124Q133.34688 59.9875 133.01875 60.128124Q132.70625 60.253124 132.53438 60.51875Q132.3625 60.784374 132.3625 61.096874Q132.3625 61.596874 132.7375 61.925Q133.1125 62.253124 133.83125 62.253124Q134.55 62.253124 135.09688 61.940624Q135.64375 61.628124 135.90938 61.08125Q136.1125 60.675 136.1125 59.8625L136.1125 59.409374ZM138.9875 60.878124L140.19063 60.690624Q140.3 61.425 140.76875 61.815624Q141.2375 62.20625 142.08125 62.20625Q142.925 62.20625 143.33125 61.8625Q143.75313 61.51875 143.75313 61.05Q143.75313 60.628124 143.37813 60.39375Q143.12813 60.221874 142.12813 59.971874Q140.76875 59.628124 140.2375 59.378124Q139.72188 59.128124 139.45625 58.690624Q139.19063 58.253124 139.19063 57.721874Q139.19063 57.2375 139.40938 56.83125Q139.62813 56.409374 140.01875 56.128124Q140.3 55.925 140.78438 55.784374Q141.28438 55.628124 141.8625 55.628124Q142.70625 55.628124 143.34688 55.878124Q144.00313 56.1125 144.31563 56.534374Q144.62813 56.95625 144.7375 57.659374L143.53438 57.83125Q143.45625 57.26875 143.05 56.95625Q142.65938 56.64375 141.94063 56.64375Q141.09688 56.64375 140.7375 56.925Q140.37813 57.190624 140.37813 57.58125Q140.37813 57.815624 140.51875 58.003124Q140.675 58.20625 141.00313 58.33125Q141.175 58.39375 142.08125 58.64375Q143.39375 59.003124 143.90938 59.221874Q144.425 59.440624 144.70625 59.8625Q145.00313 60.284374 145.00313 60.909374Q145.00313 61.534374 144.64375 62.08125Q144.3 62.6125 143.6125 62.925Q142.94063 63.221874 142.08125 63.221874Q140.675 63.221874 139.925 62.628124Q139.19063 62.034374 138.9875 60.878124ZM145.9875 60.878124L147.19063 60.690624Q147.3 61.425 147.76875 61.815624Q148.2375 62.20625 149.08125 62.20625Q149.925 62.20625 150.33125 61.8625Q150.75313 61.51875 150.75313 61.05Q150.75313 60.628124 150.37813 60.39375Q150.12813 60.221874 149.12813 59.971874Q147.76875 59.628124 147.2375 59.378124Q146.72188 59.128124 146.45625 58.690624Q146.19063 58.253124 146.19063 57.721874Q146.19063 57.2375 146.40938 56.83125Q146.62813 56.409374 147.01875 56.128124Q147.3 55.925 147.78438 55.784374Q148.28438 55.628124 148.8625 55.628124Q149.70625 55.628124 150.34688 55.878124Q151.00313 56.1125 151.31563 56.534374Q151.62813 56.95625 151.7375 57.659374L150.53438 57.83125Q150.45625 57.26875 150.05 56.95625Q149.65938 56.64375 148.94063 56.64375Q148.09688 56.64375 147.7375 56.925Q147.37813 57.190624 147.37813 57.58125Q147.37813 57.815624 147.51875 58.003124Q147.675 58.20625 148.00313 58.33125Q148.175 58.39375 149.08125 58.64375Q150.39375 59.003124 150.90938 59.221874Q151.425 59.440624 151.70625 59.8625Q152.00313 60.284374 152.00313 60.909374Q152.00313 61.534374 151.64375 62.08125Q151.3 62.6125 150.6125 62.925Q149.94063 63.221874 149.08125 63.221874Q147.675 63.221874 146.925 62.628124Q146.19063 62.034374 145.9875 60.878124ZM153.4875 54.440624L153.4875 53.034374L154.70625 53.034374L154.70625 54.440624L153.4875 54.440624ZM153.4875 63.05L153.4875 55.784374L154.70625 55.784374L154.70625 63.05L153.4875 63.05ZM156.47188 63.05L156.47188 55.784374L157.58125 55.784374L157.58125 56.815624Q158.37813 55.628124 159.89375 55.628124Q160.55 55.628124 161.09688 55.8625Q161.64375 56.096874 161.90938 56.4875Q162.19063 56.8625 162.3 57.39375Q162.37813 57.7375 162.37813 58.58125L162.37813 63.05L161.14375 63.05L161.14375 58.628124Q161.14375 57.878124 161.00313 57.51875Q160.8625 57.14375 160.4875 56.925Q160.12813 56.690624 159.62813 56.690624Q158.84688 56.690624 158.26875 57.190624Q157.70625 57.690624 157.70625 59.08125L157.70625 63.05L156.47188 63.05ZM164.25313 63.659374L165.44063 63.83125Q165.51875 64.37813 165.8625 64.64375Q166.31563 64.97188 167.1125 64.97188Q167.97188 64.97188 168.425 64.62813Q168.89375 64.3 169.06563 63.675Q169.15938 63.3 169.14375 62.096874Q168.34688 63.05 167.14375 63.05Q165.64375 63.05 164.81563 61.971874Q164.00313 60.89375 164.00313 59.378124Q164.00313 58.346874 164.37813 57.471874Q164.75313 56.58125 165.45625 56.1125Q166.175 55.628124 167.14375 55.628124Q168.425 55.628124 169.26875 56.659374L169.26875 55.784374L170.39375 55.784374L170.39375 62.065624Q170.39375 63.76875 170.05 64.47188Q169.70625 65.175 168.95625 65.58125Q168.20625 66.00313 167.1125 66.00313Q165.81563 66.00313 165.01875 65.40938Q164.22188 64.83125 164.25313 63.659374ZM165.26875 59.284374Q165.26875 60.721874 165.83125 61.378124Q166.39375 62.034374 167.25313 62.034374Q168.09688 62.034374 168.675 61.378124Q169.25313 60.721874 169.25313 59.33125Q169.25313 58.003124 168.65938 57.33125Q168.06563 56.64375 167.2375 56.64375Q166.40938 56.64375 165.83125 57.315624Q165.26875 57.971874 165.26875 59.284374ZM179.15938 61.95625L179.33125 63.034374Q178.81563 63.14375 178.40938 63.14375Q177.7375 63.14375 177.3625 62.940624Q177.00313 62.721874 176.84688 62.378124Q176.70625 62.034374 176.70625 60.925L176.70625 56.753124L175.8 56.753124L175.8 55.784374L176.70625 55.784374L176.70625 53.9875L177.925 53.253124L177.925 55.784374L179.15938 55.784374L179.15938 56.753124L177.925 56.753124L177.925 60.9875Q177.925 61.51875 177.9875 61.675Q178.05 61.815624 178.19063 61.909374Q178.34688 62.003124 178.6125 62.003124Q178.83125 62.003124 179.15938 61.95625ZM185.44063 60.70625L186.72188 60.8625Q186.40938 61.9875 185.59688 62.6125Q184.78438 63.221874 183.51875 63.221874Q181.925 63.221874 180.9875 62.2375Q180.06563 61.253124 180.06563 59.4875Q180.06563 57.64375 181.00313 56.64375Q181.95625 55.628124 183.45625 55.628124Q184.90938 55.628124 185.83125 56.628124Q186.75313 57.6125 186.75313 59.409374Q186.75313 59.51875 186.75313 59.7375L181.33125 59.7375Q181.40938 60.925 182.00313 61.565624Q182.6125 62.20625 183.53438 62.20625Q184.20625 62.20625 184.675 61.846874Q185.15938 61.4875 185.44063 60.70625ZM181.40938 58.721874L185.45625 58.721874Q185.37813 57.8 184.9875 57.346874Q184.40938 56.64375 183.47188 56.64375Q182.6125 56.64375 182.03438 57.20625Q181.47188 57.76875 181.40938 58.721874ZM187.9875 60.878124L189.19063 60.690624Q189.3 61.425 189.76875 61.815624Q190.2375 62.20625 191.08125 62.20625Q191.925 62.20625 192.33125 61.8625Q192.75313 61.51875 192.75313 61.05Q192.75313 60.628124 192.37813 60.39375Q192.12813 60.221874 191.12813 59.971874Q189.76875 59.628124 189.2375 59.378124Q188.72188 59.128124 188.45625 58.690624Q188.19063 58.253124 188.19063 57.721874Q188.19063 57.2375 188.40938 56.83125Q188.62813 56.409374 189.01875 56.128124Q189.3 55.925 189.78438 55.784374Q190.28438 55.628124 190.8625 55.628124Q191.70625 55.628124 192.34688 55.878124Q193.00313 56.1125 193.31563 56.534374Q193.62813 56.95625 193.7375 57.659374L192.53438 57.83125Q192.45625 57.26875 192.05 56.95625Q191.65938 56.64375 190.94063 56.64375Q190.09688 56.64375 189.7375 56.925Q189.37813 57.190624 189.37813 57.58125Q189.37813 57.815624 189.51875 58.003124Q189.675 58.20625 190.00313 58.33125Q190.175 58.39375 191.08125 58.64375Q192.39375 59.003124 192.90938 59.221874Q193.425 59.440624 193.70625 59.8625Q194.00313 60.284374 194.00313 60.909374Q194.00313 61.534374 193.64375 62.08125Q193.3 62.6125 192.6125 62.925Q191.94063 63.221874 191.08125 63.221874Q189.675 63.221874 188.925 62.628124Q188.19063 62.034374 187.9875 60.878124ZM198.15938 61.95625L198.33125 63.034374Q197.81563 63.14375 197.40938 63.14375Q196.7375 63.14375 196.3625 62.940624Q196.00313 62.721874 195.84688 62.378124Q195.70625 62.034374 195.70625 60.925L195.70625 56.753124L194.8 56.753124L194.8 55.784374L195.70625 55.784374L195.70625 53.9875L196.925 53.253124L196.925 55.784374L198.15938 55.784374L198.15938 56.753124L196.925 56.753124L196.925 60.9875Q196.925 61.51875 196.9875 61.675Q197.05 61.815624 197.19063 61.909374Q197.34688 62.003124 197.6125 62.003124Q197.83125 62.003124 198.15938 61.95625ZM208.20625 60.39375L209.425 60.55Q209.22188 61.8 208.39375 62.51875Q207.58125 63.221874 206.39375 63.221874Q204.90938 63.221874 204.00313 62.253124Q203.09688 61.26875 203.09688 59.440624Q203.09688 58.26875 203.4875 57.39375Q203.87813 56.503124 204.675 56.065624Q205.47188 55.628124 206.40938 55.628124Q207.58125 55.628124 208.33125 56.221874Q209.09688 56.815624 209.3 57.925L208.1125 58.1125Q207.94063 57.378124 207.50313 57.01875Q207.06563 56.64375 206.45625 56.64375Q205.51875 56.64375 204.94063 57.315624Q204.3625 57.971874 204.3625 59.409374Q204.3625 60.878124 204.925 61.55Q205.4875 62.20625 206.37813 62.20625Q207.1125 62.20625 207.59688 61.76875Q208.08125 61.315624 208.20625 60.39375ZM215.20625 62.159374Q214.53438 62.7375 213.89375 62.9875Q213.26875 63.221874 212.53438 63.221874Q211.34688 63.221874 210.69063 62.64375Q210.05 62.05 210.05 61.128124Q210.05 60.596874 210.28438 60.159374Q210.53438 59.721874 210.925 59.45625Q211.33125 59.190624 211.81563 59.05Q212.175 58.95625 212.90938 58.8625Q214.40938 58.690624 215.1125 58.440624Q215.1125 58.190624 215.1125 58.128124Q215.1125 57.3625 214.76875 57.065624Q214.3 56.64375 213.3625 56.64375Q212.50313 56.64375 212.08125 56.95625Q211.675 57.253124 211.47188 58.01875L210.26875 57.8625Q210.425 57.08125 210.8 56.6125Q211.19063 56.14375 211.89375 55.89375Q212.6125 55.628124 213.55 55.628124Q214.47188 55.628124 215.05 55.846874Q215.62813 56.065624 215.89375 56.39375Q216.175 56.721874 216.28438 57.2375Q216.34688 57.55 216.34688 58.3625L216.34688 60.003124Q216.34688 61.721874 216.425 62.175Q216.50313 62.628124 216.7375 63.05L215.45625 63.05Q215.26875 62.659374 215.20625 62.159374ZM215.1125 59.409374Q214.44063 59.675 213.09688 59.878124Q212.34688 59.9875 212.01875 60.128124Q211.70625 60.253124 211.53438 60.51875Q211.3625 60.784374 211.3625 61.096874Q211.3625 61.596874 211.7375 61.925Q212.1125 62.253124 212.83125 62.253124Q213.55 62.253124 214.09688 61.940624Q214.64375 61.628124 214.90938 61.08125Q215.1125 60.675 215.1125 59.8625L215.1125 59.409374ZM217.9875 60.878124L219.19063 60.690624Q219.3 61.425 219.76875 61.815624Q220.2375 62.20625 221.08125 62.20625Q221.925 62.20625 222.33125 61.8625Q222.75313 61.51875 222.75313 61.05Q222.75313 60.628124 222.37813 60.39375Q222.12813 60.221874 221.12813 59.971874Q219.76875 59.628124 219.2375 59.378124Q218.72188 59.128124 218.45625 58.690624Q218.19063 58.253124 218.19063 57.721874Q218.19063 57.2375 218.40938 56.83125Q218.62813 56.409374 219.01875 56.128124Q219.3 55.925 219.78438 55.784374Q220.28438 55.628124 220.8625 55.628124Q221.70625 55.628124 222.34688 55.878124Q223.00313 56.1125 223.31563 56.534374Q223.62813 56.95625 223.7375 57.659374L222.53438 57.83125Q222.45625 57.26875 222.05 56.95625Q221.65938 56.64375 220.94063 56.64375Q220.09688 56.64375 219.7375 56.925Q219.37813 57.190624 219.37813 57.58125Q219.37813 57.815624 219.51875 58.003124Q219.675 58.20625 220.00313 58.33125Q220.175 58.39375 221.08125 58.64375Q222.39375 59.003124 222.90938 59.221874Q223.425 59.440624 223.70625 59.8625Q224.00313 60.284374 224.00313 60.909374Q224.00313 61.534374 223.64375 62.08125Q223.3 62.6125 222.6125 62.925Q221.94063 63.221874 221.08125 63.221874Q219.675 63.221874 218.925 62.628124Q218.19063 62.034374 217.9875 60.878124ZM230.44063 60.70625L231.72188 60.8625Q231.40938 61.9875 230.59688 62.6125Q229.78438 63.221874 228.51875 63.221874Q226.925 63.221874 225.9875 62.2375Q225.06563 61.253124 225.06563 59.4875Q225.06563 57.64375 226.00313 56.64375Q226.95625 55.628124 228.45625 55.628124Q229.90938 55.628124 230.83125 56.628124Q231.75313 57.6125 231.75313 59.409374Q231.75313 59.51875 231.75313 59.7375L226.33125 59.7375Q226.40938 60.925 227.00313 61.565624Q227.6125 62.20625 228.53438 62.20625Q229.20625 62.20625 229.675 61.846874Q230.15938 61.4875 230.44063 60.70625ZM226.40938 58.721874L230.45625 58.721874Q230.37813 57.8 229.9875 57.346874Q229.40938 56.64375 228.47188 56.64375Q227.6125 56.64375 227.03438 57.20625Q226.47188 57.76875 226.40938 58.721874ZM232.9875 60.878124L234.19063 60.690624Q234.3 61.425 234.76875 61.815624Q235.2375 62.20625 236.08125 62.20625Q236.925 62.20625 237.33125 61.8625Q237.75313 61.51875 237.75313 61.05Q237.75313 60.628124 237.37813 60.39375Q237.12813 60.221874 236.12813 59.971874Q234.76875 59.628124 234.2375 59.378124Q233.72188 59.128124 233.45625 58.690624Q233.19063 58.253124 233.19063 57.721874Q233.19063 57.2375 233.40938 56.83125Q233.62813 56.409374 234.01875 56.128124Q234.3 55.925 234.78438 55.784374Q235.28438 55.628124 235.8625 55.628124Q236.70625 55.628124 237.34688 55.878124Q238.00313 56.1125 238.31563 56.534374Q238.62813 56.95625 238.7375 57.659374L237.53438 57.83125Q237.45625 57.26875 237.05 56.95625Q236.65938 56.64375 235.94063 56.64375Q235.09688 56.64375 234.7375 56.925Q234.37813 57.190624 234.37813 57.58125Q234.37813 57.815624 234.51875 58.003124Q234.675 58.20625 235.00313 58.33125Q235.175 58.39375 236.08125 58.64375Q237.39375 59.003124 237.90938 59.221874Q238.425 59.440624 238.70625 59.8625Q239.00313 60.284374 239.00313 60.909374Q239.00313 61.534374 238.64375 62.08125Q238.3 62.6125 237.6125 62.925Q236.94063 63.221874 236.08125 63.221874Q234.675 63.221874 233.925 62.628124Q233.19063 62.034374 232.9875 60.878124Z" fill-rule="nonzero"/><path fill="#757575" d="M20.096874 37.55L20.096874 23.2375L25.01875 23.2375Q26.690624 23.2375 27.58125 23.440624Q28.8 23.721874 29.675 24.45625Q30.8 25.425 31.3625 26.909374Q31.925 28.39375 31.925 30.315624Q31.925 31.940624 31.55 33.20625Q31.175 34.45625 30.565624 35.284374Q29.971874 36.1125 29.26875 36.596874Q28.565624 37.065624 27.565624 37.315624Q26.565624 37.55 25.253124 37.55L20.096874 37.55ZM21.9875 35.8625L25.05 35.8625Q26.45625 35.8625 27.253124 35.596874Q28.065624 35.33125 28.55 34.846874Q29.221874 34.175 29.596874 33.05Q29.971874 31.909374 29.971874 30.284374Q29.971874 28.034374 29.2375 26.83125Q28.503124 25.628124 27.440624 25.221874Q26.690624 24.925 25.003124 24.925L21.9875 24.925L21.9875 35.8625ZM33.846874 37.55L33.846874 27.175L35.425 27.175L35.425 28.753124Q36.034374 27.64375 36.55 27.3Q37.065624 26.940624 37.675 26.940624Q38.565624 26.940624 39.4875 27.503124L38.878124 29.14375Q38.2375 28.753124 37.596874 28.753124Q37.01875 28.753124 36.55 29.1125Q36.096874 29.45625 35.89375 30.065624Q35.6125 31.003124 35.6125 32.1125L35.6125 37.55L33.846874 37.55ZM47.64375 36.26875Q46.659374 37.096874 45.753124 37.440624Q44.846874 37.784374 43.815624 37.784374Q42.1125 37.784374 41.190624 36.95625Q40.26875 36.1125 40.26875 34.815624Q40.26875 34.05 40.6125 33.425Q40.971874 32.8 41.534374 32.425Q42.096874 32.034374 42.8 31.83125Q43.315624 31.70625 44.3625 31.565624Q46.4875 31.315624 47.4875 30.971874Q47.503124 30.6125 47.503124 30.503124Q47.503124 29.440624 47.003124 28.9875Q46.33125 28.39375 45.003124 28.39375Q43.753124 28.39375 43.159374 28.83125Q42.58125 29.26875 42.3 30.378124L40.58125 30.14375Q40.815624 29.034374 41.346874 28.3625Q41.878124 27.675 42.89375 27.315624Q43.909374 26.940624 45.253124 26.940624Q46.58125 26.940624 47.409374 27.253124Q48.2375 27.565624 48.628124 28.05Q49.01875 28.51875 49.175 29.2375Q49.26875 29.690624 49.26875 30.8625L49.26875 33.20625Q49.26875 35.659374 49.378124 36.315624Q49.4875 36.95625 49.83125 37.55L47.9875 37.55Q47.721874 37.003124 47.64375 36.26875ZM47.4875 32.346874Q46.534374 32.7375 44.6125 33.003124Q43.534374 33.159374 43.08125 33.3625Q42.64375 33.55 42.39375 33.925Q42.14375 34.3 42.14375 34.76875Q42.14375 35.471874 42.675 35.940624Q43.20625 36.409374 44.2375 36.409374Q45.253124 36.409374 46.034374 35.971874Q46.83125 35.51875 47.20625 34.753124Q47.4875 34.14375 47.4875 32.9875L47.4875 32.346874ZM52.284374 37.55L52.284374 28.55L50.7375 28.55L50.7375 27.175L52.284374 27.175L52.284374 26.08125Q52.284374 25.034374 52.471874 24.51875Q52.721874 23.83125 53.3625 23.409374Q54.003124 22.9875 55.159374 22.9875Q55.909374 22.9875 56.8 23.159374L56.534374 24.690624Q55.9875 24.596874 55.503124 24.596874Q54.70625 24.596874 54.3625 24.940624Q54.034374 25.284374 54.034374 26.221874L54.034374 27.175L56.065624 27.175L56.065624 28.55L54.034374 28.55L54.034374 37.55L52.284374 37.55ZM61.70625 35.971874L61.95625 37.534374Q61.221874 37.690624 60.628124 37.690624Q59.675 37.690624 59.14375 37.39375Q58.628124 37.08125 58.409374 36.596874Q58.190624 36.096874 58.190624 34.51875L58.190624 28.55L56.909374 28.55L56.909374 27.175L58.190624 27.175L58.190624 24.6125L59.940624 23.55L59.940624 27.175L61.70625 27.175L61.70625 28.55L59.940624 28.55L59.940624 34.6125Q59.940624 35.3625 60.034374 35.58125Q60.128124 35.784374 60.33125 35.925Q60.55 36.05 60.940624 36.05Q61.221874 36.05 61.70625 35.971874ZM78.50313 26.7375L76.75313 26.878124Q76.51875 25.846874 76.09688 25.378124Q75.37813 24.6125 74.33125 24.6125Q73.4875 24.6125 72.8625 25.08125Q72.03438 25.690624 71.55 26.8625Q71.06563 28.01875 71.05 30.159374Q71.69063 29.20625 72.59688 28.7375Q73.51875 28.26875 74.53438 28.26875Q76.28438 28.26875 77.51875 29.565624Q78.75313 30.846874 78.75313 32.89375Q78.75313 34.253124 78.175 35.409374Q77.59688 36.565624 76.58125 37.190624Q75.56563 37.8 74.26875 37.8Q72.08125 37.8 70.69063 36.190624Q69.3 34.565624 69.3 30.846874Q69.3 26.70625 70.83125 24.815624Q72.175 23.175 74.44063 23.175Q76.12813 23.175 77.20625 24.128124Q78.28438 25.065624 78.50313 26.7375ZM71.33125 32.909374Q71.33125 33.815624 71.70625 34.64375Q72.09688 35.471874 72.78438 35.909374Q73.4875 36.346874 74.2375 36.346874Q75.3625 36.346874 76.15938 35.45625Q76.95625 34.55 76.95625 33.003124Q76.95625 31.51875 76.15938 30.675Q75.37813 29.815624 74.175 29.815624Q72.9875 29.815624 72.15938 30.675Q71.33125 31.51875 71.33125 32.909374Z" fill-rule="nonzero"/></svg>