<svg version="1.1" viewBox="0.0 0.0 600.0 371.0" fill="none" stroke="none" stroke-linecap="square" stroke-miterlimit="10" width="600" height="371" xmlns:xlink="http://www.w3.org/1999/xlink" xmlns="http://www.w3.org/2000/svg"><path fill="#ffffff" d="M0 0L600.0 0L600.0 371.0L0 371.0L0 0Z" fill-rule="nonzero"/><path stroke="#333333" stroke-width="1.0" stroke-linecap="butt" d="M45.5 332.5L581.5 332.5" fill-rule="nonzero"/><path stroke="#cccccc" stroke-width="1.0" stroke-linecap="butt" d="M45.5 270.5L581.5 270.5" fill-rule="nonzero"/><path stroke="#cccccc" stroke-width="1.0" stroke-linecap="butt" d="M45.5 208.5L581.5 208.5" fill-rule="nonzero"/><path stroke="#cccccc" stroke-width="1.0" stroke-linecap="butt" d="M45.5 147.5L581.5 147.5" fill-rule="nonzero"/><path stroke="#cccccc" stroke-width="1.0" stroke-linecap="butt" d="M45.5 85.5L581.5 85.5" fill-rule="nonzero"/><clipPath id="id_0"><path d="M45.55 85.416664L581.45 85.416664L581.45 332.45L45.55 332.45L45.55 85.416664Z" clip-rule="nonzero"/></clipPath><path stroke="#000000" stroke-width="2.0" stroke-linecap="butt" stroke-opacity="0.0" clip-path="url(#id_0)" d="M169.0 332.0L89.0 332.0L89.0 283.0C89.0 281.89542 89.89543 281.0 91.0 281.0L167.0 281.0C168.10457 281.0 169.0 281.89542 169.0 283.0Z" fill-rule="nonzero"/><path fill="#4285f4" clip-path="url(#id_0)" d="M169.0 332.0L89.0 332.0L89.0 283.0C89.0 281.89542 89.89543 281.0 91.0 281.0L167.0 281.0C168.10457 281.0 169.0 281.89542 169.0 283.0Z" fill-rule="nonzero"/><path stroke="#000000" stroke-width="2.0" stroke-linecap="butt" stroke-opacity="0.0" clip-path="url(#id_0)" d="M292.0 332.0L212.0 332.0L212.0 248.0C212.0 246.89543 212.89543 246.0 214.0 246.0L290.0 246.0C291.10458 246.0 292.0 246.89543 292.0 248.0Z" fill-rule="nonzero"/><path fill="#a64d79" clip-path="url(#id_0)" d="M292.0 332.0L212.0 332.0L212.0 248.0C212.0 246.89543 212.89543 246.0 214.0 246.0L290.0 246.0C291.10458 246.0 292.0 246.89543 292.0 248.0Z" fill-rule="nonzero"/><path stroke="#000000" stroke-width="2.0" stroke-linecap="butt" stroke-opacity="0.0" clip-path="url(#id_0)" d="M415.0 332.0L335.0 332.0L335.0 221.0C335.0 219.89543 335.89542 219.0 337.0 219.0L413.0 219.0C414.10458 219.0 415.0 219.89543 415.0 221.0Z" fill-rule="nonzero"/><path fill="#e69138" clip-path="url(#id_0)" d="M415.0 332.0L335.0 332.0L335.0 221.0C335.0 219.89543 335.89542 219.0 337.0 219.0L413.0 219.0C414.10458 219.0 415.0 219.89543 415.0 221.0Z" fill-rule="nonzero"/><path stroke="#000000" stroke-width="2.0" stroke-linecap="butt" stroke-opacity="0.0" clip-path="url(#id_0)" d="M538.0 332.0L458.0 332.0L458.0 109.0C458.0 107.89543 458.89542 107.0 460.0 107.0L536.0 107.0C537.10455 107.0 538.0 107.89543 538.0 109.0Z" fill-rule="nonzero"/><path fill="#cc0000" clip-path="url(#id_0)" d="M538.0 332.0L458.0 332.0L458.0 109.0C458.0 107.89543 458.89542 107.0 460.0 107.0L536.0 107.0C537.10455 107.0 538.0 107.89543 538.0 109.0Z" fill-rule="nonzero"/><path stroke="#4285f4" stroke-width="3.0" stroke-linejoin="round" stroke-linecap="round" d="M107.765625 298.17587L106.6875 298.17587L106.6875 290.95712L104.5 291.754L104.5 290.76962L107.609375 289.59775L107.765625 289.59775L107.765625 298.17587ZM111.34375 297.61337Q111.34375 297.33212 111.5 297.14462Q111.671875 296.95712 112.0 296.95712Q112.34375 296.95712 112.515625 297.14462Q112.6875 297.33212 112.6875 297.61337Q112.6875 297.879 112.515625 298.0665Q112.34375 298.23837 112.0 298.23837Q111.671875 298.23837 111.5 298.0665Q111.34375 297.879 111.34375 297.61337ZM118.46875 289.64462L118.46875 290.55087L118.265625 290.55087Q117.0 290.58212 116.25 291.3165Q115.5 292.03525 115.375 293.34775Q116.0625 292.58212 117.21875 292.58212Q118.328125 292.58212 119.0 293.36337Q119.671875 294.14462 119.671875 295.39462Q119.671875 296.70712 118.953125 297.504Q118.234375 298.30087 117.015625 298.30087Q115.796875 298.30087 115.03125 297.36337Q114.28125 296.41025 114.28125 294.92587L114.28125 294.51962Q114.28125 292.16025 115.28125 290.91025Q116.28125 289.66025 118.265625 289.64462L118.46875 289.64462ZM117.046875 293.48837Q116.484375 293.48837 116.015625 293.8165Q115.546875 294.14462 115.359375 294.66025L115.359375 295.05087Q115.359375 296.11337 115.828125 296.754Q116.3125 297.39462 117.015625 297.39462Q117.75 297.39462 118.171875 296.86337Q118.59375 296.3165 118.59375 295.4415Q118.59375 294.5665 118.171875 294.03525Q117.75 293.48837 117.046875 293.48837ZM121.703125 293.89462L122.140625 289.64462L126.515625 289.64462L126.515625 290.64462L123.0625 290.64462L122.796875 292.97275Q123.4375 292.59775 124.234375 292.59775Q125.390625 292.59775 126.078125 293.379Q126.765625 294.14462 126.765625 295.45712Q126.765625 296.76962 126.046875 297.53525Q125.34375 298.30087 124.0625 298.30087Q122.9375 298.30087 122.21875 297.67587Q121.5 297.03525 121.40625 295.92587L122.421875 295.92587Q122.53125 296.66025 122.953125 297.03525Q123.375 297.41025 124.0625 297.41025Q124.8125 297.41025 125.25 296.89462Q125.6875 296.379 125.6875 295.47275Q125.6875 294.61337 125.21875 294.09775Q124.75 293.58212 123.96875 293.58212Q123.265625 293.58212 122.859375 293.879L122.578125 294.11337L121.703125 293.89462ZM132.78125 295.3165L133.96875 295.3165L133.96875 296.1915L132.78125 296.1915L132.78125 298.17587L131.70312 298.17587L131.70312 296.1915L127.8125 296.1915L127.8125 295.55087L131.625 289.64462L132.78125 289.64462L132.78125 295.3165ZM129.04688 295.3165L131.70312 295.3165L131.70312 291.129L131.5625 291.36337L129.04688 295.3165ZM139.34375 291.83212L139.375 292.53525Q140.0625 291.72275 141.25 291.72275Q142.57812 291.72275 143.0625 292.73837Q143.375 292.28525 143.875 292.004Q144.39062 291.72275 145.07812 291.72275Q147.17188 291.72275 147.20312 293.92587L147.20312 298.17587L146.125 298.17587L146.125 293.98837Q146.125 293.3165 145.8125 292.98837Q145.5 292.64462 144.76562 292.64462Q144.15625 292.64462 143.75 293.004Q143.35938 293.36337 143.29688 293.97275L143.29688 298.17587L142.21875 298.17587L142.21875 294.01962Q142.21875 292.64462 140.85938 292.64462Q139.79688 292.64462 139.40625 293.55087L139.40625 298.17587L138.3125 298.17587L138.3125 291.83212L139.34375 291.83212ZM153.01562 296.48837Q153.01562 296.05087 152.67188 295.8165Q152.34375 295.5665 151.51562 295.39462Q150.70312 295.22275 150.21875 294.97275Q149.73438 294.72275 149.5 294.39462Q149.28125 294.05087 149.28125 293.58212Q149.28125 292.80087 149.9375 292.26962Q150.59375 291.72275 151.625 291.72275Q152.70312 291.72275 153.35938 292.28525Q154.03125 292.83212 154.03125 293.6915L152.95312 293.6915Q152.95312 293.254 152.5625 292.9415Q152.1875 292.61337 151.625 292.61337Q151.03125 292.61337 150.6875 292.879Q150.35938 293.129 150.35938 293.53525Q150.35938 293.92587 150.67188 294.129Q150.98438 294.33212 151.79688 294.51962Q152.60938 294.6915 153.10938 294.9415Q153.60938 295.1915 153.84375 295.55087Q154.09375 295.91025 154.09375 296.41025Q154.09375 297.26962 153.40625 297.78525Q152.73438 298.30087 151.65625 298.30087Q150.89062 298.30087 150.29688 298.03525Q149.71875 297.754 149.39062 297.26962Q149.0625 296.78525 149.0625 296.22275L150.14062 296.22275Q150.17188 296.76962 150.57812 297.09775Q150.98438 297.41025 151.65625 297.41025Q152.26562 297.41025 152.64062 297.16025Q153.01562 296.91025 153.01562 296.48837Z" fill-rule="nonzero"/><path fill="#ffffff" d="M107.765625 298.17587L106.6875 298.17587L106.6875 290.95712L104.5 291.754L104.5 290.76962L107.609375 289.59775L107.765625 289.59775L107.765625 298.17587ZM111.34375 297.61337Q111.34375 297.33212 111.5 297.14462Q111.671875 296.95712 112.0 296.95712Q112.34375 296.95712 112.515625 297.14462Q112.6875 297.33212 112.6875 297.61337Q112.6875 297.879 112.515625 298.0665Q112.34375 298.23837 112.0 298.23837Q111.671875 298.23837 111.5 298.0665Q111.34375 297.879 111.34375 297.61337ZM118.46875 289.64462L118.46875 290.55087L118.265625 290.55087Q117.0 290.58212 116.25 291.3165Q115.5 292.03525 115.375 293.34775Q116.0625 292.58212 117.21875 292.58212Q118.328125 292.58212 119.0 293.36337Q119.671875 294.14462 119.671875 295.39462Q119.671875 296.70712 118.953125 297.504Q118.234375 298.30087 117.015625 298.30087Q115.796875 298.30087 115.03125 297.36337Q114.28125 296.41025 114.28125 294.92587L114.28125 294.51962Q114.28125 292.16025 115.28125 290.91025Q116.28125 289.66025 118.265625 289.64462L118.46875 289.64462ZM117.046875 293.48837Q116.484375 293.48837 116.015625 293.8165Q115.546875 294.14462 115.359375 294.66025L115.359375 295.05087Q115.359375 296.11337 115.828125 296.754Q116.3125 297.39462 117.015625 297.39462Q117.75 297.39462 118.171875 296.86337Q118.59375 296.3165 118.59375 295.4415Q118.59375 294.5665 118.171875 294.03525Q117.75 293.48837 117.046875 293.48837ZM121.703125 293.89462L122.140625 289.64462L126.515625 289.64462L126.515625 290.64462L123.0625 290.64462L122.796875 292.97275Q123.4375 292.59775 124.234375 292.59775Q125.390625 292.59775 126.078125 293.379Q126.765625 294.14462 126.765625 295.45712Q126.765625 296.76962 126.046875 297.53525Q125.34375 298.30087 124.0625 298.30087Q122.9375 298.30087 122.21875 297.67587Q121.5 297.03525 121.40625 295.92587L122.421875 295.92587Q122.53125 296.66025 122.953125 297.03525Q123.375 297.41025 124.0625 297.41025Q124.8125 297.41025 125.25 296.89462Q125.6875 296.379 125.6875 295.47275Q125.6875 294.61337 125.21875 294.09775Q124.75 293.58212 123.96875 293.58212Q123.265625 293.58212 122.859375 293.879L122.578125 294.11337L121.703125 293.89462ZM132.78125 295.3165L133.96875 295.3165L133.96875 296.1915L132.78125 296.1915L132.78125 298.17587L131.70312 298.17587L131.70312 296.1915L127.8125 296.1915L127.8125 295.55087L131.625 289.64462L132.78125 289.64462L132.78125 295.3165ZM129.04688 295.3165L131.70312 295.3165L131.70312 291.129L131.5625 291.36337L129.04688 295.3165ZM139.34375 291.83212L139.375 292.53525Q140.0625 291.72275 141.25 291.72275Q142.57812 291.72275 143.0625 292.73837Q143.375 292.28525 143.875 292.004Q144.39062 291.72275 145.07812 291.72275Q147.17188 291.72275 147.20312 293.92587L147.20312 298.17587L146.125 298.17587L146.125 293.98837Q146.125 293.3165 145.8125 292.98837Q145.5 292.64462 144.76562 292.64462Q144.15625 292.64462 143.75 293.004Q143.35938 293.36337 143.29688 293.97275L143.29688 298.17587L142.21875 298.17587L142.21875 294.01962Q142.21875 292.64462 140.85938 292.64462Q139.79688 292.64462 139.40625 293.55087L139.40625 298.17587L138.3125 298.17587L138.3125 291.83212L139.34375 291.83212ZM153.01562 296.48837Q153.01562 296.05087 152.67188 295.8165Q152.34375 295.5665 151.51562 295.39462Q150.70312 295.22275 150.21875 294.97275Q149.73438 294.72275 149.5 294.39462Q149.28125 294.05087 149.28125 293.58212Q149.28125 292.80087 149.9375 292.26962Q150.59375 291.72275 151.625 291.72275Q152.70312 291.72275 153.35938 292.28525Q154.03125 292.83212 154.03125 293.6915L152.95312 293.6915Q152.95312 293.254 152.5625 292.9415Q152.1875 292.61337 151.625 292.61337Q151.03125 292.61337 150.6875 292.879Q150.35938 293.129 150.35938 293.53525Q150.35938 293.92587 150.67188 294.129Q150.98438 294.33212 151.79688 294.51962Q152.60938 294.6915 153.10938 294.9415Q153.60938 295.1915 153.84375 295.55087Q154.09375 295.91025 154.09375 296.41025Q154.09375 297.26962 153.40625 297.78525Q152.73438 298.30087 151.65625 298.30087Q150.89062 298.30087 150.29688 298.03525Q149.71875 297.754 149.39062 297.26962Q149.0625 296.78525 149.0625 296.22275L150.14062 296.22275Q150.17188 296.76962 150.57812 297.09775Q150.98438 297.41025 151.65625 297.41025Q152.26562 297.41025 152.64062 297.16025Q153.01562 296.91025 153.01562 296.48837Z" fill-rule="nonzero"/><path stroke="#a64d79" stroke-width="3.0" stroke-linejoin="round" stroke-linecap="round" d="M232.79688 262.4178L227.20312 262.4178L227.20312 261.63654L230.15625 258.3553Q230.8125 257.6053 231.0625 257.15216Q231.3125 256.6834 231.3125 256.1834Q231.3125 255.51154 230.90625 255.08966Q230.51562 254.65216 229.82812 254.65216Q229.03125 254.65216 228.57812 255.12091Q228.125 255.57404 228.125 256.40216L227.04688 256.40216Q227.04688 255.21466 227.79688 254.49591Q228.5625 253.76154 229.82812 253.76154Q231.03125 253.76154 231.71875 254.38654Q232.40625 255.01154 232.40625 256.0584Q232.40625 257.3084 230.79688 259.0584L228.51562 261.52716L232.79688 261.52716L232.79688 262.4178ZM234.34375 261.8553Q234.34375 261.57404 234.5 261.38654Q234.67188 261.19904 235.0 261.19904Q235.34375 261.19904 235.51562 261.38654Q235.6875 261.57404 235.6875 261.8553Q235.6875 262.1209 235.51562 262.3084Q235.34375 262.4803 235.0 262.4803Q234.67188 262.4803 234.5 262.3084Q234.34375 262.1209 234.34375 261.8553ZM242.39062 256.1053Q242.39062 256.7459 242.04688 257.2459Q241.70312 257.7459 241.14062 258.02716Q241.79688 258.3084 242.1875 258.8709Q242.57812 259.4178 242.57812 260.1209Q242.57812 261.21466 241.82812 261.88654Q241.09375 262.5428 239.875 262.5428Q238.64062 262.5428 237.89062 261.88654Q237.15625 261.21466 237.15625 260.1209Q237.15625 259.4178 237.53125 258.8709Q237.90625 258.3084 238.57812 258.02716Q238.01562 257.7459 237.6875 257.2459Q237.35938 256.7459 237.35938 256.1053Q237.35938 255.02716 238.04688 254.40216Q238.73438 253.76154 239.875 253.76154Q241.0 253.76154 241.6875 254.40216Q242.39062 255.02716 242.39062 256.1053ZM241.5 260.08966Q241.5 259.3709 241.04688 258.9334Q240.59375 258.4803 239.85938 258.4803Q239.125 258.4803 238.67188 258.9334Q238.23438 259.3709 238.23438 260.1053Q238.23438 260.82404 238.67188 261.2459Q239.10938 261.65216 239.875 261.65216Q240.625 261.65216 241.0625 261.2303Q241.5 260.8084 241.5 260.08966ZM239.875 254.65216Q239.23438 254.65216 238.82812 255.05841Q238.4375 255.44904 238.4375 256.13654Q238.4375 256.77716 238.82812 257.1834Q239.21875 257.58966 239.85938 257.58966Q240.51562 257.58966 240.90625 257.1834Q241.29688 256.77716 241.29688 256.13654Q241.29688 255.48029 240.89062 255.07404Q240.48438 254.65216 239.875 254.65216ZM247.76562 262.4178L246.6875 262.4178L246.6875 255.19904L244.5 255.99591L244.5 255.01154L247.60938 253.83966L247.76562 253.83966L247.76562 262.4178ZM256.79688 262.4178L251.20312 262.4178L251.20312 261.63654L254.15625 258.3553Q254.8125 257.6053 255.0625 257.15216Q255.3125 256.6834 255.3125 256.1834Q255.3125 255.51154 254.90625 255.08966Q254.51562 254.65216 253.82812 254.65216Q253.03125 254.65216 252.57812 255.12091Q252.125 255.57404 252.125 256.40216L251.04688 256.40216Q251.04688 255.21466 251.79688 254.49591Q252.5625 253.76154 253.82812 253.76154Q255.03125 253.76154 255.71875 254.38654Q256.40625 255.01154 256.40625 256.0584Q256.40625 257.3084 254.79688 259.0584L252.51562 261.52716L256.79688 261.52716L256.79688 262.4178ZM262.34375 256.07404L262.375 256.77716Q263.0625 255.96466 264.25 255.96466Q265.57812 255.96466 266.0625 256.9803Q266.375 256.52716 266.875 256.2459Q267.39062 255.96466 268.07812 255.96466Q270.17188 255.96466 270.20312 258.1678L270.20312 262.4178L269.125 262.4178L269.125 258.2303Q269.125 257.5584 268.8125 257.2303Q268.5 256.88654 267.76562 256.88654Q267.15625 256.88654 266.75 257.2459Q266.35938 257.6053 266.29688 258.21466L266.29688 262.4178L265.21875 262.4178L265.21875 258.26154Q265.21875 256.88654 263.85938 256.88654Q262.79688 256.88654 262.40625 257.7928L262.40625 262.4178L261.3125 262.4178L261.3125 256.07404L262.34375 256.07404ZM276.01562 260.7303Q276.01562 260.2928 275.67188 260.0584Q275.34375 259.8084 274.51562 259.63654Q273.70312 259.46466 273.21875 259.21466Q272.73438 258.96466 272.5 258.63654Q272.28125 258.2928 272.28125 257.82404Q272.28125 257.0428 272.9375 256.51154Q273.59375 255.96466 274.625 255.96466Q275.70312 255.96466 276.35938 256.52716Q277.03125 257.07404 277.03125 257.9334L275.95312 257.9334Q275.95312 257.4959 275.5625 257.1834Q275.1875 256.8553 274.625 256.8553Q274.03125 256.8553 273.6875 257.1209Q273.35938 257.3709 273.35938 257.77716Q273.35938 258.1678 273.67188 258.3709Q273.98438 258.57404 274.79688 258.76154Q275.60938 258.9334 276.10938 259.1834Q276.60938 259.4334 276.84375 259.7928Q277.09375 260.15216 277.09375 260.65216Q277.09375 261.51154 276.40625 262.02716Q275.73438 262.5428 274.65625 262.5428Q273.89062 262.5428 273.29688 262.27716Q272.71875 261.9959 272.39062 261.51154Q272.0625 261.02716 272.0625 260.46466L273.14062 260.46466Q273.17188 261.01154 273.57812 261.33966Q273.98438 261.65216 274.65625 261.65216Q275.26562 261.65216 275.64062 261.40216Q276.01562 261.15216 276.01562 260.7303Z" fill-rule="nonzero"/><path fill="#ffffff" d="M232.79688 262.4178L227.20312 262.4178L227.20312 261.63654L230.15625 258.3553Q230.8125 257.6053 231.0625 257.15216Q231.3125 256.6834 231.3125 256.1834Q231.3125 255.51154 230.90625 255.08966Q230.51562 254.65216 229.82812 254.65216Q229.03125 254.65216 228.57812 255.12091Q228.125 255.57404 228.125 256.40216L227.04688 256.40216Q227.04688 255.21466 227.79688 254.49591Q228.5625 253.76154 229.82812 253.76154Q231.03125 253.76154 231.71875 254.38654Q232.40625 255.01154 232.40625 256.0584Q232.40625 257.3084 230.79688 259.0584L228.51562 261.52716L232.79688 261.52716L232.79688 262.4178ZM234.34375 261.8553Q234.34375 261.57404 234.5 261.38654Q234.67188 261.19904 235.0 261.19904Q235.34375 261.19904 235.51562 261.38654Q235.6875 261.57404 235.6875 261.8553Q235.6875 262.1209 235.51562 262.3084Q235.34375 262.4803 235.0 262.4803Q234.67188 262.4803 234.5 262.3084Q234.34375 262.1209 234.34375 261.8553ZM242.39062 256.1053Q242.39062 256.7459 242.04688 257.2459Q241.70312 257.7459 241.14062 258.02716Q241.79688 258.3084 242.1875 258.8709Q242.57812 259.4178 242.57812 260.1209Q242.57812 261.21466 241.82812 261.88654Q241.09375 262.5428 239.875 262.5428Q238.64062 262.5428 237.89062 261.88654Q237.15625 261.21466 237.15625 260.1209Q237.15625 259.4178 237.53125 258.8709Q237.90625 258.3084 238.57812 258.02716Q238.01562 257.7459 237.6875 257.2459Q237.35938 256.7459 237.35938 256.1053Q237.35938 255.02716 238.04688 254.40216Q238.73438 253.76154 239.875 253.76154Q241.0 253.76154 241.6875 254.40216Q242.39062 255.02716 242.39062 256.1053ZM241.5 260.08966Q241.5 259.3709 241.04688 258.9334Q240.59375 258.4803 239.85938 258.4803Q239.125 258.4803 238.67188 258.9334Q238.23438 259.3709 238.23438 260.1053Q238.23438 260.82404 238.67188 261.2459Q239.10938 261.65216 239.875 261.65216Q240.625 261.65216 241.0625 261.2303Q241.5 260.8084 241.5 260.08966ZM239.875 254.65216Q239.23438 254.65216 238.82812 255.05841Q238.4375 255.44904 238.4375 256.13654Q238.4375 256.77716 238.82812 257.1834Q239.21875 257.58966 239.85938 257.58966Q240.51562 257.58966 240.90625 257.1834Q241.29688 256.77716 241.29688 256.13654Q241.29688 255.48029 240.89062 255.07404Q240.48438 254.65216 239.875 254.65216ZM247.76562 262.4178L246.6875 262.4178L246.6875 255.19904L244.5 255.99591L244.5 255.01154L247.60938 253.83966L247.76562 253.83966L247.76562 262.4178ZM256.79688 262.4178L251.20312 262.4178L251.20312 261.63654L254.15625 258.3553Q254.8125 257.6053 255.0625 257.15216Q255.3125 256.6834 255.3125 256.1834Q255.3125 255.51154 254.90625 255.08966Q254.51562 254.65216 253.82812 254.65216Q253.03125 254.65216 252.57812 255.12091Q252.125 255.57404 252.125 256.40216L251.04688 256.40216Q251.04688 255.21466 251.79688 254.49591Q252.5625 253.76154 253.82812 253.76154Q255.03125 253.76154 255.71875 254.38654Q256.40625 255.01154 256.40625 256.0584Q256.40625 257.3084 254.79688 259.0584L252.51562 261.52716L256.79688 261.52716L256.79688 262.4178ZM262.34375 256.07404L262.375 256.77716Q263.0625 255.96466 264.25 255.96466Q265.57812 255.96466 266.0625 256.9803Q266.375 256.52716 266.875 256.2459Q267.39062 255.96466 268.07812 255.96466Q270.17188 255.96466 270.20312 258.1678L270.20312 262.4178L269.125 262.4178L269.125 258.2303Q269.125 257.5584 268.8125 257.2303Q268.5 256.88654 267.76562 256.88654Q267.15625 256.88654 266.75 257.2459Q266.35938 257.6053 266.29688 258.21466L266.29688 262.4178L265.21875 262.4178L265.21875 258.26154Q265.21875 256.88654 263.85938 256.88654Q262.79688 256.88654 262.40625 257.7928L262.40625 262.4178L261.3125 262.4178L261.3125 256.07404L262.34375 256.07404ZM276.01562 260.7303Q276.01562 260.2928 275.67188 260.0584Q275.34375 259.8084 274.51562 259.63654Q273.70312 259.46466 273.21875 259.21466Q272.73438 258.96466 272.5 258.63654Q272.28125 258.2928 272.28125 257.82404Q272.28125 257.0428 272.9375 256.51154Q273.59375 255.96466 274.625 255.96466Q275.70312 255.96466 276.35938 256.52716Q277.03125 257.07404 277.03125 257.9334L275.95312 257.9334Q275.95312 257.4959 275.5625 257.1834Q275.1875 256.8553 274.625 256.8553Q274.03125 256.8553 273.6875 257.1209Q273.35938 257.3709 273.35938 257.77716Q273.35938 258.1678 273.67188 258.3709Q273.98438 258.57404 274.79688 258.76154Q275.60938 258.9334 276.10938 259.1834Q276.60938 259.4334 276.84375 259.7928Q277.09375 260.15216 277.09375 260.65216Q277.09375 261.51154 276.40625 262.02716Q275.73438 262.5428 274.65625 262.5428Q273.89062 262.5428 273.29688 262.27716Q272.71875 261.9959 272.39062 261.51154Q272.0625 261.02716 272.0625 260.46466L273.14062 260.46466Q273.17188 261.01154 273.57812 261.33966Q273.98438 261.65216 274.65625 261.65216Q275.26562 261.65216 275.64062 261.40216Q276.01562 261.15216 276.01562 260.7303Z" fill-rule="nonzero"/><path stroke="#e69138" stroke-width="3.0" stroke-linejoin="round" stroke-linecap="round" d="M351.78125 231.15746L352.59375 231.15746Q353.375 231.14183 353.8125 230.7512Q354.25 230.36058 354.25 229.6887Q354.25 228.1887 352.75 228.1887Q352.04688 228.1887 351.625 228.59496Q351.21875 229.0012 351.21875 229.65746L350.125 229.65746Q350.125 228.64183 350.85938 227.96996Q351.60938 227.29808 352.75 227.29808Q353.95312 227.29808 354.64062 227.9387Q355.32812 228.57933 355.32812 229.71996Q355.32812 230.28246 354.96875 230.79808Q354.60938 231.3137 353.98438 231.57933Q354.6875 231.79808 355.0625 232.3137Q355.45312 232.82933 355.45312 233.57933Q355.45312 234.71996 354.70312 235.40746Q353.95312 236.07933 352.75 236.07933Q351.5625 236.07933 350.79688 235.42308Q350.04688 234.76683 350.04688 233.70433L351.14062 233.70433Q351.14062 234.3762 351.57812 234.78246Q352.01562 235.1887 352.76562 235.1887Q353.54688 235.1887 353.95312 234.78246Q354.375 234.36058 354.375 233.59496Q354.375 232.86058 353.92188 232.46996Q353.46875 232.0637 352.59375 232.04808L351.78125 232.04808L351.78125 231.15746ZM357.34375 235.39183Q357.34375 235.11058 357.5 234.92308Q357.67188 234.73558 358.0 234.73558Q358.34375 234.73558 358.51562 234.92308Q358.6875 235.11058 358.6875 235.39183Q358.6875 235.65746 358.51562 235.84496Q358.34375 236.01683 358.0 236.01683Q357.67188 236.01683 357.5 235.84496Q357.34375 235.65746 357.34375 235.39183ZM364.46875 227.42308L364.46875 228.32933L364.26562 228.32933Q363.0 228.36058 362.25 229.09496Q361.5 229.8137 361.375 231.1262Q362.0625 230.36058 363.21875 230.36058Q364.32812 230.36058 365.0 231.14183Q365.67188 231.92308 365.67188 233.17308Q365.67188 234.48558 364.95312 235.28246Q364.23438 236.07933 363.01562 236.07933Q361.79688 236.07933 361.03125 235.14183Q360.28125 234.1887 360.28125 232.70433L360.28125 232.29808Q360.28125 229.9387 361.28125 228.6887Q362.28125 227.4387 364.26562 227.42308L364.46875 227.42308ZM363.04688 231.26683Q362.48438 231.26683 362.01562 231.59496Q361.54688 231.92308 361.35938 232.4387L361.35938 232.82933Q361.35938 233.89183 361.82812 234.53246Q362.3125 235.17308 363.01562 235.17308Q363.75 235.17308 364.17188 234.64183Q364.59375 234.09496 364.59375 233.21996Q364.59375 232.34496 364.17188 231.8137Q363.75 231.26683 363.04688 231.26683ZM371.46875 227.42308L371.46875 228.32933L371.26562 228.32933Q370.0 228.36058 369.25 229.09496Q368.5 229.8137 368.375 231.1262Q369.0625 230.36058 370.21875 230.36058Q371.32812 230.36058 372.0 231.14183Q372.67188 231.92308 372.67188 233.17308Q372.67188 234.48558 371.95312 235.28246Q371.23438 236.07933 370.01562 236.07933Q368.79688 236.07933 368.03125 235.14183Q367.28125 234.1887 367.28125 232.70433L367.28125 232.29808Q367.28125 229.9387 368.28125 228.6887Q369.28125 227.4387 371.26562 227.42308L371.46875 227.42308ZM370.04688 231.26683Q369.48438 231.26683 369.01562 231.59496Q368.54688 231.92308 368.35938 232.4387L368.35938 232.82933Q368.35938 233.89183 368.82812 234.53246Q369.3125 235.17308 370.01562 235.17308Q370.75 235.17308 371.17188 234.64183Q371.59375 234.09496 371.59375 233.21996Q371.59375 232.34496 371.17188 231.8137Q370.75 231.26683 370.04688 231.26683ZM378.35938 232.20433Q378.03125 232.61058 377.54688 232.86058Q377.07812 233.09496 376.51562 233.09496Q375.78125 233.09496 375.23438 232.73558Q374.6875 232.3762 374.39062 231.71996Q374.09375 231.04808 374.09375 230.2512Q374.09375 229.40746 374.40625 228.71996Q374.73438 228.03246 375.32812 227.67308Q375.9375 227.29808 376.73438 227.29808Q378.0 227.29808 378.71875 228.2512Q379.45312 229.20433 379.45312 230.82933L379.45312 231.14183Q379.45312 233.64183 378.46875 234.78246Q377.48438 235.92308 375.5 235.95433L375.28125 235.95433L375.28125 235.04808L375.51562 235.04808Q376.85938 235.01683 377.57812 234.34496Q378.29688 233.67308 378.35938 232.20433ZM376.6875 232.20433Q377.23438 232.20433 377.6875 231.8762Q378.15625 231.53246 378.375 231.04808L378.375 230.61058Q378.375 229.54808 377.90625 228.8762Q377.4375 228.20433 376.73438 228.20433Q376.01562 228.20433 375.57812 228.7512Q375.15625 229.29808 375.15625 230.20433Q375.15625 231.07933 375.5625 231.64183Q375.98438 232.20433 376.6875 232.20433ZM385.34375 229.61058L385.375 230.3137Q386.0625 229.5012 387.25 229.5012Q388.57812 229.5012 389.0625 230.51683Q389.375 230.0637 389.875 229.78246Q390.39062 229.5012 391.07812 229.5012Q393.17188 229.5012 393.20312 231.70433L393.20312 235.95433L392.125 235.95433L392.125 231.76683Q392.125 231.09496 391.8125 230.76683Q391.5 230.42308 390.76562 230.42308Q390.15625 230.42308 389.75 230.78246Q389.35938 231.14183 389.29688 231.7512L389.29688 235.95433L388.21875 235.95433L388.21875 231.79808Q388.21875 230.42308 386.85938 230.42308Q385.79688 230.42308 385.40625 231.32933L385.40625 235.95433L384.3125 235.95433L384.3125 229.61058L385.34375 229.61058ZM399.01562 234.26683Q399.01562 233.82933 398.67188 233.59496Q398.34375 233.34496 397.51562 233.17308Q396.70312 233.0012 396.21875 232.7512Q395.73438 232.5012 395.5 232.17308Q395.28125 231.82933 395.28125 231.36058Q395.28125 230.57933 395.9375 230.04808Q396.59375 229.5012 397.625 229.5012Q398.70312 229.5012 399.35938 230.0637Q400.03125 230.61058 400.03125 231.46996L398.95312 231.46996Q398.95312 231.03246 398.5625 230.71996Q398.1875 230.39183 397.625 230.39183Q397.03125 230.39183 396.6875 230.65746Q396.35938 230.90746 396.35938 231.3137Q396.35938 231.70433 396.67188 231.90746Q396.98438 232.11058 397.79688 232.29808Q398.60938 232.46996 399.10938 232.71996Q399.60938 232.96996 399.84375 233.32933Q400.09375 233.6887 400.09375 234.1887Q400.09375 235.04808 399.40625 235.5637Q398.73438 236.07933 397.65625 236.07933Q396.89062 236.07933 396.29688 235.8137Q395.71875 235.53246 395.39062 235.04808Q395.0625 234.5637 395.0625 234.0012L396.14062 234.0012Q396.17188 234.54808 396.57812 234.8762Q396.98438 235.1887 397.65625 235.1887Q398.26562 235.1887 398.64062 234.9387Q399.01562 234.6887 399.01562 234.26683Z" fill-rule="nonzero"/><path fill="#000000" d="M351.78125 231.15746L352.59375 231.15746Q353.375 231.14183 353.8125 230.7512Q354.25 230.36058 354.25 229.6887Q354.25 228.1887 352.75 228.1887Q352.04688 228.1887 351.625 228.59496Q351.21875 229.0012 351.21875 229.65746L350.125 229.65746Q350.125 228.64183 350.85938 227.96996Q351.60938 227.29808 352.75 227.29808Q353.95312 227.29808 354.64062 227.9387Q355.32812 228.57933 355.32812 229.71996Q355.32812 230.28246 354.96875 230.79808Q354.60938 231.3137 353.98438 231.57933Q354.6875 231.79808 355.0625 232.3137Q355.45312 232.82933 355.45312 233.57933Q355.45312 234.71996 354.70312 235.40746Q353.95312 236.07933 352.75 236.07933Q351.5625 236.07933 350.79688 235.42308Q350.04688 234.76683 350.04688 233.70433L351.14062 233.70433Q351.14062 234.3762 351.57812 234.78246Q352.01562 235.1887 352.76562 235.1887Q353.54688 235.1887 353.95312 234.78246Q354.375 234.36058 354.375 233.59496Q354.375 232.86058 353.92188 232.46996Q353.46875 232.0637 352.59375 232.04808L351.78125 232.04808L351.78125 231.15746ZM357.34375 235.39183Q357.34375 235.11058 357.5 234.92308Q357.67188 234.73558 358.0 234.73558Q358.34375 234.73558 358.51562 234.92308Q358.6875 235.11058 358.6875 235.39183Q358.6875 235.65746 358.51562 235.84496Q358.34375 236.01683 358.0 236.01683Q357.67188 236.01683 357.5 235.84496Q357.34375 235.65746 357.34375 235.39183ZM364.46875 227.42308L364.46875 228.32933L364.26562 228.32933Q363.0 228.36058 362.25 229.09496Q361.5 229.8137 361.375 231.1262Q362.0625 230.36058 363.21875 230.36058Q364.32812 230.36058 365.0 231.14183Q365.67188 231.92308 365.67188 233.17308Q365.67188 234.48558 364.95312 235.28246Q364.23438 236.07933 363.01562 236.07933Q361.79688 236.07933 361.03125 235.14183Q360.28125 234.1887 360.28125 232.70433L360.28125 232.29808Q360.28125 229.9387 361.28125 228.6887Q362.28125 227.4387 364.26562 227.42308L364.46875 227.42308ZM363.04688 231.26683Q362.48438 231.26683 362.01562 231.59496Q361.54688 231.92308 361.35938 232.4387L361.35938 232.82933Q361.35938 233.89183 361.82812 234.53246Q362.3125 235.17308 363.01562 235.17308Q363.75 235.17308 364.17188 234.64183Q364.59375 234.09496 364.59375 233.21996Q364.59375 232.34496 364.17188 231.8137Q363.75 231.26683 363.04688 231.26683ZM371.46875 227.42308L371.46875 228.32933L371.26562 228.32933Q370.0 228.36058 369.25 229.09496Q368.5 229.8137 368.375 231.1262Q369.0625 230.36058 370.21875 230.36058Q371.32812 230.36058 372.0 231.14183Q372.67188 231.92308 372.67188 233.17308Q372.67188 234.48558 371.95312 235.28246Q371.23438 236.07933 370.01562 236.07933Q368.79688 236.07933 368.03125 235.14183Q367.28125 234.1887 367.28125 232.70433L367.28125 232.29808Q367.28125 229.9387 368.28125 228.6887Q369.28125 227.4387 371.26562 227.42308L371.46875 227.42308ZM370.04688 231.26683Q369.48438 231.26683 369.01562 231.59496Q368.54688 231.92308 368.35938 232.4387L368.35938 232.82933Q368.35938 233.89183 368.82812 234.53246Q369.3125 235.17308 370.01562 235.17308Q370.75 235.17308 371.17188 234.64183Q371.59375 234.09496 371.59375 233.21996Q371.59375 232.34496 371.17188 231.8137Q370.75 231.26683 370.04688 231.26683ZM378.35938 232.20433Q378.03125 232.61058 377.54688 232.86058Q377.07812 233.09496 376.51562 233.09496Q375.78125 233.09496 375.23438 232.73558Q374.6875 232.3762 374.39062 231.71996Q374.09375 231.04808 374.09375 230.2512Q374.09375 229.40746 374.40625 228.71996Q374.73438 228.03246 375.32812 227.67308Q375.9375 227.29808 376.73438 227.29808Q378.0 227.29808 378.71875 228.2512Q379.45312 229.20433 379.45312 230.82933L379.45312 231.14183Q379.45312 233.64183 378.46875 234.78246Q377.48438 235.92308 375.5 235.95433L375.28125 235.95433L375.28125 235.04808L375.51562 235.04808Q376.85938 235.01683 377.57812 234.34496Q378.29688 233.67308 378.35938 232.20433ZM376.6875 232.20433Q377.23438 232.20433 377.6875 231.8762Q378.15625 231.53246 378.375 231.04808L378.375 230.61058Q378.375 229.54808 377.90625 228.8762Q377.4375 228.20433 376.73438 228.20433Q376.01562 228.20433 375.57812 228.7512Q375.15625 229.29808 375.15625 230.20433Q375.15625 231.07933 375.5625 231.64183Q375.98438 232.20433 376.6875 232.20433ZM385.34375 229.61058L385.375 230.3137Q386.0625 229.5012 387.25 229.5012Q388.57812 229.5012 389.0625 230.51683Q389.375 230.0637 389.875 229.78246Q390.39062 229.5012 391.07812 229.5012Q393.17188 229.5012 393.20312 231.70433L393.20312 235.95433L392.125 235.95433L392.125 231.76683Q392.125 231.09496 391.8125 230.76683Q391.5 230.42308 390.76562 230.42308Q390.15625 230.42308 389.75 230.78246Q389.35938 231.14183 389.29688 231.7512L389.29688 235.95433L388.21875 235.95433L388.21875 231.79808Q388.21875 230.42308 386.85938 230.42308Q385.79688 230.42308 385.40625 231.32933L385.40625 235.95433L384.3125 235.95433L384.3125 229.61058L385.34375 229.61058ZM399.01562 234.26683Q399.01562 233.82933 398.67188 233.59496Q398.34375 233.34496 397.51562 233.17308Q396.70312 233.0012 396.21875 232.7512Q395.73438 232.5012 395.5 232.17308Q395.28125 231.82933 395.28125 231.36058Q395.28125 230.57933 395.9375 230.04808Q396.59375 229.5012 397.625 229.5012Q398.70312 229.5012 399.35938 230.0637Q400.03125 230.61058 400.03125 231.46996L398.95312 231.46996Q398.95312 231.03246 398.5625 230.71996Q398.1875 230.39183 397.625 230.39183Q397.03125 230.39183 396.6875 230.65746Q396.35938 230.90746 396.35938 231.3137Q396.35938 231.70433 396.67188 231.90746Q396.98438 232.11058 397.79688 232.29808Q398.60938 232.46996 399.10938 232.71996Q399.60938 232.96996 399.84375 233.32933Q400.09375 233.6887 400.09375 234.1887Q400.09375 235.04808 399.40625 235.5637Q398.73438 236.07933 397.65625 236.07933Q396.89062 236.07933 396.29688 235.8137Q395.71875 235.53246 395.39062 235.04808Q395.0625 234.5637 395.0625 234.0012L396.14062 234.0012Q396.17188 234.54808 396.57812 234.8762Q396.98438 235.1887 397.65625 235.1887Q398.26562 235.1887 398.64062 234.9387Q399.01562 234.6887 399.01562 234.26683Z" fill-rule="nonzero"/><path stroke="#cc0000" stroke-width="3.0" stroke-linejoin="round" stroke-linecap="round" d="M478.71875 115.75581L475.1875 123.67769L474.04688 123.67769L477.5625 116.03706L472.95312 116.03706L472.95312 115.14644L478.71875 115.14644L478.71875 115.75581ZM480.34375 123.11519Q480.34375 122.83394 480.5 122.64644Q480.67188 122.45894 481.0 122.45894Q481.34375 122.45894 481.51562 122.64644Q481.6875 122.83394 481.6875 123.11519Q481.6875 123.38081 481.51562 123.56831Q481.34375 123.74019 481.0 123.74019Q480.67188 123.74019 480.5 123.56831Q480.34375 123.38081 480.34375 123.11519ZM484.78125 118.88081L485.59375 118.88081Q486.375 118.86519 486.8125 118.47456Q487.25 118.08394 487.25 117.41206Q487.25 115.91206 485.75 115.91206Q485.04688 115.91206 484.625 116.31831Q484.21875 116.72456 484.21875 117.38081L483.125 117.38081Q483.125 116.36519 483.85938 115.69331Q484.60938 115.02144 485.75 115.02144Q486.95312 115.02144 487.64062 115.66206Q488.32812 116.30269 488.32812 117.44331Q488.32812 118.00581 487.96875 118.52144Q487.60938 119.03706 486.98438 119.30269Q487.6875 119.52144 488.0625 120.03706Q488.45312 120.55269 488.45312 121.30269Q488.45312 122.44331 487.70312 123.13081Q486.95312 123.80269 485.75 123.80269Q484.5625 123.80269 483.79688 123.14644Q483.04688 122.49019 483.04688 121.42769L484.14062 121.42769Q484.14062 122.09956 484.57812 122.50581Q485.01562 122.91206 485.76562 122.91206Q486.54688 122.91206 486.95312 122.50581Q487.375 122.08394 487.375 121.31831Q487.375 120.58394 486.92188 120.19331Q486.46875 119.78706 485.59375 119.77144L484.78125 119.77144L484.78125 118.88081ZM495.5625 120.03706Q495.5625 121.94331 494.90625 122.88081Q494.26562 123.80269 492.875 123.80269Q491.51562 123.80269 490.85938 122.89644Q490.20312 121.99019 490.17188 120.17769L490.17188 118.74019Q490.17188 116.84956 490.8125 115.94331Q491.46875 115.02144 492.85938 115.02144Q494.23438 115.02144 494.89062 115.91206Q495.54688 116.78706 495.5625 118.63081L495.5625 120.03706ZM494.46875 118.55269Q494.46875 117.17769 494.07812 116.55269Q493.70312 115.91206 492.85938 115.91206Q492.03125 115.91206 491.64062 116.55269Q491.26562 117.17769 491.26562 118.47456L491.26562 120.20894Q491.26562 121.58394 491.65625 122.25581Q492.0625 122.91206 492.875 122.91206Q493.67188 122.91206 494.0625 122.28706Q494.45312 121.66206 494.46875 120.33394L494.46875 118.55269ZM497.70312 119.39644L498.14062 115.14644L502.51562 115.14644L502.51562 116.14644L499.0625 116.14644L498.79688 118.47456Q499.4375 118.09956 500.23438 118.09956Q501.39062 118.09956 502.07812 118.88081Q502.76562 119.64644 502.76562 120.95894Q502.76562 122.27144 502.04688 123.03706Q501.34375 123.80269 500.0625 123.80269Q498.9375 123.80269 498.21875 123.17769Q497.5 122.53706 497.40625 121.42769L498.42188 121.42769Q498.53125 122.16206 498.95312 122.53706Q499.375 122.91206 500.0625 122.91206Q500.8125 122.91206 501.25 122.39644Q501.6875 121.88081 501.6875 120.97456Q501.6875 120.11519 501.21875 119.59956Q500.75 119.08394 499.96875 119.08394Q499.26562 119.08394 498.85938 119.38081L498.57812 119.61519L497.70312 119.39644ZM508.34375 117.33394L508.375 118.03706Q509.0625 117.22456 510.25 117.22456Q511.57812 117.22456 512.0625 118.24019Q512.375 117.78706 512.875 117.50581Q513.3906 117.22456 514.0781 117.22456Q516.1719 117.22456 516.2031 119.42769L516.2031 123.67769L515.125 123.67769L515.125 119.49019Q515.125 118.81831 514.8125 118.49019Q514.5 118.14644 513.7656 118.14644Q513.15625 118.14644 512.75 118.50581Q512.3594 118.86519 512.2969 119.47456L512.2969 123.67769L511.21875 123.67769L511.21875 119.52144Q511.21875 118.14644 509.85938 118.14644Q508.79688 118.14644 508.40625 119.05269L508.40625 123.67769L507.3125 123.67769L507.3125 117.33394L508.34375 117.33394ZM522.0156 121.99019Q522.0156 121.55269 521.6719 121.31831Q521.34375 121.06831 520.5156 120.89644Q519.7031 120.72456 519.21875 120.47456Q518.7344 120.22456 518.5 119.89644Q518.28125 119.55269 518.28125 119.08394Q518.28125 118.30269 518.9375 117.77144Q519.59375 117.22456 520.625 117.22456Q521.7031 117.22456 522.3594 117.78706Q523.03125 118.33394 523.03125 119.19331L521.9531 119.19331Q521.9531 118.75581 521.5625 118.44331Q521.1875 118.11519 520.625 118.11519Q520.03125 118.11519 519.6875 118.38081Q519.3594 118.63081 519.3594 119.03706Q519.3594 119.42769 519.6719 119.63081Q519.9844 119.83394 520.7969 120.02144Q521.6094 120.19331 522.1094 120.44331Q522.6094 120.69331 522.84375 121.05269Q523.09375 121.41206 523.09375 121.91206Q523.09375 122.77144 522.40625 123.28706Q521.7344 123.80269 520.65625 123.80269Q519.8906 123.80269 519.2969 123.53706Q518.71875 123.25581 518.3906 122.77144Q518.0625 122.28706 518.0625 121.72456L519.1406 121.72456Q519.1719 122.27144 519.5781 122.59956Q519.9844 122.91206 520.65625 122.91206Q521.2656 122.91206 521.6406 122.66206Q522.0156 122.41206 522.0156 121.99019Z" fill-rule="nonzero"/><path fill="#ffffff" d="M478.71875 115.75581L475.1875 123.67769L474.04688 123.67769L477.5625 116.03706L472.95312 116.03706L472.95312 115.14644L478.71875 115.14644L478.71875 115.75581ZM480.34375 123.11519Q480.34375 122.83394 480.5 122.64644Q480.67188 122.45894 481.0 122.45894Q481.34375 122.45894 481.51562 122.64644Q481.6875 122.83394 481.6875 123.11519Q481.6875 123.38081 481.51562 123.56831Q481.34375 123.74019 481.0 123.74019Q480.67188 123.74019 480.5 123.56831Q480.34375 123.38081 480.34375 123.11519ZM484.78125 118.88081L485.59375 118.88081Q486.375 118.86519 486.8125 118.47456Q487.25 118.08394 487.25 117.41206Q487.25 115.91206 485.75 115.91206Q485.04688 115.91206 484.625 116.31831Q484.21875 116.72456 484.21875 117.38081L483.125 117.38081Q483.125 116.36519 483.85938 115.69331Q484.60938 115.02144 485.75 115.02144Q486.95312 115.02144 487.64062 115.66206Q488.32812 116.30269 488.32812 117.44331Q488.32812 118.00581 487.96875 118.52144Q487.60938 119.03706 486.98438 119.30269Q487.6875 119.52144 488.0625 120.03706Q488.45312 120.55269 488.45312 121.30269Q488.45312 122.44331 487.70312 123.13081Q486.95312 123.80269 485.75 123.80269Q484.5625 123.80269 483.79688 123.14644Q483.04688 122.49019 483.04688 121.42769L484.14062 121.42769Q484.14062 122.09956 484.57812 122.50581Q485.01562 122.91206 485.76562 122.91206Q486.54688 122.91206 486.95312 122.50581Q487.375 122.08394 487.375 121.31831Q487.375 120.58394 486.92188 120.19331Q486.46875 119.78706 485.59375 119.77144L484.78125 119.77144L484.78125 118.88081ZM495.5625 120.03706Q495.5625 121.94331 494.90625 122.88081Q494.26562 123.80269 492.875 123.80269Q491.51562 123.80269 490.85938 122.89644Q490.20312 121.99019 490.17188 120.17769L490.17188 118.74019Q490.17188 116.84956 490.8125 115.94331Q491.46875 115.02144 492.85938 115.02144Q494.23438 115.02144 494.89062 115.91206Q495.54688 116.78706 495.5625 118.63081L495.5625 120.03706ZM494.46875 118.55269Q494.46875 117.17769 494.07812 116.55269Q493.70312 115.91206 492.85938 115.91206Q492.03125 115.91206 491.64062 116.55269Q491.26562 117.17769 491.26562 118.47456L491.26562 120.20894Q491.26562 121.58394 491.65625 122.25581Q492.0625 122.91206 492.875 122.91206Q493.67188 122.91206 494.0625 122.28706Q494.45312 121.66206 494.46875 120.33394L494.46875 118.55269ZM497.70312 119.39644L498.14062 115.14644L502.51562 115.14644L502.51562 116.14644L499.0625 116.14644L498.79688 118.47456Q499.4375 118.09956 500.23438 118.09956Q501.39062 118.09956 502.07812 118.88081Q502.76562 119.64644 502.76562 120.95894Q502.76562 122.27144 502.04688 123.03706Q501.34375 123.80269 500.0625 123.80269Q498.9375 123.80269 498.21875 123.17769Q497.5 122.53706 497.40625 121.42769L498.42188 121.42769Q498.53125 122.16206 498.95312 122.53706Q499.375 122.91206 500.0625 122.91206Q500.8125 122.91206 501.25 122.39644Q501.6875 121.88081 501.6875 120.97456Q501.6875 120.11519 501.21875 119.59956Q500.75 119.08394 499.96875 119.08394Q499.26562 119.08394 498.85938 119.38081L498.57812 119.61519L497.70312 119.39644ZM508.34375 117.33394L508.375 118.03706Q509.0625 117.22456 510.25 117.22456Q511.57812 117.22456 512.0625 118.24019Q512.375 117.78706 512.875 117.50581Q513.3906 117.22456 514.0781 117.22456Q516.1719 117.22456 516.2031 119.42769L516.2031 123.67769L515.125 123.67769L515.125 119.49019Q515.125 118.81831 514.8125 118.49019Q514.5 118.14644 513.7656 118.14644Q513.15625 118.14644 512.75 118.50581Q512.3594 118.86519 512.2969 119.47456L512.2969 123.67769L511.21875 123.67769L511.21875 119.52144Q511.21875 118.14644 509.85938 118.14644Q508.79688 118.14644 508.40625 119.05269L508.40625 123.67769L507.3125 123.67769L507.3125 117.33394L508.34375 117.33394ZM522.0156 121.99019Q522.0156 121.55269 521.6719 121.31831Q521.34375 121.06831 520.5156 120.89644Q519.7031 120.72456 519.21875 120.47456Q518.7344 120.22456 518.5 119.89644Q518.28125 119.55269 518.28125 119.08394Q518.28125 118.30269 518.9375 117.77144Q519.59375 117.22456 520.625 117.22456Q521.7031 117.22456 522.3594 117.78706Q523.03125 118.33394 523.03125 119.19331L521.9531 119.19331Q521.9531 118.75581 521.5625 118.44331Q521.1875 118.11519 520.625 118.11519Q520.03125 118.11519 519.6875 118.38081Q519.3594 118.63081 519.3594 119.03706Q519.3594 119.42769 519.6719 119.63081Q519.9844 119.83394 520.7969 120.02144Q521.6094 120.19331 522.1094 120.44331Q522.6094 120.69331 522.84375 121.05269Q523.09375 121.41206 523.09375 121.91206Q523.09375 122.77144 522.40625 123.28706Q521.7344 123.80269 520.65625 123.80269Q519.8906 123.80269 519.2969 123.53706Q518.71875 123.25581 518.3906 122.77144Q518.0625 122.28706 518.0625 121.72456L519.1406 121.72456Q519.1719 122.27144 519.5781 122.59956Q519.9844 122.91206 520.65625 122.91206Q521.2656 122.91206 521.6406 122.66206Q522.0156 122.41206 522.0156 121.99019Z" fill-rule="nonzero"/><path fill="#000000" d="M33.05 332.21564Q33.05 330.6844 33.3625 329.7625Q33.675 328.825 34.284374 328.325Q34.909374 327.825 35.846874 327.825Q36.534374 327.825 37.05 328.10626Q37.58125 328.3875 37.925 328.91876Q38.26875 329.4344 38.45625 330.1844Q38.64375 330.9344 38.64375 332.21564Q38.64375 333.73126 38.33125 334.65314Q38.034374 335.575 37.409374 336.09064Q36.8 336.59064 35.846874 336.59064Q34.6125 336.59064 33.89375 335.7Q33.05 334.6375 33.05 332.21564ZM34.128124 332.21564Q34.128124 334.325 34.628124 335.02814Q35.128124 335.73126 35.846874 335.73126Q36.58125 335.73126 37.065624 335.02814Q37.565624 334.325 37.565624 332.21564Q37.565624 330.09064 37.065624 329.40314Q36.58125 328.7 35.83125 328.7Q35.1125 328.7 34.675 329.3094Q34.128124 330.09064 34.128124 332.21564Z" fill-rule="nonzero"/><path fill="#000000" d="M38.596874 273.67606L38.596874 274.69168L32.909374 274.69168Q32.909374 274.31668 33.034374 273.9573Q33.253124 273.37918 33.721874 272.81668Q34.20625 272.25418 35.1125 271.5198Q36.51875 270.36356 37.003124 269.69168Q37.503124 269.0198 37.503124 268.42606Q37.503124 267.80106 37.05 267.37918Q36.596874 266.94168 35.878124 266.94168Q35.1125 266.94168 34.659374 267.3948Q34.20625 267.84793 34.190624 268.66043L33.1125 268.55106Q33.221874 267.3323 33.940624 266.7073Q34.675 266.06668 35.909374 266.06668Q37.14375 266.06668 37.8625 266.75418Q38.58125 267.44168 38.58125 268.4573Q38.58125 268.97293 38.3625 269.47293Q38.159374 269.9573 37.659374 270.5198Q37.175 271.06668 36.05 272.0198Q35.096874 272.81668 34.815624 273.11356Q34.55 273.3948 34.378124 273.67606L38.596874 273.67606Z" fill-rule="nonzero"/><path fill="#000000" d="M36.425 212.93333L36.425 210.87083L32.70625 210.87083L32.70625 209.90208L36.628124 204.33958L37.4875 204.33958L37.4875 209.90208L38.64375 209.90208L38.64375 210.87083L37.4875 210.87083L37.4875 212.93333L36.425 212.93333ZM36.425 209.90208L36.425 206.04271L33.7375 209.90208L36.425 209.90208Z" fill-rule="nonzero"/><path fill="#000000" d="M38.51875 144.69063L37.471874 144.76875Q37.33125 144.14375 37.08125 143.8625Q36.64375 143.40938 36.01875 143.40938Q35.51875 143.40938 35.128124 143.69063Q34.64375 144.06563 34.346874 144.76875Q34.065624 145.45625 34.05 146.7375Q34.425 146.15938 34.971874 145.87813Q35.534374 145.59688 36.14375 145.59688Q37.190624 145.59688 37.925 146.37813Q38.675 147.15938 38.675 148.37813Q38.675 149.19063 38.315624 149.89375Q37.971874 150.58125 37.3625 150.95625Q36.753124 151.31563 35.9875 151.31563Q34.659374 151.31563 33.83125 150.34688Q33.003124 149.37813 33.003124 147.15938Q33.003124 144.65938 33.925 143.53438Q34.721874 142.55 36.08125 142.55Q37.096874 142.55 37.7375 143.12813Q38.39375 143.69063 38.51875 144.69063ZM34.221874 148.39375Q34.221874 148.94063 34.440624 149.44063Q34.675 149.925 35.08125 150.19063Q35.503124 150.45625 35.971874 150.45625Q36.628124 150.45625 37.1125 149.925Q37.596874 149.37813 37.596874 148.45625Q37.596874 147.56563 37.1125 147.05Q36.64375 146.53438 35.925 146.53438Q35.20625 146.53438 34.70625 147.05Q34.221874 147.56563 34.221874 148.39375Z" fill-rule="nonzero"/><path fill="#000000" d="M34.675 84.760414Q34.01875 84.510414 33.690624 84.072914Q33.378124 83.61979 33.378124 83.010414Q33.378124 82.072914 34.05 81.43229Q34.7375 80.791664 35.846874 80.791664Q36.971874 80.791664 37.659374 81.447914Q38.346874 82.104164 38.346874 83.041664Q38.346874 83.635414 38.034374 84.072914Q37.721874 84.510414 37.08125 84.760414Q37.878124 85.010414 38.284374 85.58854Q38.690624 86.166664 38.690624 86.96354Q38.690624 88.05729 37.909374 88.80729Q37.14375 89.55729 35.8625 89.55729Q34.596874 89.55729 33.815624 88.80729Q33.034374 88.05729 33.034374 86.93229Q33.034374 86.08854 33.45625 85.52604Q33.89375 84.96354 34.675 84.760414ZM34.45625 82.96354Q34.45625 83.572914 34.846874 83.96354Q35.253124 84.354164 35.878124 84.354164Q36.4875 84.354164 36.878124 83.979164Q37.26875 83.58854 37.26875 83.02604Q37.26875 82.447914 36.8625 82.05729Q36.45625 81.65104 35.8625 81.65104Q35.253124 81.65104 34.846874 82.041664Q34.45625 82.43229 34.45625 82.96354ZM34.128124 86.93229Q34.128124 87.385414 34.33125 87.80729Q34.55 88.229164 34.971874 88.46354Q35.39375 88.697914 35.878124 88.697914Q36.628124 88.697914 37.1125 88.21354Q37.6125 87.729164 37.6125 86.979164Q37.6125 86.21354 37.1125 85.71354Q36.6125 85.21354 35.846874 85.21354Q35.096874 85.21354 34.6125 85.71354Q34.128124 86.197914 34.128124 86.93229Z" fill-rule="nonzero"/><path fill="#000000" d="M88.75377 346.6844L89.81627 346.59064Q89.894394 347.2469 90.175644 347.65314Q90.456894 348.0594 91.03502 348.325Q91.62877 348.575 92.363144 348.575Q93.00377 348.575 93.50377 348.3875Q94.00377 348.1844 94.238144 347.85626Q94.488144 347.5125 94.488144 347.1219Q94.488144 346.71564 94.25377 346.41876Q94.019394 346.10626 93.488144 345.90314Q93.12877 345.7625 91.94127 345.48126Q90.769394 345.2 90.300644 344.95Q89.675644 344.6219 89.37877 344.15314Q89.081894 343.66876 89.081894 343.075Q89.081894 342.4344 89.44127 341.8719Q89.81627 341.29376 90.519394 341.0125Q91.238144 340.71564 92.09752 340.71564Q93.050644 340.71564 93.78502 341.02814Q94.519394 341.325 94.91002 341.9344Q95.300644 342.52814 95.331894 343.27814L94.238144 343.35626Q94.144394 342.54376 93.62877 342.1375Q93.12877 341.71564 92.144394 341.71564Q91.113144 341.71564 90.644394 342.09064Q90.175644 342.46564 90.175644 342.9969Q90.175644 343.46564 90.50377 343.7625Q90.831894 344.0594 92.206894 344.3719Q93.59752 344.6844 94.113144 344.91876Q94.863144 345.27814 95.22252 345.8094Q95.581894 346.325 95.581894 347.02814Q95.581894 347.71564 95.19127 348.325Q94.800644 348.91876 94.06627 349.2625Q93.331894 349.59064 92.41002 349.59064Q91.238144 349.59064 90.44127 349.2625Q89.66002 348.91876 89.206894 348.23126Q88.769394 347.54376 88.75377 346.6844ZM101.06627 347.16876L102.09752 347.3094Q101.925644 348.3719 101.22252 348.98126Q100.519394 349.59064 99.50377 349.59064Q98.22252 349.59064 97.44127 348.7625Q96.675644 347.91876 96.675644 346.35626Q96.675644 345.35626 97.00377 344.60626Q97.34752 343.84064 98.019394 343.46564Q98.706894 343.09064 99.519394 343.09064Q100.519394 343.09064 101.16002 343.60626Q101.81627 344.10626 102.00377 345.0594L100.97252 345.21564Q100.831894 344.59064 100.456894 344.27814Q100.081894 343.95 99.550644 343.95Q98.75377 343.95 98.25377 344.52814Q97.75377 345.09064 97.75377 346.325Q97.75377 347.59064 98.238144 348.15314Q98.72252 348.71564 99.488144 348.71564Q100.113144 348.71564 100.519394 348.34064Q100.94127 347.96564 101.06627 347.16876ZM103.00377 349.45L103.00377 340.85626L104.050644 340.85626L104.050644 343.9344Q104.78502 343.09064 105.91002 343.09064Q106.613144 343.09064 107.113144 343.3719Q107.62877 343.6375 107.84752 344.1219Q108.06627 344.59064 108.06627 345.5125L108.06627 349.45L107.019394 349.45L107.019394 345.5125Q107.019394 344.71564 106.675644 344.35626Q106.331894 343.9969 105.706894 343.9969Q105.238144 343.9969 104.81627 344.2469Q104.41002 344.48126 104.22252 344.90314Q104.050644 345.3094 104.050644 346.04376L104.050644 349.45L103.00377 349.45ZM114.25377 347.45L115.34752 347.575Q115.09752 348.52814 114.394394 349.0594Q113.69127 349.59064 112.613144 349.59064Q111.25377 349.59064 110.44127 348.7469Q109.644394 347.90314 109.644394 346.3875Q109.644394 344.825 110.456894 343.96564Q111.269394 343.09064 112.550644 343.09064Q113.800644 343.09064 114.581894 343.9344Q115.37877 344.77814 115.37877 346.325Q115.37877 346.41876 115.37877 346.60626L110.738144 346.60626Q110.800644 347.6375 111.31627 348.1844Q111.831894 348.71564 112.613144 348.71564Q113.19127 348.71564 113.59752 348.41876Q114.019394 348.10626 114.25377 347.45ZM110.800644 345.7469L114.269394 345.7469Q114.206894 344.95 113.87877 344.5594Q113.363144 343.95 112.56627 343.95Q111.831894 343.95 111.331894 344.4344Q110.84752 344.91876 110.800644 345.7469ZM117.00377 349.45L117.00377 343.23126L117.94127 343.23126L117.94127 344.10626Q118.238144 343.6375 118.72252 343.3719Q119.206894 343.09064 119.831894 343.09064Q120.519394 343.09064 120.956894 343.3719Q121.41002 343.65314 121.581894 344.16876Q122.331894 343.09064 123.50377 343.09064Q124.44127 343.09064 124.925644 343.60626Q125.425644 344.10626 125.425644 345.1844L125.425644 349.45L124.37877 349.45L124.37877 345.52814Q124.37877 344.90314 124.269394 344.6219Q124.175644 344.34064 123.91002 344.16876Q123.644394 343.9969 123.269394 343.9969Q122.613144 343.9969 122.175644 344.4344Q121.75377 344.8719 121.75377 345.84064L121.75377 349.45L120.69127 349.45L120.69127 345.40314Q120.69127 344.7 120.425644 344.35626Q120.175644 343.9969 119.59752 343.9969Q119.144394 343.9969 118.769394 344.23126Q118.394394 344.46564 118.22252 344.91876Q118.050644 345.3719 118.050644 346.21564L118.050644 349.45L117.00377 349.45ZM132.06627 348.6844Q131.47252 349.1844 130.92564 349.3875Q130.3944 349.59064 129.7694 349.59064Q128.73814 349.59064 128.19127 349.09064Q127.644394 348.59064 127.644394 347.8094Q127.644394 347.35626 127.84752 346.98126Q128.05064 346.59064 128.3944 346.3719Q128.73814 346.1375 129.16002 346.02814Q129.4569 345.9344 130.09752 345.85626Q131.36314 345.71564 131.97252 345.4969Q131.97252 345.27814 131.97252 345.23126Q131.97252 344.575 131.67564 344.3094Q131.2694 343.96564 130.47252 343.96564Q129.73814 343.96564 129.37877 344.23126Q129.0194 344.48126 128.84752 345.1375L127.81627 344.9969Q127.956894 344.34064 128.28502 343.9344Q128.61314 343.52814 129.22252 343.3094Q129.8319 343.09064 130.62877 343.09064Q131.42564 343.09064 131.92564 343.27814Q132.42564 343.46564 132.66002 343.7469Q132.8944 344.02814 132.98814 344.46564Q133.03502 344.73126 133.03502 345.4344L133.03502 346.84064Q133.03502 348.3094 133.09752 348.7Q133.17564 349.09064 133.37877 349.45L132.2694 349.45Q132.11314 349.1219 132.06627 348.6844ZM131.97252 346.325Q131.3944 346.5594 130.25377 346.73126Q129.59752 346.825 129.3319 346.95Q129.06627 347.0594 128.91002 347.27814Q128.7694 347.4969 128.7694 347.77814Q128.7694 348.2 129.0819 348.48126Q129.41002 348.7625 130.0194 348.7625Q130.62877 348.7625 131.09752 348.4969Q131.5819 348.23126 131.80064 347.7625Q131.97252 347.40314 131.97252 346.71564L131.97252 346.325ZM135.19127 349.45L135.19127 340.85626L140.98814 340.85626L140.98814 341.8719L136.3319 341.8719L136.3319 344.52814L140.36314 344.52814L140.36314 345.54376L136.3319 345.54376L136.3319 349.45L135.19127 349.45ZM141.98814 349.45L141.98814 343.23126L142.94127 343.23126L142.94127 344.16876Q143.30064 343.5125 143.59752 343.3094Q143.91002 343.09064 144.28502 343.09064Q144.81627 343.09064 145.36314 343.41876L145.00377 344.40314Q144.61314 344.16876 144.23814 344.16876Q143.87877 344.16876 143.59752 344.3875Q143.3319 344.59064 143.22252 344.96564Q143.03502 345.52814 143.03502 346.1844L143.03502 349.45L141.98814 349.45ZM146.00377 342.075L146.00377 340.85626L147.06627 340.85626L147.06627 342.075L146.00377 342.075ZM146.00377 349.45L146.00377 343.23126L147.06627 343.23126L147.06627 349.45L146.00377 349.45ZM153.25377 347.45L154.34752 347.575Q154.09752 348.52814 153.3944 349.0594Q152.69127 349.59064 151.61314 349.59064Q150.25377 349.59064 149.44127 348.7469Q148.6444 347.90314 148.6444 346.3875Q148.6444 344.825 149.4569 343.96564Q150.2694 343.09064 151.55064 343.09064Q152.80064 343.09064 153.5819 343.9344Q154.37877 344.77814 154.37877 346.325Q154.37877 346.41876 154.37877 346.60626L149.73814 346.60626Q149.80064 347.6375 150.31627 348.1844Q150.8319 348.71564 151.61314 348.71564Q152.19127 348.71564 152.59752 348.41876Q153.0194 348.10626 153.25377 347.45ZM149.80064 345.7469L153.2694 345.7469Q153.2069 344.95 152.87877 344.5594Q152.36314 343.95 151.56627 343.95Q150.8319 343.95 150.3319 344.4344Q149.84752 344.91876 149.80064 345.7469ZM156.00377 349.45L156.00377 343.23126L156.94127 343.23126L156.94127 344.10626Q157.62877 343.09064 158.92564 343.09064Q159.48814 343.09064 159.9569 343.29376Q160.44127 343.4969 160.67564 343.825Q160.91002 344.15314 161.00377 344.59064Q161.05064 344.8875 161.05064 345.6219L161.05064 349.45L160.00377 349.45L160.00377 345.66876Q160.00377 345.0125 159.87877 344.7Q159.75377 344.3875 159.44127 344.2Q159.12877 343.9969 158.7069 343.9969Q158.03502 343.9969 157.53502 344.4344Q157.05064 344.85626 157.05064 346.04376L157.05064 349.45L156.00377 349.45ZM167.03502 349.45L167.03502 348.66876Q166.44127 349.59064 165.30064 349.59064Q164.55064 349.59064 163.92564 349.1844Q163.30064 348.7625 162.9569 348.02814Q162.61314 347.29376 162.61314 346.34064Q162.61314 345.41876 162.92564 344.65314Q163.23814 343.8875 163.86314 343.4969Q164.48814 343.09064 165.25377 343.09064Q165.81627 343.09064 166.25377 343.325Q166.69127 343.5594 166.97252 343.9344L166.97252 340.85626L168.0194 340.85626L168.0194 349.45L167.03502 349.45ZM163.7069 346.34064Q163.7069 347.54376 164.2069 348.1375Q164.7069 348.71564 165.3944 348.71564Q166.0819 348.71564 166.56627 348.15314Q167.05064 347.59064 167.05064 346.4344Q167.05064 345.15314 166.55064 344.5594Q166.06627 343.96564 165.34752 343.96564Q164.6444 343.96564 164.17564 344.54376Q163.7069 345.10626 163.7069 346.34064Z" fill-rule="nonzero"/><path fill="#000000" d="M232.94917 346.6844L234.01167 346.59064Q234.0898 347.2469 234.37105 347.65314Q234.6523 348.0594 235.23042 348.325Q235.82417 348.575 236.55855 348.575Q237.19917 348.575 237.69917 348.3875Q238.19917 348.1844 238.43355 347.85626Q238.68355 347.5125 238.68355 347.1219Q238.68355 346.71564 238.44917 346.41876Q238.2148 346.10626 237.68355 345.90314Q237.32417 345.7625 236.13667 345.48126Q234.9648 345.2 234.49605 344.95Q233.87105 344.6219 233.57417 344.15314Q233.2773 343.66876 233.2773 343.075Q233.2773 342.4344 233.63667 341.8719Q234.01167 341.29376 234.7148 341.0125Q235.43355 340.71564 236.29292 340.71564Q237.24605 340.71564 237.98042 341.02814Q238.7148 341.325 239.10542 341.9344Q239.49605 342.52814 239.5273 343.27814L238.43355 343.35626Q238.3398 342.54376 237.82417 342.1375Q237.32417 341.71564 236.3398 341.71564Q235.30855 341.71564 234.8398 342.09064Q234.37105 342.46564 234.37105 342.9969Q234.37105 343.46564 234.69917 343.7625Q235.0273 344.0594 236.4023 344.3719Q237.79292 344.6844 238.30855 344.91876Q239.05855 345.27814 239.41792 345.8094Q239.7773 346.325 239.7773 347.02814Q239.7773 347.71564 239.38667 348.325Q238.99605 348.91876 238.26167 349.2625Q237.5273 349.59064 236.60542 349.59064Q235.43355 349.59064 234.63667 349.2625Q233.85542 348.91876 233.4023 348.23126Q232.9648 347.54376 232.94917 346.6844ZM241.19917 349.45L241.19917 340.85626L242.26167 340.85626L242.26167 345.7625L244.74605 343.23126L246.12105 343.23126L243.73042 345.52814L246.35542 349.45L245.05855 349.45L242.99605 346.2625L242.26167 346.98126L242.26167 349.45L241.19917 349.45ZM251.44917 347.45L252.54292 347.575Q252.29292 348.52814 251.5898 349.0594Q250.88667 349.59064 249.80855 349.59064Q248.44917 349.59064 247.63667 348.7469Q246.8398 347.90314 246.8398 346.3875Q246.8398 344.825 247.6523 343.96564Q248.4648 343.09064 249.74605 343.09064Q250.99605 343.09064 251.7773 343.9344Q252.57417 344.77814 252.57417 346.325Q252.57417 346.41876 252.57417 346.60626L247.93355 346.60626Q247.99605 347.6375 248.51167 348.1844Q249.0273 348.71564 249.80855 348.71564Q250.38667 348.71564 250.79292 348.41876Q251.2148 348.10626 251.44917 347.45ZM247.99605 345.7469L251.4648 345.7469Q251.4023 344.95 251.07417 344.5594Q250.55855 343.95 249.76167 343.95Q249.0273 343.95 248.5273 344.4344Q248.04292 344.91876 247.99605 345.7469ZM254.19917 349.45L254.19917 343.23126L255.13667 343.23126L255.13667 344.10626Q255.43355 343.6375 255.91792 343.3719Q256.40228 343.09064 257.02728 343.09064Q257.71478 343.09064 258.15228 343.3719Q258.6054 343.65314 258.77728 344.16876Q259.52728 343.09064 260.69916 343.09064Q261.63666 343.09064 262.12103 343.60626Q262.62103 344.10626 262.62103 345.1844L262.62103 349.45L261.57416 349.45L261.57416 345.52814Q261.57416 344.90314 261.46478 344.6219Q261.37103 344.34064 261.1054 344.16876Q260.83978 343.9969 260.46478 343.9969Q259.80853 343.9969 259.37103 344.4344Q258.94916 344.8719 258.94916 345.84064L258.94916 349.45L257.88666 349.45L257.88666 345.40314Q257.88666 344.7 257.62103 344.35626Q257.37103 343.9969 256.7929 343.9969Q256.33978 343.9969 255.9648 344.23126Q255.5898 344.46564 255.41792 344.91876Q255.24605 345.3719 255.24605 346.21564L255.24605 349.45L254.19917 349.45ZM269.26166 348.6844Q268.6679 349.1844 268.12103 349.3875Q267.58978 349.59064 266.96478 349.59064Q265.93353 349.59064 265.38666 349.09064Q264.83978 348.59064 264.83978 347.8094Q264.83978 347.35626 265.0429 346.98126Q265.24603 346.59064 265.58978 346.3719Q265.93353 346.1375 266.3554 346.02814Q266.65228 345.9344 267.2929 345.85626Q268.55853 345.71564 269.1679 345.4969Q269.1679 345.27814 269.1679 345.23126Q269.1679 344.575 268.87103 344.3094Q268.46478 343.96564 267.6679 343.96564Q266.93353 343.96564 266.57416 344.23126Q266.21478 344.48126 266.0429 345.1375L265.01166 344.9969Q265.15228 344.34064 265.4804 343.9344Q265.80853 343.52814 266.4179 343.3094Q267.02728 343.09064 267.82416 343.09064Q268.62103 343.09064 269.12103 343.27814Q269.62103 343.46564 269.8554 343.7469Q270.08978 344.02814 270.18353 344.46564Q270.2304 344.73126 270.2304 345.4344L270.2304 346.84064Q270.2304 348.3094 270.2929 348.7Q270.37103 349.09064 270.57416 349.45L269.46478 349.45Q269.30853 349.1219 269.26166 348.6844ZM269.1679 346.325Q268.58978 346.5594 267.44916 346.73126Q266.7929 346.825 266.52728 346.95Q266.26166 347.0594 266.1054 347.27814Q265.96478 347.4969 265.96478 347.77814Q265.96478 348.2 266.27728 348.48126Q266.6054 348.7625 267.21478 348.7625Q267.82416 348.7625 268.2929 348.4969Q268.77728 348.23126 268.99603 347.7625Q269.1679 347.40314 269.1679 346.71564L269.1679 346.325Z" fill-rule="nonzero"/><path fill="#000000" d="M365.4727 349.45L362.14456 340.85626L363.37894 340.85626L365.6133 347.10626Q365.87894 347.85626 366.06644 348.5125Q366.26956 347.8094 366.5352 347.10626L368.8477 340.85626L370.00394 340.85626L366.64456 349.45L365.4727 349.45ZM374.14456 347.45L375.2383 347.575Q374.9883 348.52814 374.2852 349.0594Q373.58206 349.59064 372.50394 349.59064Q371.14456 349.59064 370.33206 348.7469Q369.5352 347.90314 369.5352 346.3875Q369.5352 344.825 370.3477 343.96564Q371.1602 343.09064 372.44144 343.09064Q373.69144 343.09064 374.4727 343.9344Q375.26956 344.77814 375.26956 346.325Q375.26956 346.41876 375.26956 346.60626L370.62894 346.60626Q370.69144 347.6375 371.20706 348.1844Q371.7227 348.71564 372.50394 348.71564Q373.08206 348.71564 373.4883 348.41876Q373.9102 348.10626 374.14456 347.45ZM370.69144 345.7469L374.1602 345.7469Q374.0977 344.95 373.76956 344.5594Q373.25394 343.95 372.45706 343.95Q371.7227 343.95 371.2227 344.4344Q370.7383 344.91876 370.69144 345.7469ZM376.87894 349.45L376.87894 343.23126L377.83206 343.23126L377.83206 344.16876Q378.19144 343.5125 378.4883 343.3094Q378.8008 343.09064 379.1758 343.09064Q379.70706 343.09064 380.25394 343.41876L379.89456 344.40314Q379.50394 344.16876 379.12894 344.16876Q378.76956 344.16876 378.4883 344.3875Q378.2227 344.59064 378.1133 344.96564Q377.9258 345.52814 377.9258 346.1844L377.9258 349.45L376.87894 349.45ZM383.19144 348.5125L383.3477 349.4344Q382.89456 349.52814 382.5508 349.52814Q381.9727 349.52814 381.6602 349.35626Q381.3477 349.16876 381.20706 348.8719Q381.08206 348.575 381.08206 347.6219L381.08206 344.04376L380.31644 344.04376L380.31644 343.23126L381.08206 343.23126L381.08206 341.6844L382.12894 341.0594L382.12894 343.23126L383.19144 343.23126L383.19144 344.04376L382.12894 344.04376L382.12894 347.6844Q382.12894 348.1375 382.1758 348.2625Q382.2383 348.3875 382.3633 348.46564Q382.4883 348.54376 382.7227 348.54376Q382.9102 348.54376 383.19144 348.5125ZM383.19144 349.45L385.45706 346.21564L383.3633 343.23126L384.6758 343.23126L385.62894 344.6844Q385.89456 345.10626 386.06644 345.3875Q386.31644 344.9969 386.5352 344.7L387.58206 343.23126L388.8477 343.23126L386.69144 346.15314L389.00394 349.45L387.7227 349.45L386.44144 347.5125L386.0977 346.9969L384.45706 349.45L383.19144 349.45Z" fill-rule="nonzero"/><path fill="#000000" d="M470.71497 349.45L470.71497 340.85626L471.87122 340.85626L476.38684 347.60626L476.38684 340.85626L477.4806 340.85626L477.4806 349.45L476.30872 349.45L471.7931 342.7L471.7931 349.45L470.71497 349.45ZM483.83997 347.45L484.93372 347.575Q484.68372 348.52814 483.9806 349.0594Q483.27747 349.59064 482.19934 349.59064Q480.83997 349.59064 480.02747 348.7469Q479.2306 347.90314 479.2306 346.3875Q479.2306 344.825 480.0431 343.96564Q480.8556 343.09064 482.13684 343.09064Q483.38684 343.09064 484.1681 343.9344Q484.96497 344.77814 484.96497 346.325Q484.96497 346.41876 484.96497 346.60626L480.32434 346.60626Q480.38684 347.6375 480.90247 348.1844Q481.4181 348.71564 482.19934 348.71564Q482.77747 348.71564 483.18372 348.41876Q483.6056 348.10626 483.83997 347.45ZM480.38684 345.7469L483.8556 345.7469Q483.7931 344.95 483.46497 344.5594Q482.94934 343.95 482.15247 343.95Q481.4181 343.95 480.9181 344.4344Q480.43372 344.91876 480.38684 345.7469ZM488.88684 348.5125L489.0431 349.4344Q488.58997 349.52814 488.24622 349.52814Q487.6681 349.52814 487.3556 349.35626Q487.0431 349.16876 486.90247 348.8719Q486.77747 348.575 486.77747 347.6219L486.77747 344.04376L486.01184 344.04376L486.01184 343.23126L486.77747 343.23126L486.77747 341.6844L487.82434 341.0594L487.82434 343.23126L488.88684 343.23126L488.88684 344.04376L487.82434 344.04376L487.82434 347.6844Q487.82434 348.1375 487.87122 348.2625Q487.93372 348.3875 488.05872 348.46564Q488.18372 348.54376 488.4181 348.54376Q488.6056 348.54376 488.88684 348.5125ZM490.7306 349.45L488.82434 343.23126L489.9181 343.23126L490.90247 346.825L491.27747 348.15314Q491.30872 348.0594 491.6056 346.8719L492.58997 343.23126L493.6681 343.23126L494.6056 346.84064L494.9181 348.02814L495.27747 346.825L496.33997 343.23126L497.37122 343.23126L495.4181 349.45L494.32434 349.45L493.33997 345.71564L493.08997 344.66876L491.83997 349.45L490.7306 349.45ZM498.19934 346.34064Q498.19934 344.60626 499.15247 343.77814Q499.94934 343.09064 501.1056 343.09064Q502.38684 343.09064 503.19934 343.9344Q504.02747 344.7625 504.02747 346.2469Q504.02747 347.45 503.6681 348.1375Q503.30872 348.825 502.6056 349.21564Q501.9181 349.59064 501.1056 349.59064Q499.80872 349.59064 498.99622 348.7625Q498.19934 347.91876 498.19934 346.34064ZM499.27747 346.34064Q499.27747 347.52814 499.7931 348.1219Q500.32434 348.71564 501.1056 348.71564Q501.90247 348.71564 502.4181 348.1219Q502.93372 347.52814 502.93372 346.3094Q502.93372 345.15314 502.40247 344.5594Q501.88684 343.96564 501.1056 343.96564Q500.32434 343.96564 499.7931 344.5594Q499.27747 345.1375 499.27747 346.34064ZM505.57434 349.45L505.57434 343.23126L506.52747 343.23126L506.52747 344.16876Q506.88684 343.5125 507.18372 343.3094Q507.49622 343.09064 507.87122 343.09064Q508.40247 343.09064 508.94934 343.41876L508.58997 344.40314Q508.19934 344.16876 507.82434 344.16876Q507.46497 344.16876 507.18372 344.3875Q506.9181 344.59064 506.80872 344.96564Q506.62122 345.52814 506.62122 346.1844L506.62122 349.45L505.57434 349.45ZM509.58997 349.45L509.58997 340.85626L510.65247 340.85626L510.65247 345.7625L513.13684 343.23126L514.51184 343.23126L512.1212 345.52814L514.7462 349.45L513.44934 349.45L511.38684 346.2625L510.65247 346.98126L510.65247 349.45L509.58997 349.45ZM515.71497 349.45L515.71497 340.85626L516.8712 340.85626L521.38684 347.60626L521.38684 340.85626L522.4806 340.85626L522.4806 349.45L521.3087 349.45L516.7931 342.7L516.7931 349.45L515.71497 349.45ZM526.88684 348.5125L527.0431 349.4344Q526.58997 349.52814 526.2462 349.52814Q525.6681 349.52814 525.3556 349.35626Q525.0431 349.16876 524.90247 348.8719Q524.77747 348.575 524.77747 347.6219L524.77747 344.04376L524.01184 344.04376L524.01184 343.23126L524.77747 343.23126L524.77747 341.6844L525.82434 341.0594L525.82434 343.23126L526.88684 343.23126L526.88684 344.04376L525.82434 344.04376L525.82434 347.6844Q525.82434 348.1375 525.8712 348.2625Q525.9337 348.3875 526.0587 348.46564Q526.1837 348.54376 526.4181 348.54376Q526.6056 348.54376 526.88684 348.5125Z" fill-rule="nonzero"/><path fill="#999999" d="M22.175 63.05L22.175 54.20625L18.878124 54.20625L18.878124 53.034374L26.815624 53.034374L26.815624 54.20625L23.503124 54.20625L23.503124 63.05L22.175 63.05ZM28.4875 54.440624L28.4875 53.034374L29.70625 53.034374L29.70625 54.440624L28.4875 54.440624ZM28.4875 63.05L28.4875 55.784374L29.70625 55.784374L29.70625 63.05L28.4875 63.05ZM31.471874 63.05L31.471874 55.784374L32.58125 55.784374L32.58125 56.815624Q32.909374 56.26875 33.471874 55.95625Q34.05 55.628124 34.76875 55.628124Q35.58125 55.628124 36.096874 55.971874Q36.6125 56.3 36.83125 56.89375Q37.690624 55.628124 39.065624 55.628124Q40.14375 55.628124 40.721874 56.221874Q41.315624 56.815624 41.315624 58.065624L41.315624 63.05L40.08125 63.05L40.08125 58.471874Q40.08125 57.7375 39.95625 57.409374Q39.846874 57.08125 39.534374 56.89375Q39.221874 56.690624 38.8 56.690624Q38.034374 56.690624 37.51875 57.20625Q37.01875 57.70625 37.01875 58.83125L37.01875 63.05L35.784374 63.05L35.784374 58.33125Q35.784374 57.51875 35.4875 57.1125Q35.190624 56.690624 34.503124 56.690624Q33.9875 56.690624 33.534374 56.971874Q33.096874 57.2375 32.89375 57.76875Q32.70625 58.284374 32.70625 59.284374L32.70625 63.05L31.471874 63.05ZM47.440624 60.70625L48.721874 60.8625Q48.409374 61.9875 47.596874 62.6125Q46.784374 63.221874 45.51875 63.221874Q43.925 63.221874 42.9875 62.2375Q42.065624 61.253124 42.065624 59.4875Q42.065624 57.64375 43.003124 56.64375Q43.95625 55.628124 45.45625 55.628124Q46.909374 55.628124 47.83125 56.628124Q48.753124 57.6125 48.753124 59.409374Q48.753124 59.51875 48.753124 59.7375L43.33125 59.7375Q43.409374 60.925 44.003124 61.565624Q44.6125 62.20625 45.534374 62.20625Q46.20625 62.20625 46.675 61.846874Q47.159374 61.4875 47.440624 60.70625ZM43.409374 58.721874L47.45625 58.721874Q47.378124 57.8 46.9875 57.346874Q46.409374 56.64375 45.471874 56.64375Q44.6125 56.64375 44.034374 57.20625Q43.471874 57.76875 43.409374 58.721874ZM57.159374 61.95625L57.33125 63.034374Q56.815624 63.14375 56.409374 63.14375Q55.7375 63.14375 55.3625 62.940624Q55.003124 62.721874 54.846874 62.378124Q54.70625 62.034374 54.70625 60.925L54.70625 56.753124L53.8 56.753124L53.8 55.784374L54.70625 55.784374L54.70625 53.9875L55.925 53.253124L55.925 55.784374L57.159374 55.784374L57.159374 56.753124L55.925 56.753124L55.925 60.9875Q55.925 61.51875 55.9875 61.675Q56.05 61.815624 56.190624 61.909374Q56.346874 62.003124 56.6125 62.003124Q56.83125 62.003124 57.159374 61.95625ZM58.01875 59.425Q58.01875 57.409374 59.14375 56.425Q60.065624 55.628124 61.425 55.628124Q62.909374 55.628124 63.8625 56.6125Q64.81563 57.58125 64.81563 59.315624Q64.81563 60.721874 64.39375 61.534374Q63.971874 62.33125 63.159374 62.784374Q62.3625 63.221874 61.425 63.221874Q59.89375 63.221874 58.95625 62.2375Q58.01875 61.253124 58.01875 59.425ZM59.284374 59.425Q59.284374 60.815624 59.89375 61.51875Q60.503124 62.20625 61.425 62.20625Q62.33125 62.20625 62.940624 61.503124Q63.55 60.8 63.55 59.378124Q63.55 58.034374 62.940624 57.346874Q62.33125 56.64375 61.425 56.64375Q60.503124 56.64375 59.89375 57.33125Q59.284374 58.01875 59.284374 59.425ZM72.4875 63.05L69.72188 55.784374L71.03438 55.784374L72.58125 60.14375Q72.83125 60.846874 73.05 61.596874Q73.22188 61.01875 73.50313 60.221874L75.12813 55.784374L76.39375 55.784374L73.64375 63.05L72.4875 63.05ZM82.20625 62.159374Q81.53438 62.7375 80.89375 62.9875Q80.26875 63.221874 79.53438 63.221874Q78.34688 63.221874 77.69063 62.64375Q77.05 62.05 77.05 61.128124Q77.05 60.596874 77.28438 60.159374Q77.53438 59.721874 77.925 59.45625Q78.33125 59.190624 78.81563 59.05Q79.175 58.95625 79.90938 58.8625Q81.40938 58.690624 82.1125 58.440624Q82.1125 58.190624 82.1125 58.128124Q82.1125 57.3625 81.76875 57.065624Q81.3 56.64375 80.3625 56.64375Q79.50313 56.64375 79.08125 56.95625Q78.675 57.253124 78.47188 58.01875L77.26875 57.8625Q77.425 57.08125 77.8 56.6125Q78.19063 56.14375 78.89375 55.89375Q79.6125 55.628124 80.55 55.628124Q81.47188 55.628124 82.05 55.846874Q82.62813 56.065624 82.89375 56.39375Q83.175 56.721874 83.28438 57.2375Q83.34688 57.55 83.34688 58.3625L83.34688 60.003124Q83.34688 61.721874 83.425 62.175Q83.50313 62.628124 83.7375 63.05L82.45625 63.05Q82.26875 62.659374 82.20625 62.159374ZM82.1125 59.409374Q81.44063 59.675 80.09688 59.878124Q79.34688 59.9875 79.01875 60.128124Q78.70625 60.253124 78.53438 60.51875Q78.3625 60.784374 78.3625 61.096874Q78.3625 61.596874 78.7375 61.925Q79.1125 62.253124 79.83125 62.253124Q80.55 62.253124 81.09688 61.940624Q81.64375 61.628124 81.90938 61.08125Q82.1125 60.675 82.1125 59.8625L82.1125 59.409374ZM85.44063 63.05L85.44063 53.034374L86.675 53.034374L86.675 63.05L85.44063 63.05ZM88.4875 54.440624L88.4875 53.034374L89.70625 53.034374L89.70625 54.440624L88.4875 54.440624ZM88.4875 63.05L88.4875 55.784374L89.70625 55.784374L89.70625 63.05L88.4875 63.05ZM96.19063 63.05L96.19063 62.128124Q95.4875 63.221874 94.15938 63.221874Q93.28438 63.221874 92.55 62.7375Q91.83125 62.253124 91.425 61.39375Q91.03438 60.534374 91.03438 59.425Q91.03438 58.346874 91.39375 57.45625Q91.75313 56.565624 92.47188 56.096874Q93.20625 55.628124 94.09688 55.628124Q94.75313 55.628124 95.26875 55.909374Q95.78438 56.175 96.09688 56.628124L96.09688 53.034374L97.33125 53.034374L97.33125 63.05L96.19063 63.05ZM92.3 59.425Q92.3 60.815624 92.87813 61.51875Q93.47188 62.20625 94.26875 62.20625Q95.08125 62.20625 95.64375 61.55Q96.20625 60.878124 96.20625 59.534374Q96.20625 58.034374 95.62813 57.346874Q95.05 56.64375 94.22188 56.64375Q93.39375 56.64375 92.84688 57.315624Q92.3 57.9875 92.3 59.425ZM104.20625 62.159374Q103.53438 62.7375 102.89375 62.9875Q102.26875 63.221874 101.53438 63.221874Q100.34688 63.221874 99.69063 62.64375Q99.05 62.05 99.05 61.128124Q99.05 60.596874 99.28438 60.159374Q99.53438 59.721874 99.925 59.45625Q100.33125 59.190624 100.81563 59.05Q101.175 58.95625 101.90938 58.8625Q103.40938 58.690624 104.1125 58.440624Q104.1125 58.190624 104.1125 58.128124Q104.1125 57.3625 103.76875 57.065624Q103.3 56.64375 102.3625 56.64375Q101.50313 56.64375 101.08125 56.95625Q100.675 57.253124 100.47188 58.01875L99.26875 57.8625Q99.425 57.08125 99.8 56.6125Q100.19063 56.14375 100.89375 55.89375Q101.6125 55.628124 102.55 55.628124Q103.47188 55.628124 104.05 55.846874Q104.62813 56.065624 104.89375 56.39375Q105.175 56.721874 105.28438 57.2375Q105.34688 57.55 105.34688 58.3625L105.34688 60.003124Q105.34688 61.721874 105.425 62.175Q105.50313 62.628124 105.7375 63.05L104.45625 63.05Q104.26875 62.659374 104.20625 62.159374ZM104.1125 59.409374Q103.44063 59.675 102.09688 59.878124Q101.34688 59.9875 101.01875 60.128124Q100.70625 60.253124 100.53438 60.51875Q100.3625 60.784374 100.3625 61.096874Q100.3625 61.596874 100.7375 61.925Q101.1125 62.253124 101.83125 62.253124Q102.55 62.253124 103.09688 61.940624Q103.64375 61.628124 103.90938 61.08125Q104.1125 60.675 104.1125 59.8625L104.1125 59.409374ZM110.15938 61.95625L110.33125 63.034374Q109.81563 63.14375 109.40938 63.14375Q108.7375 63.14375 108.3625 62.940624Q108.00313 62.721874 107.84688 62.378124Q107.70625 62.034374 107.70625 60.925L107.70625 56.753124L106.8 56.753124L106.8 55.784374L107.70625 55.784374L107.70625 53.9875L108.925 53.253124L108.925 55.784374L110.15938 55.784374L110.15938 56.753124L108.925 56.753124L108.925 60.9875Q108.925 61.51875 108.9875 61.675Q109.05 61.815624 109.19063 61.909374Q109.34688 62.003124 109.6125 62.003124Q109.83125 62.003124 110.15938 61.95625ZM116.44063 60.70625L117.72188 60.8625Q117.40938 61.9875 116.59688 62.6125Q115.78438 63.221874 114.51875 63.221874Q112.925 63.221874 111.9875 62.2375Q111.06563 61.253124 111.06563 59.4875Q111.06563 57.64375 112.00313 56.64375Q112.95625 55.628124 114.45625 55.628124Q115.90938 55.628124 116.83125 56.628124Q117.75313 57.6125 117.75313 59.409374Q117.75313 59.51875 117.75313 59.7375L112.33125 59.7375Q112.40938 60.925 113.00313 61.565624Q113.6125 62.20625 114.53438 62.20625Q115.20625 62.20625 115.675 61.846874Q116.15938 61.4875 116.44063 60.70625ZM112.40938 58.721874L116.45625 58.721874Q116.37813 57.8 115.9875 57.346874Q115.40938 56.64375 114.47188 56.64375Q113.6125 56.64375 113.03438 57.20625Q112.47188 57.76875 112.40938 58.721874ZM123.47188 65.83125L123.47188 55.784374L124.59688 55.784374L124.59688 56.7375Q124.9875 56.175 125.4875 55.909374Q125.9875 55.628124 126.70625 55.628124Q127.62813 55.628124 128.33125 56.1125Q129.05 56.58125 129.40938 57.45625Q129.76875 58.33125 129.76875 59.3625Q129.76875 60.471874 129.3625 61.378124Q128.97188 62.26875 128.20625 62.753124Q127.45625 63.221874 126.6125 63.221874Q126.00313 63.221874 125.50313 62.95625Q125.01875 62.690624 124.70625 62.3L124.70625 65.83125L123.47188 65.83125ZM124.58125 59.45625Q124.58125 60.8625 125.14375 61.534374Q125.72188 62.20625 126.53438 62.20625Q127.34688 62.20625 127.925 61.51875Q128.51875 60.815624 128.51875 59.3625Q128.51875 57.971874 127.94063 57.284374Q127.37813 56.596874 126.58125 56.596874Q125.8 56.596874 125.19063 57.33125Q124.58125 58.065624 124.58125 59.45625ZM136.20625 62.159374Q135.53438 62.7375 134.89375 62.9875Q134.26875 63.221874 133.53438 63.221874Q132.34688 63.221874 131.69063 62.64375Q131.05 62.05 131.05 61.128124Q131.05 60.596874 131.28438 60.159374Q131.53438 59.721874 131.925 59.45625Q132.33125 59.190624 132.81563 59.05Q133.175 58.95625 133.90938 58.8625Q135.40938 58.690624 136.1125 58.440624Q136.1125 58.190624 136.1125 58.128124Q136.1125 57.3625 135.76875 57.065624Q135.3 56.64375 134.3625 56.64375Q133.50313 56.64375 133.08125 56.95625Q132.675 57.253124 132.47188 58.01875L131.26875 57.8625Q131.425 57.08125 131.8 56.6125Q132.19063 56.14375 132.89375 55.89375Q133.6125 55.628124 134.55 55.628124Q135.47188 55.628124 136.05 55.846874Q136.62813 56.065624 136.89375 56.39375Q137.175 56.721874 137.28438 57.2375Q137.34688 57.55 137.34688 58.3625L137.34688 60.003124Q137.34688 61.721874 137.425 62.175Q137.50313 62.628124 137.7375 63.05L136.45625 63.05Q136.26875 62.659374 136.20625 62.159374ZM136.1125 59.409374Q135.44063 59.675 134.09688 59.878124Q133.34688 59.9875 133.01875 60.128124Q132.70625 60.253124 132.53438 60.51875Q132.3625 60.784374 132.3625 61.096874Q132.3625 61.596874 132.7375 61.925Q133.1125 62.253124 133.83125 62.253124Q134.55 62.253124 135.09688 61.940624Q135.64375 61.628124 135.90938 61.08125Q136.1125 60.675 136.1125 59.8625L136.1125 59.409374ZM138.9875 60.878124L140.19063 60.690624Q140.3 61.425 140.76875 61.815624Q141.2375 62.20625 142.08125 62.20625Q142.925 62.20625 143.33125 61.8625Q143.75313 61.51875 143.75313 61.05Q143.75313 60.628124 143.37813 60.39375Q143.12813 60.221874 142.12813 59.971874Q140.76875 59.628124 140.2375 59.378124Q139.72188 59.128124 139.45625 58.690624Q139.19063 58.253124 139.19063 57.721874Q139.19063 57.2375 139.40938 56.83125Q139.62813 56.409374 140.01875 56.128124Q140.3 55.925 140.78438 55.784374Q141.28438 55.628124 141.8625 55.628124Q142.70625 55.628124 143.34688 55.878124Q144.00313 56.1125 144.31563 56.534374Q144.62813 56.95625 144.7375 57.659374L143.53438 57.83125Q143.45625 57.26875 143.05 56.95625Q142.65938 56.64375 141.94063 56.64375Q141.09688 56.64375 140.7375 56.925Q140.37813 57.190624 140.37813 57.58125Q140.37813 57.815624 140.51875 58.003124Q140.675 58.20625 141.00313 58.33125Q141.175 58.39375 142.08125 58.64375Q143.39375 59.003124 143.90938 59.221874Q144.425 59.440624 144.70625 59.8625Q145.00313 60.284374 145.00313 60.909374Q145.00313 61.534374 144.64375 62.08125Q144.3 62.6125 143.6125 62.925Q142.94063 63.221874 142.08125 63.221874Q140.675 63.221874 139.925 62.628124Q139.19063 62.034374 138.9875 60.878124ZM145.9875 60.878124L147.19063 60.690624Q147.3 61.425 147.76875 61.815624Q148.2375 62.20625 149.08125 62.20625Q149.925 62.20625 150.33125 61.8625Q150.75313 61.51875 150.75313 61.05Q150.75313 60.628124 150.37813 60.39375Q150.12813 60.221874 149.12813 59.971874Q147.76875 59.628124 147.2375 59.378124Q146.72188 59.128124 146.45625 58.690624Q146.19063 58.253124 146.19063 57.721874Q146.19063 57.2375 146.40938 56.83125Q146.62813 56.409374 147.01875 56.128124Q147.3 55.925 147.78438 55.784374Q148.28438 55.628124 148.8625 55.628124Q149.70625 55.628124 150.34688 55.878124Q151.00313 56.1125 151.31563 56.534374Q151.62813 56.95625 151.7375 57.659374L150.53438 57.83125Q150.45625 57.26875 150.05 56.95625Q149.65938 56.64375 148.94063 56.64375Q148.09688 56.64375 147.7375 56.925Q147.37813 57.190624 147.37813 57.58125Q147.37813 57.815624 147.51875 58.003124Q147.675 58.20625 148.00313 58.33125Q148.175 58.39375 149.08125 58.64375Q150.39375 59.003124 150.90938 59.221874Q151.425 59.440624 151.70625 59.8625Q152.00313 60.284374 152.00313 60.909374Q152.00313 61.534374 151.64375 62.08125Q151.3 62.6125 150.6125 62.925Q149.94063 63.221874 149.08125 63.221874Q147.675 63.221874 146.925 62.628124Q146.19063 62.034374 145.9875 60.878124ZM153.4875 54.440624L153.4875 53.034374L154.70625 53.034374L154.70625 54.440624L153.4875 54.440624ZM153.4875 63.05L153.4875 55.784374L154.70625 55.784374L154.70625 63.05L153.4875 63.05ZM156.47188 63.05L156.47188 55.784374L157.58125 55.784374L157.58125 56.815624Q158.37813 55.628124 159.89375 55.628124Q160.55 55.628124 161.09688 55.8625Q161.64375 56.096874 161.90938 56.4875Q162.19063 56.8625 162.3 57.39375Q162.37813 57.7375 162.37813 58.58125L162.37813 63.05L161.14375 63.05L161.14375 58.628124Q161.14375 57.878124 161.00313 57.51875Q160.8625 57.14375 160.4875 56.925Q160.12813 56.690624 159.62813 56.690624Q158.84688 56.690624 158.26875 57.190624Q157.70625 57.690624 157.70625 59.08125L157.70625 63.05L156.47188 63.05ZM164.25313 63.659374L165.44063 63.83125Q165.51875 64.37813 165.8625 64.64375Q166.31563 64.97188 167.1125 64.97188Q167.97188 64.97188 168.425 64.62813Q168.89375 64.3 169.06563 63.675Q169.15938 63.3 169.14375 62.096874Q168.34688 63.05 167.14375 63.05Q165.64375 63.05 164.81563 61.971874Q164.00313 60.89375 164.00313 59.378124Q164.00313 58.346874 164.37813 57.471874Q164.75313 56.58125 165.45625 56.1125Q166.175 55.628124 167.14375 55.628124Q168.425 55.628124 169.26875 56.659374L169.26875 55.784374L170.39375 55.784374L170.39375 62.065624Q170.39375 63.76875 170.05 64.47188Q169.70625 65.175 168.95625 65.58125Q168.20625 66.00313 167.1125 66.00313Q165.81563 66.00313 165.01875 65.40938Q164.22188 64.83125 164.25313 63.659374ZM165.26875 59.284374Q165.26875 60.721874 165.83125 61.378124Q166.39375 62.034374 167.25313 62.034374Q168.09688 62.034374 168.675 61.378124Q169.25313 60.721874 169.25313 59.33125Q169.25313 58.003124 168.65938 57.33125Q168.06563 56.64375 167.2375 56.64375Q166.40938 56.64375 165.83125 57.315624Q165.26875 57.971874 165.26875 59.284374ZM179.15938 61.95625L179.33125 63.034374Q178.81563 63.14375 178.40938 63.14375Q177.7375 63.14375 177.3625 62.940624Q177.00313 62.721874 176.84688 62.378124Q176.70625 62.034374 176.70625 60.925L176.70625 56.753124L175.8 56.753124L175.8 55.784374L176.70625 55.784374L176.70625 53.9875L177.925 53.253124L177.925 55.784374L179.15938 55.784374L179.15938 56.753124L177.925 56.753124L177.925 60.9875Q177.925 61.51875 177.9875 61.675Q178.05 61.815624 178.19063 61.909374Q178.34688 62.003124 178.6125 62.003124Q178.83125 62.003124 179.15938 61.95625ZM185.44063 60.70625L186.72188 60.8625Q186.40938 61.9875 185.59688 62.6125Q184.78438 63.221874 183.51875 63.221874Q181.925 63.221874 180.9875 62.2375Q180.06563 61.253124 180.06563 59.4875Q180.06563 57.64375 181.00313 56.64375Q181.95625 55.628124 183.45625 55.628124Q184.90938 55.628124 185.83125 56.628124Q186.75313 57.6125 186.75313 59.409374Q186.75313 59.51875 186.75313 59.7375L181.33125 59.7375Q181.40938 60.925 182.00313 61.565624Q182.6125 62.20625 183.53438 62.20625Q184.20625 62.20625 184.675 61.846874Q185.15938 61.4875 185.44063 60.70625ZM181.40938 58.721874L185.45625 58.721874Q185.37813 57.8 184.9875 57.346874Q184.40938 56.64375 183.47188 56.64375Q182.6125 56.64375 182.03438 57.20625Q181.47188 57.76875 181.40938 58.721874ZM187.9875 60.878124L189.19063 60.690624Q189.3 61.425 189.76875 61.815624Q190.2375 62.20625 191.08125 62.20625Q191.925 62.20625 192.33125 61.8625Q192.75313 61.51875 192.75313 61.05Q192.75313 60.628124 192.37813 60.39375Q192.12813 60.221874 191.12813 59.971874Q189.76875 59.628124 189.2375 59.378124Q188.72188 59.128124 188.45625 58.690624Q188.19063 58.253124 188.19063 57.721874Q188.19063 57.2375 188.40938 56.83125Q188.62813 56.409374 189.01875 56.128124Q189.3 55.925 189.78438 55.784374Q190.28438 55.628124 190.8625 55.628124Q191.70625 55.628124 192.34688 55.878124Q193.00313 56.1125 193.31563 56.534374Q193.62813 56.95625 193.7375 57.659374L192.53438 57.83125Q192.45625 57.26875 192.05 56.95625Q191.65938 56.64375 190.94063 56.64375Q190.09688 56.64375 189.7375 56.925Q189.37813 57.190624 189.37813 57.58125Q189.37813 57.815624 189.51875 58.003124Q189.675 58.20625 190.00313 58.33125Q190.175 58.39375 191.08125 58.64375Q192.39375 59.003124 192.90938 59.221874Q193.425 59.440624 193.70625 59.8625Q194.00313 60.284374 194.00313 60.909374Q194.00313 61.534374 193.64375 62.08125Q193.3 62.6125 192.6125 62.925Q191.94063 63.221874 191.08125 63.221874Q189.675 63.221874 188.925 62.628124Q188.19063 62.034374 187.9875 60.878124ZM198.15938 61.95625L198.33125 63.034374Q197.81563 63.14375 197.40938 63.14375Q196.7375 63.14375 196.3625 62.940624Q196.00313 62.721874 195.84688 62.378124Q195.70625 62.034374 195.70625 60.925L195.70625 56.753124L194.8 56.753124L194.8 55.784374L195.70625 55.784374L195.70625 53.9875L196.925 53.253124L196.925 55.784374L198.15938 55.784374L198.15938 56.753124L196.925 56.753124L196.925 60.9875Q196.925 61.51875 196.9875 61.675Q197.05 61.815624 197.19063 61.909374Q197.34688 62.003124 197.6125 62.003124Q197.83125 62.003124 198.15938 61.95625ZM208.20625 60.39375L209.425 60.55Q209.22188 61.8 208.39375 62.51875Q207.58125 63.221874 206.39375 63.221874Q204.90938 63.221874 204.00313 62.253124Q203.09688 61.26875 203.09688 59.440624Q203.09688 58.26875 203.4875 57.39375Q203.87813 56.503124 204.675 56.065624Q205.47188 55.628124 206.40938 55.628124Q207.58125 55.628124 208.33125 56.221874Q209.09688 56.815624 209.3 57.925L208.1125 58.1125Q207.94063 57.378124 207.50313 57.01875Q207.06563 56.64375 206.45625 56.64375Q205.51875 56.64375 204.94063 57.315624Q204.3625 57.971874 204.3625 59.409374Q204.3625 60.878124 204.925 61.55Q205.4875 62.20625 206.37813 62.20625Q207.1125 62.20625 207.59688 61.76875Q208.08125 61.315624 208.20625 60.39375ZM215.20625 62.159374Q214.53438 62.7375 213.89375 62.9875Q213.26875 63.221874 212.53438 63.221874Q211.34688 63.221874 210.69063 62.64375Q210.05 62.05 210.05 61.128124Q210.05 60.596874 210.28438 60.159374Q210.53438 59.721874 210.925 59.45625Q211.33125 59.190624 211.81563 59.05Q212.175 58.95625 212.90938 58.8625Q214.40938 58.690624 215.1125 58.440624Q215.1125 58.190624 215.1125 58.128124Q215.1125 57.3625 214.76875 57.065624Q214.3 56.64375 213.3625 56.64375Q212.50313 56.64375 212.08125 56.95625Q211.675 57.253124 211.47188 58.01875L210.26875 57.8625Q210.425 57.08125 210.8 56.6125Q211.19063 56.14375 211.89375 55.89375Q212.6125 55.628124 213.55 55.628124Q214.47188 55.628124 215.05 55.846874Q215.62813 56.065624 215.89375 56.39375Q216.175 56.721874 216.28438 57.2375Q216.34688 57.55 216.34688 58.3625L216.34688 60.003124Q216.34688 61.721874 216.425 62.175Q216.50313 62.628124 216.7375 63.05L215.45625 63.05Q215.26875 62.659374 215.20625 62.159374ZM215.1125 59.409374Q214.44063 59.675 213.09688 59.878124Q212.34688 59.9875 212.01875 60.128124Q211.70625 60.253124 211.53438 60.51875Q211.3625 60.784374 211.3625 61.096874Q211.3625 61.596874 211.7375 61.925Q212.1125 62.253124 212.83125 62.253124Q213.55 62.253124 214.09688 61.940624Q214.64375 61.628124 214.90938 61.08125Q215.1125 60.675 215.1125 59.8625L215.1125 59.409374ZM217.9875 60.878124L219.19063 60.690624Q219.3 61.425 219.76875 61.815624Q220.2375 62.20625 221.08125 62.20625Q221.925 62.20625 222.33125 61.8625Q222.75313 61.51875 222.75313 61.05Q222.75313 60.628124 222.37813 60.39375Q222.12813 60.221874 221.12813 59.971874Q219.76875 59.628124 219.2375 59.378124Q218.72188 59.128124 218.45625 58.690624Q218.19063 58.253124 218.19063 57.721874Q218.19063 57.2375 218.40938 56.83125Q218.62813 56.409374 219.01875 56.128124Q219.3 55.925 219.78438 55.784374Q220.28438 55.628124 220.8625 55.628124Q221.70625 55.628124 222.34688 55.878124Q223.00313 56.1125 223.31563 56.534374Q223.62813 56.95625 223.7375 57.659374L222.53438 57.83125Q222.45625 57.26875 222.05 56.95625Q221.65938 56.64375 220.94063 56.64375Q220.09688 56.64375 219.7375 56.925Q219.37813 57.190624 219.37813 57.58125Q219.37813 57.815624 219.51875 58.003124Q219.675 58.20625 220.00313 58.33125Q220.175 58.39375 221.08125 58.64375Q222.39375 59.003124 222.90938 59.221874Q223.425 59.440624 223.70625 59.8625Q224.00313 60.284374 224.00313 60.909374Q224.00313 61.534374 223.64375 62.08125Q223.3 62.6125 222.6125 62.925Q221.94063 63.221874 221.08125 63.221874Q219.675 63.221874 218.925 62.628124Q218.19063 62.034374 217.9875 60.878124ZM230.44063 60.70625L231.72188 60.8625Q231.40938 61.9875 230.59688 62.6125Q229.78438 63.221874 228.51875 63.221874Q226.925 63.221874 225.9875 62.2375Q225.06563 61.253124 225.06563 59.4875Q225.06563 57.64375 226.00313 56.64375Q226.95625 55.628124 228.45625 55.628124Q229.90938 55.628124 230.83125 56.628124Q231.75313 57.6125 231.75313 59.409374Q231.75313 59.51875 231.75313 59.7375L226.33125 59.7375Q226.40938 60.925 227.00313 61.565624Q227.6125 62.20625 228.53438 62.20625Q229.20625 62.20625 229.675 61.846874Q230.15938 61.4875 230.44063 60.70625ZM226.40938 58.721874L230.45625 58.721874Q230.37813 57.8 229.9875 57.346874Q229.40938 56.64375 228.47188 56.64375Q227.6125 56.64375 227.03438 57.20625Q226.47188 57.76875 226.40938 58.721874ZM232.9875 60.878124L234.19063 60.690624Q234.3 61.425 234.76875 61.815624Q235.2375 62.20625 236.08125 62.20625Q236.925 62.20625 237.33125 61.8625Q237.75313 61.51875 237.75313 61.05Q237.75313 60.628124 237.37813 60.39375Q237.12813 60.221874 236.12813 59.971874Q234.76875 59.628124 234.2375 59.378124Q233.72188 59.128124 233.45625 58.690624Q233.19063 58.253124 233.19063 57.721874Q233.19063 57.2375 233.40938 56.83125Q233.62813 56.409374 234.01875 56.128124Q234.3 55.925 234.78438 55.784374Q235.28438 55.628124 235.8625 55.628124Q236.70625 55.628124 237.34688 55.878124Q238.00313 56.1125 238.31563 56.534374Q238.62813 56.95625 238.7375 57.659374L237.53438 57.83125Q237.45625 57.26875 237.05 56.95625Q236.65938 56.64375 235.94063 56.64375Q235.09688 56.64375 234.7375 56.925Q234.37813 57.190624 234.37813 57.58125Q234.37813 57.815624 234.51875 58.003124Q234.675 58.20625 235.00313 58.33125Q235.175 58.39375 236.08125 58.64375Q237.39375 59.003124 237.90938 59.221874Q238.425 59.440624 238.70625 59.8625Q239.00313 60.284374 239.00313 60.909374Q239.00313 61.534374 238.64375 62.08125Q238.3 62.6125 237.6125 62.925Q236.94063 63.221874 236.08125 63.221874Q234.675 63.221874 233.925 62.628124Q233.19063 62.034374 232.9875 60.878124Z" fill-rule="nonzero"/><path fill="#757575" d="M20.096874 37.55L20.096874 23.2375L25.01875 23.2375Q26.690624 23.2375 27.58125 23.440624Q28.8 23.721874 29.675 24.45625Q30.8 25.425 31.3625 26.909374Q31.925 28.39375 31.925 30.315624Q31.925 31.940624 31.55 33.20625Q31.175 34.45625 30.565624 35.284374Q29.971874 36.1125 29.26875 36.596874Q28.565624 37.065624 27.565624 37.315624Q26.565624 37.55 25.253124 37.55L20.096874 37.55ZM21.9875 35.8625L25.05 35.8625Q26.45625 35.8625 27.253124 35.596874Q28.065624 35.33125 28.55 34.846874Q29.221874 34.175 29.596874 33.05Q29.971874 31.909374 29.971874 30.284374Q29.971874 28.034374 29.2375 26.83125Q28.503124 25.628124 27.440624 25.221874Q26.690624 24.925 25.003124 24.925L21.9875 24.925L21.9875 35.8625ZM33.846874 37.55L33.846874 27.175L35.425 27.175L35.425 28.753124Q36.034374 27.64375 36.55 27.3Q37.065624 26.940624 37.675 26.940624Q38.565624 26.940624 39.4875 27.503124L38.878124 29.14375Q38.2375 28.753124 37.596874 28.753124Q37.01875 28.753124 36.55 29.1125Q36.096874 29.45625 35.89375 30.065624Q35.6125 31.003124 35.6125 32.1125L35.6125 37.55L33.846874 37.55ZM47.64375 36.26875Q46.659374 37.096874 45.753124 37.440624Q44.846874 37.784374 43.815624 37.784374Q42.1125 37.784374 41.190624 36.95625Q40.26875 36.1125 40.26875 34.815624Q40.26875 34.05 40.6125 33.425Q40.971874 32.8 41.534374 32.425Q42.096874 32.034374 42.8 31.83125Q43.315624 31.70625 44.3625 31.565624Q46.4875 31.315624 47.4875 30.971874Q47.503124 30.6125 47.503124 30.503124Q47.503124 29.440624 47.003124 28.9875Q46.33125 28.39375 45.003124 28.39375Q43.753124 28.39375 43.159374 28.83125Q42.58125 29.26875 42.3 30.378124L40.58125 30.14375Q40.815624 29.034374 41.346874 28.3625Q41.878124 27.675 42.89375 27.315624Q43.909374 26.940624 45.253124 26.940624Q46.58125 26.940624 47.409374 27.253124Q48.2375 27.565624 48.628124 28.05Q49.01875 28.51875 49.175 29.2375Q49.26875 29.690624 49.26875 30.8625L49.26875 33.20625Q49.26875 35.659374 49.378124 36.315624Q49.4875 36.95625 49.83125 37.55L47.9875 37.55Q47.721874 37.003124 47.64375 36.26875ZM47.4875 32.346874Q46.534374 32.7375 44.6125 33.003124Q43.534374 33.159374 43.08125 33.3625Q42.64375 33.55 42.39375 33.925Q42.14375 34.3 42.14375 34.76875Q42.14375 35.471874 42.675 35.940624Q43.20625 36.409374 44.2375 36.409374Q45.253124 36.409374 46.034374 35.971874Q46.83125 35.51875 47.20625 34.753124Q47.4875 34.14375 47.4875 32.9875L47.4875 32.346874ZM52.284374 37.55L52.284374 28.55L50.7375 28.55L50.7375 27.175L52.284374 27.175L52.284374 26.08125Q52.284374 25.034374 52.471874 24.51875Q52.721874 23.83125 53.3625 23.409374Q54.003124 22.9875 55.159374 22.9875Q55.909374 22.9875 56.8 23.159374L56.534374 24.690624Q55.9875 24.596874 55.503124 24.596874Q54.70625 24.596874 54.3625 24.940624Q54.034374 25.284374 54.034374 26.221874L54.034374 27.175L56.065624 27.175L56.065624 28.55L54.034374 28.55L54.034374 37.55L52.284374 37.55ZM61.70625 35.971874L61.95625 37.534374Q61.221874 37.690624 60.628124 37.690624Q59.675 37.690624 59.14375 37.39375Q58.628124 37.08125 58.409374 36.596874Q58.190624 36.096874 58.190624 34.51875L58.190624 28.55L56.909374 28.55L56.909374 27.175L58.190624 27.175L58.190624 24.6125L59.940624 23.55L59.940624 27.175L61.70625 27.175L61.70625 28.55L59.940624 28.55L59.940624 34.6125Q59.940624 35.3625 60.034374 35.58125Q60.128124 35.784374 60.33125 35.925Q60.55 36.05 60.940624 36.05Q61.221874 36.05 61.70625 35.971874ZM78.6125 35.8625L78.6125 37.55L69.15938 37.55Q69.14375 36.909374 69.3625 36.33125Q69.72188 35.3625 70.51875 34.425Q71.31563 33.4875 72.81563 32.253124Q75.15938 30.346874 75.97188 29.2375Q76.8 28.1125 76.8 27.1125Q76.8 26.065624 76.05 25.346874Q75.3 24.628124 74.09688 24.628124Q72.83125 24.628124 72.06563 25.39375Q71.3 26.159374 71.3 27.503124L69.4875 27.315624Q69.675 25.3 70.87813 24.2375Q72.09688 23.175 74.14375 23.175Q76.19063 23.175 77.39375 24.315624Q78.59688 25.45625 78.59688 27.14375Q78.59688 28.003124 78.2375 28.846874Q77.89375 29.675 77.08125 30.596874Q76.26875 31.503124 74.37813 33.1125Q72.78438 34.440624 72.33125 34.909374Q71.89375 35.378124 71.59688 35.8625L78.6125 35.8625ZM80.37813 30.4875Q80.37813 27.95625 80.89375 26.409374Q81.425 24.846874 82.45625 24.01875Q83.4875 23.175 85.05 23.175Q86.20625 23.175 87.06563 23.64375Q87.94063 24.096874 88.50313 24.971874Q89.06563 25.846874 89.39375 27.1125Q89.72188 28.3625 89.72188 30.4875Q89.72188 33.003124 89.19063 34.55Q88.675 36.096874 87.64375 36.95625Q86.62813 37.8 85.05 37.8Q82.97188 37.8 81.8 36.315624Q80.37813 34.51875 80.37813 30.4875ZM82.19063 30.4875Q82.19063 34.01875 83.00313 35.190624Q83.83125 36.346874 85.05 36.346874Q86.25313 36.346874 87.08125 35.175Q87.90938 34.003124 87.90938 30.4875Q87.90938 26.95625 87.08125 25.8Q86.25313 24.628124 85.03438 24.628124Q83.81563 24.628124 83.09688 25.659374Q82.19063 26.95625 82.19063 30.4875ZM100.6125 35.8625L100.6125 37.55L91.15938 37.55Q91.14375 36.909374 91.3625 36.33125Q91.72188 35.3625 92.51875 34.425Q93.31563 33.4875 94.81563 32.253124Q97.15938 30.346874 97.97188 29.2375Q98.8 28.1125 98.8 27.1125Q98.8 26.065624 98.05 25.346874Q97.3 24.628124 96.09688 24.628124Q94.83125 24.628124 94.06563 25.39375Q93.3 26.159374 93.3 27.503124L91.4875 27.315624Q91.675 25.3 92.87813 24.2375Q94.09688 23.175 96.14375 23.175Q98.19063 23.175 99.39375 24.315624Q100.59688 25.45625 100.59688 27.14375Q100.59688 28.003124 100.2375 28.846874Q99.89375 29.675 99.08125 30.596874Q98.26875 31.503124 96.37813 33.1125Q94.78438 34.440624 94.33125 34.909374Q93.89375 35.378124 93.59688 35.8625L100.6125 35.8625ZM102.37813 30.4875Q102.37813 27.95625 102.89375 26.409374Q103.425 24.846874 104.45625 24.01875Q105.4875 23.175 107.05 23.175Q108.20625 23.175 109.06563 23.64375Q109.94063 24.096874 110.50313 24.971874Q111.06563 25.846874 111.39375 27.1125Q111.72188 28.3625 111.72188 30.4875Q111.72188 33.003124 111.19063 34.55Q110.675 36.096874 109.64375 36.95625Q108.62813 37.8 107.05 37.8Q104.97188 37.8 103.8 36.315624Q102.37813 34.51875 102.37813 30.4875ZM104.19063 30.4875Q104.19063 34.01875 105.00313 35.190624Q105.83125 36.346874 107.05 36.346874Q108.25313 36.346874 109.08125 35.175Q109.90938 34.003124 109.90938 30.4875Q109.90938 26.95625 109.08125 25.8Q108.25313 24.628124 107.03438 24.628124Q105.81563 24.628124 105.09688 25.659374Q104.19063 26.95625 104.19063 30.4875ZM113.19063 33.253124L113.19063 31.4875L118.58125 31.4875L118.58125 33.253124L113.19063 33.253124ZM127.00313 37.55L125.2375 37.55L125.2375 26.346874Q124.6125 26.95625 123.58125 27.565624Q122.55 28.159374 121.72188 28.471874L121.72188 26.76875Q123.20625 26.08125 124.3 25.096874Q125.40938 24.096874 125.8625 23.175L127.00313 23.175L127.00313 37.55ZM140.6125 35.8625L140.6125 37.55L131.15938 37.55Q131.14375 36.909374 131.3625 36.33125Q131.72188 35.3625 132.51875 34.425Q133.31563 33.4875 134.81563 32.253124Q137.15938 30.346874 137.97188 29.2375Q138.8 28.1125 138.8 27.1125Q138.8 26.065624 138.05 25.346874Q137.3 24.628124 136.09688 24.628124Q134.83125 24.628124 134.06563 25.39375Q133.3 26.159374 133.3 27.503124L131.4875 27.315624Q131.675 25.3 132.87813 24.2375Q134.09688 23.175 136.14375 23.175Q138.19063 23.175 139.39375 24.315624Q140.59688 25.45625 140.59688 27.14375Q140.59688 28.003124 140.2375 28.846874Q139.89375 29.675 139.08125 30.596874Q138.26875 31.503124 136.37813 33.1125Q134.78438 34.440624 134.33125 34.909374Q133.89375 35.378124 133.59688 35.8625L140.6125 35.8625Z" fill-rule="nonzero"/></svg>