<svg version="1.1" viewBox="0.0 0.0 600.0 371.0" fill="none" stroke="none" stroke-linecap="square" stroke-miterlimit="10" width="600" height="371" xmlns:xlink="http://www.w3.org/1999/xlink" xmlns="http://www.w3.org/2000/svg"><path fill="#ffffff" d="M0 0L600.0 0L600.0 371.0L0 371.0L0 0Z" fill-rule="nonzero"/><path stroke="#333333" stroke-width="1.0" stroke-linecap="butt" d="M45.5 332.5L581.5 332.5" fill-rule="nonzero"/><path stroke="#cccccc" stroke-width="1.0" stroke-linecap="butt" d="M45.5 250.5L581.5 250.5" fill-rule="nonzero"/><path stroke="#cccccc" stroke-width="1.0" stroke-linecap="butt" d="M45.5 167.5L581.5 167.5" fill-rule="nonzero"/><path stroke="#cccccc" stroke-width="1.0" stroke-linecap="butt" d="M45.5 85.5L581.5 85.5" fill-rule="nonzero"/><clipPath id="id_0"><path d="M45.55 85.416664L581.45 85.416664L581.45 332.45L45.55 332.45L45.55 85.416664Z" clip-rule="nonzero"/></clipPath><path stroke="#000000" stroke-width="2.0" stroke-linecap="butt" stroke-opacity="0.0" clip-path="url(#id_0)" d="M146.0 332.0L81.0 332.0L81.0 280.0C81.0 278.89542 81.89543 278.0 83.0 278.0L144.0 278.0C145.10457 278.0 146.0 278.89542 146.0 280.0Z" fill-rule="nonzero"/><path fill="#4285f4" clip-path="url(#id_0)" d="M146.0 332.0L81.0 332.0L81.0 280.0C81.0 278.89542 81.89543 278.0 83.0 278.0L144.0 278.0C145.10457 278.0 146.0 278.89542 146.0 280.0Z" fill-rule="nonzero"/><path stroke="#000000" stroke-width="2.0" stroke-linecap="butt" stroke-opacity="0.0" clip-path="url(#id_0)" d="M246.0 332.0L181.0 332.0L181.0 259.0C181.0 257.89542 181.89543 257.0 183.0 257.0L244.0 257.0C245.10457 257.0 246.0 257.89542 246.0 259.0Z" fill-rule="nonzero"/><path fill="#38761d" clip-path="url(#id_0)" d="M246.0 332.0L181.0 332.0L181.0 259.0C181.0 257.89542 181.89543 257.0 183.0 257.0L244.0 257.0C245.10457 257.0 246.0 257.89542 246.0 259.0Z" fill-rule="nonzero"/><path stroke="#000000" stroke-width="2.0" stroke-linecap="butt" stroke-opacity="0.0" clip-path="url(#id_0)" d="M347.0 332.0L282.0 332.0L282.0 248.0C282.0 246.89543 282.89542 246.0 284.0 246.0L345.0 246.0C346.10458 246.0 347.0 246.89543 347.0 248.0Z" fill-rule="nonzero"/><path fill="#351c75" clip-path="url(#id_0)" d="M347.0 332.0L282.0 332.0L282.0 248.0C282.0 246.89543 282.89542 246.0 284.0 246.0L345.0 246.0C346.10458 246.0 347.0 246.89543 347.0 248.0Z" fill-rule="nonzero"/><path stroke="#000000" stroke-width="2.0" stroke-linecap="butt" stroke-opacity="0.0" clip-path="url(#id_0)" d="M447.0 332.0L382.0 332.0L382.0 158.0C382.0 156.89543 382.89542 156.0 384.0 156.0L445.0 156.0C446.10458 156.0 447.0 156.89543 447.0 158.0Z" fill-rule="nonzero"/><path fill="#e69138" clip-path="url(#id_0)" d="M447.0 332.0L382.0 332.0L382.0 158.0C382.0 156.89543 382.89542 156.0 384.0 156.0L445.0 156.0C446.10458 156.0 447.0 156.89543 447.0 158.0Z" fill-rule="nonzero"/><path stroke="#000000" stroke-width="2.0" stroke-linecap="butt" stroke-opacity="0.0" clip-path="url(#id_0)" d="M547.0 332.0L482.0 332.0L482.0 123.0C482.0 121.89543 482.89542 121.0 484.0 121.0L545.0 121.0C546.10455 121.0 547.0 121.89543 547.0 123.0Z" fill-rule="nonzero"/><path fill="#cc0000" clip-path="url(#id_0)" d="M547.0 332.0L482.0 332.0L482.0 123.0C482.0 121.89543 482.89542 121.0 484.0 121.0L545.0 121.0C546.10455 121.0 547.0 121.89543 547.0 123.0Z" fill-rule="nonzero"/><path stroke="#4285f4" stroke-width="3.0" stroke-linejoin="round" stroke-linecap="round" d="M91.84375 293.8461Q91.84375 293.56485 92.0 293.37735Q92.171875 293.18985 92.5 293.18985Q92.84375 293.18985 93.015625 293.37735Q93.1875 293.56485 93.1875 293.8461Q93.1875 294.11172 93.015625 294.29922Q92.84375 294.4711 92.5 294.4711Q92.171875 294.4711 92.0 294.29922Q91.84375 294.11172 91.84375 293.8461ZM98.96875 285.87735L98.96875 286.7836L98.765625 286.7836Q97.5 286.81485 96.75 287.54922Q96.0 288.26797 95.875 289.58047Q96.5625 288.81485 97.71875 288.81485Q98.828125 288.81485 99.5 289.5961Q100.171875 290.37735 100.171875 291.62735Q100.171875 292.93985 99.453125 293.73672Q98.734375 294.5336 97.515625 294.5336Q96.296875 294.5336 95.53125 293.5961Q94.78125 292.64297 94.78125 291.1586L94.78125 290.75235Q94.78125 288.39297 95.78125 287.14297Q96.78125 285.89297 98.765625 285.87735L98.96875 285.87735ZM97.546875 289.7211Q96.984375 289.7211 96.515625 290.04922Q96.046875 290.37735 95.859375 290.89297L95.859375 291.2836Q95.859375 292.3461 96.328125 292.98672Q96.8125 293.62735 97.515625 293.62735Q98.25 293.62735 98.671875 293.0961Q99.09375 292.54922 99.09375 291.67422Q99.09375 290.79922 98.671875 290.26797Q98.25 289.7211 97.546875 289.7211ZM105.96875 285.87735L105.96875 286.7836L105.765625 286.7836Q104.5 286.81485 103.75 287.54922Q103.0 288.26797 102.875 289.58047Q103.5625 288.81485 104.71875 288.81485Q105.828125 288.81485 106.5 289.5961Q107.171875 290.37735 107.171875 291.62735Q107.171875 292.93985 106.453125 293.73672Q105.734375 294.5336 104.515625 294.5336Q103.296875 294.5336 102.53125 293.5961Q101.78125 292.64297 101.78125 291.1586L101.78125 290.75235Q101.78125 288.39297 102.78125 287.14297Q103.78125 285.89297 105.765625 285.87735L105.96875 285.87735ZM104.546875 289.7211Q103.984375 289.7211 103.515625 290.04922Q103.046875 290.37735 102.859375 290.89297L102.859375 291.2836Q102.859375 292.3461 103.328125 292.98672Q103.8125 293.62735 104.515625 293.62735Q105.25 293.62735 105.671875 293.0961Q106.09375 292.54922 106.09375 291.67422Q106.09375 290.79922 105.671875 290.26797Q105.25 289.7211 104.546875 289.7211ZM112.96875 285.87735L112.96875 286.7836L112.765625 286.7836Q111.5 286.81485 110.75 287.54922Q110.0 288.26797 109.875 289.58047Q110.5625 288.81485 111.71875 288.81485Q112.828125 288.81485 113.5 289.5961Q114.171875 290.37735 114.171875 291.62735Q114.171875 292.93985 113.453125 293.73672Q112.734375 294.5336 111.515625 294.5336Q110.296875 294.5336 109.53125 293.5961Q108.78125 292.64297 108.78125 291.1586L108.78125 290.75235Q108.78125 288.39297 109.78125 287.14297Q110.78125 285.89297 112.765625 285.87735L112.96875 285.87735ZM111.546875 289.7211Q110.984375 289.7211 110.515625 290.04922Q110.046875 290.37735 109.859375 290.89297L109.859375 291.2836Q109.859375 292.3461 110.328125 292.98672Q110.8125 293.62735 111.515625 293.62735Q112.25 293.62735 112.671875 293.0961Q113.09375 292.54922 113.09375 291.67422Q113.09375 290.79922 112.671875 290.26797Q112.25 289.7211 111.546875 289.7211ZM119.84375 288.06485L119.875 288.76797Q120.5625 287.95547 121.75 287.95547Q123.078125 287.95547 123.5625 288.9711Q123.875 288.51797 124.375 288.23672Q124.890625 287.95547 125.578125 287.95547Q127.671875 287.95547 127.703125 290.1586L127.703125 294.4086L126.625 294.4086L126.625 290.2211Q126.625 289.54922 126.3125 289.2211Q126.0 288.87735 125.265625 288.87735Q124.65625 288.87735 124.25 289.23672Q123.859375 289.5961 123.796875 290.20547L123.796875 294.4086L122.71875 294.4086L122.71875 290.25235Q122.71875 288.87735 121.359375 288.87735Q120.296875 288.87735 119.90625 289.7836L119.90625 294.4086L118.8125 294.4086L118.8125 288.06485L119.84375 288.06485ZM133.51562 292.7211Q133.51562 292.2836 133.17188 292.04922Q132.84375 291.79922 132.01562 291.62735Q131.20312 291.45547 130.71875 291.20547Q130.23438 290.95547 130.0 290.62735Q129.78125 290.2836 129.78125 289.81485Q129.78125 289.0336 130.4375 288.50235Q131.09375 287.95547 132.125 287.95547Q133.20312 287.95547 133.85938 288.51797Q134.53125 289.06485 134.53125 289.92422L133.45312 289.92422Q133.45312 289.48672 133.0625 289.17422Q132.6875 288.8461 132.125 288.8461Q131.53125 288.8461 131.1875 289.11172Q130.85938 289.36172 130.85938 289.76797Q130.85938 290.1586 131.17188 290.36172Q131.48438 290.56485 132.29688 290.75235Q133.10938 290.92422 133.60938 291.17422Q134.10938 291.42422 134.34375 291.7836Q134.59375 292.14297 134.59375 292.64297Q134.59375 293.50235 133.90625 294.01797Q133.23438 294.5336 132.15625 294.5336Q131.39062 294.5336 130.79688 294.26797Q130.21875 293.98672 129.89062 293.50235Q129.5625 293.01797 129.5625 292.45547L130.64062 292.45547Q130.67188 293.00235 131.07812 293.33047Q131.48438 293.64297 132.15625 293.64297Q132.76562 293.64297 133.14062 293.39297Q133.51562 293.14297 133.51562 292.7211Z" fill-rule="nonzero"/><path fill="#ffffff" d="M91.84375 293.8461Q91.84375 293.56485 92.0 293.37735Q92.171875 293.18985 92.5 293.18985Q92.84375 293.18985 93.015625 293.37735Q93.1875 293.56485 93.1875 293.8461Q93.1875 294.11172 93.015625 294.29922Q92.84375 294.4711 92.5 294.4711Q92.171875 294.4711 92.0 294.29922Q91.84375 294.11172 91.84375 293.8461ZM98.96875 285.87735L98.96875 286.7836L98.765625 286.7836Q97.5 286.81485 96.75 287.54922Q96.0 288.26797 95.875 289.58047Q96.5625 288.81485 97.71875 288.81485Q98.828125 288.81485 99.5 289.5961Q100.171875 290.37735 100.171875 291.62735Q100.171875 292.93985 99.453125 293.73672Q98.734375 294.5336 97.515625 294.5336Q96.296875 294.5336 95.53125 293.5961Q94.78125 292.64297 94.78125 291.1586L94.78125 290.75235Q94.78125 288.39297 95.78125 287.14297Q96.78125 285.89297 98.765625 285.87735L98.96875 285.87735ZM97.546875 289.7211Q96.984375 289.7211 96.515625 290.04922Q96.046875 290.37735 95.859375 290.89297L95.859375 291.2836Q95.859375 292.3461 96.328125 292.98672Q96.8125 293.62735 97.515625 293.62735Q98.25 293.62735 98.671875 293.0961Q99.09375 292.54922 99.09375 291.67422Q99.09375 290.79922 98.671875 290.26797Q98.25 289.7211 97.546875 289.7211ZM105.96875 285.87735L105.96875 286.7836L105.765625 286.7836Q104.5 286.81485 103.75 287.54922Q103.0 288.26797 102.875 289.58047Q103.5625 288.81485 104.71875 288.81485Q105.828125 288.81485 106.5 289.5961Q107.171875 290.37735 107.171875 291.62735Q107.171875 292.93985 106.453125 293.73672Q105.734375 294.5336 104.515625 294.5336Q103.296875 294.5336 102.53125 293.5961Q101.78125 292.64297 101.78125 291.1586L101.78125 290.75235Q101.78125 288.39297 102.78125 287.14297Q103.78125 285.89297 105.765625 285.87735L105.96875 285.87735ZM104.546875 289.7211Q103.984375 289.7211 103.515625 290.04922Q103.046875 290.37735 102.859375 290.89297L102.859375 291.2836Q102.859375 292.3461 103.328125 292.98672Q103.8125 293.62735 104.515625 293.62735Q105.25 293.62735 105.671875 293.0961Q106.09375 292.54922 106.09375 291.67422Q106.09375 290.79922 105.671875 290.26797Q105.25 289.7211 104.546875 289.7211ZM112.96875 285.87735L112.96875 286.7836L112.765625 286.7836Q111.5 286.81485 110.75 287.54922Q110.0 288.26797 109.875 289.58047Q110.5625 288.81485 111.71875 288.81485Q112.828125 288.81485 113.5 289.5961Q114.171875 290.37735 114.171875 291.62735Q114.171875 292.93985 113.453125 293.73672Q112.734375 294.5336 111.515625 294.5336Q110.296875 294.5336 109.53125 293.5961Q108.78125 292.64297 108.78125 291.1586L108.78125 290.75235Q108.78125 288.39297 109.78125 287.14297Q110.78125 285.89297 112.765625 285.87735L112.96875 285.87735ZM111.546875 289.7211Q110.984375 289.7211 110.515625 290.04922Q110.046875 290.37735 109.859375 290.89297L109.859375 291.2836Q109.859375 292.3461 110.328125 292.98672Q110.8125 293.62735 111.515625 293.62735Q112.25 293.62735 112.671875 293.0961Q113.09375 292.54922 113.09375 291.67422Q113.09375 290.79922 112.671875 290.26797Q112.25 289.7211 111.546875 289.7211ZM119.84375 288.06485L119.875 288.76797Q120.5625 287.95547 121.75 287.95547Q123.078125 287.95547 123.5625 288.9711Q123.875 288.51797 124.375 288.23672Q124.890625 287.95547 125.578125 287.95547Q127.671875 287.95547 127.703125 290.1586L127.703125 294.4086L126.625 294.4086L126.625 290.2211Q126.625 289.54922 126.3125 289.2211Q126.0 288.87735 125.265625 288.87735Q124.65625 288.87735 124.25 289.23672Q123.859375 289.5961 123.796875 290.20547L123.796875 294.4086L122.71875 294.4086L122.71875 290.25235Q122.71875 288.87735 121.359375 288.87735Q120.296875 288.87735 119.90625 289.7836L119.90625 294.4086L118.8125 294.4086L118.8125 288.06485L119.84375 288.06485ZM133.51562 292.7211Q133.51562 292.2836 133.17188 292.04922Q132.84375 291.79922 132.01562 291.62735Q131.20312 291.45547 130.71875 291.20547Q130.23438 290.95547 130.0 290.62735Q129.78125 290.2836 129.78125 289.81485Q129.78125 289.0336 130.4375 288.50235Q131.09375 287.95547 132.125 287.95547Q133.20312 287.95547 133.85938 288.51797Q134.53125 289.06485 134.53125 289.92422L133.45312 289.92422Q133.45312 289.48672 133.0625 289.17422Q132.6875 288.8461 132.125 288.8461Q131.53125 288.8461 131.1875 289.11172Q130.85938 289.36172 130.85938 289.76797Q130.85938 290.1586 131.17188 290.36172Q131.48438 290.56485 132.29688 290.75235Q133.10938 290.92422 133.60938 291.17422Q134.10938 291.42422 134.34375 291.7836Q134.59375 292.14297 134.59375 292.64297Q134.59375 293.50235 133.90625 294.01797Q133.23438 294.5336 132.15625 294.5336Q131.39062 294.5336 130.79688 294.26797Q130.21875 293.98672 129.89062 293.50235Q129.5625 293.01797 129.5625 292.45547L130.64062 292.45547Q130.67188 293.00235 131.07812 293.33047Q131.48438 293.64297 132.15625 293.64297Q132.76562 293.64297 133.14062 293.39297Q133.51562 293.14297 133.51562 292.7211Z" fill-rule="nonzero"/><path stroke="#38761d" stroke-width="3.0" stroke-linejoin="round" stroke-linecap="round" d="M191.84375 273.0953Q191.84375 272.81406 192.0 272.62656Q192.17188 272.43906 192.5 272.43906Q192.84375 272.43906 193.01562 272.62656Q193.1875 272.81406 193.1875 273.0953Q193.1875 273.36093 193.01562 273.54843Q192.84375 273.7203 192.5 273.7203Q192.17188 273.7203 192.0 273.54843Q191.84375 273.36093 191.84375 273.0953ZM198.85938 269.9078Q198.53125 270.31406 198.04688 270.56406Q197.57812 270.79843 197.01562 270.79843Q196.28125 270.79843 195.73438 270.43906Q195.1875 270.07968 194.89062 269.42343Q194.59375 268.75156 194.59375 267.95468Q194.59375 267.11093 194.90625 266.42343Q195.23438 265.73593 195.82812 265.37656Q196.4375 265.00156 197.23438 265.00156Q198.5 265.00156 199.21875 265.95468Q199.95312 266.9078 199.95312 268.5328L199.95312 268.8453Q199.95312 271.3453 198.96875 272.48593Q197.98438 273.62656 196.0 273.6578L195.78125 273.6578L195.78125 272.75156L196.01562 272.75156Q197.35938 272.7203 198.07812 272.04843Q198.79688 271.37656 198.85938 269.9078ZM197.1875 269.9078Q197.73438 269.9078 198.1875 269.57968Q198.65625 269.23593 198.875 268.75156L198.875 268.31406Q198.875 267.25156 198.40625 266.57968Q197.9375 265.9078 197.23438 265.9078Q196.51562 265.9078 196.07812 266.45468Q195.65625 267.00156 195.65625 267.9078Q195.65625 268.7828 196.0625 269.3453Q196.48438 269.9078 197.1875 269.9078ZM205.26562 273.6578L204.1875 273.6578L204.1875 266.43906L202.0 267.23593L202.0 266.25156L205.10938 265.07968L205.26562 265.07968L205.26562 273.6578ZM213.89062 267.3453Q213.89062 267.98593 213.54688 268.48593Q213.20312 268.98593 212.64062 269.26718Q213.29688 269.54843 213.6875 270.11093Q214.07812 270.6578 214.07812 271.36093Q214.07812 272.45468 213.32812 273.12656Q212.59375 273.7828 211.375 273.7828Q210.14062 273.7828 209.39062 273.12656Q208.65625 272.45468 208.65625 271.36093Q208.65625 270.6578 209.03125 270.11093Q209.40625 269.54843 210.07812 269.26718Q209.51562 268.98593 209.1875 268.48593Q208.85938 267.98593 208.85938 267.3453Q208.85938 266.26718 209.54688 265.64218Q210.23438 265.00156 211.375 265.00156Q212.5 265.00156 213.1875 265.64218Q213.89062 266.26718 213.89062 267.3453ZM213.0 271.32968Q213.0 270.61093 212.54688 270.17343Q212.09375 269.7203 211.35938 269.7203Q210.625 269.7203 210.17188 270.17343Q209.73438 270.61093 209.73438 271.3453Q209.73438 272.06406 210.17188 272.48593Q210.60938 272.89218 211.375 272.89218Q212.125 272.89218 212.5625 272.4703Q213.0 272.04843 213.0 271.32968ZM211.375 265.89218Q210.73438 265.89218 210.32812 266.29843Q209.9375 266.68906 209.9375 267.37656Q209.9375 268.01718 210.32812 268.42343Q210.71875 268.82968 211.35938 268.82968Q212.01562 268.82968 212.40625 268.42343Q212.79688 268.01718 212.79688 267.37656Q212.79688 266.7203 212.39062 266.31406Q211.98438 265.89218 211.375 265.89218ZM219.84375 267.31406L219.875 268.01718Q220.5625 267.20468 221.75 267.20468Q223.07812 267.20468 223.5625 268.2203Q223.875 267.76718 224.375 267.48593Q224.89062 267.20468 225.57812 267.20468Q227.67188 267.20468 227.70312 269.4078L227.70312 273.6578L226.625 273.6578L226.625 269.4703Q226.625 268.79843 226.3125 268.4703Q226.0 268.12656 225.26562 268.12656Q224.65625 268.12656 224.25 268.48593Q223.85938 268.8453 223.79688 269.45468L223.79688 273.6578L222.71875 273.6578L222.71875 269.50156Q222.71875 268.12656 221.35938 268.12656Q220.29688 268.12656 219.90625 269.0328L219.90625 273.6578L218.8125 273.6578L218.8125 267.31406L219.84375 267.31406ZM233.51562 271.9703Q233.51562 271.5328 233.17188 271.29843Q232.84375 271.04843 232.01562 270.87656Q231.20312 270.70468 230.71875 270.45468Q230.23438 270.20468 230.0 269.87656Q229.78125 269.5328 229.78125 269.06406Q229.78125 268.2828 230.4375 267.75156Q231.09375 267.20468 232.125 267.20468Q233.20312 267.20468 233.85938 267.76718Q234.53125 268.31406 234.53125 269.17343L233.45312 269.17343Q233.45312 268.73593 233.0625 268.42343Q232.6875 268.0953 232.125 268.0953Q231.53125 268.0953 231.1875 268.36093Q230.85938 268.61093 230.85938 269.01718Q230.85938 269.4078 231.17188 269.61093Q231.48438 269.81406 232.29688 270.00156Q233.10938 270.17343 233.60938 270.42343Q234.10938 270.67343 234.34375 271.0328Q234.59375 271.39218 234.59375 271.89218Q234.59375 272.75156 233.90625 273.26718Q233.23438 273.7828 232.15625 273.7828Q231.39062 273.7828 230.79688 273.51718Q230.21875 273.23593 229.89062 272.75156Q229.5625 272.26718 229.5625 271.70468L230.64062 271.70468Q230.67188 272.25156 231.07812 272.57968Q231.48438 272.89218 232.15625 272.89218Q232.76562 272.89218 233.14062 272.64218Q233.51562 272.39218 233.51562 271.9703Z" fill-rule="nonzero"/><path fill="#ffffff" d="M191.84375 273.0953Q191.84375 272.81406 192.0 272.62656Q192.17188 272.43906 192.5 272.43906Q192.84375 272.43906 193.01562 272.62656Q193.1875 272.81406 193.1875 273.0953Q193.1875 273.36093 193.01562 273.54843Q192.84375 273.7203 192.5 273.7203Q192.17188 273.7203 192.0 273.54843Q191.84375 273.36093 191.84375 273.0953ZM198.85938 269.9078Q198.53125 270.31406 198.04688 270.56406Q197.57812 270.79843 197.01562 270.79843Q196.28125 270.79843 195.73438 270.43906Q195.1875 270.07968 194.89062 269.42343Q194.59375 268.75156 194.59375 267.95468Q194.59375 267.11093 194.90625 266.42343Q195.23438 265.73593 195.82812 265.37656Q196.4375 265.00156 197.23438 265.00156Q198.5 265.00156 199.21875 265.95468Q199.95312 266.9078 199.95312 268.5328L199.95312 268.8453Q199.95312 271.3453 198.96875 272.48593Q197.98438 273.62656 196.0 273.6578L195.78125 273.6578L195.78125 272.75156L196.01562 272.75156Q197.35938 272.7203 198.07812 272.04843Q198.79688 271.37656 198.85938 269.9078ZM197.1875 269.9078Q197.73438 269.9078 198.1875 269.57968Q198.65625 269.23593 198.875 268.75156L198.875 268.31406Q198.875 267.25156 198.40625 266.57968Q197.9375 265.9078 197.23438 265.9078Q196.51562 265.9078 196.07812 266.45468Q195.65625 267.00156 195.65625 267.9078Q195.65625 268.7828 196.0625 269.3453Q196.48438 269.9078 197.1875 269.9078ZM205.26562 273.6578L204.1875 273.6578L204.1875 266.43906L202.0 267.23593L202.0 266.25156L205.10938 265.07968L205.26562 265.07968L205.26562 273.6578ZM213.89062 267.3453Q213.89062 267.98593 213.54688 268.48593Q213.20312 268.98593 212.64062 269.26718Q213.29688 269.54843 213.6875 270.11093Q214.07812 270.6578 214.07812 271.36093Q214.07812 272.45468 213.32812 273.12656Q212.59375 273.7828 211.375 273.7828Q210.14062 273.7828 209.39062 273.12656Q208.65625 272.45468 208.65625 271.36093Q208.65625 270.6578 209.03125 270.11093Q209.40625 269.54843 210.07812 269.26718Q209.51562 268.98593 209.1875 268.48593Q208.85938 267.98593 208.85938 267.3453Q208.85938 266.26718 209.54688 265.64218Q210.23438 265.00156 211.375 265.00156Q212.5 265.00156 213.1875 265.64218Q213.89062 266.26718 213.89062 267.3453ZM213.0 271.32968Q213.0 270.61093 212.54688 270.17343Q212.09375 269.7203 211.35938 269.7203Q210.625 269.7203 210.17188 270.17343Q209.73438 270.61093 209.73438 271.3453Q209.73438 272.06406 210.17188 272.48593Q210.60938 272.89218 211.375 272.89218Q212.125 272.89218 212.5625 272.4703Q213.0 272.04843 213.0 271.32968ZM211.375 265.89218Q210.73438 265.89218 210.32812 266.29843Q209.9375 266.68906 209.9375 267.37656Q209.9375 268.01718 210.32812 268.42343Q210.71875 268.82968 211.35938 268.82968Q212.01562 268.82968 212.40625 268.42343Q212.79688 268.01718 212.79688 267.37656Q212.79688 266.7203 212.39062 266.31406Q211.98438 265.89218 211.375 265.89218ZM219.84375 267.31406L219.875 268.01718Q220.5625 267.20468 221.75 267.20468Q223.07812 267.20468 223.5625 268.2203Q223.875 267.76718 224.375 267.48593Q224.89062 267.20468 225.57812 267.20468Q227.67188 267.20468 227.70312 269.4078L227.70312 273.6578L226.625 273.6578L226.625 269.4703Q226.625 268.79843 226.3125 268.4703Q226.0 268.12656 225.26562 268.12656Q224.65625 268.12656 224.25 268.48593Q223.85938 268.8453 223.79688 269.45468L223.79688 273.6578L222.71875 273.6578L222.71875 269.50156Q222.71875 268.12656 221.35938 268.12656Q220.29688 268.12656 219.90625 269.0328L219.90625 273.6578L218.8125 273.6578L218.8125 267.31406L219.84375 267.31406ZM233.51562 271.9703Q233.51562 271.5328 233.17188 271.29843Q232.84375 271.04843 232.01562 270.87656Q231.20312 270.70468 230.71875 270.45468Q230.23438 270.20468 230.0 269.87656Q229.78125 269.5328 229.78125 269.06406Q229.78125 268.2828 230.4375 267.75156Q231.09375 267.20468 232.125 267.20468Q233.20312 267.20468 233.85938 267.76718Q234.53125 268.31406 234.53125 269.17343L233.45312 269.17343Q233.45312 268.73593 233.0625 268.42343Q232.6875 268.0953 232.125 268.0953Q231.53125 268.0953 231.1875 268.36093Q230.85938 268.61093 230.85938 269.01718Q230.85938 269.4078 231.17188 269.61093Q231.48438 269.81406 232.29688 270.00156Q233.10938 270.17343 233.60938 270.42343Q234.10938 270.67343 234.34375 271.0328Q234.59375 271.39218 234.59375 271.89218Q234.59375 272.75156 233.90625 273.26718Q233.23438 273.7828 232.15625 273.7828Q231.39062 273.7828 230.79688 273.51718Q230.21875 273.23593 229.89062 272.75156Q229.5625 272.26718 229.5625 271.70468L230.64062 271.70468Q230.67188 272.25156 231.07812 272.57968Q231.48438 272.89218 232.15625 272.89218Q232.76562 272.89218 233.14062 272.64218Q233.51562 272.39218 233.51562 271.9703Z" fill-rule="nonzero"/><path stroke="#351c75" stroke-width="3.0" stroke-linejoin="round" stroke-linecap="round" d="M292.76562 263.2824L291.6875 263.2824L291.6875 256.06366L289.5 256.86053L289.5 255.87614L292.60938 254.70427L292.76562 254.70427L292.76562 263.2824ZM296.34375 262.7199Q296.34375 262.43866 296.5 262.25116Q296.67188 262.06366 297.0 262.06366Q297.34375 262.06366 297.51562 262.25116Q297.6875 262.43866 297.6875 262.7199Q297.6875 262.98553 297.51562 263.17303Q297.34375 263.3449 297.0 263.3449Q296.67188 263.3449 296.5 263.17303Q296.34375 262.98553 296.34375 262.7199ZM304.5625 259.64178Q304.5625 261.54803 303.90625 262.48553Q303.26562 263.4074 301.875 263.4074Q300.51562 263.4074 299.85938 262.50116Q299.20312 261.5949 299.17188 259.7824L299.17188 258.3449Q299.17188 256.45428 299.8125 255.54802Q300.46875 254.62614 301.85938 254.62614Q303.23438 254.62614 303.89062 255.51677Q304.54688 256.39178 304.5625 258.23553L304.5625 259.64178ZM303.46875 258.1574Q303.46875 256.7824 303.07812 256.1574Q302.70312 255.51677 301.85938 255.51677Q301.03125 255.51677 300.64062 256.1574Q300.26562 256.7824 300.26562 258.07928L300.26562 259.81366Q300.26562 261.18866 300.65625 261.86053Q301.0625 262.51678 301.875 262.51678Q302.67188 262.51678 303.0625 261.89178Q303.45312 261.26678 303.46875 259.93866L303.46875 258.1574ZM310.78125 260.42303L311.96875 260.42303L311.96875 261.29803L310.78125 261.29803L310.78125 263.2824L309.70312 263.2824L309.70312 261.29803L305.8125 261.29803L305.8125 260.6574L309.625 254.75114L310.78125 254.75114L310.78125 260.42303ZM307.04688 260.42303L309.70312 260.42303L309.70312 256.23553L309.5625 256.4699L307.04688 260.42303ZM317.78125 260.42303L318.96875 260.42303L318.96875 261.29803L317.78125 261.29803L317.78125 263.2824L316.70312 263.2824L316.70312 261.29803L312.8125 261.29803L312.8125 260.6574L316.625 254.75114L317.78125 254.75114L317.78125 260.42303ZM314.04688 260.42303L316.70312 260.42303L316.70312 256.23553L316.5625 256.4699L314.04688 260.42303ZM324.34375 256.93866L324.375 257.64178Q325.0625 256.82928 326.25 256.82928Q327.57812 256.82928 328.0625 257.8449Q328.375 257.39178 328.875 257.11053Q329.39062 256.82928 330.07812 256.82928Q332.17188 256.82928 332.20312 259.0324L332.20312 263.2824L331.125 263.2824L331.125 259.0949Q331.125 258.42303 330.8125 258.0949Q330.5 257.75116 329.76562 257.75116Q329.15625 257.75116 328.75 258.11053Q328.35938 258.4699 328.29688 259.07928L328.29688 263.2824L327.21875 263.2824L327.21875 259.12616Q327.21875 257.75116 325.85938 257.75116Q324.79688 257.75116 324.40625 258.6574L324.40625 263.2824L323.3125 263.2824L323.3125 256.93866L324.34375 256.93866ZM338.01562 261.5949Q338.01562 261.1574 337.67188 260.92303Q337.34375 260.67303 336.51562 260.50116Q335.70312 260.32928 335.21875 260.07928Q334.73438 259.82928 334.5 259.50116Q334.28125 259.1574 334.28125 258.68866Q334.28125 257.9074 334.9375 257.37616Q335.59375 256.82928 336.625 256.82928Q337.70312 256.82928 338.35938 257.39178Q339.03125 257.93866 339.03125 258.79803L337.95312 258.79803Q337.95312 258.36053 337.5625 258.04803Q337.1875 257.7199 336.625 257.7199Q336.03125 257.7199 335.6875 257.98553Q335.35938 258.23553 335.35938 258.64178Q335.35938 259.0324 335.67188 259.23553Q335.98438 259.43866 336.79688 259.62616Q337.60938 259.79803 338.10938 260.04803Q338.60938 260.29803 338.84375 260.6574Q339.09375 261.01678 339.09375 261.51678Q339.09375 262.37616 338.40625 262.89178Q337.73438 263.4074 336.65625 263.4074Q335.89062 263.4074 335.29688 263.14178Q334.71875 262.86053 334.39062 262.37616Q334.0625 261.89178 334.0625 261.32928L335.14062 261.32928Q335.17188 261.87616 335.57812 262.20428Q335.98438 262.51678 336.65625 262.51678Q337.26562 262.51678 337.64062 262.26678Q338.01562 262.01678 338.01562 261.5949Z" fill-rule="nonzero"/><path fill="#ffffff" d="M292.76562 263.2824L291.6875 263.2824L291.6875 256.06366L289.5 256.86053L289.5 255.87616L292.60938 254.70428L292.76562 254.70428L292.76562 263.2824ZM296.34375 262.7199Q296.34375 262.43866 296.5 262.25116Q296.67188 262.06366 297.0 262.06366Q297.34375 262.06366 297.51562 262.25116Q297.6875 262.43866 297.6875 262.7199Q297.6875 262.98553 297.51562 263.17303Q297.34375 263.3449 297.0 263.3449Q296.67188 263.3449 296.5 263.17303Q296.34375 262.98553 296.34375 262.7199ZM304.5625 259.64178Q304.5625 261.54803 303.90625 262.48553Q303.26562 263.4074 301.875 263.4074Q300.51562 263.4074 299.85938 262.50116Q299.20312 261.5949 299.17188 259.7824L299.17188 258.3449Q299.17188 256.45428 299.8125 255.54803Q300.46875 254.62616 301.85938 254.62616Q303.23438 254.62616 303.89062 255.51678Q304.54688 256.39178 304.5625 258.23553L304.5625 259.64178ZM303.46875 258.1574Q303.46875 256.7824 303.07812 256.1574Q302.70312 255.51678 301.85938 255.51678Q301.03125 255.51678 300.64062 256.1574Q300.26562 256.7824 300.26562 258.07928L300.26562 259.81366Q300.26562 261.18866 300.65625 261.86053Q301.0625 262.51678 301.875 262.51678Q302.67188 262.51678 303.0625 261.89178Q303.45312 261.26678 303.46875 259.93866L303.46875 258.1574ZM310.78125 260.42303L311.96875 260.42303L311.96875 261.29803L310.78125 261.29803L310.78125 263.2824L309.70312 263.2824L309.70312 261.29803L305.8125 261.29803L305.8125 260.6574L309.625 254.75116L310.78125 254.75116L310.78125 260.42303ZM307.04688 260.42303L309.70312 260.42303L309.70312 256.23553L309.5625 256.4699L307.04688 260.42303ZM317.78125 260.42303L318.96875 260.42303L318.96875 261.29803L317.78125 261.29803L317.78125 263.2824L316.70312 263.2824L316.70312 261.29803L312.8125 261.29803L312.8125 260.6574L316.625 254.75116L317.78125 254.75116L317.78125 260.42303ZM314.04688 260.42303L316.70312 260.42303L316.70312 256.23553L316.5625 256.4699L314.04688 260.42303ZM324.34375 256.93866L324.375 257.64178Q325.0625 256.82928 326.25 256.82928Q327.57812 256.82928 328.0625 257.8449Q328.375 257.39178 328.875 257.11053Q329.39062 256.82928 330.07812 256.82928Q332.17188 256.82928 332.20312 259.0324L332.20312 263.2824L331.125 263.2824L331.125 259.0949Q331.125 258.42303 330.8125 258.0949Q330.5 257.75116 329.76562 257.75116Q329.15625 257.75116 328.75 258.11053Q328.35938 258.4699 328.29688 259.07928L328.29688 263.2824L327.21875 263.2824L327.21875 259.12616Q327.21875 257.75116 325.85938 257.75116Q324.79688 257.75116 324.40625 258.6574L324.40625 263.2824L323.3125 263.2824L323.3125 256.93866L324.34375 256.93866ZM338.01562 261.5949Q338.01562 261.1574 337.67188 260.92303Q337.34375 260.67303 336.51562 260.50116Q335.70312 260.32928 335.21875 260.07928Q334.73438 259.82928 334.5 259.50116Q334.28125 259.1574 334.28125 258.68866Q334.28125 257.9074 334.9375 257.37616Q335.59375 256.82928 336.625 256.82928Q337.70312 256.82928 338.35938 257.39178Q339.03125 257.93866 339.03125 258.79803L337.95312 258.79803Q337.95312 258.36053 337.5625 258.04803Q337.1875 257.7199 336.625 257.7199Q336.03125 257.7199 335.6875 257.98553Q335.35938 258.23553 335.35938 258.64178Q335.35938 259.0324 335.67188 259.23553Q335.98438 259.43866 336.79688 259.62616Q337.60938 259.79803 338.10938 260.04803Q338.60938 260.29803 338.84375 260.6574Q339.09375 261.01678 339.09375 261.51678Q339.09375 262.37616 338.40625 262.89178Q337.73438 263.4074 336.65625 263.4074Q335.89062 263.4074 335.29688 263.14178Q334.71875 262.86053 334.39062 262.37616Q334.0625 261.89178 334.0625 261.32928L335.14062 261.32928Q335.17188 261.87616 335.57812 262.20428Q335.98438 262.51678 336.65625 262.51678Q337.26562 262.51678 337.64062 262.26678Q338.01562 262.01678 338.01562 261.5949Z" fill-rule="nonzero"/><path stroke="#e69138" stroke-width="3.0" stroke-linejoin="round" stroke-linecap="round" d="M394.79688 172.95055L389.20312 172.95055L389.20312 172.1693L392.15625 168.88805Q392.8125 168.13805 393.0625 167.68492Q393.3125 167.21617 393.3125 166.71617Q393.3125 166.0443 392.90625 165.62242Q392.51562 165.18492 391.82812 165.18492Q391.03125 165.18492 390.57812 165.65367Q390.125 166.1068 390.125 166.93492L389.04688 166.93492Q389.04688 165.74742 389.79688 165.02867Q390.5625 164.2943 391.82812 164.2943Q393.03125 164.2943 393.71875 164.9193Q394.40625 165.5443 394.40625 166.59117Q394.40625 167.84117 392.79688 169.59117L390.51562 172.05992L394.79688 172.05992L394.79688 172.95055ZM396.34375 172.38805Q396.34375 172.1068 396.5 171.9193Q396.67188 171.7318 397.0 171.7318Q397.34375 171.7318 397.51562 171.9193Q397.6875 172.1068 397.6875 172.38805Q397.6875 172.65367 397.51562 172.84117Q397.34375 173.01305 397.0 173.01305Q396.67188 173.01305 396.5 172.84117Q396.34375 172.65367 396.34375 172.38805ZM402.76562 172.95055L401.6875 172.95055L401.6875 165.7318L399.5 166.52867L399.5 165.5443L402.60938 164.37242L402.76562 164.37242L402.76562 172.95055ZM410.78125 170.09117L411.96875 170.09117L411.96875 170.96617L410.78125 170.96617L410.78125 172.95055L409.70312 172.95055L409.70312 170.96617L405.8125 170.96617L405.8125 170.32555L409.625 164.4193L410.78125 164.4193L410.78125 170.09117ZM407.04688 170.09117L409.70312 170.09117L409.70312 165.90367L409.5625 166.13805L407.04688 170.09117ZM416.76562 172.95055L415.6875 172.95055L415.6875 165.7318L413.5 166.52867L413.5 165.5443L416.60938 164.37242L416.76562 164.37242L416.76562 172.95055ZM424.34375 166.6068L424.375 167.30992Q425.0625 166.49742 426.25 166.49742Q427.57812 166.49742 428.0625 167.51305Q428.375 167.05992 428.875 166.77867Q429.39062 166.49742 430.07812 166.49742Q432.17188 166.49742 432.20312 168.70055L432.20312 172.95055L431.125 172.95055L431.125 168.76305Q431.125 168.09117 430.8125 167.76305Q430.5 167.4193 429.76562 167.4193Q429.15625 167.4193 428.75 167.77867Q428.35938 168.13805 428.29688 168.74742L428.29688 172.95055L427.21875 172.95055L427.21875 168.7943Q427.21875 167.4193 425.85938 167.4193Q424.79688 167.4193 424.40625 168.32555L424.40625 172.95055L423.3125 172.95055L423.3125 166.6068L424.34375 166.6068ZM438.01562 171.26305Q438.01562 170.82555 437.67188 170.59117Q437.34375 170.34117 436.51562 170.1693Q435.70312 169.99742 435.21875 169.74742Q434.73438 169.49742 434.5 169.1693Q434.28125 168.82555 434.28125 168.3568Q434.28125 167.57555 434.9375 167.0443Q435.59375 166.49742 436.625 166.49742Q437.70312 166.49742 438.35938 167.05992Q439.03125 167.6068 439.03125 168.46617L437.95312 168.46617Q437.95312 168.02867 437.5625 167.71617Q437.1875 167.38805 436.625 167.38805Q436.03125 167.38805 435.6875 167.65367Q435.35938 167.90367 435.35938 168.30992Q435.35938 168.70055 435.67188 168.90367Q435.98438 169.1068 436.79688 169.2943Q437.60938 169.46617 438.10938 169.71617Q438.60938 169.96617 438.84375 170.32555Q439.09375 170.68492 439.09375 171.18492Q439.09375 172.0443 438.40625 172.55992Q437.73438 173.07555 436.65625 173.07555Q435.89062 173.07555 435.29688 172.80992Q434.71875 172.52867 434.39062 172.0443Q434.0625 171.55992 434.0625 170.99742L435.14062 170.99742Q435.17188 171.5443 435.57812 171.87242Q435.98438 172.18492 436.65625 172.18492Q437.26562 172.18492 437.64062 171.93492Q438.01562 171.68492 438.01562 171.26305Z" fill-rule="nonzero"/><path fill="#000000" d="M394.79688 172.95055L389.20312 172.95055L389.20312 172.1693L392.15625 168.88805Q392.8125 168.13805 393.0625 167.68492Q393.3125 167.21617 393.3125 166.71617Q393.3125 166.0443 392.90625 165.62242Q392.51562 165.18492 391.82812 165.18492Q391.03125 165.18492 390.57812 165.65367Q390.125 166.1068 390.125 166.93492L389.04688 166.93492Q389.04688 165.74742 389.79688 165.02867Q390.5625 164.2943 391.82812 164.2943Q393.03125 164.2943 393.71875 164.9193Q394.40625 165.5443 394.40625 166.59117Q394.40625 167.84117 392.79688 169.59117L390.51562 172.05992L394.79688 172.05992L394.79688 172.95055ZM396.34375 172.38805Q396.34375 172.1068 396.5 171.9193Q396.67188 171.7318 397.0 171.7318Q397.34375 171.7318 397.51562 171.9193Q397.6875 172.1068 397.6875 172.38805Q397.6875 172.65367 397.51562 172.84117Q397.34375 173.01305 397.0 173.01305Q396.67188 173.01305 396.5 172.84117Q396.34375 172.65367 396.34375 172.38805ZM402.76562 172.95055L401.6875 172.95055L401.6875 165.7318L399.5 166.52867L399.5 165.5443L402.60938 164.37242L402.76562 164.37242L402.76562 172.95055ZM410.78125 170.09117L411.96875 170.09117L411.96875 170.96617L410.78125 170.96617L410.78125 172.95055L409.70312 172.95055L409.70312 170.96617L405.8125 170.96617L405.8125 170.32555L409.625 164.4193L410.78125 164.4193L410.78125 170.09117ZM407.04688 170.09117L409.70312 170.09117L409.70312 165.90367L409.5625 166.13805L407.04688 170.09117ZM416.76562 172.95055L415.6875 172.95055L415.6875 165.7318L413.5 166.52867L413.5 165.5443L416.60938 164.37242L416.76562 164.37242L416.76562 172.95055ZM424.34375 166.6068L424.375 167.30992Q425.0625 166.49742 426.25 166.49742Q427.57812 166.49742 428.0625 167.51305Q428.375 167.05992 428.875 166.77867Q429.39062 166.49742 430.07812 166.49742Q432.17188 166.49742 432.20312 168.70055L432.20312 172.95055L431.125 172.95055L431.125 168.76305Q431.125 168.09117 430.8125 167.76305Q430.5 167.4193 429.76562 167.4193Q429.15625 167.4193 428.75 167.77867Q428.35938 168.13805 428.29688 168.74742L428.29688 172.95055L427.21875 172.95055L427.21875 168.7943Q427.21875 167.4193 425.85938 167.4193Q424.79688 167.4193 424.40625 168.32555L424.40625 172.95055L423.3125 172.95055L423.3125 166.6068L424.34375 166.6068ZM438.01562 171.26305Q438.01562 170.82555 437.67188 170.59117Q437.34375 170.34117 436.51562 170.1693Q435.70312 169.99742 435.21875 169.74742Q434.73438 169.49742 434.5 169.1693Q434.28125 168.82555 434.28125 168.3568Q434.28125 167.57555 434.9375 167.0443Q435.59375 166.49742 436.625 166.49742Q437.70312 166.49742 438.35938 167.05992Q439.03125 167.6068 439.03125 168.46617L437.95312 168.46617Q437.95312 168.02867 437.5625 167.71617Q437.1875 167.38805 436.625 167.38805Q436.03125 167.38805 435.6875 167.65367Q435.35938 167.90367 435.35938 168.30992Q435.35938 168.70055 435.67188 168.90367Q435.98438 169.1068 436.79688 169.2943Q437.60938 169.46617 438.10938 169.71617Q438.60938 169.96617 438.84375 170.32555Q439.09375 170.68492 439.09375 171.18492Q439.09375 172.0443 438.40625 172.55992Q437.73438 173.07555 436.65625 173.07555Q435.89062 173.07555 435.29688 172.80992Q434.71875 172.52867 434.39062 172.0443Q434.0625 171.55992 434.0625 170.99742L435.14062 170.99742Q435.17188 171.5443 435.57812 171.87242Q435.98438 172.18492 436.65625 172.18492Q437.26562 172.18492 437.64062 171.93492Q438.01562 171.68492 438.01562 171.26305Z" fill-rule="nonzero"/><path stroke="#cc0000" stroke-width="3.0" stroke-linejoin="round" stroke-linecap="round" d="M494.79688 137.37775L489.20312 137.37775L489.20312 136.5965L492.15625 133.31525Q492.8125 132.56525 493.0625 132.11212Q493.3125 131.64337 493.3125 131.14337Q493.3125 130.4715 492.90625 130.04962Q492.51562 129.61212 491.82812 129.61212Q491.03125 129.61212 490.57812 130.08087Q490.125 130.534 490.125 131.36212L489.04688 131.36212Q489.04688 130.17462 489.79688 129.45587Q490.5625 128.7215 491.82812 128.7215Q493.03125 128.7215 493.71875 129.3465Q494.40625 129.9715 494.40625 131.01837Q494.40625 132.26837 492.79688 134.01837L490.51562 136.48712L494.79688 136.48712L494.79688 137.37775ZM496.34375 136.81525Q496.34375 136.534 496.5 136.3465Q496.67188 136.159 497.0 136.159Q497.34375 136.159 497.51562 136.3465Q497.6875 136.534 497.6875 136.81525Q497.6875 137.08087 497.51562 137.26837Q497.34375 137.44025 497.0 137.44025Q496.67188 137.44025 496.5 137.26837Q496.34375 137.08087 496.34375 136.81525ZM499.70312 133.0965L500.14062 128.8465L504.51562 128.8465L504.51562 129.8465L501.0625 129.8465L500.79688 132.17462Q501.4375 131.79962 502.23438 131.79962Q503.39062 131.79962 504.07812 132.58087Q504.76562 133.3465 504.76562 134.659Q504.76562 135.9715 504.04688 136.73712Q503.34375 137.50275 502.0625 137.50275Q500.9375 137.50275 500.21875 136.87775Q499.5 136.23712 499.40625 135.12775L500.42188 135.12775Q500.53125 135.86212 500.95312 136.23712Q501.375 136.61212 502.0625 136.61212Q502.8125 136.61212 503.25 136.0965Q503.6875 135.58087 503.6875 134.67462Q503.6875 133.81525 503.21875 133.29962Q502.75 132.784 501.96875 132.784Q501.26562 132.784 500.85938 133.08087L500.57812 133.31525L499.70312 133.0965ZM511.71875 129.45587L508.1875 137.37775L507.04688 137.37775L510.5625 129.73712L505.95312 129.73712L505.95312 128.8465L511.71875 128.8465L511.71875 129.45587ZM514.78125 132.58087L515.59375 132.58087Q516.375 132.56525 516.8125 132.17462Q517.25 131.784 517.25 131.11212Q517.25 129.61212 515.75 129.61212Q515.0469 129.61212 514.625 130.01837Q514.21875 130.42462 514.21875 131.08087L513.125 131.08087Q513.125 130.06525 513.8594 129.39337Q514.6094 128.7215 515.75 128.7215Q516.9531 128.7215 517.6406 129.36212Q518.3281 130.00275 518.3281 131.14337Q518.3281 131.70587 517.96875 132.2215Q517.6094 132.73712 516.9844 133.00275Q517.6875 133.2215 518.0625 133.73712Q518.4531 134.25275 518.4531 135.00275Q518.4531 136.14337 517.7031 136.83087Q516.9531 137.50275 515.75 137.50275Q514.5625 137.50275 513.7969 136.8465Q513.0469 136.19025 513.0469 135.12775L514.1406 135.12775Q514.1406 135.79962 514.5781 136.20587Q515.0156 136.61212 515.7656 136.61212Q516.5469 136.61212 516.9531 136.20587Q517.375 135.784 517.375 135.01837Q517.375 134.284 516.9219 133.89337Q516.46875 133.48712 515.59375 133.4715L514.78125 133.4715L514.78125 132.58087ZM524.34375 131.034L524.375 131.73712Q525.0625 130.92462 526.25 130.92462Q527.5781 130.92462 528.0625 131.94025Q528.375 131.48712 528.875 131.20587Q529.3906 130.92462 530.0781 130.92462Q532.1719 130.92462 532.2031 133.12775L532.2031 137.37775L531.125 137.37775L531.125 133.19025Q531.125 132.51837 530.8125 132.19025Q530.5 131.8465 529.7656 131.8465Q529.15625 131.8465 528.75 132.20587Q528.3594 132.56525 528.2969 133.17462L528.2969 137.37775L527.21875 137.37775L527.21875 133.2215Q527.21875 131.8465 525.8594 131.8465Q524.7969 131.8465 524.40625 132.75275L524.40625 137.37775L523.3125 137.37775L523.3125 131.034L524.34375 131.034ZM538.0156 135.69025Q538.0156 135.25275 537.6719 135.01837Q537.34375 134.76837 536.5156 134.5965Q535.7031 134.42462 535.21875 134.17462Q534.7344 133.92462 534.5 133.5965Q534.28125 133.25275 534.28125 132.784Q534.28125 132.00275 534.9375 131.4715Q535.59375 130.92462 536.625 130.92462Q537.7031 130.92462 538.3594 131.48712Q539.03125 132.034 539.03125 132.89337L537.9531 132.89337Q537.9531 132.45587 537.5625 132.14337Q537.1875 131.81525 536.625 131.81525Q536.03125 131.81525 535.6875 132.08087Q535.3594 132.33087 535.3594 132.73712Q535.3594 133.12775 535.6719 133.33087Q535.9844 133.534 536.7969 133.7215Q537.6094 133.89337 538.1094 134.14337Q538.6094 134.39337 538.84375 134.75275Q539.09375 135.11212 539.09375 135.61212Q539.09375 136.4715 538.40625 136.98712Q537.7344 137.50275 536.65625 137.50275Q535.8906 137.50275 535.2969 137.23712Q534.71875 136.95587 534.3906 136.4715Q534.0625 135.98712 534.0625 135.42462L535.1406 135.42462Q535.1719 135.9715 535.5781 136.29962Q535.9844 136.61212 536.65625 136.61212Q537.2656 136.61212 537.6406 136.36212Q538.0156 136.11212 538.0156 135.69025Z" fill-rule="nonzero"/><path fill="#ffffff" d="M494.79688 137.37775L489.20312 137.37775L489.20312 136.5965L492.15625 133.31525Q492.8125 132.56525 493.0625 132.11212Q493.3125 131.64337 493.3125 131.14337Q493.3125 130.4715 492.90625 130.04962Q492.51562 129.61212 491.82812 129.61212Q491.03125 129.61212 490.57812 130.08087Q490.125 130.534 490.125 131.36212L489.04688 131.36212Q489.04688 130.17462 489.79688 129.45587Q490.5625 128.7215 491.82812 128.7215Q493.03125 128.7215 493.71875 129.3465Q494.40625 129.9715 494.40625 131.01837Q494.40625 132.26837 492.79688 134.01837L490.51562 136.48712L494.79688 136.48712L494.79688 137.37775ZM496.34375 136.81525Q496.34375 136.534 496.5 136.3465Q496.67188 136.159 497.0 136.159Q497.34375 136.159 497.51562 136.3465Q497.6875 136.534 497.6875 136.81525Q497.6875 137.08087 497.51562 137.26837Q497.34375 137.44025 497.0 137.44025Q496.67188 137.44025 496.5 137.26837Q496.34375 137.08087 496.34375 136.81525ZM499.70312 133.0965L500.14062 128.8465L504.51562 128.8465L504.51562 129.8465L501.0625 129.8465L500.79688 132.17462Q501.4375 131.79962 502.23438 131.79962Q503.39062 131.79962 504.07812 132.58087Q504.76562 133.3465 504.76562 134.659Q504.76562 135.9715 504.04688 136.73712Q503.34375 137.50275 502.0625 137.50275Q500.9375 137.50275 500.21875 136.87775Q499.5 136.23712 499.40625 135.12775L500.42188 135.12775Q500.53125 135.86212 500.95312 136.23712Q501.375 136.61212 502.0625 136.61212Q502.8125 136.61212 503.25 136.0965Q503.6875 135.58087 503.6875 134.67462Q503.6875 133.81525 503.21875 133.29962Q502.75 132.784 501.96875 132.784Q501.26562 132.784 500.85938 133.08087L500.57812 133.31525L499.70312 133.0965ZM511.71875 129.45587L508.1875 137.37775L507.04688 137.37775L510.5625 129.73712L505.95312 129.73712L505.95312 128.8465L511.71875 128.8465L511.71875 129.45587ZM514.78125 132.58087L515.59375 132.58087Q516.375 132.56525 516.8125 132.17462Q517.25 131.784 517.25 131.11212Q517.25 129.61212 515.75 129.61212Q515.0469 129.61212 514.625 130.01837Q514.21875 130.42462 514.21875 131.08087L513.125 131.08087Q513.125 130.06525 513.8594 129.39337Q514.6094 128.7215 515.75 128.7215Q516.9531 128.7215 517.6406 129.36212Q518.3281 130.00275 518.3281 131.14337Q518.3281 131.70587 517.96875 132.2215Q517.6094 132.73712 516.9844 133.00275Q517.6875 133.2215 518.0625 133.73712Q518.4531 134.25275 518.4531 135.00275Q518.4531 136.14337 517.7031 136.83087Q516.9531 137.50275 515.75 137.50275Q514.5625 137.50275 513.7969 136.8465Q513.0469 136.19025 513.0469 135.12775L514.1406 135.12775Q514.1406 135.79962 514.5781 136.20587Q515.0156 136.61212 515.7656 136.61212Q516.5469 136.61212 516.9531 136.20587Q517.375 135.784 517.375 135.01837Q517.375 134.284 516.9219 133.89337Q516.46875 133.48712 515.59375 133.4715L514.78125 133.4715L514.78125 132.58087ZM524.34375 131.034L524.375 131.73712Q525.0625 130.92462 526.25 130.92462Q527.5781 130.92462 528.0625 131.94025Q528.375 131.48712 528.875 131.20587Q529.3906 130.92462 530.0781 130.92462Q532.1719 130.92462 532.2031 133.12775L532.2031 137.37775L531.125 137.37775L531.125 133.19025Q531.125 132.51837 530.8125 132.19025Q530.5 131.8465 529.7656 131.8465Q529.15625 131.8465 528.75 132.20587Q528.3594 132.56525 528.2969 133.17462L528.2969 137.37775L527.21875 137.37775L527.21875 133.2215Q527.21875 131.8465 525.8594 131.8465Q524.7969 131.8465 524.40625 132.75275L524.40625 137.37775L523.3125 137.37775L523.3125 131.034L524.34375 131.034ZM538.0156 135.69025Q538.0156 135.25275 537.6719 135.01837Q537.34375 134.76837 536.5156 134.5965Q535.7031 134.42462 535.21875 134.17462Q534.7344 133.92462 534.5 133.5965Q534.28125 133.25275 534.28125 132.784Q534.28125 132.00275 534.9375 131.4715Q535.59375 130.92462 536.625 130.92462Q537.7031 130.92462 538.3594 131.48712Q539.03125 132.034 539.03125 132.89337L537.9531 132.89337Q537.9531 132.45587 537.5625 132.14337Q537.1875 131.81525 536.625 131.81525Q536.03125 131.81525 535.6875 132.08087Q535.3594 132.33087 535.3594 132.73712Q535.3594 133.12775 535.6719 133.33087Q535.9844 133.534 536.7969 133.7215Q537.6094 133.89337 538.1094 134.14337Q538.6094 134.39337 538.84375 134.75275Q539.09375 135.11212 539.09375 135.61212Q539.09375 136.4715 538.40625 136.98712Q537.7344 137.50275 536.65625 137.50275Q535.8906 137.50275 535.2969 137.23712Q534.71875 136.95587 534.3906 136.4715Q534.0625 135.98712 534.0625 135.42462L535.1406 135.42462Q535.1719 135.9715 535.5781 136.29962Q535.9844 136.61212 536.65625 136.61212Q537.2656 136.61212 537.6406 136.36212Q538.0156 136.11212 538.0156 135.69025Z" fill-rule="nonzero"/><path fill="#000000" d="M33.05 332.21564Q33.05 330.6844 33.3625 329.7625Q33.675 328.825 34.284374 328.325Q34.909374 327.825 35.846874 327.825Q36.534374 327.825 37.05 328.10626Q37.58125 328.3875 37.925 328.91876Q38.26875 329.4344 38.45625 330.1844Q38.64375 330.9344 38.64375 332.21564Q38.64375 333.73126 38.33125 334.65314Q38.034374 335.575 37.409374 336.09064Q36.8 336.59064 35.846874 336.59064Q34.6125 336.59064 33.89375 335.7Q33.05 334.6375 33.05 332.21564ZM34.128124 332.21564Q34.128124 334.325 34.628124 335.02814Q35.128124 335.73126 35.846874 335.73126Q36.58125 335.73126 37.065624 335.02814Q37.565624 334.325 37.565624 332.21564Q37.565624 330.09064 37.065624 329.40314Q36.58125 328.7 35.83125 328.7Q35.1125 328.7 34.675 329.3094Q34.128124 330.09064 34.128124 332.21564Z" fill-rule="nonzero"/><path fill="#000000" d="M37.01875 254.10556L35.971874 254.10556L35.971874 247.38681Q35.58125 247.74619 34.95625 248.12119Q34.346874 248.48056 33.8625 248.65244L33.8625 247.63681Q34.7375 247.21494 35.39375 246.63681Q36.065624 246.04306 36.346874 245.48056L37.01875 245.48056L37.01875 254.10556Z" fill-rule="nonzero"/><path fill="#000000" d="M38.596874 170.74548L38.596874 171.76111L32.909374 171.76111Q32.909374 171.38611 33.034374 171.02673Q33.253124 170.44861 33.721874 169.88611Q34.20625 169.32361 35.1125 168.58923Q36.51875 167.43298 37.003124 166.76111Q37.503124 166.08923 37.503124 165.49548Q37.503124 164.87048 37.05 164.44861Q36.596874 164.01111 35.878124 164.01111Q35.1125 164.01111 34.659374 164.46423Q34.20625 164.91736 34.190624 165.72986L33.1125 165.62048Q33.221874 164.40173 33.940624 163.77673Q34.675 163.13611 35.909374 163.13611Q37.14375 163.13611 37.8625 163.82361Q38.58125 164.51111 38.58125 165.52673Q38.58125 166.04236 38.3625 166.54236Q38.159374 167.02673 37.659374 167.58923Q37.175 168.13611 36.05 169.08923Q35.096874 169.88611 34.815624 170.18298Q34.55 170.46423 34.378124 170.74548L38.596874 170.74548Z" fill-rule="nonzero"/><path fill="#000000" d="M33.05 87.15104L34.1125 87.010414Q34.284374 87.90104 34.721874 88.30729Q35.159374 88.697914 35.784374 88.697914Q36.534374 88.697914 37.05 88.18229Q37.565624 87.666664 37.565624 86.90104Q37.565624 86.18229 37.08125 85.71354Q36.6125 85.229164 35.878124 85.229164Q35.58125 85.229164 35.128124 85.354164L35.253124 84.416664Q35.3625 84.43229 35.425 84.43229Q36.096874 84.43229 36.628124 84.08854Q37.175 83.729164 37.175 82.99479Q37.175 82.416664 36.784374 82.041664Q36.39375 81.65104 35.76875 81.65104Q35.159374 81.65104 34.7375 82.041664Q34.33125 82.43229 34.221874 83.197914L33.159374 83.010414Q33.346874 81.96354 34.034374 81.385414Q34.721874 80.791664 35.7375 80.791664Q36.440624 80.791664 37.034374 81.104164Q37.628124 81.40104 37.940624 81.916664Q38.253124 82.43229 38.253124 83.02604Q38.253124 83.572914 37.95625 84.041664Q37.659374 84.49479 37.08125 84.760414Q37.83125 84.93229 38.253124 85.49479Q38.675 86.041664 38.675 86.885414Q38.675 88.010414 37.846874 88.791664Q37.034374 89.572914 35.784374 89.572914Q34.659374 89.572914 33.909374 88.90104Q33.159374 88.21354 33.05 87.15104Z" fill-rule="nonzero"/><path fill="#000000" d="M94.05418 349.45L94.05418 340.85626L95.77293 340.85626L97.80418 346.9344Q98.08543 347.79376 98.21043 348.21564Q98.35105 347.7469 98.66355 346.84064L100.72605 340.85626L102.2573 340.85626L102.2573 349.45L101.16355 349.45L101.16355 342.2625L98.66355 349.45L97.6323 349.45L95.14793 342.1375L95.14793 349.45L94.05418 349.45ZM107.21043 347.45L108.30418 347.575Q108.05418 348.52814 107.35105 349.0594Q106.64793 349.59064 105.5698 349.59064Q104.21043 349.59064 103.39793 348.7469Q102.60105 347.90314 102.60105 346.3875Q102.60105 344.825 103.41355 343.96564Q104.22605 343.09064 105.5073 343.09064Q106.7573 343.09064 107.53855 343.9344Q108.33543 344.77814 108.33543 346.325Q108.33543 346.41876 108.33543 346.60626L103.6948 346.60626Q103.7573 347.6375 104.27293 348.1844Q104.78855 348.71564 105.5698 348.71564Q106.14793 348.71564 106.55418 348.41876Q106.97605 348.10626 107.21043 347.45ZM103.7573 345.7469L107.22605 345.7469Q107.16355 344.95 106.83543 344.5594Q106.3198 343.95 105.52293 343.95Q104.78855 343.95 104.28855 344.4344Q103.80418 344.91876 103.7573 345.7469ZM113.99168 349.45L113.99168 348.66876Q113.39793 349.59064 112.2573 349.59064Q111.5073 349.59064 110.8823 349.1844Q110.2573 348.7625 109.91355 348.02814Q109.5698 347.29376 109.5698 346.34064Q109.5698 345.41876 109.8823 344.65314Q110.1948 343.8875 110.8198 343.4969Q111.4448 343.09064 112.21043 343.09064Q112.77293 343.09064 113.21043 343.325Q113.64793 343.5594 113.92918 343.9344L113.92918 340.85626L114.97605 340.85626L114.97605 349.45L113.99168 349.45ZM110.66355 346.34064Q110.66355 347.54376 111.16355 348.1375Q111.66355 348.71564 112.35105 348.71564Q113.03855 348.71564 113.52293 348.15314Q114.0073 347.59064 114.0073 346.4344Q114.0073 345.15314 113.5073 344.5594Q113.02293 343.96564 112.30418 343.96564Q111.60105 343.96564 111.1323 344.54376Q110.66355 345.10626 110.66355 346.34064ZM121.21043 347.45L122.30418 347.575Q122.05418 348.52814 121.35105 349.0594Q120.64793 349.59064 119.5698 349.59064Q118.21043 349.59064 117.39793 348.7469Q116.60105 347.90314 116.60105 346.3875Q116.60105 344.825 117.41355 343.96564Q118.22605 343.09064 119.5073 343.09064Q120.7573 343.09064 121.53855 343.9344Q122.33543 344.77814 122.33543 346.325Q122.33543 346.41876 122.33543 346.60626L117.6948 346.60626Q117.7573 347.6375 118.27293 348.1844Q118.78855 348.71564 119.5698 348.71564Q120.14793 348.71564 120.55418 348.41876Q120.97605 348.10626 121.21043 347.45ZM117.7573 345.7469L121.22605 345.7469Q121.16355 344.95 120.83543 344.5594Q120.3198 343.95 119.52293 343.95Q118.78855 343.95 118.28855 344.4344Q117.80418 344.91876 117.7573 345.7469ZM123.96043 342.075L123.96043 340.85626L125.02293 340.85626L125.02293 342.075L123.96043 342.075ZM123.96043 349.45L123.96043 343.23126L125.02293 343.23126L125.02293 349.45L123.96043 349.45ZM131.02292 348.6844Q130.42917 349.1844 129.8823 349.3875Q129.35104 349.59064 128.72604 349.59064Q127.6948 349.59064 127.14793 349.09064Q126.60105 348.59064 126.60105 347.8094Q126.60105 347.35626 126.80418 346.98126Q127.0073 346.59064 127.35105 346.3719Q127.6948 346.1375 128.11667 346.02814Q128.41354 345.9344 129.05417 345.85626Q130.3198 345.71564 130.92917 345.4969Q130.92917 345.27814 130.92917 345.23126Q130.92917 344.575 130.6323 344.3094Q130.22604 343.96564 129.42917 343.96564Q128.6948 343.96564 128.33542 344.23126Q127.97605 344.48126 127.80418 345.1375L126.77293 344.9969Q126.91355 344.34064 127.24168 343.9344Q127.5698 343.52814 128.17917 343.3094Q128.78854 343.09064 129.58542 343.09064Q130.3823 343.09064 130.8823 343.27814Q131.3823 343.46564 131.61667 343.7469Q131.85104 344.02814 131.9448 344.46564Q131.99167 344.73126 131.99167 345.4344L131.99167 346.84064Q131.99167 348.3094 132.05417 348.7Q132.1323 349.09064 132.33542 349.45L131.22604 349.45Q131.0698 349.1219 131.02292 348.6844ZM130.92917 346.325Q130.35104 346.5594 129.21042 346.73126Q128.55417 346.825 128.28854 346.95Q128.02292 347.0594 127.86668 347.27814Q127.72605 347.4969 127.72605 347.77814Q127.72605 348.2 128.03854 348.48126Q128.36667 348.7625 128.97604 348.7625Q129.58542 348.7625 130.05417 348.4969Q130.53854 348.23126 130.7573 347.7625Q130.92917 347.40314 130.92917 346.71564L130.92917 346.325Z" fill-rule="nonzero"/><path fill="#000000" d="M173.37865 346.6844L174.44115 346.59064Q174.51927 347.2469 174.80052 347.65314Q175.08177 348.0594 175.6599 348.325Q176.25365 348.575 176.98802 348.575Q177.62865 348.575 178.12865 348.3875Q178.62865 348.1844 178.86302 347.85626Q179.11302 347.5125 179.11302 347.1219Q179.11302 346.71564 178.87865 346.41876Q178.64427 346.10626 178.11302 345.90314Q177.75365 345.7625 176.56615 345.48126Q175.39427 345.2 174.92552 344.95Q174.30052 344.6219 174.00365 344.15314Q173.70677 343.66876 173.70677 343.075Q173.70677 342.4344 174.06615 341.8719Q174.44115 341.29376 175.14427 341.0125Q175.86302 340.71564 176.7224 340.71564Q177.67552 340.71564 178.4099 341.02814Q179.14427 341.325 179.5349 341.9344Q179.92552 342.52814 179.95677 343.27814L178.86302 343.35626Q178.76927 342.54376 178.25365 342.1375Q177.75365 341.71564 176.76927 341.71564Q175.73802 341.71564 175.26927 342.09064Q174.80052 342.46564 174.80052 342.9969Q174.80052 343.46564 175.12865 343.7625Q175.45677 344.0594 176.83177 344.3719Q178.2224 344.6844 178.73802 344.91876Q179.48802 345.27814 179.8474 345.8094Q180.20677 346.325 180.20677 347.02814Q180.20677 347.71564 179.81615 348.325Q179.42552 348.91876 178.69115 349.2625Q177.95677 349.59064 177.0349 349.59064Q175.86302 349.59064 175.06615 349.2625Q174.2849 348.91876 173.83177 348.23126Q173.39427 347.54376 173.37865 346.6844ZM185.69115 347.16876L186.7224 347.3094Q186.55052 348.3719 185.8474 348.98126Q185.14427 349.59064 184.12865 349.59064Q182.8474 349.59064 182.06615 348.7625Q181.30052 347.91876 181.30052 346.35626Q181.30052 345.35626 181.62865 344.60626Q181.9724 343.84064 182.64427 343.46564Q183.33177 343.09064 184.14427 343.09064Q185.14427 343.09064 185.7849 343.60626Q186.44115 344.10626 186.62865 345.0594L185.5974 345.21564Q185.45677 344.59064 185.08177 344.27814Q184.70677 343.95 184.17552 343.95Q183.37865 343.95 182.87865 344.52814Q182.37865 345.09064 182.37865 346.325Q182.37865 347.59064 182.86302 348.15314Q183.3474 348.71564 184.11302 348.71564Q184.73802 348.71564 185.14427 348.34064Q185.56615 347.96564 185.69115 347.16876ZM187.62865 349.45L187.62865 340.85626L188.67552 340.85626L188.67552 343.9344Q189.4099 343.09064 190.5349 343.09064Q191.23802 343.09064 191.73802 343.3719Q192.25365 343.6375 192.4724 344.1219Q192.69115 344.59064 192.69115 345.5125L192.69115 349.45L191.64427 349.45L191.64427 345.5125Q191.64427 344.71564 191.30052 344.35626Q190.95677 343.9969 190.33177 343.9969Q189.86302 343.9969 189.44115 344.2469Q189.0349 344.48126 188.8474 344.90314Q188.67552 345.3094 188.67552 346.04376L188.67552 349.45L187.62865 349.45ZM198.87865 347.45L199.9724 347.575Q199.7224 348.52814 199.01927 349.0594Q198.31615 349.59064 197.23802 349.59064Q195.87865 349.59064 195.06615 348.7469Q194.26927 347.90314 194.26927 346.3875Q194.26927 344.825 195.08177 343.96564Q195.89427 343.09064 197.17552 343.09064Q198.42552 343.09064 199.20677 343.9344Q200.00365 344.77814 200.00365 346.325Q200.00365 346.41876 200.00365 346.60626L195.36302 346.60626Q195.42552 347.6375 195.94115 348.1844Q196.45677 348.71564 197.23802 348.71564Q197.81615 348.71564 198.2224 348.41876Q198.64427 348.10626 198.87865 347.45ZM195.42552 345.7469L198.89427 345.7469Q198.83177 344.95 198.50365 344.5594Q197.98802 343.95 197.19115 343.95Q196.45677 343.95 195.95677 344.4344Q195.4724 344.91876 195.42552 345.7469ZM201.62865 349.45L201.62865 343.23126L202.56615 343.23126L202.56615 344.10626Q202.86302 343.6375 203.3474 343.3719Q203.83177 343.09064 204.45677 343.09064Q205.14427 343.09064 205.58177 343.3719Q206.0349 343.65314 206.20677 344.16876Q206.95677 343.09064 208.12865 343.09064Q209.06615 343.09064 209.55052 343.60626Q210.05052 344.10626 210.05052 345.1844L210.05052 349.45L209.00365 349.45L209.00365 345.52814Q209.00365 344.90314 208.89427 344.6219Q208.80052 344.34064 208.5349 344.16876Q208.26927 343.9969 207.89427 343.9969Q207.23802 343.9969 206.80052 344.4344Q206.37865 344.8719 206.37865 345.84064L206.37865 349.45L205.31615 349.45L205.31615 345.40314Q205.31615 344.7 205.05052 344.35626Q204.80052 343.9969 204.2224 343.9969Q203.76927 343.9969 203.39427 344.23126Q203.01927 344.46564 202.8474 344.91876Q202.67552 345.3719 202.67552 346.21564L202.67552 349.45L201.62865 349.45ZM216.69115 348.6844Q216.0974 349.1844 215.55052 349.3875Q215.01927 349.59064 214.39427 349.59064Q213.36302 349.59064 212.81615 349.09064Q212.26927 348.59064 212.26927 347.8094Q212.26927 347.35626 212.4724 346.98126Q212.67552 346.59064 213.01927 346.3719Q213.36302 346.1375 213.7849 346.02814Q214.08177 345.9344 214.7224 345.85626Q215.98802 345.71564 216.5974 345.4969Q216.5974 345.27814 216.5974 345.23126Q216.5974 344.575 216.30052 344.3094Q215.89427 343.96564 215.0974 343.96564Q214.36302 343.96564 214.00365 344.23126Q213.64427 344.48126 213.4724 345.1375L212.44115 344.9969Q212.58177 344.34064 212.9099 343.9344Q213.23802 343.52814 213.8474 343.3094Q214.45677 343.09064 215.25365 343.09064Q216.05052 343.09064 216.55052 343.27814Q217.05052 343.46564 217.2849 343.7469Q217.51927 344.02814 217.61302 344.46564Q217.6599 344.73126 217.6599 345.4344L217.6599 346.84064Q217.6599 348.3094 217.7224 348.7Q217.80052 349.09064 218.00365 349.45L216.89427 349.45Q216.73802 349.1219 216.69115 348.6844ZM216.5974 346.325Q216.01927 346.5594 214.87865 346.73126Q214.2224 346.825 213.95677 346.95Q213.69115 347.0594 213.5349 347.27814Q213.39427 347.4969 213.39427 347.77814Q213.39427 348.2 213.70677 348.48126Q214.0349 348.7625 214.64427 348.7625Q215.25365 348.7625 215.7224 348.4969Q216.20677 348.23126 216.42552 347.7625Q216.5974 347.40314 216.5974 346.71564L216.5974 346.325ZM219.81615 349.45L219.81615 340.85626L225.61302 340.85626L225.61302 341.8719L220.95677 341.8719L220.95677 344.52814L224.98802 344.52814L224.98802 345.54376L220.95677 345.54376L220.95677 349.45L219.81615 349.45ZM226.61302 349.45L226.61302 343.23126L227.56615 343.23126L227.56615 344.16876Q227.92552 343.5125 228.2224 343.3094Q228.5349 343.09064 228.9099 343.09064Q229.44115 343.09064 229.98802 343.41876L229.62865 344.40314Q229.23802 344.16876 228.86302 344.16876Q228.50365 344.16876 228.2224 344.3875Q227.95677 344.59064 227.8474 344.96564Q227.6599 345.52814 227.6599 346.1844L227.6599 349.45L226.61302 349.45ZM230.62865 342.075L230.62865 340.85626L231.69115 340.85626L231.69115 342.075L230.62865 342.075ZM230.62865 349.45L230.62865 343.23126L231.69115 343.23126L231.69115 349.45L230.62865 349.45ZM237.87865 347.45L238.9724 347.575Q238.7224 348.52814 238.01927 349.0594Q237.31615 349.59064 236.23802 349.59064Q234.87865 349.59064 234.06615 348.7469Q233.26927 347.90314 233.26927 346.3875Q233.26927 344.825 234.08177 343.96564Q234.89427 343.09064 236.17552 343.09064Q237.42552 343.09064 238.20677 343.9344Q239.00365 344.77814 239.00365 346.325Q239.00365 346.41876 239.00365 346.60626L234.36302 346.60626Q234.42552 347.6375 234.94115 348.1844Q235.45677 348.71564 236.23802 348.71564Q236.81615 348.71564 237.2224 348.41876Q237.64427 348.10626 237.87865 347.45ZM234.42552 345.7469L237.89427 345.7469Q237.83177 344.95 237.50365 344.5594Q236.98802 343.95 236.19115 343.95Q235.45677 343.95 234.95677 344.4344Q234.4724 344.91876 234.42552 345.7469ZM240.62865 349.45L240.62865 343.23126L241.56615 343.23126L241.56615 344.10626Q242.25365 343.09064 243.55052 343.09064Q244.11302 343.09064 244.58177 343.29376Q245.06615 343.4969 245.30052 343.825Q245.5349 344.15314 245.62865 344.59064Q245.67552 344.8875 245.67552 345.6219L245.67552 349.45L244.62865 349.45L244.62865 345.66876Q244.62865 345.0125 244.50365 344.7Q244.37865 344.3875 244.06615 344.2Q243.75365 343.9969 243.33177 343.9969Q242.6599 343.9969 242.1599 344.4344Q241.67552 344.85626 241.67552 346.04376L241.67552 349.45L240.62865 349.45ZM251.6599 349.45L251.6599 348.66876Q251.06615 349.59064 249.92552 349.59064Q249.17552 349.59064 248.55052 349.1844Q247.92552 348.7625 247.58177 348.02814Q247.23802 347.29376 247.23802 346.34064Q247.23802 345.41876 247.55052 344.65314Q247.86302 343.8875 248.48802 343.4969Q249.11302 343.09064 249.87865 343.09064Q250.44115 343.09064 250.87865 343.325Q251.31615 343.5594 251.5974 343.9344L251.5974 340.85626L252.64427 340.85626L252.64427 349.45L251.6599 349.45ZM248.33177 346.34064Q248.33177 347.54376 248.83177 348.1375Q249.33177 348.71564 250.01927 348.71564Q250.70677 348.71564 251.19115 348.15314Q251.67552 347.59064 251.67552 346.4344Q251.67552 345.15314 251.17552 344.5594Q250.69115 343.96564 249.9724 343.96564Q249.26927 343.96564 248.80052 344.54376Q248.33177 345.10626 248.33177 346.34064Z" fill-rule="nonzero"/><path fill="#000000" d="M296.84375 347.0125L297.875 346.8719Q297.90625 347.85626 298.23438 348.21564Q298.5625 348.575 299.15625 348.575Q299.57812 348.575 299.89062 348.3875Q300.20312 348.1844 300.3125 347.85626Q300.4375 347.5125 300.4375 346.77814L300.4375 340.85626L301.5625 340.85626L301.5625 346.71564Q301.5625 347.79376 301.29688 348.3875Q301.04688 348.98126 300.48438 349.29376Q299.92188 349.59064 299.15625 349.59064Q298.03125 349.59064 297.42188 348.95Q296.82812 348.29376 296.84375 347.0125ZM307.375 349.45L307.375 348.52814Q306.64062 349.59064 305.39062 349.59064Q304.84375 349.59064 304.35938 349.3875Q303.89062 349.16876 303.65625 348.85626Q303.42188 348.52814 303.32812 348.0594Q303.26562 347.7625 303.26562 347.075L303.26562 343.23126L304.32812 343.23126L304.32812 346.6844Q304.32812 347.4969 304.39062 347.79376Q304.48438 348.2 304.79688 348.45Q305.125 348.6844 305.60938 348.6844Q306.07812 348.6844 306.48438 348.45Q306.90625 348.2 307.07812 347.77814Q307.26562 347.35626 307.26562 346.5594L307.26562 343.23126L308.3125 343.23126L308.3125 349.45L307.375 349.45ZM309.875 347.59064L310.90625 347.4344Q311.0 348.0594 311.39062 348.3875Q311.79688 348.71564 312.53125 348.71564Q313.25 348.71564 313.59375 348.4344Q313.95312 348.1375 313.95312 347.73126Q313.95312 347.3719 313.64062 347.16876Q313.42188 347.02814 312.5625 346.8094Q311.40625 346.5125 310.95312 346.3094Q310.51562 346.09064 310.28125 345.71564Q310.04688 345.34064 310.04688 344.8719Q310.04688 344.46564 310.23438 344.10626Q310.42188 343.7469 310.75 343.5125Q311.0 343.34064 311.42188 343.21564Q311.84375 343.09064 312.34375 343.09064Q313.0625 343.09064 313.60938 343.3094Q314.17188 343.5125 314.4375 343.8719Q314.70312 344.23126 314.79688 344.825L313.76562 344.96564Q313.70312 344.4969 313.35938 344.23126Q313.03125 343.95 312.40625 343.95Q311.6875 343.95 311.375 344.2Q311.0625 344.4344 311.0625 344.7625Q311.0625 344.96564 311.1875 345.1219Q311.32812 345.29376 311.59375 345.40314Q311.75 345.46564 312.53125 345.66876Q313.65625 345.98126 314.09375 346.16876Q314.53125 346.35626 314.78125 346.71564Q315.03125 347.075 315.03125 347.6219Q315.03125 348.15314 314.71875 348.6219Q314.42188 349.075 313.84375 349.34064Q313.26562 349.59064 312.53125 349.59064Q311.3125 349.59064 310.67188 349.09064Q310.04688 348.575 309.875 347.59064ZM319.59375 348.5125L319.75 349.4344Q319.29688 349.52814 318.95312 349.52814Q318.375 349.52814 318.0625 349.35626Q317.75 349.16876 317.60938 348.8719Q317.48438 348.575 317.48438 347.6219L317.48438 344.04376L316.71875 344.04376L316.71875 343.23126L317.48438 343.23126L317.48438 341.6844L318.53125 341.0594L318.53125 343.23126L319.59375 343.23126L319.59375 344.04376L318.53125 344.04376L318.53125 347.6844Q318.53125 348.1375 318.57812 348.2625Q318.64062 348.3875 318.76562 348.46564Q318.89062 348.54376 319.125 348.54376Q319.3125 348.54376 319.59375 348.5125ZM320.29688 342.075L320.29688 340.85626L321.35938 340.85626L321.35938 342.075L320.29688 342.075ZM320.29688 349.45L320.29688 343.23126L321.35938 343.23126L321.35938 349.45L320.29688 349.45ZM323.54688 349.45L323.54688 344.04376L322.60938 344.04376L322.60938 343.23126L323.54688 343.23126L323.54688 342.5594Q323.54688 341.9344 323.65625 341.6375Q323.8125 341.21564 324.1875 340.96564Q324.57812 340.71564 325.26562 340.71564Q325.71875 340.71564 326.25 340.825L326.09375 341.73126Q325.76562 341.6844 325.46875 341.6844Q324.98438 341.6844 324.78125 341.8875Q324.59375 342.09064 324.59375 342.65314L324.59375 343.23126L325.8125 343.23126L325.8125 344.04376L324.59375 344.04376L324.59375 349.45L323.54688 349.45ZM326.25 351.84064L326.125 350.85626Q326.46875 350.95 326.73438 350.95Q327.07812 350.95 327.28125 350.825Q327.5 350.71564 327.64062 350.5125Q327.73438 350.34064 327.96875 349.71564Q327.98438 349.6375 328.0625 349.46564L325.6875 343.23126L326.82812 343.23126L328.125 346.825Q328.375 347.5125 328.57812 348.27814Q328.76562 347.54376 329.01562 346.85626L330.34375 343.23126L331.39062 343.23126L329.03125 349.5594Q328.64062 350.575 328.4375 350.96564Q328.15625 351.4969 327.78125 351.73126Q327.42188 351.98126 326.92188 351.98126Q326.625 351.98126 326.25 351.84064Z" fill-rule="nonzero"/><path fill="#000000" d="M404.0432 349.45L400.7151 340.85626L401.94946 340.85626L404.18384 347.10626Q404.44946 347.85626 404.63696 348.5125Q404.8401 347.8094 405.1057 347.10626L407.4182 340.85626L408.57446 340.85626L405.2151 349.45L404.0432 349.45ZM412.7151 347.45L413.80884 347.575Q413.55884 348.52814 412.8557 349.0594Q412.1526 349.59064 411.07446 349.59064Q409.7151 349.59064 408.9026 348.7469Q408.1057 347.90314 408.1057 346.3875Q408.1057 344.825 408.9182 343.96564Q409.7307 343.09064 411.01196 343.09064Q412.26196 343.09064 413.0432 343.9344Q413.8401 344.77814 413.8401 346.325Q413.8401 346.41876 413.8401 346.60626L409.19946 346.60626Q409.26196 347.6375 409.7776 348.1844Q410.2932 348.71564 411.07446 348.71564Q411.6526 348.71564 412.05884 348.41876Q412.4807 348.10626 412.7151 347.45ZM409.26196 345.7469L412.7307 345.7469Q412.6682 344.95 412.3401 344.5594Q411.82446 343.95 411.0276 343.95Q410.2932 343.95 409.7932 344.4344Q409.30884 344.91876 409.26196 345.7469ZM415.44946 349.45L415.44946 343.23126L416.4026 343.23126L416.4026 344.16876Q416.76196 343.5125 417.05884 343.3094Q417.37134 343.09064 417.74634 343.09064Q418.2776 343.09064 418.82446 343.41876L418.4651 344.40314Q418.07446 344.16876 417.69946 344.16876Q417.3401 344.16876 417.05884 344.3875Q416.7932 344.59064 416.68384 344.96564Q416.49634 345.52814 416.49634 346.1844L416.49634 349.45L415.44946 349.45ZM421.76196 348.5125L421.9182 349.4344Q421.4651 349.52814 421.12134 349.52814Q420.5432 349.52814 420.2307 349.35626Q419.9182 349.16876 419.7776 348.8719Q419.6526 348.575 419.6526 347.6219L419.6526 344.04376L418.88696 344.04376L418.88696 343.23126L419.6526 343.23126L419.6526 341.6844L420.69946 341.0594L420.69946 343.23126L421.76196 343.23126L421.76196 344.04376L420.69946 344.04376L420.69946 347.6844Q420.69946 348.1375 420.74634 348.2625Q420.80884 348.3875 420.93384 348.46564Q421.05884 348.54376 421.2932 348.54376Q421.4807 348.54376 421.76196 348.5125ZM421.76196 349.45L424.0276 346.21564L421.93384 343.23126L423.24634 343.23126L424.19946 344.6844Q424.4651 345.10626 424.63696 345.3875Q424.88696 344.9969 425.1057 344.7L426.1526 343.23126L427.4182 343.23126L425.26196 346.15314L427.57446 349.45L426.2932 349.45L425.01196 347.5125L424.6682 346.9969L423.0276 349.45L421.76196 349.45Z" fill-rule="nonzero"/><path fill="#000000" d="M486.25833 349.45L486.25833 340.85626L487.41458 340.85626L491.9302 347.60626L491.9302 340.85626L493.02396 340.85626L493.02396 349.45L491.85208 349.45L487.33646 342.7L487.33646 349.45L486.25833 349.45ZM499.38333 347.45L500.47708 347.575Q500.22708 348.52814 499.52396 349.0594Q498.82083 349.59064 497.7427 349.59064Q496.38333 349.59064 495.57083 348.7469Q494.77396 347.90314 494.77396 346.3875Q494.77396 344.825 495.58646 343.96564Q496.39896 343.09064 497.6802 343.09064Q498.9302 343.09064 499.71146 343.9344Q500.50833 344.77814 500.50833 346.325Q500.50833 346.41876 500.50833 346.60626L495.8677 346.60626Q495.9302 347.6375 496.44583 348.1844Q496.96146 348.71564 497.7427 348.71564Q498.32083 348.71564 498.72708 348.41876Q499.14896 348.10626 499.38333 347.45ZM495.9302 345.7469L499.39896 345.7469Q499.33646 344.95 499.00833 344.5594Q498.4927 343.95 497.69583 343.95Q496.96146 343.95 496.46146 344.4344Q495.97708 344.91876 495.9302 345.7469ZM504.4302 348.5125L504.58646 349.4344Q504.13333 349.52814 503.78958 349.52814Q503.21146 349.52814 502.89896 349.35626Q502.58646 349.16876 502.44583 348.8719Q502.32083 348.575 502.32083 347.6219L502.32083 344.04376L501.5552 344.04376L501.5552 343.23126L502.32083 343.23126L502.32083 341.6844L503.3677 341.0594L503.3677 343.23126L504.4302 343.23126L504.4302 344.04376L503.3677 344.04376L503.3677 347.6844Q503.3677 348.1375 503.41458 348.2625Q503.47708 348.3875 503.60208 348.46564Q503.72708 348.54376 503.96146 348.54376Q504.14896 348.54376 504.4302 348.5125ZM506.27396 349.45L504.3677 343.23126L505.46146 343.23126L506.44583 346.825L506.82083 348.15314Q506.85208 348.0594 507.14896 346.8719L508.13333 343.23126L509.21146 343.23126L510.14896 346.84064L510.46146 348.02814L510.82083 346.825L511.88333 343.23126L512.91455 343.23126L510.96146 349.45L509.8677 349.45L508.88333 345.71564L508.63333 344.66876L507.38333 349.45L506.27396 349.45ZM513.7427 346.34064Q513.7427 344.60626 514.6958 343.77814Q515.4927 343.09064 516.6489 343.09064Q517.9302 343.09064 518.7427 343.9344Q519.5708 344.7625 519.5708 346.2469Q519.5708 347.45 519.2114 348.1375Q518.85205 348.825 518.1489 349.21564Q517.4614 349.59064 516.6489 349.59064Q515.35205 349.59064 514.53955 348.7625Q513.7427 347.91876 513.7427 346.34064ZM514.8208 346.34064Q514.8208 347.52814 515.3364 348.1219Q515.8677 348.71564 516.6489 348.71564Q517.4458 348.71564 517.9614 348.1219Q518.47705 347.52814 518.47705 346.3094Q518.47705 345.15314 517.9458 344.5594Q517.4302 343.96564 516.6489 343.96564Q515.8677 343.96564 515.3364 344.5594Q514.8208 345.1375 514.8208 346.34064ZM521.1177 349.45L521.1177 343.23126L522.0708 343.23126L522.0708 344.16876Q522.4302 343.5125 522.72705 343.3094Q523.03955 343.09064 523.41455 343.09064Q523.9458 343.09064 524.4927 343.41876L524.1333 344.40314Q523.7427 344.16876 523.3677 344.16876Q523.0083 344.16876 522.72705 344.3875Q522.4614 344.59064 522.35205 344.96564Q522.16455 345.52814 522.16455 346.1844L522.16455 349.45L521.1177 349.45ZM525.1333 349.45L525.1333 340.85626L526.1958 340.85626L526.1958 345.7625L528.6802 343.23126L530.0552 343.23126L527.66455 345.52814L530.28955 349.45L528.9927 349.45L526.9302 346.2625L526.1958 346.98126L526.1958 349.45L525.1333 349.45ZM531.2583 349.45L531.2583 340.85626L532.41455 340.85626L536.9302 347.60626L536.9302 340.85626L538.0239 340.85626L538.0239 349.45L536.85205 349.45L532.3364 342.7L532.3364 349.45L531.2583 349.45ZM542.4302 348.5125L542.5864 349.4344Q542.1333 349.52814 541.78955 349.52814Q541.2114 349.52814 540.8989 349.35626Q540.5864 349.16876 540.4458 348.8719Q540.3208 348.575 540.3208 347.6219L540.3208 344.04376L539.5552 344.04376L539.5552 343.23126L540.3208 343.23126L540.3208 341.6844L541.3677 341.0594L541.3677 343.23126L542.4302 343.23126L542.4302 344.04376L541.3677 344.04376L541.3677 347.6844Q541.3677 348.1375 541.41455 348.2625Q541.47705 348.3875 541.60205 348.46564Q541.72705 348.54376 541.9614 348.54376Q542.1489 348.54376 542.4302 348.5125Z" fill-rule="nonzero"/><path fill="#999999" d="M22.175 63.05L22.175 54.20625L18.878124 54.20625L18.878124 53.034374L26.815624 53.034374L26.815624 54.20625L23.503124 54.20625L23.503124 63.05L22.175 63.05ZM28.4875 54.440624L28.4875 53.034374L29.70625 53.034374L29.70625 54.440624L28.4875 54.440624ZM28.4875 63.05L28.4875 55.784374L29.70625 55.784374L29.70625 63.05L28.4875 63.05ZM31.471874 63.05L31.471874 55.784374L32.58125 55.784374L32.58125 56.815624Q32.909374 56.26875 33.471874 55.95625Q34.05 55.628124 34.76875 55.628124Q35.58125 55.628124 36.096874 55.971874Q36.6125 56.3 36.83125 56.89375Q37.690624 55.628124 39.065624 55.628124Q40.14375 55.628124 40.721874 56.221874Q41.315624 56.815624 41.315624 58.065624L41.315624 63.05L40.08125 63.05L40.08125 58.471874Q40.08125 57.7375 39.95625 57.409374Q39.846874 57.08125 39.534374 56.89375Q39.221874 56.690624 38.8 56.690624Q38.034374 56.690624 37.51875 57.20625Q37.01875 57.70625 37.01875 58.83125L37.01875 63.05L35.784374 63.05L35.784374 58.33125Q35.784374 57.51875 35.4875 57.1125Q35.190624 56.690624 34.503124 56.690624Q33.9875 56.690624 33.534374 56.971874Q33.096874 57.2375 32.89375 57.76875Q32.70625 58.284374 32.70625 59.284374L32.70625 63.05L31.471874 63.05ZM47.440624 60.70625L48.721874 60.8625Q48.409374 61.9875 47.596874 62.6125Q46.784374 63.221874 45.51875 63.221874Q43.925 63.221874 42.9875 62.2375Q42.065624 61.253124 42.065624 59.4875Q42.065624 57.64375 43.003124 56.64375Q43.95625 55.628124 45.45625 55.628124Q46.909374 55.628124 47.83125 56.628124Q48.753124 57.6125 48.753124 59.409374Q48.753124 59.51875 48.753124 59.7375L43.33125 59.7375Q43.409374 60.925 44.003124 61.565624Q44.6125 62.20625 45.534374 62.20625Q46.20625 62.20625 46.675 61.846874Q47.159374 61.4875 47.440624 60.70625ZM43.409374 58.721874L47.45625 58.721874Q47.378124 57.8 46.9875 57.346874Q46.409374 56.64375 45.471874 56.64375Q44.6125 56.64375 44.034374 57.20625Q43.471874 57.76875 43.409374 58.721874ZM57.159374 61.95625L57.33125 63.034374Q56.815624 63.14375 56.409374 63.14375Q55.7375 63.14375 55.3625 62.940624Q55.003124 62.721874 54.846874 62.378124Q54.70625 62.034374 54.70625 60.925L54.70625 56.753124L53.8 56.753124L53.8 55.784374L54.70625 55.784374L54.70625 53.9875L55.925 53.253124L55.925 55.784374L57.159374 55.784374L57.159374 56.753124L55.925 56.753124L55.925 60.9875Q55.925 61.51875 55.9875 61.675Q56.05 61.815624 56.190624 61.909374Q56.346874 62.003124 56.6125 62.003124Q56.83125 62.003124 57.159374 61.95625ZM58.01875 59.425Q58.01875 57.409374 59.14375 56.425Q60.065624 55.628124 61.425 55.628124Q62.909374 55.628124 63.8625 56.6125Q64.81563 57.58125 64.81563 59.315624Q64.81563 60.721874 64.39375 61.534374Q63.971874 62.33125 63.159374 62.784374Q62.3625 63.221874 61.425 63.221874Q59.89375 63.221874 58.95625 62.2375Q58.01875 61.253124 58.01875 59.425ZM59.284374 59.425Q59.284374 60.815624 59.89375 61.51875Q60.503124 62.20625 61.425 62.20625Q62.33125 62.20625 62.940624 61.503124Q63.55 60.8 63.55 59.378124Q63.55 58.034374 62.940624 57.346874Q62.33125 56.64375 61.425 56.64375Q60.503124 56.64375 59.89375 57.33125Q59.284374 58.01875 59.284374 59.425ZM72.4875 63.05L69.72188 55.784374L71.03438 55.784374L72.58125 60.14375Q72.83125 60.846874 73.05 61.596874Q73.22188 61.01875 73.50313 60.221874L75.12813 55.784374L76.39375 55.784374L73.64375 63.05L72.4875 63.05ZM82.20625 62.159374Q81.53438 62.7375 80.89375 62.9875Q80.26875 63.221874 79.53438 63.221874Q78.34688 63.221874 77.69063 62.64375Q77.05 62.05 77.05 61.128124Q77.05 60.596874 77.28438 60.159374Q77.53438 59.721874 77.925 59.45625Q78.33125 59.190624 78.81563 59.05Q79.175 58.95625 79.90938 58.8625Q81.40938 58.690624 82.1125 58.440624Q82.1125 58.190624 82.1125 58.128124Q82.1125 57.3625 81.76875 57.065624Q81.3 56.64375 80.3625 56.64375Q79.50313 56.64375 79.08125 56.95625Q78.675 57.253124 78.47188 58.01875L77.26875 57.8625Q77.425 57.08125 77.8 56.6125Q78.19063 56.14375 78.89375 55.89375Q79.6125 55.628124 80.55 55.628124Q81.47188 55.628124 82.05 55.846874Q82.62813 56.065624 82.89375 56.39375Q83.175 56.721874 83.28438 57.2375Q83.34688 57.55 83.34688 58.3625L83.34688 60.003124Q83.34688 61.721874 83.425 62.175Q83.50313 62.628124 83.7375 63.05L82.45625 63.05Q82.26875 62.659374 82.20625 62.159374ZM82.1125 59.409374Q81.44063 59.675 80.09688 59.878124Q79.34688 59.9875 79.01875 60.128124Q78.70625 60.253124 78.53438 60.51875Q78.3625 60.784374 78.3625 61.096874Q78.3625 61.596874 78.7375 61.925Q79.1125 62.253124 79.83125 62.253124Q80.55 62.253124 81.09688 61.940624Q81.64375 61.628124 81.90938 61.08125Q82.1125 60.675 82.1125 59.8625L82.1125 59.409374ZM85.44063 63.05L85.44063 53.034374L86.675 53.034374L86.675 63.05L85.44063 63.05ZM88.4875 54.440624L88.4875 53.034374L89.70625 53.034374L89.70625 54.440624L88.4875 54.440624ZM88.4875 63.05L88.4875 55.784374L89.70625 55.784374L89.70625 63.05L88.4875 63.05ZM96.19063 63.05L96.19063 62.128124Q95.4875 63.221874 94.15938 63.221874Q93.28438 63.221874 92.55 62.7375Q91.83125 62.253124 91.425 61.39375Q91.03438 60.534374 91.03438 59.425Q91.03438 58.346874 91.39375 57.45625Q91.75313 56.565624 92.47188 56.096874Q93.20625 55.628124 94.09688 55.628124Q94.75313 55.628124 95.26875 55.909374Q95.78438 56.175 96.09688 56.628124L96.09688 53.034374L97.33125 53.034374L97.33125 63.05L96.19063 63.05ZM92.3 59.425Q92.3 60.815624 92.87813 61.51875Q93.47188 62.20625 94.26875 62.20625Q95.08125 62.20625 95.64375 61.55Q96.20625 60.878124 96.20625 59.534374Q96.20625 58.034374 95.62813 57.346874Q95.05 56.64375 94.22188 56.64375Q93.39375 56.64375 92.84688 57.315624Q92.3 57.9875 92.3 59.425ZM104.20625 62.159374Q103.53438 62.7375 102.89375 62.9875Q102.26875 63.221874 101.53438 63.221874Q100.34688 63.221874 99.69063 62.64375Q99.05 62.05 99.05 61.128124Q99.05 60.596874 99.28438 60.159374Q99.53438 59.721874 99.925 59.45625Q100.33125 59.190624 100.81563 59.05Q101.175 58.95625 101.90938 58.8625Q103.40938 58.690624 104.1125 58.440624Q104.1125 58.190624 104.1125 58.128124Q104.1125 57.3625 103.76875 57.065624Q103.3 56.64375 102.3625 56.64375Q101.50313 56.64375 101.08125 56.95625Q100.675 57.253124 100.47188 58.01875L99.26875 57.8625Q99.425 57.08125 99.8 56.6125Q100.19063 56.14375 100.89375 55.89375Q101.6125 55.628124 102.55 55.628124Q103.47188 55.628124 104.05 55.846874Q104.62813 56.065624 104.89375 56.39375Q105.175 56.721874 105.28438 57.2375Q105.34688 57.55 105.34688 58.3625L105.34688 60.003124Q105.34688 61.721874 105.425 62.175Q105.50313 62.628124 105.7375 63.05L104.45625 63.05Q104.26875 62.659374 104.20625 62.159374ZM104.1125 59.409374Q103.44063 59.675 102.09688 59.878124Q101.34688 59.9875 101.01875 60.128124Q100.70625 60.253124 100.53438 60.51875Q100.3625 60.784374 100.3625 61.096874Q100.3625 61.596874 100.7375 61.925Q101.1125 62.253124 101.83125 62.253124Q102.55 62.253124 103.09688 61.940624Q103.64375 61.628124 103.90938 61.08125Q104.1125 60.675 104.1125 59.8625L104.1125 59.409374ZM110.15938 61.95625L110.33125 63.034374Q109.81563 63.14375 109.40938 63.14375Q108.7375 63.14375 108.3625 62.940624Q108.00313 62.721874 107.84688 62.378124Q107.70625 62.034374 107.70625 60.925L107.70625 56.753124L106.8 56.753124L106.8 55.784374L107.70625 55.784374L107.70625 53.9875L108.925 53.253124L108.925 55.784374L110.15938 55.784374L110.15938 56.753124L108.925 56.753124L108.925 60.9875Q108.925 61.51875 108.9875 61.675Q109.05 61.815624 109.19063 61.909374Q109.34688 62.003124 109.6125 62.003124Q109.83125 62.003124 110.15938 61.95625ZM116.44063 60.70625L117.72188 60.8625Q117.40938 61.9875 116.59688 62.6125Q115.78438 63.221874 114.51875 63.221874Q112.925 63.221874 111.9875 62.2375Q111.06563 61.253124 111.06563 59.4875Q111.06563 57.64375 112.00313 56.64375Q112.95625 55.628124 114.45625 55.628124Q115.90938 55.628124 116.83125 56.628124Q117.75313 57.6125 117.75313 59.409374Q117.75313 59.51875 117.75313 59.7375L112.33125 59.7375Q112.40938 60.925 113.00313 61.565624Q113.6125 62.20625 114.53438 62.20625Q115.20625 62.20625 115.675 61.846874Q116.15938 61.4875 116.44063 60.70625ZM112.40938 58.721874L116.45625 58.721874Q116.37813 57.8 115.9875 57.346874Q115.40938 56.64375 114.47188 56.64375Q113.6125 56.64375 113.03438 57.20625Q112.47188 57.76875 112.40938 58.721874ZM123.47188 65.83125L123.47188 55.784374L124.59688 55.784374L124.59688 56.7375Q124.9875 56.175 125.4875 55.909374Q125.9875 55.628124 126.70625 55.628124Q127.62813 55.628124 128.33125 56.1125Q129.05 56.58125 129.40938 57.45625Q129.76875 58.33125 129.76875 59.3625Q129.76875 60.471874 129.3625 61.378124Q128.97188 62.26875 128.20625 62.753124Q127.45625 63.221874 126.6125 63.221874Q126.00313 63.221874 125.50313 62.95625Q125.01875 62.690624 124.70625 62.3L124.70625 65.83125L123.47188 65.83125ZM124.58125 59.45625Q124.58125 60.8625 125.14375 61.534374Q125.72188 62.20625 126.53438 62.20625Q127.34688 62.20625 127.925 61.51875Q128.51875 60.815624 128.51875 59.3625Q128.51875 57.971874 127.94063 57.284374Q127.37813 56.596874 126.58125 56.596874Q125.8 56.596874 125.19063 57.33125Q124.58125 58.065624 124.58125 59.45625ZM136.20625 62.159374Q135.53438 62.7375 134.89375 62.9875Q134.26875 63.221874 133.53438 63.221874Q132.34688 63.221874 131.69063 62.64375Q131.05 62.05 131.05 61.128124Q131.05 60.596874 131.28438 60.159374Q131.53438 59.721874 131.925 59.45625Q132.33125 59.190624 132.81563 59.05Q133.175 58.95625 133.90938 58.8625Q135.40938 58.690624 136.1125 58.440624Q136.1125 58.190624 136.1125 58.128124Q136.1125 57.3625 135.76875 57.065624Q135.3 56.64375 134.3625 56.64375Q133.50313 56.64375 133.08125 56.95625Q132.675 57.253124 132.47188 58.01875L131.26875 57.8625Q131.425 57.08125 131.8 56.6125Q132.19063 56.14375 132.89375 55.89375Q133.6125 55.628124 134.55 55.628124Q135.47188 55.628124 136.05 55.846874Q136.62813 56.065624 136.89375 56.39375Q137.175 56.721874 137.28438 57.2375Q137.34688 57.55 137.34688 58.3625L137.34688 60.003124Q137.34688 61.721874 137.425 62.175Q137.50313 62.628124 137.7375 63.05L136.45625 63.05Q136.26875 62.659374 136.20625 62.159374ZM136.1125 59.409374Q135.44063 59.675 134.09688 59.878124Q133.34688 59.9875 133.01875 60.128124Q132.70625 60.253124 132.53438 60.51875Q132.3625 60.784374 132.3625 61.096874Q132.3625 61.596874 132.7375 61.925Q133.1125 62.253124 133.83125 62.253124Q134.55 62.253124 135.09688 61.940624Q135.64375 61.628124 135.90938 61.08125Q136.1125 60.675 136.1125 59.8625L136.1125 59.409374ZM138.9875 60.878124L140.19063 60.690624Q140.3 61.425 140.76875 61.815624Q141.2375 62.20625 142.08125 62.20625Q142.925 62.20625 143.33125 61.8625Q143.75313 61.51875 143.75313 61.05Q143.75313 60.628124 143.37813 60.39375Q143.12813 60.221874 142.12813 59.971874Q140.76875 59.628124 140.2375 59.378124Q139.72188 59.128124 139.45625 58.690624Q139.19063 58.253124 139.19063 57.721874Q139.19063 57.2375 139.40938 56.83125Q139.62813 56.409374 140.01875 56.128124Q140.3 55.925 140.78438 55.784374Q141.28438 55.628124 141.8625 55.628124Q142.70625 55.628124 143.34688 55.878124Q144.00313 56.1125 144.31563 56.534374Q144.62813 56.95625 144.7375 57.659374L143.53438 57.83125Q143.45625 57.26875 143.05 56.95625Q142.65938 56.64375 141.94063 56.64375Q141.09688 56.64375 140.7375 56.925Q140.37813 57.190624 140.37813 57.58125Q140.37813 57.815624 140.51875 58.003124Q140.675 58.20625 141.00313 58.33125Q141.175 58.39375 142.08125 58.64375Q143.39375 59.003124 143.90938 59.221874Q144.425 59.440624 144.70625 59.8625Q145.00313 60.284374 145.00313 60.909374Q145.00313 61.534374 144.64375 62.08125Q144.3 62.6125 143.6125 62.925Q142.94063 63.221874 142.08125 63.221874Q140.675 63.221874 139.925 62.628124Q139.19063 62.034374 138.9875 60.878124ZM145.9875 60.878124L147.19063 60.690624Q147.3 61.425 147.76875 61.815624Q148.2375 62.20625 149.08125 62.20625Q149.925 62.20625 150.33125 61.8625Q150.75313 61.51875 150.75313 61.05Q150.75313 60.628124 150.37813 60.39375Q150.12813 60.221874 149.12813 59.971874Q147.76875 59.628124 147.2375 59.378124Q146.72188 59.128124 146.45625 58.690624Q146.19063 58.253124 146.19063 57.721874Q146.19063 57.2375 146.40938 56.83125Q146.62813 56.409374 147.01875 56.128124Q147.3 55.925 147.78438 55.784374Q148.28438 55.628124 148.8625 55.628124Q149.70625 55.628124 150.34688 55.878124Q151.00313 56.1125 151.31563 56.534374Q151.62813 56.95625 151.7375 57.659374L150.53438 57.83125Q150.45625 57.26875 150.05 56.95625Q149.65938 56.64375 148.94063 56.64375Q148.09688 56.64375 147.7375 56.925Q147.37813 57.190624 147.37813 57.58125Q147.37813 57.815624 147.51875 58.003124Q147.675 58.20625 148.00313 58.33125Q148.175 58.39375 149.08125 58.64375Q150.39375 59.003124 150.90938 59.221874Q151.425 59.440624 151.70625 59.8625Q152.00313 60.284374 152.00313 60.909374Q152.00313 61.534374 151.64375 62.08125Q151.3 62.6125 150.6125 62.925Q149.94063 63.221874 149.08125 63.221874Q147.675 63.221874 146.925 62.628124Q146.19063 62.034374 145.9875 60.878124ZM153.4875 54.440624L153.4875 53.034374L154.70625 53.034374L154.70625 54.440624L153.4875 54.440624ZM153.4875 63.05L153.4875 55.784374L154.70625 55.784374L154.70625 63.05L153.4875 63.05ZM156.47188 63.05L156.47188 55.784374L157.58125 55.784374L157.58125 56.815624Q158.37813 55.628124 159.89375 55.628124Q160.55 55.628124 161.09688 55.8625Q161.64375 56.096874 161.90938 56.4875Q162.19063 56.8625 162.3 57.39375Q162.37813 57.7375 162.37813 58.58125L162.37813 63.05L161.14375 63.05L161.14375 58.628124Q161.14375 57.878124 161.00313 57.51875Q160.8625 57.14375 160.4875 56.925Q160.12813 56.690624 159.62813 56.690624Q158.84688 56.690624 158.26875 57.190624Q157.70625 57.690624 157.70625 59.08125L157.70625 63.05L156.47188 63.05ZM164.25313 63.659374L165.44063 63.83125Q165.51875 64.37813 165.8625 64.64375Q166.31563 64.97188 167.1125 64.97188Q167.97188 64.97188 168.425 64.62813Q168.89375 64.3 169.06563 63.675Q169.15938 63.3 169.14375 62.096874Q168.34688 63.05 167.14375 63.05Q165.64375 63.05 164.81563 61.971874Q164.00313 60.89375 164.00313 59.378124Q164.00313 58.346874 164.37813 57.471874Q164.75313 56.58125 165.45625 56.1125Q166.175 55.628124 167.14375 55.628124Q168.425 55.628124 169.26875 56.659374L169.26875 55.784374L170.39375 55.784374L170.39375 62.065624Q170.39375 63.76875 170.05 64.47188Q169.70625 65.175 168.95625 65.58125Q168.20625 66.00313 167.1125 66.00313Q165.81563 66.00313 165.01875 65.40938Q164.22188 64.83125 164.25313 63.659374ZM165.26875 59.284374Q165.26875 60.721874 165.83125 61.378124Q166.39375 62.034374 167.25313 62.034374Q168.09688 62.034374 168.675 61.378124Q169.25313 60.721874 169.25313 59.33125Q169.25313 58.003124 168.65938 57.33125Q168.06563 56.64375 167.2375 56.64375Q166.40938 56.64375 165.83125 57.315624Q165.26875 57.971874 165.26875 59.284374ZM179.15938 61.95625L179.33125 63.034374Q178.81563 63.14375 178.40938 63.14375Q177.7375 63.14375 177.3625 62.940624Q177.00313 62.721874 176.84688 62.378124Q176.70625 62.034374 176.70625 60.925L176.70625 56.753124L175.8 56.753124L175.8 55.784374L176.70625 55.784374L176.70625 53.9875L177.925 53.253124L177.925 55.784374L179.15938 55.784374L179.15938 56.753124L177.925 56.753124L177.925 60.9875Q177.925 61.51875 177.9875 61.675Q178.05 61.815624 178.19063 61.909374Q178.34688 62.003124 178.6125 62.003124Q178.83125 62.003124 179.15938 61.95625ZM185.44063 60.70625L186.72188 60.8625Q186.40938 61.9875 185.59688 62.6125Q184.78438 63.221874 183.51875 63.221874Q181.925 63.221874 180.9875 62.2375Q180.06563 61.253124 180.06563 59.4875Q180.06563 57.64375 181.00313 56.64375Q181.95625 55.628124 183.45625 55.628124Q184.90938 55.628124 185.83125 56.628124Q186.75313 57.6125 186.75313 59.409374Q186.75313 59.51875 186.75313 59.7375L181.33125 59.7375Q181.40938 60.925 182.00313 61.565624Q182.6125 62.20625 183.53438 62.20625Q184.20625 62.20625 184.675 61.846874Q185.15938 61.4875 185.44063 60.70625ZM181.40938 58.721874L185.45625 58.721874Q185.37813 57.8 184.9875 57.346874Q184.40938 56.64375 183.47188 56.64375Q182.6125 56.64375 182.03438 57.20625Q181.47188 57.76875 181.40938 58.721874ZM187.9875 60.878124L189.19063 60.690624Q189.3 61.425 189.76875 61.815624Q190.2375 62.20625 191.08125 62.20625Q191.925 62.20625 192.33125 61.8625Q192.75313 61.51875 192.75313 61.05Q192.75313 60.628124 192.37813 60.39375Q192.12813 60.221874 191.12813 59.971874Q189.76875 59.628124 189.2375 59.378124Q188.72188 59.128124 188.45625 58.690624Q188.19063 58.253124 188.19063 57.721874Q188.19063 57.2375 188.40938 56.83125Q188.62813 56.409374 189.01875 56.128124Q189.3 55.925 189.78438 55.784374Q190.28438 55.628124 190.8625 55.628124Q191.70625 55.628124 192.34688 55.878124Q193.00313 56.1125 193.31563 56.534374Q193.62813 56.95625 193.7375 57.659374L192.53438 57.83125Q192.45625 57.26875 192.05 56.95625Q191.65938 56.64375 190.94063 56.64375Q190.09688 56.64375 189.7375 56.925Q189.37813 57.190624 189.37813 57.58125Q189.37813 57.815624 189.51875 58.003124Q189.675 58.20625 190.00313 58.33125Q190.175 58.39375 191.08125 58.64375Q192.39375 59.003124 192.90938 59.221874Q193.425 59.440624 193.70625 59.8625Q194.00313 60.284374 194.00313 60.909374Q194.00313 61.534374 193.64375 62.08125Q193.3 62.6125 192.6125 62.925Q191.94063 63.221874 191.08125 63.221874Q189.675 63.221874 188.925 62.628124Q188.19063 62.034374 187.9875 60.878124ZM198.15938 61.95625L198.33125 63.034374Q197.81563 63.14375 197.40938 63.14375Q196.7375 63.14375 196.3625 62.940624Q196.00313 62.721874 195.84688 62.378124Q195.70625 62.034374 195.70625 60.925L195.70625 56.753124L194.8 56.753124L194.8 55.784374L195.70625 55.784374L195.70625 53.9875L196.925 53.253124L196.925 55.784374L198.15938 55.784374L198.15938 56.753124L196.925 56.753124L196.925 60.9875Q196.925 61.51875 196.9875 61.675Q197.05 61.815624 197.19063 61.909374Q197.34688 62.003124 197.6125 62.003124Q197.83125 62.003124 198.15938 61.95625ZM208.20625 60.39375L209.425 60.55Q209.22188 61.8 208.39375 62.51875Q207.58125 63.221874 206.39375 63.221874Q204.90938 63.221874 204.00313 62.253124Q203.09688 61.26875 203.09688 59.440624Q203.09688 58.26875 203.4875 57.39375Q203.87813 56.503124 204.675 56.065624Q205.47188 55.628124 206.40938 55.628124Q207.58125 55.628124 208.33125 56.221874Q209.09688 56.815624 209.3 57.925L208.1125 58.1125Q207.94063 57.378124 207.50313 57.01875Q207.06563 56.64375 206.45625 56.64375Q205.51875 56.64375 204.94063 57.315624Q204.3625 57.971874 204.3625 59.409374Q204.3625 60.878124 204.925 61.55Q205.4875 62.20625 206.37813 62.20625Q207.1125 62.20625 207.59688 61.76875Q208.08125 61.315624 208.20625 60.39375ZM215.20625 62.159374Q214.53438 62.7375 213.89375 62.9875Q213.26875 63.221874 212.53438 63.221874Q211.34688 63.221874 210.69063 62.64375Q210.05 62.05 210.05 61.128124Q210.05 60.596874 210.28438 60.159374Q210.53438 59.721874 210.925 59.45625Q211.33125 59.190624 211.81563 59.05Q212.175 58.95625 212.90938 58.8625Q214.40938 58.690624 215.1125 58.440624Q215.1125 58.190624 215.1125 58.128124Q215.1125 57.3625 214.76875 57.065624Q214.3 56.64375 213.3625 56.64375Q212.50313 56.64375 212.08125 56.95625Q211.675 57.253124 211.47188 58.01875L210.26875 57.8625Q210.425 57.08125 210.8 56.6125Q211.19063 56.14375 211.89375 55.89375Q212.6125 55.628124 213.55 55.628124Q214.47188 55.628124 215.05 55.846874Q215.62813 56.065624 215.89375 56.39375Q216.175 56.721874 216.28438 57.2375Q216.34688 57.55 216.34688 58.3625L216.34688 60.003124Q216.34688 61.721874 216.425 62.175Q216.50313 62.628124 216.7375 63.05L215.45625 63.05Q215.26875 62.659374 215.20625 62.159374ZM215.1125 59.409374Q214.44063 59.675 213.09688 59.878124Q212.34688 59.9875 212.01875 60.128124Q211.70625 60.253124 211.53438 60.51875Q211.3625 60.784374 211.3625 61.096874Q211.3625 61.596874 211.7375 61.925Q212.1125 62.253124 212.83125 62.253124Q213.55 62.253124 214.09688 61.940624Q214.64375 61.628124 214.90938 61.08125Q215.1125 60.675 215.1125 59.8625L215.1125 59.409374ZM217.9875 60.878124L219.19063 60.690624Q219.3 61.425 219.76875 61.815624Q220.2375 62.20625 221.08125 62.20625Q221.925 62.20625 222.33125 61.8625Q222.75313 61.51875 222.75313 61.05Q222.75313 60.628124 222.37813 60.39375Q222.12813 60.221874 221.12813 59.971874Q219.76875 59.628124 219.2375 59.378124Q218.72188 59.128124 218.45625 58.690624Q218.19063 58.253124 218.19063 57.721874Q218.19063 57.2375 218.40938 56.83125Q218.62813 56.409374 219.01875 56.128124Q219.3 55.925 219.78438 55.784374Q220.28438 55.628124 220.8625 55.628124Q221.70625 55.628124 222.34688 55.878124Q223.00313 56.1125 223.31563 56.534374Q223.62813 56.95625 223.7375 57.659374L222.53438 57.83125Q222.45625 57.26875 222.05 56.95625Q221.65938 56.64375 220.94063 56.64375Q220.09688 56.64375 219.7375 56.925Q219.37813 57.190624 219.37813 57.58125Q219.37813 57.815624 219.51875 58.003124Q219.675 58.20625 220.00313 58.33125Q220.175 58.39375 221.08125 58.64375Q222.39375 59.003124 222.90938 59.221874Q223.425 59.440624 223.70625 59.8625Q224.00313 60.284374 224.00313 60.909374Q224.00313 61.534374 223.64375 62.08125Q223.3 62.6125 222.6125 62.925Q221.94063 63.221874 221.08125 63.221874Q219.675 63.221874 218.925 62.628124Q218.19063 62.034374 217.9875 60.878124ZM230.44063 60.70625L231.72188 60.8625Q231.40938 61.9875 230.59688 62.6125Q229.78438 63.221874 228.51875 63.221874Q226.925 63.221874 225.9875 62.2375Q225.06563 61.253124 225.06563 59.4875Q225.06563 57.64375 226.00313 56.64375Q226.95625 55.628124 228.45625 55.628124Q229.90938 55.628124 230.83125 56.628124Q231.75313 57.6125 231.75313 59.409374Q231.75313 59.51875 231.75313 59.7375L226.33125 59.7375Q226.40938 60.925 227.00313 61.565624Q227.6125 62.20625 228.53438 62.20625Q229.20625 62.20625 229.675 61.846874Q230.15938 61.4875 230.44063 60.70625ZM226.40938 58.721874L230.45625 58.721874Q230.37813 57.8 229.9875 57.346874Q229.40938 56.64375 228.47188 56.64375Q227.6125 56.64375 227.03438 57.20625Q226.47188 57.76875 226.40938 58.721874ZM232.9875 60.878124L234.19063 60.690624Q234.3 61.425 234.76875 61.815624Q235.2375 62.20625 236.08125 62.20625Q236.925 62.20625 237.33125 61.8625Q237.75313 61.51875 237.75313 61.05Q237.75313 60.628124 237.37813 60.39375Q237.12813 60.221874 236.12813 59.971874Q234.76875 59.628124 234.2375 59.378124Q233.72188 59.128124 233.45625 58.690624Q233.19063 58.253124 233.19063 57.721874Q233.19063 57.2375 233.40938 56.83125Q233.62813 56.409374 234.01875 56.128124Q234.3 55.925 234.78438 55.784374Q235.28438 55.628124 235.8625 55.628124Q236.70625 55.628124 237.34688 55.878124Q238.00313 56.1125 238.31563 56.534374Q238.62813 56.95625 238.7375 57.659374L237.53438 57.83125Q237.45625 57.26875 237.05 56.95625Q236.65938 56.64375 235.94063 56.64375Q235.09688 56.64375 234.7375 56.925Q234.37813 57.190624 234.37813 57.58125Q234.37813 57.815624 234.51875 58.003124Q234.675 58.20625 235.00313 58.33125Q235.175 58.39375 236.08125 58.64375Q237.39375 59.003124 237.90938 59.221874Q238.425 59.440624 238.70625 59.8625Q239.00313 60.284374 239.00313 60.909374Q239.00313 61.534374 238.64375 62.08125Q238.3 62.6125 237.6125 62.925Q236.94063 63.221874 236.08125 63.221874Q234.675 63.221874 233.925 62.628124Q233.19063 62.034374 232.9875 60.878124Z" fill-rule="nonzero"/><path fill="#757575" d="M20.096874 37.55L20.096874 23.2375L25.01875 23.2375Q26.690624 23.2375 27.58125 23.440624Q28.8 23.721874 29.675 24.45625Q30.8 25.425 31.3625 26.909374Q31.925 28.39375 31.925 30.315624Q31.925 31.940624 31.55 33.20625Q31.175 34.45625 30.565624 35.284374Q29.971874 36.1125 29.26875 36.596874Q28.565624 37.065624 27.565624 37.315624Q26.565624 37.55 25.253124 37.55L20.096874 37.55ZM21.9875 35.8625L25.05 35.8625Q26.45625 35.8625 27.253124 35.596874Q28.065624 35.33125 28.55 34.846874Q29.221874 34.175 29.596874 33.05Q29.971874 31.909374 29.971874 30.284374Q29.971874 28.034374 29.2375 26.83125Q28.503124 25.628124 27.440624 25.221874Q26.690624 24.925 25.003124 24.925L21.9875 24.925L21.9875 35.8625ZM33.846874 37.55L33.846874 27.175L35.425 27.175L35.425 28.753124Q36.034374 27.64375 36.55 27.3Q37.065624 26.940624 37.675 26.940624Q38.565624 26.940624 39.4875 27.503124L38.878124 29.14375Q38.2375 28.753124 37.596874 28.753124Q37.01875 28.753124 36.55 29.1125Q36.096874 29.45625 35.89375 30.065624Q35.6125 31.003124 35.6125 32.1125L35.6125 37.55L33.846874 37.55ZM47.64375 36.26875Q46.659374 37.096874 45.753124 37.440624Q44.846874 37.784374 43.815624 37.784374Q42.1125 37.784374 41.190624 36.95625Q40.26875 36.1125 40.26875 34.815624Q40.26875 34.05 40.6125 33.425Q40.971874 32.8 41.534374 32.425Q42.096874 32.034374 42.8 31.83125Q43.315624 31.70625 44.3625 31.565624Q46.4875 31.315624 47.4875 30.971874Q47.503124 30.6125 47.503124 30.503124Q47.503124 29.440624 47.003124 28.9875Q46.33125 28.39375 45.003124 28.39375Q43.753124 28.39375 43.159374 28.83125Q42.58125 29.26875 42.3 30.378124L40.58125 30.14375Q40.815624 29.034374 41.346874 28.3625Q41.878124 27.675 42.89375 27.315624Q43.909374 26.940624 45.253124 26.940624Q46.58125 26.940624 47.409374 27.253124Q48.2375 27.565624 48.628124 28.05Q49.01875 28.51875 49.175 29.2375Q49.26875 29.690624 49.26875 30.8625L49.26875 33.20625Q49.26875 35.659374 49.378124 36.315624Q49.4875 36.95625 49.83125 37.55L47.9875 37.55Q47.721874 37.003124 47.64375 36.26875ZM47.4875 32.346874Q46.534374 32.7375 44.6125 33.003124Q43.534374 33.159374 43.08125 33.3625Q42.64375 33.55 42.39375 33.925Q42.14375 34.3 42.14375 34.76875Q42.14375 35.471874 42.675 35.940624Q43.20625 36.409374 44.2375 36.409374Q45.253124 36.409374 46.034374 35.971874Q46.83125 35.51875 47.20625 34.753124Q47.4875 34.14375 47.4875 32.9875L47.4875 32.346874ZM52.284374 37.55L52.284374 28.55L50.7375 28.55L50.7375 27.175L52.284374 27.175L52.284374 26.08125Q52.284374 25.034374 52.471874 24.51875Q52.721874 23.83125 53.3625 23.409374Q54.003124 22.9875 55.159374 22.9875Q55.909374 22.9875 56.8 23.159374L56.534374 24.690624Q55.9875 24.596874 55.503124 24.596874Q54.70625 24.596874 54.3625 24.940624Q54.034374 25.284374 54.034374 26.221874L54.034374 27.175L56.065624 27.175L56.065624 28.55L54.034374 28.55L54.034374 37.55L52.284374 37.55ZM61.70625 35.971874L61.95625 37.534374Q61.221874 37.690624 60.628124 37.690624Q59.675 37.690624 59.14375 37.39375Q58.628124 37.08125 58.409374 36.596874Q58.190624 36.096874 58.190624 34.51875L58.190624 28.55L56.909374 28.55L56.909374 27.175L58.190624 27.175L58.190624 24.6125L59.940624 23.55L59.940624 27.175L61.70625 27.175L61.70625 28.55L59.940624 28.55L59.940624 34.6125Q59.940624 35.3625 60.034374 35.58125Q60.128124 35.784374 60.33125 35.925Q60.55 36.05 60.940624 36.05Q61.221874 36.05 61.70625 35.971874ZM69.50313 25.1125L69.50313 23.425L78.76875 23.425L78.76875 24.784374Q77.39375 26.2375 76.05 28.659374Q74.70625 31.065624 73.9875 33.6125Q73.45625 35.409374 73.3 37.55L71.50313 37.55Q71.53438 35.8625 72.15938 33.471874Q72.8 31.08125 73.9875 28.8625Q75.175 26.628124 76.50313 25.1125L69.50313 25.1125Z" fill-rule="nonzero"/></svg>